<svg id="d8bfffaf-aa16-49cc-bb60-562e99d4bda0" data-name="Layer 1" xmlns="http://www.w3.org/2000/svg" viewBox="0 0 98 98"><title>detalhe-alvo-2</title><circle cx="48.76" cy="49" r="12.05" fill="none" stroke="#fcb84d" stroke-linecap="round" stroke-linejoin="round"/><circle cx="48.76" cy="49" r="21.12" fill="none" stroke="#33c" stroke-linecap="round" stroke-linejoin="round"/><path d="M48.65,90.51h.11A41.51,41.51,0,1,0,7.24,48.9" fill="none" stroke="#33c" stroke-linecap="round" stroke-linejoin="round"/><g opacity="0.2"><path d="M75.44,75.63a37.64,37.64,0,0,0,0-53.17L65,33A22.76,22.76,0,1,1,32.76,65.14L22.27,75.63A37.64,37.64,0,0,0,75.44,75.63Z" fill="#33c"/></g><polyline points="55.76 14.8 56.79 14.8 56.79 23.25 55.76 23.25" fill="none" stroke="#fcb84d" stroke-linecap="round" stroke-linejoin="round"/><path d="M13.86,82l.08.09a48,48,0,1,0,1.85-67.94" fill="none" stroke="#33c" stroke-linecap="round" stroke-linejoin="round"/></svg>