<svg id="af0f0177-1390-4589-976b-e443b312bb50" data-name="Layer 1" xmlns="http://www.w3.org/2000/svg" viewBox="0 0 98 98"><path d="M1.18,45A48,48,0,0,1,45,1.18" fill="none" stroke="#33c" stroke-linecap="round" stroke-linejoin="round"/><path d="M53,1.18A48,48,0,0,1,96.82,45" fill="none" stroke="#33c" stroke-linecap="round" stroke-linejoin="round"/><path d="M1.18,53A48,48,0,0,0,45,96.82" fill="none" stroke="#33c" stroke-linecap="round" stroke-linejoin="round"/><path d="M53,96.82A48,48,0,0,0,96.82,53" fill="none" stroke="#33c" stroke-linecap="round" stroke-linejoin="round"/><path d="M17.13,45A32,32,0,0,1,45,17.13" fill="none" stroke="#33c" stroke-linecap="round" stroke-linejoin="round"/><path d="M53,17.13A32.06,32.06,0,0,1,80.9,45" fill="none" stroke="#33c" stroke-linecap="round" stroke-linejoin="round"/><path d="M17.13,53A32.11,32.11,0,0,0,45,80.89" fill="none" stroke="#33c" stroke-linecap="round" stroke-linejoin="round"/><path d="M53,80.89A32.13,32.13,0,0,0,80.9,53" fill="none" stroke="#33c" stroke-linecap="round" stroke-linejoin="round"/><path d="M64.94,53.11A16.43,16.43,0,0,1,53.12,64.94" fill="none" stroke="#fcb84d" stroke-linecap="round" stroke-linejoin="round"/><path d="M53.11,33.06A16.43,16.43,0,0,1,64.94,44.88" fill="none" stroke="#fcb84d" stroke-linecap="round" stroke-linejoin="round"/><path d="M33.06,53.12A16.43,16.43,0,0,0,44.89,64.94" fill="none" stroke="#fcb84d" stroke-linecap="round" stroke-linejoin="round"/><path d="M44.88,33.06A16.47,16.47,0,0,0,33.06,44.89" fill="none" stroke="#fcb84d" stroke-linecap="round" stroke-linejoin="round"/><line x1="49" y1="90.85" x2="49" y2="86.86" fill="none" stroke="#33c" stroke-linecap="round" stroke-linejoin="round"/><line x1="49" y1="11.14" x2="49" y2="7.15" fill="none" stroke="#33c" stroke-linecap="round" stroke-linejoin="round"/><line x1="11.14" y1="49" x2="7.15" y2="49" fill="none" stroke="#33c" stroke-linecap="round" stroke-linejoin="round"/><line x1="90.85" y1="49" x2="86.86" y2="49" fill="none" stroke="#33c" stroke-linecap="round" stroke-linejoin="round"/></svg>