<svg id="8163b4be-b81c-4f8c-a2a1-60fe9460c7a7" data-name="Layer 1" xmlns="http://www.w3.org/2000/svg" viewBox="0 0 139.25 35.66"><line x1="0.5" y1="29.66" x2="0.5" y2="35.66" fill="none" stroke="#33c" stroke-miterlimit="10"/><line x1="8.18" y1="29.66" x2="8.18" y2="35.66" fill="none" stroke="#33c" stroke-miterlimit="10"/><line x1="15.86" y1="29.66" x2="15.86" y2="35.66" fill="none" stroke="#33c" stroke-miterlimit="10"/><line x1="23.54" y1="29.66" x2="23.54" y2="35.66" fill="none" stroke="#33c" stroke-miterlimit="10"/><line x1="31.22" y1="23.66" x2="31.22" y2="35.66" fill="none" stroke="#33c" stroke-miterlimit="10"/><line x1="38.9" y1="29.66" x2="38.9" y2="35.66" fill="none" stroke="#33c" stroke-miterlimit="10"/><line x1="46.58" y1="29.66" x2="46.58" y2="35.66" fill="none" stroke="#33c" stroke-miterlimit="10"/><line x1="54.26" y1="29.66" x2="54.26" y2="35.66" fill="none" stroke="#33c" stroke-miterlimit="10"/><line x1="61.94" y1="29.66" x2="61.94" y2="35.66" fill="none" stroke="#33c" stroke-miterlimit="10"/><line x1="69.62" y1="23.66" x2="69.62" y2="35.66" fill="none" stroke="#33c" stroke-miterlimit="10"/><line x1="77.3" y1="29.66" x2="77.3" y2="35.66" fill="none" stroke="#33c" stroke-miterlimit="10"/><line x1="84.98" y1="29.66" x2="84.98" y2="35.66" fill="none" stroke="#33c" stroke-miterlimit="10"/><line x1="92.66" y1="29.66" x2="92.66" y2="35.66" fill="none" stroke="#33c" stroke-miterlimit="10"/><line x1="100.34" y1="29.66" x2="100.34" y2="35.66" fill="none" stroke="#33c" stroke-miterlimit="10"/><line x1="108.02" y1="23.66" x2="108.02" y2="35.66" fill="none" stroke="#33c" stroke-miterlimit="10"/><line x1="115.7" y1="29.66" x2="115.7" y2="35.66" fill="none" stroke="#33c" stroke-miterlimit="10"/><line x1="123.39" y1="29.66" x2="123.39" y2="35.66" fill="none" stroke="#33c" stroke-miterlimit="10"/><line x1="131.07" y1="29.66" x2="131.07" y2="35.66" fill="none" stroke="#33c" stroke-miterlimit="10"/><line x1="138.75" y1="29.66" x2="138.75" y2="35.66" fill="none" stroke="#33c" stroke-miterlimit="10"/><path d="M27.09,6.08h.76A1,1,0,0,0,29,5V4.23a1,1,0,0,0-1.1-1.1H27a1,1,0,0,0-1.09,1.1v.42c0,.13-.06.19-.18.19h-.59c-.12,0-.18-.06-.18-.19V4.22a1.87,1.87,0,0,1,.51-1.4,2,2,0,0,1,1.41-.5H28a2,2,0,0,1,1.41.5,1.87,1.87,0,0,1,.51,1.4V5a1.42,1.42,0,0,1-1.07,1.49A1.36,1.36,0,0,1,29.89,8v.82a1.87,1.87,0,0,1-.51,1.4,2,2,0,0,1-1.41.5H26.83a2,2,0,0,1-1.41-.5,1.87,1.87,0,0,1-.51-1.4V8.26c0-.13.06-.19.18-.19h.59c.12,0,.18.06.18.19v.51A1,1,0,0,0,27,9.87h.9A1,1,0,0,0,29,8.77V8a1,1,0,0,0-1.1-1.11h-.76a.16.16,0,0,1-.18-.18V6.26A.16.16,0,0,1,27.09,6.08Z" fill="#33c"/><path d="M34.31,6.1h-1a.74.74,0,0,0-.72.32c-.11.21-.22.32-.34.32H31.7a.17.17,0,0,1-.19-.18V2.5a.17.17,0,0,1,.19-.18H36c.13,0,.19.06.19.18V3c0,.12-.06.18-.19.18H32.46V6a1.07,1.07,0,0,1,1.11-.65h.93a1.9,1.9,0,0,1,1.38.48,1.88,1.88,0,0,1,.48,1.38V8.76a1.94,1.94,0,0,1-.5,1.41,1.91,1.91,0,0,1-1.41.51H33.39A1.91,1.91,0,0,1,32,10.17a1.87,1.87,0,0,1-.52-1.41V8.35c0-.13.06-.19.18-.19h.59c.12,0,.18.06.18.19v.39c0,.76.36,1.13,1.08,1.13h.84a1,1,0,0,0,1.11-1.13V7.3a1.27,1.27,0,0,0-.27-.9A1.11,1.11,0,0,0,34.31,6.1Z" fill="#33c"/><path d="M68.63,10.68h-.55c-.11,0-.17-.06-.17-.18V9H64.3A.24.24,0,0,1,64,8.76V8.44a.86.86,0,0,1,.09-.39l3.17-5.47a.41.41,0,0,1,.39-.26h.84c.2,0,.29.09.29.27V8.2h1c.12,0,.18.05.18.17v.46c0,.13-.06.2-.18.2h-1V10.5A.16.16,0,0,1,68.63,10.68ZM67.91,8.2V3.09L65,8.2Z" fill="#33c"/><path d="M73.92,6.1H73a.75.75,0,0,0-.72.32c-.11.21-.22.32-.33.32h-.6a.17.17,0,0,1-.19-.18V2.5a.17.17,0,0,1,.19-.18h4.3c.13,0,.19.06.19.18V3c0,.12-.06.18-.19.18H72.07V6a1.07,1.07,0,0,1,1.11-.65h.94a1.89,1.89,0,0,1,1.37.48A1.88,1.88,0,0,1,76,7.18V8.76a1.94,1.94,0,0,1-.5,1.41,1.91,1.91,0,0,1-1.41.51H73a1.91,1.91,0,0,1-1.41-.51,1.87,1.87,0,0,1-.52-1.41V8.35c0-.13.06-.19.18-.19h.59c.12,0,.18.06.18.19v.39c0,.76.36,1.13,1.08,1.13H74a1,1,0,0,0,1.1-1.13V7.3a1.27,1.27,0,0,0-.27-.9A1.11,1.11,0,0,0,73.92,6.1Z" fill="#33c"/><path d="M104.83,10.68h-.61c-.14,0-.17-.07-.1-.22l2.82-7.27h-3.46A.16.16,0,0,1,103.3,3V2.5a.16.16,0,0,1,.18-.18h4.29a.16.16,0,0,1,.18.18v.55a.86.86,0,0,1-.1.41l-2.72,7.05A.28.28,0,0,1,104.83,10.68Z" fill="#33c"/><path d="M112.32,10.68h-1.38a1.93,1.93,0,0,1-1.4-.49A1.8,1.8,0,0,1,109,8.82V8a1.54,1.54,0,0,1,.91-1.56A1.5,1.5,0,0,1,109,4.91V4.18a1.8,1.8,0,0,1,.51-1.38,2,2,0,0,1,1.4-.48h1.38a2,2,0,0,1,1.41.48,1.84,1.84,0,0,1,.5,1.38v.73a2,2,0,0,1-.24,1,1.28,1.28,0,0,1-.67.55A1.51,1.51,0,0,1,114.23,8v.78a1.83,1.83,0,0,1-.5,1.37A1.94,1.94,0,0,1,112.32,10.68Zm-1.26-4.59h1.14A1,1,0,0,0,113.3,5V4.24a1,1,0,0,0-1.1-1.09h-1.14A1,1,0,0,0,110,4.24V5C110,5.71,110.33,6.09,111.06,6.09Zm0,3.76h1.14a1,1,0,0,0,1.1-1.09V8a1,1,0,0,0-1.1-1.12h-1.14A1,1,0,0,0,110,8v.78A1,1,0,0,0,111.06,9.85Z" fill="#33c"/></svg>