<svg id="cbd4fc01-8f92-46e1-9daf-dd5bef27c1bd" data-name="Layer 1" xmlns="http://www.w3.org/2000/svg" viewBox="0 0 17.01 80.15"><title>detalhe-ponto-numero</title><path d="M12.67,20.11v.94c0,.12-.07.16-.22.13L4.53,18.91a.28.28,0,0,1-.22-.31V17.3A.28.28,0,0,1,4.53,17l7.92-2.26c.15,0,.22,0,.22.14v.92a.25.25,0,0,1-.05.17.39.39,0,0,1-.17.07l-1.69.49v2.86l1.69.5C12.6,19.91,12.67,20,12.67,20.11ZM5.56,18l4.16,1.14V16.77L5.56,17.93Z" fill="#33c"/><path d="M12.67,9.63v1.25a2.06,2.06,0,0,1-.53,1.5,2,2,0,0,1-1.49.53H6.32a2,2,0,0,1-1.48-.53,2,2,0,0,1-.53-1.5V8.29a.2.2,0,0,1,.22-.22h.68c.14,0,.2.08.2.22V10.7c0,.62.32.93,1,.93H7.49v-2A2,2,0,0,1,8,8.14,2,2,0,0,1,9.51,7.6h1.14a2,2,0,0,1,1.49.54A2,2,0,0,1,12.67,9.63ZM11.56,10.7V9.81a.84.84,0,0,0-1-.93h-1a.84.84,0,0,0-1,.93v1.82h2A.84.84,0,0,0,11.56,10.7Z" fill="#33c"/><path d="M12.67,4.17v.9c0,.16-.08.2-.25.12L5.48,2.4V5.68c0,.15-.08.22-.23.22H4.53a.19.19,0,0,1-.22-.22V1.27c0-.15.07-.23.22-.23h.81a1.53,1.53,0,0,1,.54.14l6.58,2.63A.34.34,0,0,1,12.67,4.17Z" fill="#33c"/><rect x="0.5" y="63.65" width="16" height="16" fill="none" stroke="#33c" stroke-miterlimit="10"/><line x1="8.5" y1="30.65" x2="8.5" y2="63.65" fill="none" stroke="#33c" stroke-miterlimit="10"/><rect x="7.5" y="70.65" width="2" height="2" fill="#512da8" stroke="#33c" stroke-miterlimit="10"/><line x1="0.5" y1="30.65" x2="16.5" y2="30.65" fill="none" stroke="#33c" stroke-miterlimit="10"/></svg>