<svg id="73107633-c455-4ada-87be-96b5f156681d" data-name="Layer 1" xmlns="http://www.w3.org/2000/svg" viewBox="0 0 31.63 454.14"><line x1="20.63" y1="453.64" x2="26.63" y2="453.64" fill="none" stroke="#33c" stroke-miterlimit="10"/><line x1="20.63" y1="445.96" x2="26.63" y2="445.96" fill="none" stroke="#33c" stroke-miterlimit="10"/><line x1="20.63" y1="438.28" x2="26.63" y2="438.28" fill="none" stroke="#33c" stroke-miterlimit="10"/><line x1="20.63" y1="430.6" x2="26.63" y2="430.6" fill="none" stroke="#33c" stroke-miterlimit="10"/><line x1="20.63" y1="422.92" x2="26.63" y2="422.92" fill="none" stroke="#33c" stroke-miterlimit="10"/><line x1="20.63" y1="415.24" x2="26.63" y2="415.24" fill="none" stroke="#33c" stroke-miterlimit="10"/><line x1="20.63" y1="407.56" x2="26.63" y2="407.56" fill="none" stroke="#33c" stroke-miterlimit="10"/><line x1="20.63" y1="399.88" x2="26.63" y2="399.88" fill="none" stroke="#33c" stroke-miterlimit="10"/><line x1="20.63" y1="392.2" x2="26.63" y2="392.2" fill="none" stroke="#33c" stroke-miterlimit="10"/><line x1="17.13" y1="384.52" x2="30.13" y2="384.52" fill="none" stroke="#33c" stroke-miterlimit="10"/><line x1="20.63" y1="376.84" x2="26.63" y2="376.84" fill="none" stroke="#33c" stroke-miterlimit="10"/><line x1="20.63" y1="369.16" x2="26.63" y2="369.16" fill="none" stroke="#33c" stroke-miterlimit="10"/><line x1="20.63" y1="361.48" x2="26.63" y2="361.48" fill="none" stroke="#33c" stroke-miterlimit="10"/><line x1="20.63" y1="353.8" x2="26.63" y2="353.8" fill="none" stroke="#33c" stroke-miterlimit="10"/><line x1="20.63" y1="346.11" x2="26.63" y2="346.11" fill="none" stroke="#33c" stroke-miterlimit="10"/><line x1="20.63" y1="338.43" x2="26.63" y2="338.43" fill="none" stroke="#33c" stroke-miterlimit="10"/><line x1="20.63" y1="330.75" x2="26.63" y2="330.75" fill="none" stroke="#33c" stroke-miterlimit="10"/><line x1="20.63" y1="323.07" x2="26.63" y2="323.07" fill="none" stroke="#33c" stroke-miterlimit="10"/><line x1="17.13" y1="315.39" x2="30.13" y2="315.39" fill="none" stroke="#33c" stroke-miterlimit="10"/><line x1="20.63" y1="307.71" x2="26.63" y2="307.71" fill="none" stroke="#33c" stroke-miterlimit="10"/><line x1="20.63" y1="300.03" x2="26.63" y2="300.03" fill="none" stroke="#33c" stroke-miterlimit="10"/><line x1="20.63" y1="292.35" x2="26.63" y2="292.35" fill="none" stroke="#33c" stroke-miterlimit="10"/><line x1="20.63" y1="284.67" x2="26.63" y2="284.67" fill="none" stroke="#33c" stroke-miterlimit="10"/><line x1="20.63" y1="276.99" x2="26.63" y2="276.99" fill="none" stroke="#33c" stroke-miterlimit="10"/><line x1="20.63" y1="269.31" x2="26.63" y2="269.31" fill="none" stroke="#33c" stroke-miterlimit="10"/><line x1="20.63" y1="261.63" x2="26.63" y2="261.63" fill="none" stroke="#33c" stroke-miterlimit="10"/><line x1="20.63" y1="253.95" x2="26.63" y2="253.95" fill="none" stroke="#33c" stroke-miterlimit="10"/><line x1="17.13" y1="246.27" x2="30.13" y2="246.27" fill="none" stroke="#33c" stroke-miterlimit="10"/><line x1="20.63" y1="238.59" x2="26.63" y2="238.59" fill="none" stroke="#33c" stroke-miterlimit="10"/><line x1="20.63" y1="230.91" x2="26.63" y2="230.91" fill="none" stroke="#33c" stroke-miterlimit="10"/><line x1="20.63" y1="223.23" x2="26.63" y2="223.23" fill="none" stroke="#33c" stroke-miterlimit="10"/><line x1="20.63" y1="215.55" x2="26.63" y2="215.55" fill="none" stroke="#33c" stroke-miterlimit="10"/><line x1="20.63" y1="207.87" x2="26.63" y2="207.87" fill="none" stroke="#33c" stroke-miterlimit="10"/><line x1="20.63" y1="200.19" x2="26.63" y2="200.19" fill="none" stroke="#33c" stroke-miterlimit="10"/><line x1="20.63" y1="192.51" x2="26.63" y2="192.51" fill="none" stroke="#33c" stroke-miterlimit="10"/><line x1="20.63" y1="184.83" x2="26.63" y2="184.83" fill="none" stroke="#33c" stroke-miterlimit="10"/><line x1="17.13" y1="177.15" x2="30.13" y2="177.15" fill="none" stroke="#33c" stroke-miterlimit="10"/><line x1="20.63" y1="169.47" x2="26.63" y2="169.47" fill="none" stroke="#33c" stroke-miterlimit="10"/><line x1="20.63" y1="161.79" x2="26.63" y2="161.79" fill="none" stroke="#33c" stroke-miterlimit="10"/><line x1="20.63" y1="154.11" x2="26.63" y2="154.11" fill="none" stroke="#33c" stroke-miterlimit="10"/><line x1="20.63" y1="146.43" x2="26.63" y2="146.43" fill="none" stroke="#33c" stroke-miterlimit="10"/><line x1="20.63" y1="138.75" x2="26.63" y2="138.75" fill="none" stroke="#33c" stroke-miterlimit="10"/><line x1="20.63" y1="131.07" x2="26.63" y2="131.07" fill="none" stroke="#33c" stroke-miterlimit="10"/><line x1="20.63" y1="123.39" x2="26.63" y2="123.39" fill="none" stroke="#33c" stroke-miterlimit="10"/><line x1="20.63" y1="115.7" x2="26.63" y2="115.7" fill="none" stroke="#33c" stroke-miterlimit="10"/><line x1="17.13" y1="108.02" x2="30.13" y2="108.02" fill="none" stroke="#33c" stroke-miterlimit="10"/><line x1="20.63" y1="100.34" x2="26.63" y2="100.34" fill="none" stroke="#33c" stroke-miterlimit="10"/><line x1="20.63" y1="92.66" x2="26.63" y2="92.66" fill="none" stroke="#33c" stroke-miterlimit="10"/><line x1="20.63" y1="84.98" x2="26.63" y2="84.98" fill="none" stroke="#33c" stroke-miterlimit="10"/><line x1="20.63" y1="77.3" x2="26.63" y2="77.3" fill="none" stroke="#33c" stroke-miterlimit="10"/><line x1="20.63" y1="69.62" x2="26.63" y2="69.62" fill="none" stroke="#33c" stroke-miterlimit="10"/><line x1="20.63" y1="61.94" x2="26.63" y2="61.94" fill="none" stroke="#33c" stroke-miterlimit="10"/><line x1="20.63" y1="54.26" x2="26.63" y2="54.26" fill="none" stroke="#33c" stroke-miterlimit="10"/><line x1="20.63" y1="46.58" x2="26.63" y2="46.58" fill="none" stroke="#33c" stroke-miterlimit="10"/><line x1="15.63" y1="38.9" x2="31.63" y2="38.9" fill="none" stroke="#33c" stroke-miterlimit="10"/><line x1="20.63" y1="31.22" x2="26.63" y2="31.22" fill="none" stroke="#33c" stroke-miterlimit="10"/><line x1="20.63" y1="23.54" x2="26.63" y2="23.54" fill="none" stroke="#33c" stroke-miterlimit="10"/><line x1="20.63" y1="15.86" x2="26.63" y2="15.86" fill="none" stroke="#33c" stroke-miterlimit="10"/><line x1="20.63" y1="8.18" x2="26.63" y2="8.18" fill="none" stroke="#33c" stroke-miterlimit="10"/><line x1="20.63" y1="0.5" x2="26.63" y2="0.5" fill="none" stroke="#33c" stroke-miterlimit="10"/><polygon class="setinha-up-down" points="5.5 227.07 0.5 232.07 0.5 222.07 5.5 227.07" fill="none" stroke="#fff" stroke-miterlimit="10"/></svg>