<svg id="f6bc4d76-f63a-4957-a7ce-fc389fa1815e" data-name="Layer 1" xmlns="http://www.w3.org/2000/svg" viewBox="0 0 46 46"><title>icon-catraca-notificacao</title><path d="M40.13,11.07H25.77a5,5,0,0,0-.88-2.46l-8,5.77a4.86,4.86,0,0,0,3.62,2.08l2.28,13.62A1.16,1.16,0,0,0,24,31l.22,0a1.18,1.18,0,0,0,.91-1.38L22.82,16.08a4.84,4.84,0,0,0,2.59-2.66H40.13a1.18,1.18,0,0,0,0-2.35Z" fill="none" stroke="#4545e6" stroke-miterlimit="10"/><path d="M7.33,43V6.85A4.26,4.26,0,0,1,9.25,3.27L12.9.86A2.16,2.16,0,0,1,14.54.55l8.84,2a2.23,2.23,0,0,1,1.76,2.13h0a2.26,2.26,0,0,1-1,2l-8.76,6.15a2.26,2.26,0,0,0-1,1.89V43Z" fill="none" stroke="#4545e6" stroke-miterlimit="10"/><path d="M15.69,45.5H6A1.26,1.26,0,0,1,6,43h9.72a1.26,1.26,0,0,1,0,2.51Z" fill="none" stroke="#4545e6" stroke-miterlimit="10"/></svg>