<svg id="5caf4f8f-3825-4ba3-b774-5e7830a8945b" data-name="Layer 1" xmlns="http://www.w3.org/2000/svg" xmlns:xlink="http://www.w3.org/1999/xlink" viewBox="0 0 194.19 70.49"><defs><linearGradient id="e25224ad-8015-4d7b-a1cb-34bf54f4e572" x1="96.78" y1="31.22" x2="96.78" gradientUnits="userSpaceOnUse"><stop offset="0" stop-color="#b3b3b3" stop-opacity="0"/><stop offset="0.09" stop-color="#b6b5b3" stop-opacity="0.04"/><stop offset="0.23" stop-color="#bdb9b3" stop-opacity="0.13"/><stop offset="0.4" stop-color="#c8c0b2" stop-opacity="0.29"/><stop offset="0.61" stop-color="#d8c9b1" stop-opacity="0.51"/><stop offset="0.84" stop-color="#ecd6b1" stop-opacity="0.79"/><stop offset="1" stop-color="#fcdfb0"/></linearGradient><radialGradient id="ff4ed196-4f3d-4c60-b069-a1f211977ac4" cx="71.84" cy="1.07" r="107.1" gradientUnits="userSpaceOnUse"><stop offset="0" stop-color="#fce9ca"/><stop offset="0.1" stop-color="#fcd596"/><stop offset="0.19" stop-color="#fcc56e"/><stop offset="0.26" stop-color="#fcbc56"/><stop offset="0.3" stop-color="#fcb84d"/><stop offset="0.34" stop-color="#fcb749" stop-opacity="0.96"/><stop offset="0.57" stop-color="#fcb035" stop-opacity="0.72"/><stop offset="0.76" stop-color="#fbab26" stop-opacity="0.55"/><stop offset="0.91" stop-color="#fba81c" stop-opacity="0.44"/><stop offset="1" stop-color="#fba719" stop-opacity="0.4"/></radialGradient><linearGradient id="8edd670a-fe13-4af0-815c-cfb6c0ea71e6" x1="15.37" y1="64.84" x2="23.62" y2="64.84" gradientUnits="userSpaceOnUse"><stop offset="0" stop-color="#686680"/><stop offset="0.16" stop-color="#77758e"/><stop offset="0.46" stop-color="#9f9eb3"/><stop offset="0.88" stop-color="#dfdfed"/><stop offset="1" stop-color="#f2f2ff"/></linearGradient><linearGradient id="b355cf12-8922-4f2f-9534-4e89918bc9de" x1="13.87" y1="59.18" x2="13.87" y2="45.05" gradientUnits="userSpaceOnUse"><stop offset="0" stop-color="#535266"/><stop offset="1" stop-color="#9390b3"/></linearGradient><linearGradient id="80960c7e-b8d7-48c0-8b65-f45aad4718b4" x1="19.49" y1="70.49" x2="19.49" y2="59.18" gradientUnits="userSpaceOnUse"><stop offset="0" stop-color="#9390b3"/><stop offset="1" stop-color="#3e3e4d"/></linearGradient><linearGradient id="f29f754d-c1fd-4ff1-b5d8-b617de3ee936" x1="17" y1="59.18" x2="17" y2="45.05" gradientUnits="userSpaceOnUse"><stop offset="0" stop-color="#686680"/><stop offset="0.15" stop-color="#77758d"/><stop offset="0.43" stop-color="#9f9eae"/><stop offset="0.82" stop-color="#dfdfe4"/><stop offset="1" stop-color="#fff"/></linearGradient><linearGradient id="3950c7ac-832e-4ecb-8ff5-f6c17fe8208e" x1="15.37" y1="57.02" x2="29.02" y2="57.02" gradientUnits="userSpaceOnUse"><stop offset="0" stop-color="#f2f2ff"/><stop offset="0.12" stop-color="#dfdfed"/><stop offset="0.54" stop-color="#9f9eb3"/><stop offset="0.84" stop-color="#77758e"/><stop offset="1" stop-color="#686680"/></linearGradient><radialGradient id="9413f3c3-9a82-4f41-9c71-fb7c88dcf254" cx="18.15" cy="59.29" r="6.9" xlink:href="#b355cf12-8922-4f2f-9534-4e89918bc9de"/><linearGradient id="2b727830-d873-4ad2-b834-23971ed3de2a" x1="1.73" y1="57.73" x2="15.37" y2="57.73" xlink:href="#80960c7e-b8d7-48c0-8b65-f45aad4718b4"/><linearGradient id="6a8d6c78-6c4f-4516-a366-8ca1043be9d1" x1="1.73" y1="56.95" x2="15.37" y2="56.95" xlink:href="#8edd670a-fe13-4af0-815c-cfb6c0ea71e6"/><linearGradient id="6d7673f1-7caa-4db0-9dea-cc05a4beefbf" x1="6.99" y1="64.84" x2="15.37" y2="64.84" xlink:href="#3950c7ac-832e-4ecb-8ff5-f6c17fe8208e"/><linearGradient id="3bd7e7ab-da3d-401a-a4fc-2f3117c7c79c" x1="6.99" y1="64.84" x2="15.37" y2="64.84" xlink:href="#80960c7e-b8d7-48c0-8b65-f45aad4718b4"/><linearGradient id="7c3f64c3-fd84-44e4-91bc-f48c68c4f9c2" x1="56.66" y1="64.84" x2="64.91" y2="64.84" xlink:href="#8edd670a-fe13-4af0-815c-cfb6c0ea71e6"/><linearGradient id="c46d565f-23fc-4f4b-adae-8a2c1e0906ad" x1="55.16" y1="59.18" x2="55.16" y2="45.05" xlink:href="#b355cf12-8922-4f2f-9534-4e89918bc9de"/><linearGradient id="f6ab1075-7076-453b-b873-34c2bfd83afd" x1="60.79" y1="70.49" x2="60.79" y2="59.18" xlink:href="#80960c7e-b8d7-48c0-8b65-f45aad4718b4"/><linearGradient id="df5b3438-05cf-4426-b105-18493141a131" x1="58.3" y1="59.18" x2="58.3" y2="45.05" xlink:href="#f29f754d-c1fd-4ff1-b5d8-b617de3ee936"/><linearGradient id="703e504a-fa74-4962-af62-583d6a483a3d" x1="56.66" y1="57.02" x2="70.31" y2="57.02" xlink:href="#3950c7ac-832e-4ecb-8ff5-f6c17fe8208e"/><radialGradient id="ab856a77-542e-4778-a91d-0fcee6e559fc" cx="59.44" cy="59.29" r="6.9" xlink:href="#b355cf12-8922-4f2f-9534-4e89918bc9de"/><linearGradient id="63136425-a5f5-41c4-9ead-843fd0fc6da4" x1="43.02" y1="57.73" x2="56.66" y2="57.73" xlink:href="#80960c7e-b8d7-48c0-8b65-f45aad4718b4"/><linearGradient id="b68aaef0-6f3a-4a60-919e-4d46e66c183d" x1="43.02" y1="56.95" x2="56.66" y2="56.95" xlink:href="#8edd670a-fe13-4af0-815c-cfb6c0ea71e6"/><linearGradient id="fbf7830c-2c99-432e-8b45-0f9229bc0e9c" x1="48.28" y1="64.84" x2="56.66" y2="64.84" xlink:href="#3950c7ac-832e-4ecb-8ff5-f6c17fe8208e"/><linearGradient id="b9e67146-2f5e-46f7-9dc2-ceb379a7b8eb" x1="48.28" y1="64.84" x2="56.66" y2="64.84" xlink:href="#80960c7e-b8d7-48c0-8b65-f45aad4718b4"/><linearGradient id="52b50e8e-42be-4515-97b2-d4aad34eb852" x1="97.96" y1="64.84" x2="106.2" y2="64.84" xlink:href="#8edd670a-fe13-4af0-815c-cfb6c0ea71e6"/><linearGradient id="c3972ebc-41e1-4548-9f87-fb697148a165" x1="96.45" y1="59.18" x2="96.45" y2="45.05" xlink:href="#b355cf12-8922-4f2f-9534-4e89918bc9de"/><linearGradient id="2f1b7351-9bd0-4f05-8a1d-8c677e5f6d1e" x1="102.08" y1="70.49" x2="102.08" y2="59.18" xlink:href="#80960c7e-b8d7-48c0-8b65-f45aad4718b4"/><linearGradient id="220cc163-88e9-4482-a97f-0b99a38ec395" x1="99.59" y1="59.18" x2="99.59" y2="45.05" xlink:href="#f29f754d-c1fd-4ff1-b5d8-b617de3ee936"/><linearGradient id="2bc0af18-3b1f-4bd0-842d-95549b072b80" x1="97.96" y1="57.02" x2="111.6" y2="57.02" xlink:href="#3950c7ac-832e-4ecb-8ff5-f6c17fe8208e"/><radialGradient id="79f5e8f2-eb59-4e5b-bbaf-e87ae0c306b3" cx="100.73" cy="59.29" r="6.9" xlink:href="#b355cf12-8922-4f2f-9534-4e89918bc9de"/><linearGradient id="f326e710-3748-439a-88ff-41e7814256d9" x1="84.31" y1="57.73" x2="97.96" y2="57.73" xlink:href="#80960c7e-b8d7-48c0-8b65-f45aad4718b4"/><linearGradient id="4bcb3fda-c2b2-4841-920f-6f8c78f67209" x1="84.31" y1="56.95" x2="97.96" y2="56.95" xlink:href="#8edd670a-fe13-4af0-815c-cfb6c0ea71e6"/><linearGradient id="e66f5a1c-3ab6-443c-9335-088ab9d16840" x1="89.57" y1="64.84" x2="97.96" y2="64.84" xlink:href="#3950c7ac-832e-4ecb-8ff5-f6c17fe8208e"/><linearGradient id="98c047a5-427d-4db4-a03f-c0b7dd01abea" x1="89.57" y1="64.84" x2="97.96" y2="64.84" xlink:href="#80960c7e-b8d7-48c0-8b65-f45aad4718b4"/><linearGradient id="a72522b4-784e-4cc7-966e-87a6f0753ae2" x1="139.25" y1="64.84" x2="147.49" y2="64.84" xlink:href="#8edd670a-fe13-4af0-815c-cfb6c0ea71e6"/><linearGradient id="906aef74-454b-46a9-912a-84a16e60078e" x1="137.74" y1="59.18" x2="137.74" y2="45.05" xlink:href="#b355cf12-8922-4f2f-9534-4e89918bc9de"/><linearGradient id="ffbb1520-dda5-4099-8e88-4507cbec2689" x1="143.37" y1="70.49" x2="143.37" y2="59.18" xlink:href="#80960c7e-b8d7-48c0-8b65-f45aad4718b4"/><linearGradient id="853bc05a-b811-4c0f-8c72-d6d5fbd690ea" x1="140.88" y1="59.18" x2="140.88" y2="45.05" xlink:href="#f29f754d-c1fd-4ff1-b5d8-b617de3ee936"/><linearGradient id="5bea6cec-8ef5-465e-8092-75bb65824c2e" x1="139.25" y1="57.02" x2="152.89" y2="57.02" xlink:href="#3950c7ac-832e-4ecb-8ff5-f6c17fe8208e"/><radialGradient id="546f68df-93f2-4736-9ad6-b6abc1186a5c" cx="142.03" cy="59.29" r="6.9" xlink:href="#b355cf12-8922-4f2f-9534-4e89918bc9de"/><linearGradient id="ebd70d6b-8b57-4be2-a830-08cb27299712" x1="125.6" y1="57.73" x2="139.25" y2="57.73" xlink:href="#80960c7e-b8d7-48c0-8b65-f45aad4718b4"/><linearGradient id="34b75c08-9422-468e-b6fc-8c88f2e9e5dc" x1="125.6" y1="56.95" x2="139.25" y2="56.95" xlink:href="#8edd670a-fe13-4af0-815c-cfb6c0ea71e6"/><linearGradient id="286207ab-4972-4374-99b0-4fc8c6b68d04" x1="130.86" y1="64.84" x2="139.25" y2="64.84" xlink:href="#3950c7ac-832e-4ecb-8ff5-f6c17fe8208e"/><linearGradient id="da7deb2b-534b-47a4-b0ba-3e7b85df6502" x1="130.86" y1="64.84" x2="139.25" y2="64.84" xlink:href="#80960c7e-b8d7-48c0-8b65-f45aad4718b4"/><linearGradient id="8ce19e5a-5f1f-4776-910f-3d6866a97a4f" x1="180.54" y1="64.84" x2="188.78" y2="64.84" xlink:href="#8edd670a-fe13-4af0-815c-cfb6c0ea71e6"/><linearGradient id="e368c368-130e-45d4-945e-6729f0f05d09" x1="179.04" y1="59.18" x2="179.04" y2="45.05" xlink:href="#b355cf12-8922-4f2f-9534-4e89918bc9de"/><linearGradient id="3a3f9126-3c5a-455c-af16-4d5512351190" x1="184.66" y1="70.49" x2="184.66" y2="59.18" xlink:href="#80960c7e-b8d7-48c0-8b65-f45aad4718b4"/><linearGradient id="0eb0bf5b-9454-43bc-8dff-a0c0582df421" x1="182.17" y1="59.18" x2="182.17" y2="45.05" xlink:href="#f29f754d-c1fd-4ff1-b5d8-b617de3ee936"/><linearGradient id="6ac7ad3d-dc63-447c-805b-162ac78eaaf6" x1="180.54" y1="57.02" x2="194.19" y2="57.02" xlink:href="#3950c7ac-832e-4ecb-8ff5-f6c17fe8208e"/><radialGradient id="38492281-6075-4a04-9b99-22d9d7cb3f7e" cx="183.32" cy="59.29" r="6.9" xlink:href="#b355cf12-8922-4f2f-9534-4e89918bc9de"/><linearGradient id="b523ff3f-9e1f-4dc7-a848-ccde5937fa35" x1="166.9" y1="57.73" x2="180.54" y2="57.73" xlink:href="#80960c7e-b8d7-48c0-8b65-f45aad4718b4"/><linearGradient id="36d9434d-3e6c-48ad-9ba8-08635efdbbf2" x1="166.9" y1="56.95" x2="180.54" y2="56.95" xlink:href="#8edd670a-fe13-4af0-815c-cfb6c0ea71e6"/><linearGradient id="83134a38-bc04-4fc1-84ab-cf63543efef4" x1="172.15" y1="64.84" x2="180.54" y2="64.84" xlink:href="#3950c7ac-832e-4ecb-8ff5-f6c17fe8208e"/><linearGradient id="70470d5a-8c85-4ae6-b930-7ff053a1a394" x1="172.15" y1="64.84" x2="180.54" y2="64.84" xlink:href="#80960c7e-b8d7-48c0-8b65-f45aad4718b4"/></defs><title>5-etapas</title><path d="M10.83,14.71h-3a3.15,3.15,0,0,0-1.53.34,1.86,1.86,0,0,0-.8.73c-.36.75-.8,1.12-1.31,1.12H1.12a.74.74,0,0,1-.83-.83V.83A.74.74,0,0,1,1.12,0H17.58c.58,0,.87.28.87.83V3.59c0,.55-.29.83-.87.83H5.05v8.84q.83-2.38,4.08-2.38H12a7.27,7.27,0,0,1,5.35,1.82,7.2,7.2,0,0,1,1.84,5.36V23.7a7.45,7.45,0,0,1-2,5.53,7.47,7.47,0,0,1-5.54,2H7.53a7.45,7.45,0,0,1-5.56-2A7.52,7.52,0,0,1,0,23.7V22.43c0-.58.28-.87.83-.87H3.88c.56,0,.83.29.83.87v1.22q0,3.54,3.5,3.54H11q3.6,0,3.6-3.54V18.74a4.56,4.56,0,0,0-.85-3.1A3.78,3.78,0,0,0,10.83,14.71Z" fill="none" stroke-linecap="round" stroke-linejoin="round" stroke-width="1.32" stroke="url(#e25224ad-8015-4d7b-a1cb-34bf54f4e572)"/><path d="M56.91,31.22H41.37a.72.72,0,0,1-.82-.82V.83A.73.73,0,0,1,41.37,0H56.91c.52,0,.78.28.78.83V3.3c0,.55-.26.83-.78.83H45.84c-.39,0-.58.16-.58.48v8.21c0,.32.19.49.58.49h9.37c.58,0,.87.27.87.82v2.48c0,.55-.29.82-.87.82H45.84c-.39,0-.58.16-.58.49v8.64c0,.36.19.54.58.54H56.91c.52,0,.78.27.78.82V30.4C57.69,31,57.43,31.22,56.91,31.22Z" fill="none" stroke-linecap="round" stroke-linejoin="round" stroke-width="1.32" stroke="url(#e25224ad-8015-4d7b-a1cb-34bf54f4e572)"/><path d="M74.34,31.22H71.28c-.58,0-.87-.27-.87-.82V4.61a.43.43,0,0,0-.49-.48H63.81c-.59,0-.88-.28-.88-.83V.83c0-.55.29-.83.88-.83h18c.58,0,.88.28.88.83V3.3c0,.55-.3.83-.88.83H75.7c-.35,0-.53.16-.53.48V30.4A.73.73,0,0,1,74.34,31.22Z" fill="none" stroke-linecap="round" stroke-linejoin="round" stroke-width="1.32" stroke="url(#e25224ad-8015-4d7b-a1cb-34bf54f4e572)"/><path d="M90.51,31.22H87c-.46,0-.62-.27-.49-.82L95,.83A1.09,1.09,0,0,1,96.15,0H101a1.05,1.05,0,0,1,1.17.83l8.45,29.57c.13.55-.05.82-.54.82h-3.45a.8.8,0,0,1-.6-.17,1.28,1.28,0,0,1-.27-.65l-1.84-6.31H93.23L91.39,30.4C91.26,31,91,31.22,90.51,31.22Zm8-26.56L94.2,20.2H103L98.67,4.66Z" fill="none" stroke-linecap="round" stroke-linejoin="round" stroke-width="1.32" stroke="url(#e25224ad-8015-4d7b-a1cb-34bf54f4e572)"/><path d="M121.25,31.22h-3.06a.72.72,0,0,1-.82-.82V.83a.73.73,0,0,1,.82-.83h11.56a7.52,7.52,0,0,1,5.53,2,7.45,7.45,0,0,1,2,5.56v5.05a7.45,7.45,0,0,1-2,5.53,7.45,7.45,0,0,1-5.53,2h-7.09c-.39,0-.58.17-.58.49V30.4A.73.73,0,0,1,121.25,31.22Zm1.36-15.29h6.46q3.45,0,3.45-3.6V7.72q0-3.58-3.45-3.59h-6.46c-.36,0-.53.16-.53.48V15.44C122.08,15.77,122.25,15.93,122.61,15.93Z" fill="none" stroke-linecap="round" stroke-linejoin="round" stroke-width="1.32" stroke="url(#e25224ad-8015-4d7b-a1cb-34bf54f4e572)"/><path d="M146.65,31.22h-3.5c-.45,0-.62-.27-.49-.82L151.11.83A1.09,1.09,0,0,1,152.28,0h4.85a1.05,1.05,0,0,1,1.17.83l8.45,29.57c.13.55-.05.82-.54.82h-3.44a.83.83,0,0,1-.61-.17,1.38,1.38,0,0,1-.27-.65l-1.84-6.31H149.37l-1.85,6.31C147.39,31,147.1,31.22,146.65,31.22Zm8-26.56L150.34,20.2h8.79L154.8,4.66Z" fill="none" stroke-linecap="round" stroke-linejoin="round" stroke-width="1.32" stroke="url(#e25224ad-8015-4d7b-a1cb-34bf54f4e572)"/><path d="M172.92,23.65V22.39a.73.73,0,0,1,.82-.83h3.11a.73.73,0,0,1,.82.83v.87a4,4,0,0,0,.9,2.94,4.13,4.13,0,0,0,3,.9h3.35a4.08,4.08,0,0,0,3-1,4.33,4.33,0,0,0,.92-3.08V22a2.88,2.88,0,0,0-1.19-2.45,6.37,6.37,0,0,0-2.94-1.17c-1.16-.18-2.44-.43-3.83-.75A33.83,33.83,0,0,1,177,16.46a6,6,0,0,1-2.94-2.38,7.78,7.78,0,0,1-1.18-4.47v-2a7.51,7.51,0,0,1,2-5.56,7.49,7.49,0,0,1,5.56-2h5.15a7.58,7.58,0,0,1,5.61,2,7.51,7.51,0,0,1,2,5.56V8.64a.73.73,0,0,1-.82.83h-3.11a.74.74,0,0,1-.83-.83V8a4.1,4.1,0,0,0-.9-3,4.1,4.1,0,0,0-3-.9h-3.06a4,4,0,0,0-3,.94,4.65,4.65,0,0,0-.9,3.23V9.81c0,1.46,1.06,2.44,3.16,3,.94.23,2,.42,3.08.58a27.61,27.61,0,0,1,3.38.73,14.21,14.21,0,0,1,3.11,1.29,5.91,5.91,0,0,1,2.28,2.43,8.26,8.26,0,0,1,.87,3.95v1.9a7.52,7.52,0,0,1-2,5.56,7.54,7.54,0,0,1-5.56,2h-5.44a7.59,7.59,0,0,1-5.58-2A7.42,7.42,0,0,1,172.92,23.65Z" fill="none" stroke-linecap="round" stroke-linejoin="round" stroke-width="1.32" stroke="url(#e25224ad-8015-4d7b-a1cb-34bf54f4e572)"/><path d="M10.83,14.71h-3a3.15,3.15,0,0,0-1.53.34,1.86,1.86,0,0,0-.8.73c-.36.75-.8,1.12-1.31,1.12H1.12a.74.74,0,0,1-.83-.83V.83A.74.74,0,0,1,1.12,0H17.58c.58,0,.87.28.87.83V3.59c0,.55-.29.83-.87.83H5.05v8.84q.83-2.38,4.08-2.38H12a7.27,7.27,0,0,1,5.35,1.82,7.2,7.2,0,0,1,1.84,5.36V23.7a7.45,7.45,0,0,1-2,5.53,7.47,7.47,0,0,1-5.54,2H7.53a7.45,7.45,0,0,1-5.56-2A7.52,7.52,0,0,1,0,23.7V22.43c0-.58.28-.87.83-.87H3.88c.56,0,.83.29.83.87v1.22q0,3.54,3.5,3.54H11q3.6,0,3.6-3.54V18.74a4.56,4.56,0,0,0-.85-3.1A3.78,3.78,0,0,0,10.83,14.71Z" fill="url(#ff4ed196-4f3d-4c60-b069-a1f211977ac4)"/><path d="M56.91,31.22H41.37a.72.72,0,0,1-.82-.82V.83A.73.73,0,0,1,41.37,0H56.91c.52,0,.78.28.78.83V3.3c0,.55-.26.83-.78.83H45.84c-.39,0-.58.16-.58.48v8.21c0,.32.19.49.58.49h9.37c.58,0,.87.27.87.82v2.48c0,.55-.29.82-.87.82H45.84c-.39,0-.58.16-.58.49v8.64c0,.36.19.54.58.54H56.91c.52,0,.78.27.78.82V30.4C57.69,31,57.43,31.22,56.91,31.22Z" fill="url(#ff4ed196-4f3d-4c60-b069-a1f211977ac4)"/><path d="M74.34,31.22H71.28c-.58,0-.87-.27-.87-.82V4.61a.43.43,0,0,0-.49-.48H63.81c-.59,0-.88-.28-.88-.83V.83c0-.55.29-.83.88-.83h18c.58,0,.88.28.88.83V3.3c0,.55-.3.83-.88.83H75.7c-.35,0-.53.16-.53.48V30.4A.73.73,0,0,1,74.34,31.22Z" fill="url(#ff4ed196-4f3d-4c60-b069-a1f211977ac4)"/><path d="M90.51,31.22H87c-.46,0-.62-.27-.49-.82L95,.83A1.09,1.09,0,0,1,96.15,0H101a1.05,1.05,0,0,1,1.17.83l8.45,29.57c.13.55-.05.82-.54.82h-3.45a.8.8,0,0,1-.6-.17,1.28,1.28,0,0,1-.27-.65l-1.84-6.31H93.23L91.39,30.4C91.26,31,91,31.22,90.51,31.22Zm8-26.56L94.2,20.2H103L98.67,4.66Z" fill="url(#ff4ed196-4f3d-4c60-b069-a1f211977ac4)"/><path d="M121.25,31.22h-3.06a.72.72,0,0,1-.82-.82V.83a.73.73,0,0,1,.82-.83h11.56a7.52,7.52,0,0,1,5.53,2,7.45,7.45,0,0,1,2,5.56v5.05a7.45,7.45,0,0,1-2,5.53,7.45,7.45,0,0,1-5.53,2h-7.09c-.39,0-.58.17-.58.49V30.4A.73.73,0,0,1,121.25,31.22Zm1.36-15.29h6.46q3.45,0,3.45-3.6V7.72q0-3.58-3.45-3.59h-6.46c-.36,0-.53.16-.53.48V15.44C122.08,15.77,122.25,15.93,122.61,15.93Z" fill="url(#ff4ed196-4f3d-4c60-b069-a1f211977ac4)"/><path d="M146.65,31.22h-3.5c-.45,0-.62-.27-.49-.82L151.11.83A1.09,1.09,0,0,1,152.28,0h4.85a1.05,1.05,0,0,1,1.17.83l8.45,29.57c.13.55-.05.82-.54.82h-3.44a.83.83,0,0,1-.61-.17,1.38,1.38,0,0,1-.27-.65l-1.84-6.31H149.37l-1.85,6.31C147.39,31,147.1,31.22,146.65,31.22Zm8-26.56L150.34,20.2h8.79L154.8,4.66Z" fill="url(#ff4ed196-4f3d-4c60-b069-a1f211977ac4)"/><path d="M172.92,23.65V22.39a.73.73,0,0,1,.82-.83h3.11a.73.73,0,0,1,.82.83v.87a4,4,0,0,0,.9,2.94,4.13,4.13,0,0,0,3,.9h3.35a4.08,4.08,0,0,0,3-1,4.33,4.33,0,0,0,.92-3.08V22a2.88,2.88,0,0,0-1.19-2.45,6.37,6.37,0,0,0-2.94-1.17c-1.16-.18-2.44-.43-3.83-.75A33.83,33.83,0,0,1,177,16.46a6,6,0,0,1-2.94-2.38,7.78,7.78,0,0,1-1.18-4.47v-2a7.51,7.51,0,0,1,2-5.56,7.49,7.49,0,0,1,5.56-2h5.15a7.58,7.58,0,0,1,5.61,2,7.51,7.51,0,0,1,2,5.56V8.64a.73.73,0,0,1-.82.83h-3.11a.74.74,0,0,1-.83-.83V8a4.1,4.1,0,0,0-.9-3,4.1,4.1,0,0,0-3-.9h-3.06a4,4,0,0,0-3,.94,4.65,4.65,0,0,0-.9,3.23V9.81c0,1.46,1.06,2.44,3.16,3,.94.23,2,.42,3.08.58a27.61,27.61,0,0,1,3.38.73,14.21,14.21,0,0,1,3.11,1.29,5.91,5.91,0,0,1,2.28,2.43,8.26,8.26,0,0,1,.87,3.95v1.9a7.52,7.52,0,0,1-2,5.56,7.54,7.54,0,0,1-5.56,2h-5.44a7.59,7.59,0,0,1-5.58-2A7.42,7.42,0,0,1,172.92,23.65Z" fill="url(#ff4ed196-4f3d-4c60-b069-a1f211977ac4)"/><polygon points="23.62 70.5 15.37 59.18 20.55 60.87 23.62 70.5" fill="url(#8edd670a-fe13-4af0-815c-cfb6c0ea71e6)"/><polygon points="15.51 45.05 15.37 59.18 12.22 54.88 15.51 45.05" fill="url(#b355cf12-8922-4f2f-9534-4e89918bc9de)"/><polygon points="23.62 70.5 15.37 64.53 15.37 59.18 23.62 70.5" fill="url(#80960c7e-b8d7-48c0-8b65-f45aad4718b4)"/><polygon points="18.64 54.86 15.37 59.18 15.51 45.05 18.64 54.86" fill="url(#f29f754d-c1fd-4ff1-b5d8-b617de3ee936)"/><polygon points="29.02 54.86 15.37 59.18 18.64 54.86 29.02 54.86" fill="url(#3950c7ac-832e-4ecb-8ff5-f6c17fe8208e)"/><polygon points="29.02 54.86 20.55 60.87 15.37 59.18 29.02 54.86" fill="url(#9413f3c3-9a82-4f41-9c71-fb7c88dcf254)"/><polygon points="15.37 59.18 10.26 60.73 1.73 54.72 15.37 59.18" fill="url(#2b727830-d873-4ad2-b834-23971ed3de2a)"/><polygon points="15.37 59.18 1.73 54.72 12.22 54.88 15.37 59.18" fill="url(#6a8d6c78-6c4f-4516-a366-8ca1043be9d1)"/><polygon points="15.37 59.18 6.99 70.5 10.26 60.73 15.37 59.18" fill="url(#6d7673f1-7caa-4db0-9dea-cc05a4beefbf)"/><polygon points="15.37 59.18 15.37 64.53 6.99 70.5 15.37 59.18" fill="url(#3bd7e7ab-da3d-401a-a4fc-2f3117c7c79c)"/><polygon points="29.02 54.86 18.64 54.86 15.51 45.05 12.22 54.88 1.73 54.72 10.26 60.73 6.99 70.5 15.37 64.53 23.61 70.5 20.55 60.87 29.02 54.86" fill="#fba719" opacity="0.5"/><polygon points="64.91 70.5 56.66 59.18 61.84 60.87 64.91 70.5" fill="url(#7c3f64c3-fd84-44e4-91bc-f48c68c4f9c2)"/><polygon points="56.81 45.05 56.66 59.18 53.51 54.88 56.81 45.05" fill="url(#c46d565f-23fc-4f4b-adae-8a2c1e0906ad)"/><polygon points="64.91 70.5 56.66 64.53 56.66 59.18 64.91 70.5" fill="url(#f6ab1075-7076-453b-b873-34c2bfd83afd)"/><polygon points="59.93 54.86 56.66 59.18 56.81 45.05 59.93 54.86" fill="url(#df5b3438-05cf-4426-b105-18493141a131)"/><polygon points="70.31 54.86 56.66 59.18 59.93 54.86 70.31 54.86" fill="url(#703e504a-fa74-4962-af62-583d6a483a3d)"/><polygon points="70.31 54.86 61.84 60.87 56.66 59.18 70.31 54.86" fill="url(#ab856a77-542e-4778-a91d-0fcee6e559fc)"/><polygon points="56.66 59.18 51.55 60.73 43.02 54.72 56.66 59.18" fill="url(#63136425-a5f5-41c4-9ead-843fd0fc6da4)"/><polygon points="56.66 59.18 43.02 54.72 53.51 54.88 56.66 59.18" fill="url(#b68aaef0-6f3a-4a60-919e-4d46e66c183d)"/><polygon points="56.66 59.18 48.28 70.5 51.55 60.73 56.66 59.18" fill="url(#fbf7830c-2c99-432e-8b45-0f9229bc0e9c)"/><polygon points="56.66 59.18 56.66 64.53 48.28 70.5 56.66 59.18" fill="url(#b9e67146-2f5e-46f7-9dc2-ceb379a7b8eb)"/><polygon points="70.31 54.86 59.93 54.86 56.81 45.05 53.51 54.88 43.02 54.72 51.55 60.73 48.28 70.5 56.66 64.53 64.91 70.5 61.84 60.87 70.31 54.86" fill="#fba719" opacity="0.5"/><polygon points="106.2 70.5 97.96 59.18 103.14 60.87 106.2 70.5" fill="url(#52b50e8e-42be-4515-97b2-d4aad34eb852)"/><polygon points="98.1 45.05 97.96 59.18 94.81 54.88 98.1 45.05" fill="url(#c3972ebc-41e1-4548-9f87-fb697148a165)"/><polygon points="106.2 70.5 97.96 64.53 97.96 59.18 106.2 70.5" fill="url(#2f1b7351-9bd0-4f05-8a1d-8c677e5f6d1e)"/><polygon points="101.22 54.86 97.96 59.18 98.1 45.05 101.22 54.86" fill="url(#220cc163-88e9-4482-a97f-0b99a38ec395)"/><polygon points="111.6 54.86 97.96 59.18 101.22 54.86 111.6 54.86" fill="url(#2bc0af18-3b1f-4bd0-842d-95549b072b80)"/><polygon points="111.6 54.86 103.14 60.87 97.96 59.18 111.6 54.86" fill="url(#79f5e8f2-eb59-4e5b-bbaf-e87ae0c306b3)"/><polygon points="97.96 59.18 92.84 60.73 84.31 54.72 97.96 59.18" fill="url(#f326e710-3748-439a-88ff-41e7814256d9)"/><polygon points="97.96 59.18 84.31 54.72 94.81 54.88 97.96 59.18" fill="url(#4bcb3fda-c2b2-4841-920f-6f8c78f67209)"/><polygon points="97.96 59.18 89.57 70.5 92.84 60.73 97.96 59.18" fill="url(#e66f5a1c-3ab6-443c-9335-088ab9d16840)"/><polygon points="97.96 59.18 97.96 64.53 89.57 70.5 97.96 59.18" fill="url(#98c047a5-427d-4db4-a03f-c0b7dd01abea)"/><polygon points="111.6 54.86 101.22 54.86 98.1 45.05 94.81 54.88 84.31 54.72 92.84 60.73 89.57 70.5 97.95 64.53 106.2 70.5 103.14 60.87 111.6 54.86" fill="#fba719" opacity="0.5"/><polygon points="147.49 70.5 139.25 59.18 144.43 60.87 147.49 70.5" fill="url(#a72522b4-784e-4cc7-966e-87a6f0753ae2)"/><polygon points="139.39 45.05 139.25 59.18 136.1 54.88 139.39 45.05" fill="url(#906aef74-454b-46a9-912a-84a16e60078e)"/><polygon points="147.49 70.5 139.25 64.53 139.25 59.18 147.49 70.5" fill="url(#ffbb1520-dda5-4099-8e88-4507cbec2689)"/><polygon points="142.51 54.86 139.25 59.18 139.39 45.05 142.51 54.86" fill="url(#853bc05a-b811-4c0f-8c72-d6d5fbd690ea)"/><polygon points="152.89 54.86 139.25 59.18 142.51 54.86 152.89 54.86" fill="url(#5bea6cec-8ef5-465e-8092-75bb65824c2e)"/><polygon points="152.89 54.86 144.43 60.87 139.25 59.18 152.89 54.86" fill="url(#546f68df-93f2-4736-9ad6-b6abc1186a5c)"/><polygon points="139.25 59.18 134.13 60.73 125.6 54.72 139.25 59.18" fill="url(#ebd70d6b-8b57-4be2-a830-08cb27299712)"/><polygon points="139.25 59.18 125.6 54.72 136.1 54.88 139.25 59.18" fill="url(#34b75c08-9422-468e-b6fc-8c88f2e9e5dc)"/><polygon points="139.25 59.18 130.86 70.5 134.13 60.73 139.25 59.18" fill="url(#286207ab-4972-4374-99b0-4fc8c6b68d04)"/><polygon points="139.25 59.18 139.25 64.53 130.86 70.5 139.25 59.18" fill="url(#da7deb2b-534b-47a4-b0ba-3e7b85df6502)"/><polygon points="152.89 54.86 142.51 54.86 139.39 45.05 136.1 54.88 125.6 54.72 134.13 60.73 130.86 70.5 139.25 64.53 147.49 70.5 144.43 60.87 152.89 54.86" fill="#fba719" opacity="0.5"/><polygon points="188.78 70.5 180.54 59.18 185.72 60.87 188.78 70.5" fill="url(#8ce19e5a-5f1f-4776-910f-3d6866a97a4f)"/><polygon points="180.68 45.05 180.54 59.18 177.39 54.88 180.68 45.05" fill="url(#e368c368-130e-45d4-945e-6729f0f05d09)"/><polygon points="188.78 70.5 180.54 64.53 180.54 59.18 188.78 70.5" fill="url(#3a3f9126-3c5a-455c-af16-4d5512351190)"/><polygon points="183.81 54.86 180.54 59.18 180.68 45.05 183.81 54.86" fill="url(#0eb0bf5b-9454-43bc-8dff-a0c0582df421)"/><polygon points="194.19 54.86 180.54 59.18 183.81 54.86 194.19 54.86" fill="url(#6ac7ad3d-dc63-447c-805b-162ac78eaaf6)"/><polygon points="194.19 54.86 185.72 60.87 180.54 59.18 194.19 54.86" fill="url(#38492281-6075-4a04-9b99-22d9d7cb3f7e)"/><polygon points="180.54 59.18 175.43 60.73 166.9 54.72 180.54 59.18" fill="url(#b523ff3f-9e1f-4dc7-a848-ccde5937fa35)"/><polygon points="180.54 59.18 166.9 54.72 177.39 54.88 180.54 59.18" fill="url(#36d9434d-3e6c-48ad-9ba8-08635efdbbf2)"/><polygon points="180.54 59.18 172.15 70.5 175.43 60.73 180.54 59.18" fill="url(#83134a38-bc04-4fc1-84ab-cf63543efef4)"/><polygon points="180.54 59.18 180.54 64.53 172.15 70.5 180.54 59.18" fill="url(#70470d5a-8c85-4ae6-b930-7ff053a1a394)"/><polygon points="194.19 54.86 183.81 54.86 180.68 45.05 177.39 54.88 166.9 54.72 175.43 60.73 172.15 70.5 180.54 64.53 188.78 70.5 185.72 60.87 194.19 54.86" fill="#fba719" opacity="0.5"/></svg>