<svg id="f043006c-284b-42d5-8a34-03306df05188" data-name="Layer 1" xmlns="http://www.w3.org/2000/svg" viewBox="0 0 130 32"><title>actuar</title><path d="M15,8.66l3.28,5.69L10.93,27.11a3.78,3.78,0,1,1-6.55-3.77L15,4.94A3.77,3.77,0,0,0,15,8.66Z" fill="none" stroke="#fff" stroke-miterlimit="10"/><path d="M30.77,28.5a3.79,3.79,0,0,1-5.16-1.39L18.27,14.35l3.27-5.69a3.77,3.77,0,0,0,0-3.72l10.59,18.4A3.78,3.78,0,0,1,30.77,28.5Z" fill="none" stroke="#fff" stroke-miterlimit="10"/><path d="M21.51,8.72a3.74,3.74,0,0,0,.54-1.94,3.78,3.78,0,1,0-7,1.94l3.24,5.63Z" fill="none" stroke="#fff" stroke-miterlimit="10"/><path d="M44.43,7.94a9.55,9.55,0,0,0-2.88.4A9,9,0,0,0,39,9.61a.79.79,0,0,0-.35.53.85.85,0,0,0,.18.61l1,1.5a.81.81,0,0,0,.53.38.84.84,0,0,0,.61-.21,5.89,5.89,0,0,1,1.47-.82,4.76,4.76,0,0,1,1.67-.32,3.46,3.46,0,0,1,2.7.94,4.42,4.42,0,0,1,.86,3.06v.18H44.33a7.23,7.23,0,0,0-4.78,1.41,5,5,0,0,0-1.64,4,5.21,5.21,0,0,0,1.7,4.18,7.4,7.4,0,0,0,4.93,1.45,7.19,7.19,0,0,0,5.19-1.75,6.74,6.74,0,0,0,1.8-5V15a7.15,7.15,0,0,0-1.84-5.28,7.23,7.23,0,0,0-5.26-1.77Zm.11,15.22a3,3,0,0,1-2-.61,2.26,2.26,0,0,1-.72-1.78A2.17,2.17,0,0,1,42.6,19a3.59,3.59,0,0,1,2.26-.63h2.78v1.07a4.34,4.34,0,0,1-.74,2.82,2.87,2.87,0,0,1-2.36.93Zm21.23-.86a.72.72,0,0,0-.53-.36.86.86,0,0,0-.61.26,4,4,0,0,1-1.19.72,3.67,3.67,0,0,1-1.34.24,3.32,3.32,0,0,1-2.61-1,4.48,4.48,0,0,1-.89-3V15.28a4.6,4.6,0,0,1,.85-3,3,3,0,0,1,2.47-1,4.28,4.28,0,0,1,1.29.18,3.65,3.65,0,0,1,1,.5,1,1,0,0,0,.62.23.76.76,0,0,0,.52-.34l1-1.39a.88.88,0,0,0,.21-.62.72.72,0,0,0-.32-.52,6.15,6.15,0,0,0-2-1,9.21,9.21,0,0,0-2.61-.35,7,7,0,0,0-5.13,1.77A7.14,7.14,0,0,0,54.72,15v4.49a7.14,7.14,0,0,0,1.86,5.27,7.17,7.17,0,0,0,5.2,1.78,7.75,7.75,0,0,0,2.69-.45,7.23,7.23,0,0,0,2.16-1.25.9.9,0,0,0,.29-.55.88.88,0,0,0-.19-.59l-1-1.36Zm13.51,1a.66.66,0,0,0-.38-.5.92.92,0,0,0-.65,0,4.56,4.56,0,0,1-.72.21,3.72,3.72,0,0,1-.74.08,2.57,2.57,0,0,1-1.92-.68,2.81,2.81,0,0,1-.65-2V11.71h4.31a.73.73,0,0,0,.82-.82V9.18a.73.73,0,0,0-.82-.82H74.22V4.55A.82.82,0,0,0,74,3.94a.82.82,0,0,0-.61-.21H71.16a.82.82,0,0,0-.61.21.82.82,0,0,0-.21.61V8.36h-1.5a.74.74,0,0,0-.82.82v1.71a.74.74,0,0,0,.82.82h1.5v8.77A6.19,6.19,0,0,0,71.83,25a6.06,6.06,0,0,0,4.49,1.51A9.52,9.52,0,0,0,78,26.37a5.77,5.77,0,0,0,1.35-.4.79.79,0,0,0,.44-.44,1,1,0,0,0,0-.63l-.46-1.56ZM95.66,9.18a.86.86,0,0,0-.2-.61.84.84,0,0,0-.61-.21H92.71a.74.74,0,0,0-.82.82V19.77a3.94,3.94,0,0,1-.69,2.56,3.24,3.24,0,0,1-4.33,0,3.94,3.94,0,0,1-.69-2.56V9.18a.74.74,0,0,0-.82-.82H83.12a.74.74,0,0,0-.82.82V20A6.56,6.56,0,0,0,84,24.82a6.86,6.86,0,0,0,5,1.68,6.79,6.79,0,0,0,5-1.68A6.52,6.52,0,0,0,95.66,20V9.18Zm9.66-1.24a9.57,9.57,0,0,0-2.89.4A8.84,8.84,0,0,0,99.9,9.61a.85.85,0,0,0-.36.53,1,1,0,0,0,.18.61l1,1.5a.81.81,0,0,0,.53.38.83.83,0,0,0,.61-.21,5.89,5.89,0,0,1,1.47-.82,4.76,4.76,0,0,1,1.67-.32,3.47,3.47,0,0,1,2.71.94,4.53,4.53,0,0,1,.86,3.06v.18h-3.32a7.22,7.22,0,0,0-4.77,1.41,5,5,0,0,0-1.65,4,5.21,5.21,0,0,0,1.7,4.18,7.42,7.42,0,0,0,4.93,1.45,7.17,7.17,0,0,0,5.19-1.75,6.74,6.74,0,0,0,1.8-5V15a7.07,7.07,0,0,0-1.84-5.28,7.22,7.22,0,0,0-5.25-1.77Zm.1,15.22a3,3,0,0,1-2-.61,2.26,2.26,0,0,1-.72-1.78,2.15,2.15,0,0,1,.82-1.8,3.54,3.54,0,0,1,2.25-.63h2.79v1.07a4.4,4.4,0,0,1-.75,2.82,2.87,2.87,0,0,1-2.36.93ZM116,25.26a.74.74,0,0,0,.82.82h2.25a.73.73,0,0,0,.81-.82V14.53c0-2.17.9-3.25,2.71-3.25a3.83,3.83,0,0,1,1,.13,4.07,4.07,0,0,1,1,.37,1,1,0,0,0,.65.14.71.71,0,0,0,.46-.43l.82-1.45a.94.94,0,0,0,.1-.62.77.77,0,0,0-.39-.49,7.58,7.58,0,0,0-4-1,6,6,0,0,0-4.63,1.7,7.19,7.19,0,0,0-1.57,5Z" fill="#fff" fill-rule="evenodd"/></svg>