<svg id="af352a0f-536c-44cd-a651-692dfd64f6e3" data-name="Layer 1" xmlns="http://www.w3.org/2000/svg" viewBox="0 0 153.87 47"><title>google-play</title><path d="M6.62,1H147.25a5.62,5.62,0,0,1,5.62,5.62V40.38A5.63,5.63,0,0,1,147.25,46H6.62A5.62,5.62,0,0,1,1,40.38V6.62A5.62,5.62,0,0,1,6.62,1Z" fill="none" stroke="#33c" stroke-miterlimit="10" stroke-width="2"/><path d="M77.65,25.47a4.79,4.79,0,1,0,4.81,4.79A4.72,4.72,0,0,0,77.65,25.47Zm0,7.69a2.91,2.91,0,1,1,2.7-2.9A2.77,2.77,0,0,1,77.65,33.16ZM67.18,25.47A4.79,4.79,0,1,0,72,30.26,4.72,4.72,0,0,0,67.18,25.47Zm0,7.69a2.91,2.91,0,1,1,2.7-2.9A2.78,2.78,0,0,1,67.18,33.16ZM54.71,26.94v2h4.86a4.26,4.26,0,0,1-1.11,2.55A4.94,4.94,0,0,1,54.71,33a5.4,5.4,0,0,1,0-10.8,5.16,5.16,0,0,1,3.66,1.45l1.43-1.43a7.06,7.06,0,0,0-5.09-2.05,7.43,7.43,0,1,0,0,14.86A6.81,6.81,0,0,0,59.9,33a6.72,6.72,0,0,0,1.75-4.75,6.07,6.07,0,0,0-.11-1.27Zm51,1.58a4.45,4.45,0,0,0-4.09-3.05,4.55,4.55,0,0,0-4.52,4.79A4.68,4.68,0,0,0,101.82,35a4.76,4.76,0,0,0,4-2.12l-1.63-1.09a2.73,2.73,0,0,1-2.36,1.33,2.43,2.43,0,0,1-2.32-1.45l6.4-2.65Zm-6.52,1.59a2.62,2.62,0,0,1,2.5-2.79,1.88,1.88,0,0,1,1.78,1ZM94,34.75h2.1V20.69H94Zm-3.45-8.21h-.07a3.33,3.33,0,0,0-2.52-1.07,4.79,4.79,0,0,0,0,9.57A3.27,3.27,0,0,0,90.44,34h.07v.69c0,1.83-1,2.81-2.55,2.81a2.63,2.63,0,0,1-2.41-1.7l-1.83.76A4.55,4.55,0,0,0,88,39.34c2.46,0,4.55-1.45,4.55-5V25.76h-2ZM88.1,33.16a2.91,2.91,0,0,1,0-5.8,2.7,2.7,0,0,1,2.56,2.91A2.68,2.68,0,0,1,88.1,33.16Zm27.43-12.47h-5V34.75h2.1V29.42h2.93a4.37,4.37,0,1,0,0-8.73Zm.06,6.77h-3V22.64h3a2.41,2.41,0,1,1,0,4.82Zm13-2a3.94,3.94,0,0,0-3.75,2.16l1.87.78a2,2,0,0,1,1.92-1,2,2,0,0,1,2.2,1.81v.15a4.6,4.6,0,0,0-2.19-.54c-2,0-4.05,1.1-4.05,3.16a3.26,3.26,0,0,0,3.49,3.1,3,3,0,0,0,2.68-1.38h.07v1.09h2v-5.4C132.83,26.84,131,25.44,128.56,25.44Zm-.25,7.71c-.69,0-1.65-.34-1.65-1.19,0-1.09,1.19-1.5,2.22-1.5a3.74,3.74,0,0,1,1.92.47A2.53,2.53,0,0,1,128.31,33.15Zm11.9-7.4-2.41,6.1h-.07l-2.49-6.1H133l3.75,8.52L134.58,39h2.19l5.78-13.26Zm-18.91,9h2.1V20.69h-2.1Z" fill="#fff"/><path d="M12.74,9.49a2.24,2.24,0,0,0-.52,1.58V35.93a2.24,2.24,0,0,0,.52,1.58l.08.08L26.75,23.66v-.32L12.82,9.41Z" fill="none" stroke="#fff" stroke-linecap="round" stroke-linejoin="round" stroke-width="2"/><path d="M31.39,28.31l-4.64-4.65v-.32l4.64-4.65.11.06L37,21.88c1.57.89,1.57,2.35,0,3.24l-5.5,3.13Z" fill="none" stroke="#fff" stroke-linecap="round" stroke-linejoin="round" stroke-width="2"/><path d="M31.5,28.25,26.75,23.5l-14,14a1.83,1.83,0,0,0,2.34.07L31.5,28.25" fill="none" stroke="#fff" stroke-linecap="round" stroke-linejoin="round" stroke-width="2"/><path d="M31.5,18.75,15.08,9.42a1.83,1.83,0,0,0-2.34.07l14,14Z" fill="none" stroke="#fff" stroke-linecap="round" stroke-linejoin="round" stroke-width="2"/><path d="M47.51,15.63V8.88h2.06a3.37,3.37,0,0,1,2.49.93A3.33,3.33,0,0,1,53,12.25a3.33,3.33,0,0,1-.93,2.44,3.37,3.37,0,0,1-2.49.94Zm.86-.83h1.2a2.54,2.54,0,0,0,1.85-.67,2.51,2.51,0,0,0,.69-1.88A2.36,2.36,0,0,0,49.57,9.7h-1.2Z" fill="#828d99"/><path d="M54.21,15.63V8.88h.86v6.75Z" fill="#828d99"/><path d="M58.53,15.78a2.53,2.53,0,0,1-1.44-.48A2.23,2.23,0,0,1,56.17,14l.79-.32a1.82,1.82,0,0,0,.58.93,1.44,1.44,0,0,0,1,.39,1.55,1.55,0,0,0,1-.3,1,1,0,0,0,.4-.81,1,1,0,0,0-.4-.87,4.26,4.26,0,0,0-1.27-.57,3.36,3.36,0,0,1-1.35-.73,1.53,1.53,0,0,1-.47-1.15A1.7,1.7,0,0,1,57,9.26a2.09,2.09,0,0,1,1.5-.54,2.18,2.18,0,0,1,1.39.43,2,2,0,0,1,.7.94l-.79.33a1.21,1.21,0,0,0-.42-.59,1.33,1.33,0,0,0-.86-.28,1.39,1.39,0,0,0-.86.28.87.87,0,0,0-.35.69.77.77,0,0,0,.33.64,3.1,3.1,0,0,0,1,.47,7,7,0,0,1,.84.31,3.76,3.76,0,0,1,.68.4,1.52,1.52,0,0,1,.51.62,2,2,0,0,1,.18.86,1.93,1.93,0,0,1-.2.88,1.69,1.69,0,0,1-.54.61,2.66,2.66,0,0,1-1.51.47Z" fill="#828d99"/><path d="M62.89,15.63H62V8.88h2.3a2.14,2.14,0,0,1,1.49.57,1.84,1.84,0,0,1,.63,1.43,1.86,1.86,0,0,1-.63,1.44,2.14,2.14,0,0,1-1.49.57H62.89Zm0-3.57h1.45a1.11,1.11,0,0,0,.88-.37,1.17,1.17,0,0,0,.33-.81,1.2,1.2,0,0,0-.33-.81,1.14,1.14,0,0,0-.88-.37H62.89Z" fill="#828d99"/><path d="M73.05,14.75a3.49,3.49,0,0,1-5,0,3.46,3.46,0,0,1-1-2.5,3.46,3.46,0,0,1,1-2.5,3.48,3.48,0,0,1,4.94,0,3.45,3.45,0,0,1,1,2.5A3.45,3.45,0,0,1,73.05,14.75Zm-4.31-.56a2.6,2.6,0,0,0,3.67,0,2.65,2.65,0,0,0,.75-1.94,2.65,2.65,0,0,0-.75-1.94,2.6,2.6,0,0,0-3.67,0A2.65,2.65,0,0,0,68,12.25,2.65,2.65,0,0,0,68.74,14.19Z" fill="#828d99"/><path d="M75.26,15.63V8.88h1.06l3.28,5.25h0l0-1.3V8.88h.86v6.75h-.9l-3.43-5.51h0l0,1.3v4.21Z" fill="#828d99"/><path d="M82,15.63V8.88h.87v6.75Zm.81-7.28h-.75l.49-1.21h.94Z" fill="#828d99"/><path d="M86.09,15.63,83.72,8.88h1l1.85,5.47h0l1.93-5.47h1L87,15.63Z" fill="#828d99"/><path d="M94.37,9.7H91.29v2.14h2.78v.82H91.29V14.8h3.08v.83H90.43V8.88h3.94Z" fill="#828d99"/><path d="M95.73,15.63V8.88h.86V14.8h2.93v.83Z" fill="#828d99"/><path d="M102.87,15.63V8.88h1.06l3.28,5.25h0l0-1.3V8.88h.87v6.75h-.91l-3.43-5.51h0l0,1.3v4.21Z" fill="#828d99"/><path d="M115.14,14.75a3.49,3.49,0,0,1-5,0,3.45,3.45,0,0,1-1-2.5,3.45,3.45,0,0,1,1-2.5,3.49,3.49,0,0,1,5,0,3.62,3.62,0,0,1,0,5Zm-4.31-.56a2.6,2.6,0,0,0,3.67,0,2.65,2.65,0,0,0,.75-1.94,2.65,2.65,0,0,0-.75-1.94,2.6,2.6,0,0,0-3.67,0,2.65,2.65,0,0,0-.75,1.94A2.65,2.65,0,0,0,110.83,14.19Z" fill="#828d99"/></svg>