<svg id="70043119-c9f2-4905-88f4-7a4d4378595a" data-name="Layer 1" xmlns="http://www.w3.org/2000/svg" viewBox="0 0 153.87 47"><title>apple-store</title><path d="M9.91,46H8.84a15,15,0,0,1-2.2-.2,7,7,0,0,1-1.94-.64A6.13,6.13,0,0,1,3.05,44a6.3,6.3,0,0,1-1.2-1.64,7,7,0,0,1-.64-2A14.23,14.23,0,0,1,1,38.15c0-.24,0-1.07,0-1.07V9.9s0-.81,0-1.05a14.12,14.12,0,0,1,.19-2.2,7.16,7.16,0,0,1,.64-2,6.24,6.24,0,0,1,1.2-1.64A6.29,6.29,0,0,1,4.7,1.85a6.61,6.61,0,0,1,1.94-.64A15.85,15.85,0,0,1,8.85,1H145a15.45,15.45,0,0,1,2.18.2,6.9,6.9,0,0,1,2,.64,6.36,6.36,0,0,1,1.63,1.2A6.22,6.22,0,0,1,152,4.7a6.9,6.9,0,0,1,.63,1.94,15.39,15.39,0,0,1,.2,2.22c0,.33,0,.69,0,1V37.07c0,.39,0,.74,0,1.1a15.1,15.1,0,0,1-.2,2.18,6.54,6.54,0,0,1-.64,2,6.64,6.64,0,0,1-2.84,2.84,6.84,6.84,0,0,1-2,.64,14.5,14.5,0,0,1-2.2.2H9.91Z" fill="none" stroke="#33c" stroke-miterlimit="10" stroke-width="2"/><g id="9b217600-727f-4e05-a5fb-7275ef6ddfb9" data-name="&lt;Group&gt;"><g id="e2bf9386-a584-4358-9c0f-70ae5c1dba67" data-name="&lt;Group&gt;"><g id="92af8e48-97ec-42aa-9fd0-6196de3f1384" data-name="&lt;Group&gt;"><path id="1a40ae83-f2bc-4918-99b3-293002469033" data-name="&lt;Path&gt;" d="M35.69,23.85A5.82,5.82,0,0,1,38.46,19a6,6,0,0,0-4.69-2.54c-2-.21-3.89,1.18-4.9,1.18s-2.58-1.16-4.25-1.13a6.28,6.28,0,0,0-5.26,3.21c-2.27,3.94-.58,9.73,1.6,12.92,1.09,1.56,2.37,3.3,4,3.24s2.24-1.05,4.21-1.05,2.52,1.05,4.22,1,2.85-1.57,3.91-3.14A12.81,12.81,0,0,0,39.12,29,5.64,5.64,0,0,1,35.69,23.85Z" fill="#fff"/><path id="c0a51f81-0103-44d5-a728-15a82d78e186" data-name="&lt;Path&gt;" d="M32.48,14.34a5.82,5.82,0,0,0,1.31-4.11A5.89,5.89,0,0,0,30,12.18a5.45,5.45,0,0,0-1.34,4A4.86,4.86,0,0,0,32.48,14.34Z" fill="#fff"/></g></g><path d="M56.32,31.9H50.75l-1.34,4H47.05l5.28-14.61h2.45l5.27,14.61h-2.4Zm-5-1.82h4.42l-2.18-6.41H53.5Z" fill="#fff"/><path d="M71.44,30.52C71.44,33.83,69.67,36,67,36a3.62,3.62,0,0,1-3.36-1.87h0v5.28H61.41V25.2h2.11V27h0A3.78,3.78,0,0,1,67,25.08C69.66,25.08,71.44,27.22,71.44,30.52Zm-2.25,0c0-2.15-1.11-3.57-2.81-3.57s-2.79,1.45-2.79,3.57,1.12,3.58,2.79,3.58S69.19,32.7,69.19,30.52Z" fill="#fff"/><path d="M83.16,30.52c0,3.31-1.77,5.44-4.44,5.44a3.6,3.6,0,0,1-3.35-1.87h-.05v5.28H73.13V25.2h2.12V27h0a3.76,3.76,0,0,1,3.39-1.89C81.38,25.08,83.16,27.22,83.16,30.52Zm-2.24,0c0-2.15-1.12-3.57-2.82-3.57s-2.79,1.45-2.79,3.57,1.12,3.58,2.79,3.58S80.92,32.7,80.92,30.52Z" fill="#fff"/><path d="M90.91,31.78c.16,1.44,1.57,2.4,3.49,2.4s3.17-1,3.17-2.26c0-1.14-.8-1.81-2.69-2.28L93,29.18c-2.69-.64-3.93-1.9-3.93-3.93,0-2.52,2.19-4.26,5.31-4.26s5.21,1.74,5.28,4.26H97.44c-.13-1.46-1.34-2.34-3.1-2.34s-3,.89-3,2.18c0,1,.77,1.65,2.65,2.11l1.61.4c3,.7,4.24,1.91,4.24,4,0,2.73-2.18,4.44-5.64,4.44-3.24,0-5.43-1.67-5.57-4.31Z" fill="#fff"/><path d="M104.6,22.68V25.2h2v1.73h-2V32.8c0,.91.41,1.34,1.3,1.34.22,0,.57,0,.71,0v1.72a6,6,0,0,1-1.21.1c-2.16,0-3-.81-3-2.88v-6.1h-1.55V25.2h1.55V22.68Z" fill="#fff"/><path d="M107.8,30.52c0-3.35,2-5.46,5-5.46s5.05,2.11,5.05,5.46S116,36,112.85,36,107.8,33.88,107.8,30.52Zm7.87,0c0-2.3-1-3.65-2.82-3.65S110,28.23,110,30.52s1,3.66,2.82,3.66,2.82-1.35,2.82-3.66" fill="#fff"/><path d="M119.7,25.2h2.09V27h0a2.54,2.54,0,0,1,2.56-1.93,3.25,3.25,0,0,1,.75.09v2a3.1,3.1,0,0,0-1-.13,2.2,2.2,0,0,0-2.28,2.45v6.32H119.7Z" fill="#fff"/><path d="M135.23,32.72c-.29,1.93-2.18,3.26-4.58,3.26-3.1,0-5-2.08-5-5.41s1.94-5.51,4.93-5.51,4.8,2,4.8,5.26v.75h-7.52v.13a2.78,2.78,0,0,0,2.87,3,2.42,2.42,0,0,0,2.46-1.5Zm-7.39-3.18h5.33a2.56,2.56,0,0,0-2.62-2.7A2.69,2.69,0,0,0,127.84,29.54Z" fill="#fff"/></g><path d="M50.41,10c2.16,0,3.44,1.29,3.44,3.59s-1.28,3.63-3.44,3.63H47.65V10Zm-1.25,6h1.07c1.35,0,2.08-.82,2.08-2.38s-.75-2.34-2.08-2.34H49.16Z" fill="#828d99"/><path d="M55.09,10.53a.78.78,0,0,1,1.56,0,.78.78,0,0,1-1.56,0Zm0,1.35H56.6v5.36H55.14Z" fill="#828d99"/><path d="M60.16,11.77c1.35,0,2.22.67,2.24,1.72H61.06c0-.43-.38-.7-.92-.7s-.83.23-.83.58.22.44.7.55l1,.22c1.08.24,1.51.67,1.51,1.47,0,1.05-1,1.75-2.38,1.75s-2.32-.69-2.4-1.74h1.43c.07.45.42.71,1,.71s.89-.22.89-.57-.18-.42-.66-.53l-1-.22c-1-.23-1.54-.76-1.54-1.55C57.9,12.44,58.79,11.77,60.16,11.77Z" fill="#828d99"/><path d="M69,14.56c0,1.73-.83,2.77-2.17,2.77a1.74,1.74,0,0,1-1.66-1h0V19H63.69V11.88h1.44v.94h0a1.75,1.75,0,0,1,1.66-1C68.18,11.79,69,12.83,69,14.56Zm-1.49,0c0-1-.46-1.59-1.19-1.59s-1.19.63-1.19,1.59.47,1.59,1.19,1.59S67.52,15.54,67.52,14.56Z" fill="#828d99"/><path d="M70,14.55a2.66,2.66,0,1,1,5.31,0,2.66,2.66,0,1,1-5.31,0Zm3.83,0c0-1.07-.46-1.68-1.17-1.68s-1.18.61-1.18,1.68.46,1.68,1.18,1.68S73.82,15.64,73.82,14.56Z" fill="#828d99"/><path d="M76.48,11.88h1.41v1h0a1.68,1.68,0,0,1,1.67-1.06,1.77,1.77,0,0,1,1.86,2v3.45H80V14.09c0-.7-.33-1.1-1-1.1a1.07,1.07,0,0,0-1.08,1.18v3.07H76.48Z" fill="#828d99"/><path d="M82.82,11.88h1.46v5.36H82.82Zm.14-.75,1.11-1.56H85.4l-1.28,1.56Z" fill="#828d99"/><path d="M88.73,17.24H87.08l-1.85-5.36h1.56L87.91,16h0l1.11-4.07h1.52Z" fill="#828d99"/><path d="M96.24,15.6a2.25,2.25,0,0,1-2.45,1.76,2.5,2.5,0,0,1-2.64-2.77,2.53,2.53,0,0,1,2.59-2.82,2.44,2.44,0,0,1,2.54,2.68v.45H92.59V15a1.19,1.19,0,0,0,1.23,1.29,1.08,1.08,0,0,0,1.08-.68ZM92.6,14h2.28a1.12,1.12,0,0,0-1.13-1.16A1.16,1.16,0,0,0,92.6,14Z" fill="#828d99"/><path d="M97.49,10H99v7.22H97.49Z" fill="#828d99"/><path d="M102.79,11.88h1.41v1h0a1.7,1.7,0,0,1,1.68-1.06,1.77,1.77,0,0,1,1.86,2v3.45h-1.46V14.09c0-.7-.33-1.1-1-1.1a1.07,1.07,0,0,0-1.07,1.18v3.07h-1.46Z" fill="#828d99"/><path d="M108.91,15.7c0-1,.75-1.54,2.09-1.62l1.35-.08v-.35a.79.79,0,0,0-.9-.8.87.87,0,0,0-1,.67h-1.34c.06-1,.94-1.75,2.36-1.75s2.27.7,2.27,1.79v3.68h-1.41v-.82h0a1.84,1.84,0,0,1-1.63.91A1.66,1.66,0,0,1,108.91,15.7Zm3.44-.43v-.38l-1.13.06c-.55.05-.86.29-.86.67s.33.65.83.65A1.07,1.07,0,0,0,112.35,15.27Z" fill="#828d99"/></svg>