<svg id="f311733f-0460-45d1-98ba-7e7cfbd5753c" data-name="Layer 1" xmlns="http://www.w3.org/2000/svg" viewBox="0 0 28 28"><title>icon-face</title><path d="M20.28,0H7.73A7.74,7.74,0,0,0,0,7.73V20.27A7.74,7.74,0,0,0,7.73,28H13.5l0-9.76H11a.58.58,0,0,1-.59-.59l0-3.15a.6.6,0,0,1,.6-.6H13.5v-3c0-3.52,2.16-5.44,5.3-5.44h2.58A.59.59,0,0,1,22,6V8.67a.59.59,0,0,1-.6.59H19.8c-1.71,0-2,.82-2,2V13.9h3.76a.59.59,0,0,1,.59.67l-.37,3.15a.6.6,0,0,1-.6.52H17.77V28h2.52A7.73,7.73,0,0,0,28,20.27V7.73A7.73,7.73,0,0,0,20.28,0Z" fill="#33c"/></svg>