<svg id="d855df00-a261-4394-9f9a-43059f2bc443" data-name="Layer 1" xmlns="http://www.w3.org/2000/svg" viewBox="0 0 68 68"><title>icone-potencialize</title><path d="M57.13,56.22a4.91,4.91,0,0,0-.67.05,6,6,0,0,0-11.92,0,5.64,5.64,0,0,0-.93-.09,4.65,4.65,0,0,0-.66.05,6,6,0,0,0-7.62-4.88,6.12,6.12,0,0,0-10.82,2.44A6.55,6.55,0,0,0,12,55.43a5.83,5.83,0,0,0-.72-.06A5.29,5.29,0,1,0,11.3,66H57.13a4.87,4.87,0,0,0,0-9.73Z" fill="#000015" stroke="#33c" stroke-linecap="round" stroke-linejoin="round" stroke-width="2"/><line x1="34" y1="37.8" x2="34" y2="54.3" fill="none" stroke="#fff" stroke-linecap="round" stroke-linejoin="round" stroke-width="4"/><path d="M47,36.8H21v-10a26,26,0,0,1,2.61-11.36l2.7-5.7A8.64,8.64,0,0,1,42.06,10l2.33,5.42A26,26,0,0,1,47,26.78Z" fill="#000015"/><line x1="24.24" y1="12.72" x2="43.3" y2="12.72" fill="none" stroke="#33c" stroke-miterlimit="10" stroke-width="2"/><path d="M47,36.8H21v-10a26,26,0,0,1,2.61-11.36l2.7-5.7A8.64,8.64,0,0,1,42.06,10l2.33,5.42A26,26,0,0,1,47,26.78Z" fill="none" stroke="#fcb84d" stroke-miterlimit="10" stroke-width="2"/><line x1="52" y1="32.8" x2="52" y2="38.8" fill="none" stroke="#fcb84d" stroke-linecap="round" stroke-linejoin="round" stroke-width="2"/><line x1="16" y1="32.8" x2="16" y2="38.8" fill="none" stroke="#fcb84d" stroke-linecap="round" stroke-linejoin="round" stroke-width="2"/><circle cx="34" cy="22.8" r="3.99" fill="none" stroke="#fff" stroke-linecap="round" stroke-linejoin="round" stroke-width="2"/><path d="M29.67,57.8a5,5,0,0,0,8.66,0" fill="none" stroke="#33c" stroke-linecap="round" stroke-linejoin="round" stroke-width="2"/></svg>