<svg xmlns="http://www.w3.org/2000/svg" viewBox="0 0 34 34"><path d="M34,16.56A16.72,16.72,0,0,1,9.24,31.06L0,34l3-8.89A16.36,16.36,0,0,1,.62,16.56a16.69,16.69,0,0,1,33.38,0ZM17.31,2.64a14,14,0,0,0-14,13.92A13.8,13.8,0,0,0,6,24.73L4.2,29.9l5.39-1.72A14,14,0,1,0,17.31,2.64Zm8.43,17.74c-.11-.17-.38-.27-.79-.48s-2.42-1.18-2.79-1.32-.65-.2-.92.21-1.06,1.32-1.3,1.59-.48.3-.88.1a11.1,11.1,0,0,1-3.3-2,12.18,12.18,0,0,1-2.27-2.81c-.24-.4,0-.62.18-.82s.41-.48.61-.71a2.8,2.8,0,0,0,.41-.68.74.74,0,0,0,0-.71c-.11-.21-.92-2.2-1.27-3S12.71,9,12.47,9,12,9,11.69,9a1.49,1.49,0,0,0-1.09.51,4.5,4.5,0,0,0-1.43,3.38,7.81,7.81,0,0,0,1.67,4.2c.2.27,2.83,4.51,7,6.13s4.16,1.08,4.91,1a4.13,4.13,0,0,0,2.76-1.93,3.4,3.4,0,0,0,.24-1.93Zm0,0" fill="#fff" fill-rule="evenodd"/></svg>