<svg id="724e6d40-6454-476d-9abd-78f3316ffc1b" data-name="Layer 1" xmlns="http://www.w3.org/2000/svg" viewBox="0 0 68 68"><title>icone-academia </title><polygon points="66 64.9 40 64.9 40 47.9 53 40.9 66 47.9 66 64.9" fill="#000015" stroke="#33c" stroke-miterlimit="10" stroke-width="2"/><rect x="2" y="38.9" width="26" height="26" fill="#000015" stroke="#fcb84d" stroke-miterlimit="10" stroke-width="2"/><path d="M45.68,14.46a6.65,6.65,0,0,0-1.42.17,10,10,0,0,0,.16-1.74A9.78,9.78,0,0,0,25,11.39a7.73,7.73,0,0,0-1.08-.08,7.89,7.89,0,1,0,0,15.78H45.68a6.32,6.32,0,1,0,0-12.63Z" fill="none" stroke="#fff" stroke-linecap="round" stroke-linejoin="round" stroke-width="2"/><line x1="15" y1="63.9" x2="15" y2="55.9" fill="none" stroke="#fcb84d" stroke-miterlimit="10" stroke-width="2"/><polyline points="23 63.9 23 55.9 7 55.9 7 63.9" fill="none" stroke="#fcb84d" stroke-miterlimit="10" stroke-width="2"/><line x1="3" y1="49.9" x2="27" y2="49.9" fill="none" stroke="#fcb84d" stroke-miterlimit="10" stroke-width="2"/><polyline points="50.5 63.9 50.5 52.9 44.5 52.9 44.5 63.9" fill="none" stroke="#33c" stroke-miterlimit="10" stroke-width="2"/><rect x="55.49" y="55.3" width="6" height="4.2" fill="none" stroke="#33c" stroke-miterlimit="10" stroke-width="2"/><polyline points="55.63 18.9 61 18.9 61 33.9" fill="none" stroke="#33c" stroke-miterlimit="10" stroke-width="2"/><polyline points="7 33.9 7 18.9 11.75 18.9" fill="none" stroke="#fcb84d" stroke-miterlimit="10" stroke-width="2"/><path d="M31.17,14.27a4,4,0,0,1,3.87-1l1.54-1.55a6,6,0,0,0-8,8l1.55-1.55A4,4,0,0,1,31.17,14.27Z" fill="#fcb84d"/><path d="M36.83,19.92A4,4,0,0,1,33,21l-1.55,1.55a6,6,0,0,0,8-8l-1.55,1.54A4,4,0,0,1,36.83,19.92Z" fill="#fcb84d"/><line x1="17.5" y1="44.4" x2="12.5" y2="44.4" fill="none" stroke="#fcb84d" stroke-miterlimit="10"/><line x1="11.5" y1="47.4" x2="11.5" y2="41.4" fill="none" stroke="#fcb84d" stroke-miterlimit="10" stroke-width="2"/><line x1="8.5" y1="45.4" x2="8.5" y2="43.4" fill="none" stroke="#fcb84d" stroke-miterlimit="10"/><line x1="18.5" y1="47.4" x2="18.5" y2="41.4" fill="none" stroke="#fcb84d" stroke-miterlimit="10" stroke-width="2"/><line x1="21.5" y1="45.4" x2="21.5" y2="43.4" fill="none" stroke="#fcb84d" stroke-miterlimit="10"/></svg>