<svg id="f19937f2-7734-42a1-a355-412afb66bea8" data-name="Layer 1" xmlns="http://www.w3.org/2000/svg" viewBox="0 0 68 68"><title>icone-treino</title><rect x="-3.25" y="14.2" width="38.9" height="4" rx="2" ry="2" transform="translate(-6.71 16.2) rotate(-45)" fill="#33c"/><rect x="7.13" y="32.16" width="54.06" height="4" transform="translate(34.16 82.47) rotate(-135)" fill="#33c"/><rect x="1.18" y="8.42" width="20" height="4" rx="2" ry="2" transform="translate(-4.09 10.96) rotate(-45)" fill="#33c"/><rect x="33.11" y="50.11" width="38" height="4" rx="2" ry="2" transform="translate(125.81 52.11) rotate(135)" fill="#33c"/><rect x="47.14" y="55.9" width="20" height="4" rx="2" ry="2" transform="translate(138.48 58.44) rotate(135)" fill="#33c"/><circle cx="34.15" cy="15.69" r="4" fill="none" stroke="#fcb84d" stroke-miterlimit="10" stroke-width="2"/><circle cx="34.15" cy="34.16" r="16" fill="#000015" stroke="#fcb84d" stroke-miterlimit="10" stroke-width="2"/><path d="M29.18,27.91a7.91,7.91,0,0,0-3,6.25,8,8,0,0,0,8,8,7.88,7.88,0,0,0,4.22-1.21" fill="#000015" stroke="#33c" stroke-linecap="round" stroke-linejoin="round" stroke-width="2"/><path d="M42.14,34.16v.2h-8V26.17h0A8,8,0,0,1,42.14,34.16Z" fill="#fff"/><line x1="48.91" y1="21.09" x2="46.27" y2="23.73" fill="none" stroke="#fcb84d" stroke-linecap="round" stroke-linejoin="round" stroke-width="2"/><line x1="47.67" y1="19.84" x2="50.17" y2="22.34" fill="none" stroke="#fcb84d" stroke-linecap="round" stroke-linejoin="round" stroke-width="2"/></svg>