<svg id="74f52202-8496-48d0-a4f2-01cb2641d42a" data-name="Layer 1" xmlns="http://www.w3.org/2000/svg" viewBox="0 0 28 28"><title>icon-insta</title><path d="M20.27,0H7.73A7.74,7.74,0,0,0,0,7.73V20.27A7.74,7.74,0,0,0,7.73,28H20.27A7.74,7.74,0,0,0,28,20.27V7.73A7.74,7.74,0,0,0,20.27,0Zm5.25,20.27a5.26,5.26,0,0,1-5.25,5.25H7.73a5.26,5.26,0,0,1-5.25-5.25V7.73A5.26,5.26,0,0,1,7.73,2.48H20.27a5.26,5.26,0,0,1,5.25,5.25Zm0,0" fill="#33c"/><path d="M14,6.79A7.21,7.21,0,1,0,21.22,14,7.22,7.22,0,0,0,14,6.79Zm0,11.94A4.73,4.73,0,1,1,18.73,14,4.73,4.73,0,0,1,14,18.73Zm0,0" fill="#33c"/><path d="M21.52,4.68a1.81,1.81,0,1,0,1.29.53,1.83,1.83,0,0,0-1.29-.53Zm0,0" fill="#33c"/></svg>