<svg id="4a9f33ef-a21a-4d95-a3d3-da41bf5c7e6b" data-name="Layer 1" xmlns="http://www.w3.org/2000/svg" viewBox="0 0 68 68"><title>icone-mais-tempo</title><circle cx="50" cy="25.8" r="16" fill="#000015" stroke="#33c" stroke-miterlimit="10" stroke-width="2"/><path d="M50.59,35.58H49.8a.29.29,0,0,1-.32-.33v-2h-.56a3.33,3.33,0,0,1-2.48-.93,3.43,3.43,0,0,1-.92-2.51v-.65c0-.22.1-.33.31-.33H46.9q.3,0,.3.33v.51a1.84,1.84,0,0,0,2.07,2.09h1.46a1.86,1.86,0,0,0,2.07-2.14V28.58A1.8,1.8,0,0,0,52.2,27a3.41,3.41,0,0,0-1.84-.48l-1.28,0a4.52,4.52,0,0,1-2.63-.81,3.25,3.25,0,0,1-1-2.68V21.77a3.43,3.43,0,0,1,.92-2.53,3.38,3.38,0,0,1,2.5-.92h.56v-2A.29.29,0,0,1,49.8,16h.79a.29.29,0,0,1,.33.33v2h.16a3.22,3.22,0,0,1,2.42.93,3.48,3.48,0,0,1,.91,2.52v.58c0,.23-.11.35-.33.35H53c-.21,0-.32-.12-.32-.35V21.9a1.84,1.84,0,0,0-2.07-2.09H49.27q-2.07,0-2.07,2.19v1.09a1.64,1.64,0,0,0,.59,1.45,3.42,3.42,0,0,0,1.83.46l1.44,0a4.16,4.16,0,0,1,2.51.84,3.24,3.24,0,0,1,.93,2.63v1.35a3.18,3.18,0,0,1-3.42,3.44h-.16v2A.29.29,0,0,1,50.59,35.58Z" fill="#33c"/><circle cx="34" cy="42.2" r="16" fill="#000015" stroke="#fff" stroke-miterlimit="10" stroke-width="2"/><line x1="34" y1="35.4" x2="34" y2="49" fill="none" stroke="#fff" stroke-miterlimit="10" stroke-width="2"/><line x1="40.8" y1="42.2" x2="27.2" y2="42.2" fill="none" stroke="#fff" stroke-miterlimit="10" stroke-width="2"/><circle cx="18" cy="25.8" r="16" fill="#000015" stroke="#fcb84d" stroke-miterlimit="10" stroke-width="2"/><polyline points="18 17.8 18 25.8 23.6 29" fill="#000015" stroke="#fcb84d" stroke-miterlimit="10" stroke-width="2"/><line x1="18" y1="13" x2="18" y2="9.8" fill="#000015" stroke="#fcb84d" stroke-miterlimit="10" stroke-width="2"/><line x1="18" y1="41.8" x2="18" y2="39.4" fill="#000015" stroke="#fcb84d" stroke-miterlimit="10" stroke-width="2"/><line x1="30.8" y1="25.8" x2="34" y2="25.8" fill="#000015" stroke="#fcb84d" stroke-miterlimit="10" stroke-width="2"/><line x1="2" y1="25.8" x2="5.2" y2="25.8" fill="#000015" stroke="#fcb84d" stroke-miterlimit="10" stroke-width="2"/></svg>