<svg id="fa3f50f7-b635-40ed-a690-3529df1e4334" data-name="Layer 1" xmlns="http://www.w3.org/2000/svg" viewBox="0 0 401.18 272.54"><title>ilustra-crm</title><polygon points="276.22 1 276.22 139.05 76.8 139.05 76.8 1 103.82 1 112.66 9.84 179.46 9.84 188.3 1 276.22 1" fill="#060018" stroke="#33c" stroke-linecap="round" stroke-linejoin="round" stroke-width="2"/><polyline points="76.8 6.03 76.8 1 81.88 1" fill="none" stroke="#fff" stroke-miterlimit="10" stroke-width="2"/><polyline points="76.8 134.01 76.8 139.05 81.88 139.05" fill="none" stroke="#fff" stroke-miterlimit="10" stroke-width="2"/><polyline points="271.14 1 276.22 1 276.22 6.91" fill="none" stroke="#fff" stroke-miterlimit="10" stroke-width="2"/><polyline points="276.22 134.01 276.22 139.05 271.14 139.05" fill="none" stroke="#fff" stroke-miterlimit="10" stroke-width="2"/><path d="M151.79,61v0a29.75,29.75,0,1,1,37.37,35.32h0" fill="none" stroke="#33c" stroke-linecap="round" stroke-linejoin="round" stroke-width="2"/><polyline points="181.47 52.9 181.47 67.07 191.39 74.15" fill="none" stroke="#33c" stroke-linecap="round" stroke-linejoin="round" stroke-width="2"/><line x1="181.47" y1="41.57" x2="181.47" y2="45.82" fill="none" stroke="#33c" stroke-linecap="round" stroke-linejoin="round" stroke-width="2"/><line x1="207.68" y1="67.78" x2="203.43" y2="67.78" fill="none" stroke="#33c" stroke-linecap="round" stroke-linejoin="round" stroke-width="2"/><path d="M142.51,69.19l8.5-4.25,7.08,8.5-2.83,5.67s1.42,7.08,14.17,15.58l5.66-4.25L185,97.53l-4.25,8.5S151,103.19,142.51,69.19Z" fill="none" stroke="#33c" stroke-linecap="round" stroke-linejoin="round" stroke-width="2"/><polygon points="131.3 73.22 131.3 157.52 1 157.52 1 149.36 9.84 140.52 9.84 103.19 1 94.34 1 73.22 131.3 73.22" fill="#060018" stroke="#fcb84d" stroke-linecap="round" stroke-linejoin="round" stroke-width="2"/><polyline points="1 78.26 1 73.22 6.08 73.22" fill="none" stroke="#fff" stroke-miterlimit="10" stroke-width="2"/><polyline points="1 152.48 1 157.52 6.08 157.52" fill="none" stroke="#fff" stroke-miterlimit="10" stroke-width="2"/><polyline points="126.22 73.22 131.3 73.22 131.3 79.13" fill="none" stroke="#fff" stroke-miterlimit="10" stroke-width="2"/><polyline points="131.3 152.48 131.3 157.52 126.22 157.52" fill="none" stroke="#fff" stroke-miterlimit="10" stroke-width="2"/><polygon points="381.16 85.34 381.16 122.67 390 131.52 390 148.52 236.12 148.52 236.12 50.47 251.17 50.47 260.01 59.31 290.47 59.31 299.31 50.47 390 50.47 390 76.5 381.16 85.34" fill="#060018" stroke="#fcb84d" stroke-linecap="round" stroke-linejoin="round" stroke-width="2"/><polyline points="236.12 55.51 236.12 50.47 241.2 50.47" fill="none" stroke="#fff" stroke-miterlimit="10" stroke-width="2"/><polyline points="236.12 143.48 236.12 148.52 241.2 148.52" fill="none" stroke="#fff" stroke-miterlimit="10" stroke-width="2"/><polyline points="384.92 50.47 390 50.47 390 56.38" fill="none" stroke="#fff" stroke-miterlimit="10" stroke-width="2"/><polyline points="390 143.48 390 148.52 384.92 148.52" fill="none" stroke="#fff" stroke-miterlimit="10" stroke-width="2"/><polygon points="339.18 105.19 332.4 105.19 332.4 114.06 323.78 105.19 302.71 105.19 302.71 78.09 339.18 78.09 339.18 105.19" fill="none" stroke="#fcb84d" stroke-linecap="round" stroke-linejoin="round" stroke-width="1.81"/><polyline points="322.41 117.03 301.34 117.03 292.72 125.9 292.72 117.03 285.94 117.03 285.94 89.93 296.29 89.93" fill="none" stroke="#fcb84d" stroke-linecap="round" stroke-linejoin="round" stroke-width="1.81"/><polyline points="46.94 100.02 92.65 100.02 92.65 130.72 46.94 130.72 46.94 130.58" fill="none" stroke="#fcb84d" stroke-linecap="round" stroke-linejoin="round" stroke-width="1.81"/><polyline points="46.94 100.02 70.14 121.17 92.65 100.02" fill="none" stroke="#fcb84d" stroke-linecap="round" stroke-linejoin="round" stroke-width="1.81"/><line x1="92.65" y1="130.72" x2="76.82" y2="114.89" fill="none" stroke="#fcb84d" stroke-linecap="round" stroke-linejoin="round" stroke-width="1.81"/><line x1="46.8" y1="130.72" x2="62.63" y2="114.89" fill="none" stroke="#fcb84d" stroke-linecap="round" stroke-linejoin="round" stroke-width="1.81"/><line x1="33.52" y1="108.89" x2="46.99" y2="108.89" fill="none" stroke="#fcb84d" stroke-linecap="round" stroke-linejoin="round" stroke-width="1.81"/><line x1="42.39" y1="121.85" x2="46.99" y2="121.85" fill="none" stroke="#fcb84d" stroke-linecap="round" stroke-linejoin="round" stroke-width="1.81"/><line x1="50.72" y1="115.03" x2="44.21" y2="115.03" fill="none" stroke="#fcb84d" stroke-linecap="round" stroke-linejoin="round" stroke-width="1.81"/><line x1="39.12" y1="115.03" x2="24.65" y2="115.03" fill="none" stroke="#fcb84d" stroke-linecap="round" stroke-linejoin="round" stroke-width="1.81"/><rect x="56.66" y="127.13" width="284.89" height="143.43" fill="#060018" stroke="#33c" stroke-miterlimit="10" stroke-width="2"/><polygon points="314.04 185.58 314.04 223.9 320.92 231.76 320.92 251.89 77.29 251.89 77.29 141.87 320.92 141.87 320.92 176.74 314.04 185.58" fill="#000050" fill-opacity="0.5" stroke="#fcb84d" stroke-linecap="round" stroke-linejoin="round" stroke-width="2"/><polyline points="77.29 147.52 77.29 141.87 82.99 141.87" fill="none" stroke="#fff" stroke-miterlimit="10" stroke-width="2"/><polyline points="77.29 246.25 77.29 251.89 82.99 251.89" fill="none" stroke="#fff" stroke-miterlimit="10" stroke-width="2"/><polyline points="315.22 141.87 320.92 141.87 320.92 148.5" fill="none" stroke="#fff" stroke-miterlimit="10" stroke-width="2"/><polyline points="320.92 246.25 320.92 251.89 315.22 251.89" fill="none" stroke="#fff" stroke-miterlimit="10" stroke-width="2"/><rect x="83.68" y="148.5" width="230.86" height="9.82" fill="none" stroke="#33c" stroke-miterlimit="10" stroke-width="2"/><rect x="308.64" y="152.43" width="1.96" height="1.96" transform="translate(619.24 306.82) rotate(180)" fill="#512da8"/><line x1="90.06" y1="168.88" x2="95.96" y2="168.88" fill="none" stroke="#33c" stroke-miterlimit="10" stroke-width="2"/><line x1="90.06" y1="188.86" x2="93.99" y2="188.86" fill="none" stroke="#33c" stroke-miterlimit="10" stroke-width="2"/><line x1="90.06" y1="198.85" x2="95.96" y2="198.85" fill="none" stroke="#33c" stroke-miterlimit="10" stroke-width="2"/><line x1="90.06" y1="208.83" x2="96.94" y2="208.83" fill="none" stroke="#33c" stroke-miterlimit="10" stroke-width="2"/><line x1="90.06" y1="218.82" x2="95.96" y2="218.82" fill="none" stroke="#33c" stroke-miterlimit="10" stroke-width="2"/><line x1="90.06" y1="228.81" x2="93.01" y2="228.81" fill="none" stroke="#33c" stroke-miterlimit="10" stroke-width="2"/><line x1="90.06" y1="178.87" x2="101.85" y2="178.87" fill="none" stroke="#fcb84d" stroke-miterlimit="10" stroke-width="2"/><rect x="200.58" y="202.28" width="100.2" height="31.44" fill="none" stroke="#33c" stroke-miterlimit="10" stroke-width="2"/><polyline points="200.58 206.21 200.58 202.28 204.51 202.28" fill="none" stroke="#fff" stroke-miterlimit="10" stroke-width="2"/><polyline points="200.58 229.79 200.58 233.72 204.51 233.72" fill="none" stroke="#fff" stroke-miterlimit="10" stroke-width="2"/><polyline points="296.85 202.28 300.78 202.28 300.78 206.21" fill="none" stroke="#fff" stroke-miterlimit="10" stroke-width="2"/><polyline points="300.78 229.79 300.78 233.72 296.85 233.72" fill="none" stroke="#fff" stroke-miterlimit="10" stroke-width="2"/><polyline points="149.59 170.36 149.59 203.49 173.11 179.98" fill="none" stroke="#33c" stroke-miterlimit="10" stroke-width="2"/><line x1="127.15" y1="225.94" x2="149.59" y2="203.49" fill="none" stroke="#33c" stroke-miterlimit="10" stroke-width="2"/><path d="M149.89,231.76H150a28.8,28.8,0,1,0-28.8-28.88" fill="none" stroke="#33c" stroke-miterlimit="10" stroke-width="2"/><g opacity="0.3"><path d="M168.51,184.57l0,0-7.28,7.28,0,0a15.79,15.79,0,0,1-22.33,22.34l0,0-7.28,7.28,0,0a26.09,26.09,0,0,0,36.89-36.9Z" fill="#33c"/></g><circle cx="149.96" cy="202.96" r="8.36" fill="none" stroke="#fcb84d" stroke-miterlimit="10" stroke-width="2"/><path d="M149.59,188.31a14.65,14.65,0,1,0,10.81,4.37" fill="none" stroke="#fff" stroke-miterlimit="10" stroke-width="2"/><circle cx="217.8" cy="174.29" r="5.4" fill="none" stroke="#fcb84d" stroke-miterlimit="10" stroke-width="2"/><path d="M212.16,191.48a2.78,2.78,0,0,1-1.92-4.78,10.82,10.82,0,0,1,15.2.08l0,0a2.77,2.77,0,0,1-2,4.66Z" fill="none" stroke="#fcb84d" stroke-miterlimit="10" stroke-width="2"/><line x1="236.96" y1="170.42" x2="265.45" y2="170.42" fill="none" stroke="#fcb84d" stroke-miterlimit="10" stroke-width="2"/><line x1="236.96" y1="176.93" x2="251.69" y2="176.93" fill="none" stroke="#fcb84d" stroke-miterlimit="10" stroke-width="2"/><line x1="236.96" y1="183.44" x2="286.08" y2="183.44" fill="none" stroke="#33c" stroke-miterlimit="10" stroke-width="2"/><line x1="236.96" y1="189.94" x2="291.97" y2="189.94" fill="none" stroke="#33c" stroke-miterlimit="10" stroke-width="2"/><circle cx="244.79" cy="214.07" r="3.93" fill="none" stroke="#33c" stroke-miterlimit="10" stroke-width="2"/><path d="M212.37,224.88s4.69-10.27,13.75-6.88c15.72,5.9,18.67-3.93,18.67-3.93" fill="none" stroke="#fcb84d" stroke-miterlimit="10" stroke-width="2"/><line x1="263.45" y1="225.86" x2="263.45" y2="218" fill="none" stroke="#33c" stroke-miterlimit="10" stroke-width="2"/><line x1="269.35" y1="225.86" x2="269.35" y2="219.97" fill="none" stroke="#33c" stroke-miterlimit="10" stroke-width="2"/><line x1="275.24" y1="225.86" x2="275.24" y2="216.04" fill="none" stroke="#fcb84d" stroke-miterlimit="10" stroke-width="2"/><line x1="281.13" y1="225.86" x2="281.13" y2="214.07" fill="none" stroke="#fcb84d" stroke-miterlimit="10" stroke-width="2"/><line x1="287.03" y1="225.86" x2="287.03" y2="210.14" fill="none" stroke="#fcb84d" stroke-miterlimit="10" stroke-width="2"/><rect x="384.46" y="203.76" width="15.72" height="15.72" transform="translate(784.63 423.23) rotate(180)" fill="#060018" stroke="#33c" stroke-linecap="round" stroke-linejoin="round" stroke-width="2"/><line x1="392.32" y1="271.54" x2="392.32" y2="219.48" fill="none" stroke="#33c" stroke-linecap="round" stroke-linejoin="round" stroke-width="2"/><rect x="391.34" y="210.63" width="1.96" height="1.96" transform="translate(784.63 423.23) rotate(180)" fill="#33c"/><line x1="400.18" y1="271.54" x2="384.46" y2="271.54" fill="none" stroke="#33c" stroke-linecap="round" stroke-linejoin="round" stroke-width="2"/><rect x="31.61" y="19.35" width="15.72" height="15.72" fill="#060018" stroke="#33c" stroke-linecap="round" stroke-linejoin="round" stroke-width="2"/><rect x="38.49" y="26.23" width="1.96" height="1.96" fill="#33c"/></svg>