<svg id="5ef25d43-e9b6-484d-99b9-fdeda7e86092" data-name="Layer 1" xmlns="http://www.w3.org/2000/svg" xmlns:xlink="http://www.w3.org/1999/xlink" viewBox="0 0 401.75 392.51"><defs><clipPath id="a6018d56-9754-4e8b-8ec6-ec7d99291de9"><rect x="1" y="16.76" width="400" height="350" fill="none"/></clipPath><radialGradient id="66e31512-0c0a-4bc4-9ada-8ad34e65cf60" cx="1126.83" cy="-251.37" r="65.68" gradientTransform="translate(-845.42 263.55) scale(0.84)" gradientUnits="userSpaceOnUse"><stop offset="0" stop-color="#434041"/><stop offset="0.32" stop-color="#3b3839"/><stop offset="0.82" stop-color="#242324"/><stop offset="1" stop-color="#1a1a1a"/></radialGradient><linearGradient id="0dbcdfa3-a0a9-4cca-accb-06e1a143e715" x1="104.43" y1="52.74" x2="185.81" y2="48.39" gradientUnits="userSpaceOnUse"><stop offset="0"/><stop offset="0.04" stop-color="#0e0e0e"/><stop offset="0.09" stop-color="#262626"/><stop offset="0.13" stop-color="#343434"/><stop offset="0.19" stop-color="#4d4d4d"/><stop offset="0.26" stop-color="#3a3a3a"/><stop offset="0.34" stop-color="#2b2b2b"/><stop offset="0.41" stop-color="#262626"/><stop offset="1" stop-color="#3b3b3b"/></linearGradient><linearGradient id="5177d85f-ca2b-4353-a4aa-9faed9329752" x1="115.78" y1="58.29" x2="201.92" y2="58.29" gradientUnits="userSpaceOnUse"><stop offset="0" stop-color="#9c9c9c"/><stop offset="0.05" stop-color="#b8b8b8"/><stop offset="0.11" stop-color="#d0d0d0"/><stop offset="0.16" stop-color="#dedede"/><stop offset="0.21" stop-color="#e3e3e3"/><stop offset="0.27" stop-color="#d9d9d9"/><stop offset="0.38" stop-color="#bcbcbc"/><stop offset="0.45" stop-color="#a8a8a8"/><stop offset="0.69" stop-color="#e3e3e3"/><stop offset="0.73" stop-color="#d8d8d8"/><stop offset="0.8" stop-color="#bcbcbc"/><stop offset="0.89" stop-color="#8e8e8e"/><stop offset="0.99" stop-color="#505050"/><stop offset="1" stop-color="#474747"/></linearGradient><linearGradient id="a5049a53-870b-40ab-9355-e0b9e9ab4458" x1="170.7" y1="65.78" x2="172.56" y2="83.82" gradientUnits="userSpaceOnUse"><stop offset="0"/><stop offset="0.04" stop-color="#0e0e0e"/><stop offset="0.09" stop-color="#262626"/><stop offset="0.13" stop-color="#343434"/><stop offset="0.19" stop-color="#4d4d4d"/><stop offset="0.26" stop-color="#3a3a3a"/><stop offset="0.34" stop-color="#2b2b2b"/><stop offset="0.41" stop-color="#262626"/><stop offset="0.9" stop-color="#262626"/><stop offset="0.94" stop-color="#353535"/><stop offset="0.95" stop-color="#3b3b3b"/><stop offset="1" stop-color="#262626"/></linearGradient><linearGradient id="2d94fa82-b3ad-4567-9168-273faa7af518" x1="126.56" y1="136.52" x2="189.28" y2="64.76" gradientUnits="userSpaceOnUse"><stop offset="0" stop-color="#242424"/><stop offset="0.24"/><stop offset="0.32" stop-color="#0e0e0e"/><stop offset="0.41" stop-color="#262626"/><stop offset="0.47" stop-color="#343434"/><stop offset="0.55" stop-color="#4d4d4d"/><stop offset="0.55" stop-color="#4b4b4b"/><stop offset="0.58" stop-color="#333"/><stop offset="0.61" stop-color="#242424"/><stop offset="0.64" stop-color="#1f1f1f"/><stop offset="0.76" stop-color="#232323"/><stop offset="0.88" stop-color="#2e2e2e"/><stop offset="1" stop-color="#414141"/><stop offset="1" stop-color="#424242"/></linearGradient><linearGradient id="f98a8c92-e068-42cb-abf3-993942e3fd5f" x1="119.09" y1="153.3" x2="168.37" y2="101.08" gradientUnits="userSpaceOnUse"><stop offset="0"/><stop offset="0.04" stop-color="#0e0e0e"/><stop offset="0.09" stop-color="#262626"/><stop offset="0.41" stop-color="#262626"/><stop offset="0.9" stop-color="#262626"/><stop offset="1" stop-color="#262626"/><stop offset="1" stop-color="#262626"/></linearGradient><radialGradient id="52d8969e-5dd1-47e4-b22f-3cc67f3dac09" cx="1201.35" cy="-244.6" r="7.59" xlink:href="#66e31512-0c0a-4bc4-9ada-8ad34e65cf60"/><linearGradient id="1b9fa8ca-6d2f-408b-96d2-5f08da03184e" x1="102.33" y1="326.68" x2="169.59" y2="326.68" xlink:href="#a5049a53-870b-40ab-9355-e0b9e9ab4458"/><linearGradient id="f4b82a8d-2e61-46b3-8d17-a60d1de720d0" x1="260.86" y1="229.41" x2="276.28" y2="215.29" gradientUnits="userSpaceOnUse"><stop offset="0" stop-color="#474747"/><stop offset="0.05" stop-color="#6c6c6c"/><stop offset="0.14" stop-color="#aaa"/><stop offset="0.21" stop-color="#d8d8d8"/><stop offset="0.27" stop-color="#f4f4f4"/><stop offset="0.31" stop-color="#fff"/><stop offset="0.55" stop-color="#a8a8a8"/><stop offset="0.62" stop-color="#bcbcbc"/><stop offset="0.73" stop-color="#d9d9d9"/><stop offset="0.79" stop-color="#e3e3e3"/><stop offset="0.84" stop-color="#dedede"/><stop offset="0.89" stop-color="#d0d0d0"/><stop offset="0.95" stop-color="#b8b8b8"/><stop offset="1" stop-color="#9c9c9c"/></linearGradient><linearGradient id="6f52840b-3f75-44e0-a879-19a44897d675" x1="155.11" y1="152.42" x2="197.19" y2="88.51" gradientUnits="userSpaceOnUse"><stop offset="0"/><stop offset="0.06" stop-color="#0e0e0e"/><stop offset="0.13" stop-color="#262626"/><stop offset="0.2" stop-color="#343434"/><stop offset="0.24" stop-color="#404040"/><stop offset="0.31" stop-color="#303030"/><stop offset="0.35" stop-color="#262626"/><stop offset="0.74" stop-color="#262626"/><stop offset="0.77" stop-color="#262626"/><stop offset="0.81" stop-color="#353535"/><stop offset="0.86" stop-color="#545454"/><stop offset="1" stop-color="#262626"/></linearGradient><linearGradient id="2335a050-901f-4c2e-aabd-0a384d207f13" x1="140.76" y1="136.84" x2="161.61" y2="136.84" gradientUnits="userSpaceOnUse"><stop offset="0" stop-color="#262626"/><stop offset="0.13" stop-color="#2c2b2b"/><stop offset="0.63" stop-color="#3d3a3b"/><stop offset="1" stop-color="#434041"/></linearGradient><linearGradient id="0861021b-b873-4227-9dcb-415a313506a1" x1="173.34" y1="104.16" x2="209.25" y2="167.83" gradientUnits="userSpaceOnUse"><stop offset="0"/><stop offset="0.08" stop-color="#121212"/><stop offset="0.26" stop-color="#333"/><stop offset="0.36" stop-color="#404040"/><stop offset="0.67" stop-color="#2d2d2d"/><stop offset="0.9" stop-color="#262626"/><stop offset="0.92" stop-color="#2a2a2a"/><stop offset="0.95" stop-color="#353535"/><stop offset="0.96" stop-color="#424242"/><stop offset="0.97" stop-color="#393939"/><stop offset="0.99" stop-color="#2b2b2b"/><stop offset="1" stop-color="#262626"/></linearGradient><linearGradient id="1d9123e0-abae-4cd7-8612-205a003eaff2" x1="174.48" y1="157.3" x2="182.8" y2="128.42" gradientUnits="userSpaceOnUse"><stop offset="0" stop-color="#262626"/><stop offset="0.39" stop-color="#413f40"/><stop offset="0.74" stop-color="#534f51"/><stop offset="1" stop-color="#595557"/></linearGradient><linearGradient id="d59ba3d1-5be0-4b56-b91a-47178b6f8d20" x1="171.29" y1="141.78" x2="187.97" y2="141.78" xlink:href="#2335a050-901f-4c2e-aabd-0a384d207f13"/><linearGradient id="6c2bed90-4b2a-49f2-a896-0ae7341ac77d" x1="173.67" y1="141.43" x2="182.81" y2="135.83" gradientUnits="userSpaceOnUse"><stop offset="0"/><stop offset="0.04" stop-color="#121212"/><stop offset="0.14" stop-color="#333"/><stop offset="0.19" stop-color="#404040"/><stop offset="0.42" stop-color="#2d2d2d"/><stop offset="0.58" stop-color="#262626"/><stop offset="0.96" stop-color="#424242"/></linearGradient><linearGradient id="69eeb9aa-2642-479c-bf75-edddb62d3efd" x1="181.83" y1="142.73" x2="183.08" y2="138.48" xlink:href="#2335a050-901f-4c2e-aabd-0a384d207f13"/><linearGradient id="5771e749-082f-4303-b886-da3141269477" x1="129.64" y1="122.53" x2="202.88" y2="91.46" gradientUnits="userSpaceOnUse"><stop offset="0"/><stop offset="0" stop-color="#080808"/><stop offset="0.02" stop-color="#212121"/><stop offset="0.03" stop-color="#323232"/><stop offset="0.05" stop-color="#3d3d3d"/><stop offset="0.06" stop-color="#404040"/><stop offset="0.09" stop-color="#252525"/><stop offset="0.13" stop-color="#101010"/><stop offset="0.16" stop-color="#040404"/><stop offset="0.19"/><stop offset="0.21" stop-color="#080808"/><stop offset="0.32" stop-color="#292929"/><stop offset="0.38" stop-color="#363636"/><stop offset="0.38" stop-color="#353535"/><stop offset="0.5" stop-color="#212121"/><stop offset="0.58" stop-color="#1a1a1a"/><stop offset="0.77" stop-color="#262626"/><stop offset="0.89" stop-color="#454545"/><stop offset="0.94" stop-color="#545454"/><stop offset="0.96" stop-color="#4d4d4d"/><stop offset="0.98" stop-color="#3a3a3a"/><stop offset="1" stop-color="#262626"/></linearGradient><linearGradient id="913dcb84-c478-4a08-8697-b4a63b1ce9d7" x1="87.48" y1="231.86" x2="104.95" y2="241.67" gradientUnits="userSpaceOnUse"><stop offset="0" stop-color="#9c9c9c"/><stop offset="0.05" stop-color="#b8b8b8"/><stop offset="0.11" stop-color="#d0d0d0"/><stop offset="0.16" stop-color="#dedede"/><stop offset="0.21" stop-color="#e3e3e3"/><stop offset="0.27" stop-color="#d9d9d9"/><stop offset="0.38" stop-color="#bcbcbc"/><stop offset="0.45" stop-color="#a8a8a8"/><stop offset="0.69" stop-color="#fff"/><stop offset="0.73" stop-color="#f4f4f4"/><stop offset="0.79" stop-color="#d8d8d8"/><stop offset="0.86" stop-color="#aaa"/><stop offset="0.95" stop-color="#6c6c6c"/><stop offset="1" stop-color="#474747"/></linearGradient><linearGradient id="cae7be5f-ba41-4add-9565-eb51bbf352a3" x1="235.87" y1="137.95" x2="241.1" y2="119.67" xlink:href="#913dcb84-c478-4a08-8697-b4a63b1ce9d7"/></defs><title>ilustra-catraca</title><g clip-path="url(#a6018d56-9754-4e8b-8ec6-ec7d99291de9)"><path d="M142.75,82.82s-1.63-8.16-5-11.47l-.58-.61-20.8-16s-5.84-4.57-8.17,2.81L99.6,88.06a.57.57,0,0,0,0,.22v58.54Z" fill="url(#66e31512-0c0a-4bc4-9ada-8ad34e65cf60)"/><path d="M115.78,54.35l65.45-6.47a4.5,4.5,0,0,0-3.87-1.37S116,52.19,113.68,52.38a5.8,5.8,0,0,0-4,2.42,4,4,0,0,1,3.41-1.44,6.5,6.5,0,0,1,2.72,1" fill="url(#0dbcdfa3-a0a9-4cca-accb-06e1a143e715)"/><polygon points="181.22 47.88 201.92 62.73 134.39 68.7 115.78 54.35 181.22 47.88" fill="url(#5177d85f-ca2b-4353-a4aa-9faed9329752)"/><path d="M208.3,75.35l-65.55,7.47s-2.86-9.13-4.56-11a22.71,22.71,0,0,0-3.8-3.16l67.53-6a17.85,17.85,0,0,1,2.42,2.92C205.42,67.52,208.3,75.35,208.3,75.35Z" fill="url(#a5049a53-870b-40ab-9355-e0b9e9ab4458)"/><path d="M209.17,78.1l-1.47,1.78C206.18,80,102.79,149.75,102,151l-1.63-1.57a4.91,4.91,0,0,1-.75-2.64l41.51-63a5,5,0,0,1,3.68-2.22l63.54-6.21Z" fill="url(#2d94fa82-b3ad-4567-9168-273faa7af518)"/><path d="M209.17,78.1l-45.32,69.68a5,5,0,0,1-4,2.27L104.7,151.8a5,5,0,0,1-4.38-2.34l42.25-62.95a5,5,0,0,1,3.74-2.25Z" fill="url(#f98a8c92-e068-42cb-abf3-993942e3fd5f)"/><path d="M170.41,62.28l-10.71.89s-4,0-5.67-2.32c-1.11-1.56,1.2-2.58,1.2-2.58l9.29-.84a10.12,10.12,0,0,1,5.24,2.21C171.55,61.35,170.41,62.28,170.41,62.28Z" fill="url(#52d8969e-5dd1-47e4-b22f-3cc67f3dac09)"/><polygon points="173.72 50.75 175.56 52.55 178.06 50.79 173.72 50.75" fill="#31363d"/><polygon points="133.45 56.59 131.61 54.8 128.2 56.11 133.45 56.59" fill="#31363d"/><path d="M121.44,134.59a18.87,18.87,0,0,0-18.87,18.87V516.28s-1.51,3.38,19,2.25l41.87-4.12s6.37,0,6.37-2.5V144.34a9.75,9.75,0,0,0-9.74-9.75Z" fill="url(#1b9fa8ca-6d2f-408b-96d2-5f08da03184e)"/><path d="M162.4,135.25V513.82l-40.77,4V135.25H162.4m.65-.66H121v384l42.07-4.15V134.59Z" fill="#333"/><path d="M339.92,301.67c-3.6,3.29-7.48,4.93-9.19,4.15L189.36,150.94l14-13.55,141.43,155-.21,0C345.92,293.85,343.91,298,339.92,301.67Z" fill="url(#f4b82a8d-2e61-46b3-8d17-a60d1de720d0)"/><path d="M341.92,303.68c-4,3.64-8.34,5.26-9.68,3.8l-1.51-1.66c1.71.78,5.6-.85,9.19-4.15,5.19-4.74,4.87-9.26,4.87-9.26l1.8,2C347.93,295.85,345.91,300,341.92,303.68Z" fill="#31363d" stroke="#434041" stroke-linecap="round" stroke-linejoin="round" stroke-width="0.65"/><path d="M208.19,123.17c.08,7.24-5.67,15.66-5.67,15.66-10,14.08-21.58,15.08-21.58,15.08-1.08-4.83-6.33-5.17-6.33-5.17-9.17-.75-14.41,7.42-14.41,7.42L153.52,155c-3.42-8.16-10.06-12.59-13.73-12.95l.07-.1s-1-2.57,2.75-7.15c0,0-6.71-13.21-1.43-19.5,5.1-6.08,16.35,6.25,16.35,6.25s14.15-11.56,25.69-11.26c0,0,3.26-3.92,7.8-2.24a16.31,16.31,0,0,1,3.68-.41c2.94,0,6.85.8,8.76,4.6,0,0-.28-4.62-.66-7.83-.22-1.9.24-3,1.17-2.54l1.24,2.79.45,1.46A93.6,93.6,0,0,1,208.19,123.17Z" fill="url(#6f52840b-3f75-44e0-a879-19a44897d675)"/><path d="M156.05,143.12l-13.44-8.37-1.85-4.55s19,11.37,20.85,12.45C160.37,144.18,156.05,143.12,156.05,143.12Z" fill="url(#2335a050-901f-4c2e-aabd-0a384d207f13)"/><path d="M198.85,128.25,178,131.12l-3.27-.5-17.2-9.12h0c.39-.31,14.31-11.54,25.69-11.25,0,0,3.26-3.92,7.8-2.24a16.31,16.31,0,0,1,3.68-.41c2.94,0,6.85.8,8.76,4.6Z" fill="url(#0861021b-b873-4227-9dcb-415a313506a1)"/><path d="M202.52,138.83c-10,14.08-21.58,15.08-21.58,15.08-1.08-4.83-6.33-5.17-6.33-5.17-9.17-.75-14.41,7.42-14.41,7.42l-1.09-.22h0c-2.33-.67-7.17-3.25-3-12.81a36.14,36.14,0,0,0,10-1.23c7.8-2.18,14.44-6.65,8.69-11.27,0,0,14.38-6.62,24.12-2.37a39.51,39.51,0,0,0-6.56,6.18C188.46,139,189.67,143.18,202.52,138.83Z" fill="url(#1d9123e0-abae-4cd7-8612-205a003eaff2)"/><path d="M181.24,145.62c-4.52,1.9-8.9,1.71-9.8-.41-.64-1.53.71-3.65,3.22-5.42a16.76,16.76,0,0,1,3.36-1.86,17.61,17.61,0,0,1,2.75-.9c3.43-.83,6.33-.37,7,1.32C188.7,140.47,185.76,143.73,181.24,145.62Z" fill="url(#d59ba3d1-5be0-4b56-b91a-47178b6f8d20)"/><path d="M180.77,137v0a3.56,3.56,0,0,1-2.29,2.46c-2.73,1.17-3.82.28-3.82.28a16.76,16.76,0,0,1,3.36-1.86A17.61,17.61,0,0,1,180.77,137Z" fill="url(#6c2bed90-4b2a-49f2-a896-0ae7341ac77d)"/><ellipse cx="182.39" cy="140.82" rx="1.62" ry="1.83" fill="url(#69eeb9aa-2642-479c-bf75-edddb62d3efd)"/><path d="M202.8,104.36c.38,3.21.66,7.83.66,7.83-1.91-3.8-5.82-4.6-8.76-4.6A16.31,16.31,0,0,0,191,108c-4.54-1.68-7.8,2.24-7.8,2.24-11.54-.3-25.69,11.26-25.69,11.26s-11.25-12.33-16.35-6.25c-5.28,6.29,1.43,19.5,1.43,19.5-3.75,4.58-2.75,7.15-2.75,7.15l-.07.1a15,15,0,0,0-1.92-.09l-9.67-23.08S121.87,107.66,146,92.5c0,0,32-19.16,50.83-6.66l7.11,16C203,101.33,202.58,102.46,202.8,104.36Z" fill="url(#5771e749-082f-4303-b886-da3141269477)"/><ellipse cx="44.06" cy="329.19" rx="4.73" ry="9.71" transform="translate(-263.06 202.76) rotate(-60)" fill="#31363d" stroke="#333" stroke-linecap="round" stroke-linejoin="round" stroke-width="0.65"/><path d="M154.83,152.25,52.71,333.62l-16.92-9.53L137.86,141.91a22.16,22.16,0,0,1,11.33,3.36c3.58,2.33,5.64,7,5.64,7" fill="url(#913dcb84-c478-4a08-8697-b4a63b1ce9d7)"/><path d="M35.17,325.2l1.65-2.79c1.83-1,6-.15,10.15,2.25,3.65,2.11,6.27,4.8,6.89,6.85L52,334.79" fill="#31363d" stroke="#434041" stroke-linecap="round" stroke-linejoin="round" stroke-width="0.65"/><ellipse cx="43.63" cy="329.95" rx="3.85" ry="9.71" transform="translate(-263.93 202.76) rotate(-60)" fill="#31363d" stroke="#333" stroke-linecap="round" stroke-linejoin="round" stroke-width="0.65"/><path d="M190,107.61s-6.12-1.07-9,6.82,4.28,12.39,4.28,12.39l106.78,30,4.61-18.94Z" fill="url(#cae7be5f-ba41-4add-9565-eb51bbf352a3)"/><path d="M296.15,137.65l-4.06-1.09h0c-3.54.55-6.8,3.78-7.88,8.53-.93,4.11.2,8,2.54,10.22l4.85,1.27" fill="#31363d" stroke="#434041" stroke-linecap="round" stroke-linejoin="round" stroke-width="0.65"/><path d="M302.25,149.1c-1.19,5.25-5.74,8.71-10.16,7.71s-7.21-6-6-11.31,5.88-8.72,10.3-7.73S303.43,143.84,302.25,149.1Z" fill="#31363d" stroke="#333" stroke-linecap="round" stroke-linejoin="round" stroke-width="0.65"/><path d="M291.39,142a.83.83,0,0,1,.15.11,3.21,3.21,0,0,1,1.17,1.93h0s0,.08,0,.12,0,.08,0,.12a2.48,2.48,0,0,1,0,.61h0a1.8,1.8,0,0,1-.08.39,2.53,2.53,0,0,1-.12.36,3.64,3.64,0,0,1-1.15,1.45h0l-.33.24-.36.2a5.65,5.65,0,0,1-1.95.59h-.45c0,.22,0,.45.07.66a5.61,5.61,0,0,0,.24,1,6.5,6.5,0,0,0,2.62,3.52,1.49,1.49,0,0,1,0-.21,3.24,3.24,0,0,1,1-2h0l.09-.08.09-.07,0,0a2.39,2.39,0,0,1,.49-.28h0a2.06,2.06,0,0,1,.35-.12l.35-.07a3.21,3.21,0,0,1,1.69.33h0l0,0h0l.34.18.34.23a6.18,6.18,0,0,1,1.44,1.53v0l.06.08v0l0,.08.12.2a4.23,4.23,0,0,0,.41-.33,5.53,5.53,0,0,0,.64-.64,6.86,6.86,0,0,0,1.64-4.33h0v0l-.17.08a2.68,2.68,0,0,1-2.13.13h0l-.1,0-.1-.05a2.17,2.17,0,0,1-.49-.32h0a3.44,3.44,0,0,1-.27-.27,2.17,2.17,0,0,1-.23-.3,3.88,3.88,0,0,1-.59-1.79h0a3,3,0,0,1,0-.43c0-.14,0-.29,0-.43a6.71,6.71,0,0,1,.51-2.12h0a1.17,1.17,0,0,1,.05-.11.61.61,0,0,0,.05-.12l.1-.21-.05,0-.39-.19a5.66,5.66,0,0,0-2.14-.45h-.05a5.61,5.61,0,0,0-1.81.28l-.29.11A5.65,5.65,0,0,0,291.39,142Z" fill="none" stroke="#262626" stroke-linecap="round" stroke-linejoin="round" stroke-width="0.65" fill-rule="evenodd"/></g><rect x="375" y="37.6" width="16" height="16" transform="translate(337.4 428.6) rotate(-90)" fill="none" stroke="#fcb84d" stroke-miterlimit="10" stroke-width="2"/><polyline points="375 45.6 322 45.6 322 26.75 299.01 26.75" fill="none" stroke="#fcb84d" stroke-miterlimit="10" stroke-width="2"/><rect x="382" y="44.6" width="2" height="2" transform="translate(337.4 428.6) rotate(-90)" fill="#fcb84d"/><rect x="261" y="341.76" width="140" height="50" rx="25" ry="25" fill="none" stroke="#33c" stroke-linecap="round" stroke-linejoin="round" stroke-width="1.5"/><path d="M323.59,365.8h2.17a.37.37,0,0,1,.29.09.42.42,0,0,1,.08.29v.9a.32.32,0,0,1-.37.36h-2.17v2.21a.34.34,0,0,1-.39.39h-.94a.34.34,0,0,1-.39-.39v-2.21H319.7a.32.32,0,0,1-.37-.36v-.9a.42.42,0,0,1,.08-.29.37.37,0,0,1,.29-.09h2.17v-2.2a.34.34,0,0,1,.39-.38h.94a.34.34,0,0,1,.39.38Z" fill="#fcb84d"/><path d="M339.9,371.77h-1.36a.3.3,0,0,1-.33-.34v-9.62a.29.29,0,0,1,.33-.33h5.11a.29.29,0,0,1,.32.33v1.09c0,.23-.11.34-.32.34h-3.22c-.13,0-.19.06-.19.17v2.48c0,.13.06.2.19.2h2.74a.29.29,0,0,1,.33.33v1.07q0,.36-.33.36h-2.74c-.13,0-.19,0-.19.17v3.41A.3.3,0,0,1,339.9,371.77Z" fill="#fcb84d"/><path d="M350.64,371.77h-1.79a2.67,2.67,0,0,1-2-.68,2.57,2.57,0,0,1-.69-1.93v-5.07a2.58,2.58,0,0,1,.69-1.94,2.67,2.67,0,0,1,2-.67h1.79a2.67,2.67,0,0,1,1.95.67,2.58,2.58,0,0,1,.69,1.94v5.07a2.57,2.57,0,0,1-.69,1.93A2.67,2.67,0,0,1,350.64,371.77ZM349.17,370h1.13a1,1,0,0,0,.73-.22,1,1,0,0,0,.22-.73v-4.88a1,1,0,0,0-.22-.73,1,1,0,0,0-.73-.21h-1.13a1,1,0,0,0-.72.21,1,1,0,0,0-.21.73v4.88a1,1,0,0,0,.21.73A1,1,0,0,0,349.17,370Z" fill="#fcb84d"/><path d="M359.34,371.77H358a.31.31,0,0,1-.35-.34v-8c0-.11-.06-.17-.18-.17h-1.82a.3.3,0,0,1-.34-.34v-1.09c0-.22.11-.33.34-.33h6.05a.29.29,0,0,1,.33.33v1.09c0,.23-.11.34-.33.34h-1.83c-.13,0-.19.06-.19.17v8A.3.3,0,0,1,359.34,371.77Z" fill="#fcb84d"/><path d="M368.48,371.77h-1.79a2.67,2.67,0,0,1-1.95-.68,2.57,2.57,0,0,1-.69-1.93v-5.07a2.58,2.58,0,0,1,.69-1.94,2.67,2.67,0,0,1,1.95-.67h1.79a2.67,2.67,0,0,1,1.95.67,2.58,2.58,0,0,1,.69,1.94v5.07a2.57,2.57,0,0,1-.69,1.93A2.67,2.67,0,0,1,368.48,371.77ZM367,370h1.13a1,1,0,0,0,.73-.22,1,1,0,0,0,.22-.73v-4.88a1,1,0,0,0-.22-.73,1,1,0,0,0-.73-.21H367a1,1,0,0,0-.72.21,1,1,0,0,0-.21.73v4.88a1,1,0,0,0,.21.73A1,1,0,0,0,367,370Z" fill="#fcb84d"/><path d="M373.74,369.14v-.32a.31.31,0,0,1,.34-.34h1.36a.31.31,0,0,1,.34.34V369a1.13,1.13,0,0,0,.24.83,1.29,1.29,0,0,0,.88.23h.75a.93.93,0,0,0,1.12-1.14v-.19a.8.8,0,0,0-.38-.71,1.9,1.9,0,0,0-.93-.3,8.15,8.15,0,0,1-1.21-.19,7.13,7.13,0,0,1-1.21-.35,1.9,1.9,0,0,1-.94-.85,3.13,3.13,0,0,1-.37-1.62v-.56a2.55,2.55,0,0,1,.7-1.93,2.67,2.67,0,0,1,1.95-.69H378a2.69,2.69,0,0,1,2,.69,2.56,2.56,0,0,1,.71,1.93v.3a.3.3,0,0,1-.34.34H379c-.22,0-.33-.11-.33-.34v-.09a1.15,1.15,0,0,0-.25-.85,1.3,1.3,0,0,0-.88-.22h-.62a1.25,1.25,0,0,0-.89.24,1.51,1.51,0,0,0-.23,1v.31c0,.5.44.79,1.31.86a8.2,8.2,0,0,1,2.42.55,2,2,0,0,1,.93.85,2.91,2.91,0,0,1,.38,1.58v.54a2.59,2.59,0,0,1-.7,1.94,2.68,2.68,0,0,1-2,.69H376.4a2.67,2.67,0,0,1-1.95-.69A2.6,2.6,0,0,1,373.74,369.14Z" fill="#fcb84d"/><polyline points="293.25 359.68 293.49 356.27 307.36 357.24 306.27 372.85 303.82 372.68" fill="none" stroke="#fcb84d" stroke-linecap="round" stroke-linejoin="round" stroke-width="1.5"/><rect x="286.77" y="362.16" width="13.91" height="15.65" transform="translate(-25.09 21.39) rotate(-4)" fill="none" stroke="#fcb84d" stroke-linecap="round" stroke-linejoin="round" stroke-width="1.5"/><path d="M272.36,16.28a1.46,1.46,0,0,1-.46-.4A30.39,30.39,0,0,0,246.16,2.61a1.31,1.31,0,0,1-1.34-1.27A1.31,1.31,0,0,1,246.1,0,33,33,0,0,1,274,14.37a1.31,1.31,0,0,1-.31,1.82,1.34,1.34,0,0,1-1.35.09Zm-39.31-4.89a1.34,1.34,0,0,1-.57-.56A1.28,1.28,0,0,1,233,9.09,27.13,27.13,0,0,1,245.61,6a30,30,0,0,1,23.85,12.25,27.25,27.25,0,0,1,4.8,12,1.3,1.3,0,0,1-1.09,1.47,1.32,1.32,0,0,1-1.49-1.1,24.34,24.34,0,0,0-4.33-10.83A27.38,27.38,0,0,0,245.61,8.59a24.34,24.34,0,0,0-11.37,2.81,1.34,1.34,0,0,1-1.19,0Zm.1,35.32a1.27,1.27,0,0,1-.64-.77A27,27,0,0,1,231,37.46a23,23,0,0,1,2.73-11.29c3.53-6.87,12.28-9.44,19.5-5.72s10.22,12.32,6.68,19.2a1.3,1.3,0,0,1-2.31-1.19c2.88-5.6.39-12.64-5.56-15.7s-13.12-1-16,4.6a20.46,20.46,0,0,0-2.45,10A24.73,24.73,0,0,0,235,45.15a1.28,1.28,0,0,1-.85,1.63,1.17,1.17,0,0,1-1-.07ZM251.91,51a14.06,14.06,0,0,1-6.11-5.73,13.86,13.86,0,0,1-.27-13,1.3,1.3,0,1,1,2.31,1.19A11.23,11.23,0,0,0,248.09,44a11.35,11.35,0,0,0,5,4.67,16,16,0,0,0,2.53,1,1.3,1.3,0,0,1-.77,2.49,17.59,17.59,0,0,1-3-1.2Zm-7.12,2.38a1.11,1.11,0,0,1-.27-.2,19.92,19.92,0,0,1-6.09-9.28,19,19,0,0,1,1.21-14.64,8,8,0,0,1,14.23,7.33,5.42,5.42,0,0,0,9.62,5c4.48-8.71.62-19.66-8.61-24.41a19,19,0,0,0-20.08,1.45,16.59,16.59,0,0,0-4.68,5.78,26,26,0,0,0-2.76,9.12,1.3,1.3,0,0,1-1.45,1.14,1.32,1.32,0,0,1-1.14-1.45,29.21,29.21,0,0,1,3-10,19.37,19.37,0,0,1,5.43-6.67,21.59,21.59,0,0,1,22.83-1.68c10.5,5.41,14.87,17.93,9.73,27.92a8,8,0,0,1-14.24-7.33,5.42,5.42,0,0,0-9.61-4.95,16.43,16.43,0,0,0-1,12.65,17.53,17.53,0,0,0,5.37,8.16,1.3,1.3,0,0,1-1.47,2.11Z" fill="#33c"/><line x1="381.5" y1="253.2" x2="387.5" y2="253.2" fill="none" stroke="#33c" stroke-miterlimit="10" stroke-width="2"/><line x1="381.5" y1="245.52" x2="387.5" y2="245.52" fill="none" stroke="#33c" stroke-miterlimit="10" stroke-width="2"/><line x1="381.5" y1="237.84" x2="387.5" y2="237.84" fill="none" stroke="#33c" stroke-miterlimit="10" stroke-width="2"/><line x1="381.5" y1="230.16" x2="387.5" y2="230.16" fill="none" stroke="#33c" stroke-miterlimit="10" stroke-width="2"/><line x1="381.5" y1="222.48" x2="387.5" y2="222.48" fill="none" stroke="#33c" stroke-miterlimit="10" stroke-width="2"/><line x1="381.5" y1="214.8" x2="387.5" y2="214.8" fill="none" stroke="#33c" stroke-miterlimit="10" stroke-width="2"/><line x1="381.5" y1="207.12" x2="387.5" y2="207.12" fill="none" stroke="#33c" stroke-miterlimit="10" stroke-width="2"/><line x1="381.5" y1="199.44" x2="387.5" y2="199.44" fill="none" stroke="#33c" stroke-miterlimit="10" stroke-width="2"/><line x1="378" y1="191.76" x2="391" y2="191.76" fill="none" stroke="#33c" stroke-miterlimit="10" stroke-width="2"/><line x1="381.5" y1="184.08" x2="387.5" y2="184.08" fill="none" stroke="#33c" stroke-miterlimit="10" stroke-width="2"/><line x1="381.5" y1="176.39" x2="387.5" y2="176.39" fill="none" stroke="#33c" stroke-miterlimit="10" stroke-width="2"/><line x1="381.5" y1="168.71" x2="387.5" y2="168.71" fill="none" stroke="#33c" stroke-miterlimit="10" stroke-width="2"/><line x1="381.5" y1="161.03" x2="387.5" y2="161.03" fill="none" stroke="#33c" stroke-miterlimit="10" stroke-width="2"/><line x1="381.5" y1="153.35" x2="387.5" y2="153.35" fill="none" stroke="#33c" stroke-miterlimit="10" stroke-width="2"/><line x1="381.5" y1="145.67" x2="387.5" y2="145.67" fill="none" stroke="#33c" stroke-miterlimit="10" stroke-width="2"/><line x1="381.5" y1="137.99" x2="387.5" y2="137.99" fill="none" stroke="#33c" stroke-miterlimit="10" stroke-width="2"/><line x1="381.5" y1="130.31" x2="387.5" y2="130.31" fill="none" stroke="#33c" stroke-miterlimit="10" stroke-width="2"/><polygon points="366.37 191.55 361.37 196.55 361.37 186.55 366.37 191.55" fill="none" stroke="#fcb84d" stroke-miterlimit="10" stroke-width="2"/><polyline points="12 16.75 1 16.75 1 27.75" fill="none" stroke="#fcb84d" stroke-miterlimit="10" stroke-width="2"/><rect x="1" y="167.76" width="16" height="16" fill="none" stroke="#33c" stroke-miterlimit="10" stroke-width="2"/><polyline points="9 183.75 9 366.75 248 366.75" fill="none" stroke="#33c" stroke-miterlimit="10" stroke-width="2"/><rect x="8" y="174.76" width="2" height="2" fill="#33c"/></svg>