<svg id="13b99d29-f10e-4002-b28e-585e2cf24faf" data-name="Layer 1" xmlns="http://www.w3.org/2000/svg" xmlns:xlink="http://www.w3.org/1999/xlink" viewBox="0 0 420 350"><defs><linearGradient id="33a98bb7-be0f-4d2b-adf5-a9b28c65be4e" x1="338.77" y1="278.94" x2="359.02" y2="278.94" gradientUnits="userSpaceOnUse"><stop offset="0" stop-color="#b3b3b3" stop-opacity="0"/><stop offset="0.05" stop-color="#b4b4b4" stop-opacity="0.05"/><stop offset="0.14" stop-color="#b6b6b6" stop-opacity="0.17"/><stop offset="0.24" stop-color="#bababa" stop-opacity="0.37"/><stop offset="0.36" stop-color="#bfbfbf" stop-opacity="0.65"/><stop offset="0.5" stop-color="#c5c5c5"/><stop offset="0.66" stop-color="#d4d4d4"/><stop offset="0.98" stop-color="#fdfdfd"/><stop offset="1" stop-color="#fff"/></linearGradient></defs><title>ilustra-combo</title><rect x="156.41" y="62.51" width="258.59" height="173.19" fill="#000015" stroke="#33c" stroke-miterlimit="10" stroke-width="1.5"/><line x1="171.6" y1="90.71" x2="179.31" y2="90.71" fill="none" stroke="#512da8" stroke-miterlimit="10" stroke-width="1.5"/><line x1="171.6" y1="111.74" x2="185.53" y2="111.74" fill="none" stroke="#fcb84d" stroke-miterlimit="10" stroke-width="1.5"/><line x1="171.6" y1="122.26" x2="179.31" y2="122.26" fill="none" stroke="#33c" stroke-miterlimit="10" stroke-width="1.5"/><line x1="171.6" y1="132.77" x2="180.6" y2="132.77" fill="none" stroke="#33c" stroke-miterlimit="10" stroke-width="1.5"/><line x1="171.6" y1="143.29" x2="179.31" y2="143.29" fill="none" stroke="#512da8" stroke-miterlimit="10" stroke-width="1.5"/><line x1="171.6" y1="153.8" x2="175.46" y2="153.8" fill="none" stroke="#512da8" stroke-miterlimit="10" stroke-width="1.5"/><line x1="171.6" y1="101.23" x2="187.02" y2="101.23" fill="none" stroke="#33c" stroke-miterlimit="10" stroke-width="1.5"/><path d="M247.44,196.62h.11A44.49,44.49,0,1,0,203.06,152" fill="none" stroke="#33c" stroke-miterlimit="10" stroke-width="1.5"/><g opacity="0.3"><path d="M276.19,123.74l0,0L264.9,134.94l.05,0a24.4,24.4,0,0,1-34.49,34.51l-.06-.06-11.25,11.24.06.06a40.29,40.29,0,0,0,57-57Z" fill="#33c"/></g><circle cx="247.55" cy="152.13" r="12.92" fill="none" stroke="#fff" stroke-miterlimit="10" stroke-width="1.5"/><path d="M247,129.51a22.66,22.66,0,1,0,16.69,6.76" fill="none" stroke="#fcb84d" stroke-miterlimit="10" stroke-width="1.5"/><rect x="390.01" y="69.74" width="12.45" height="12.45" fill="#00001a" stroke="#33c" stroke-linecap="round" stroke-linejoin="round" stroke-width="1.5"/><rect x="395.45" y="75.19" width="1.56" height="1.56" fill="#33c"/><line x1="171.6" y1="75.96" x2="389.82" y2="75.96" fill="none" stroke="#33c" stroke-miterlimit="10" stroke-width="1.5"/><polygon points="384.77 175.33 384.77 188.41 387.87 191.5 387.87 201.37 313.29 201.37 313.29 157.25 320.11 157.25 323.21 160.35 333.88 160.35 336.98 157.25 387.87 157.25 387.87 172.23 384.77 175.33" fill="none" stroke="#fcb84d" stroke-miterlimit="10" stroke-width="1.5"/><polyline points="313.29 159.33 313.29 157.25 315.46 157.25" fill="none" stroke="#fff" stroke-miterlimit="10" stroke-width="1.5"/><polyline points="313.29 199.21 313.29 201.36 315.46 201.36" fill="none" stroke="#fff" stroke-miterlimit="10" stroke-width="1.5"/><polyline points="385.7 157.25 387.87 157.25 387.87 159.33" fill="none" stroke="#fff" stroke-miterlimit="10" stroke-width="1.5"/><polyline points="387.87 199.21 387.87 201.36 385.7 201.36" fill="none" stroke="#fff" stroke-miterlimit="10" stroke-width="1.5"/><polyline points="410.31 62.51 415 62.51 415 67.2" fill="none" stroke="#fff" stroke-miterlimit="10" stroke-width="1.5"/><polyline points="156.41 67.03 156.41 62.34 161.09 62.34" fill="none" stroke="#fff" stroke-miterlimit="10" stroke-width="1.5"/><polyline points="415 231.02 415 235.7 410.31 235.7" fill="none" stroke="#fff" stroke-miterlimit="10" stroke-width="1.5"/><polyline points="161.09 235.89 156.41 235.89 156.41 231.21" fill="none" stroke="#fff" stroke-miterlimit="10" stroke-width="1.5"/><rect x="172.6" y="209.74" width="12.45" height="12.45" transform="translate(394.79 37.14) rotate(90)" fill="#000015" stroke="#33c" stroke-linecap="round" stroke-linejoin="round" stroke-width="1.5"/><line x1="284.37" y1="215.97" x2="185.05" y2="215.97" fill="none" stroke="#33c" stroke-miterlimit="10" stroke-width="1.5"/><rect x="178.05" y="215.19" width="1.56" height="1.56" transform="translate(394.79 37.14) rotate(90)" fill="#33c"/><line x1="284.37" y1="209.74" x2="284.37" y2="222.19" fill="none" stroke="#33c" stroke-miterlimit="10" stroke-width="1.5"/><rect x="328.81" y="221.77" width="45.55" height="87.04" rx="4.05" ry="4.05" fill="#000015" stroke="#33c" stroke-miterlimit="10" stroke-width="1.5"/><circle cx="351.58" cy="300.72" r="3.04" fill="none" stroke="#33c" stroke-miterlimit="10" stroke-width="1.5"/><line x1="338.77" y1="278.94" x2="359.02" y2="278.94" stroke="#fcb84d" stroke-miterlimit="10" stroke-width="1.5" fill="url(#33a98bb7-be0f-4d2b-adf5-a9b28c65be4e)"/><line x1="338.77" y1="286.03" x2="350.92" y2="286.03" fill="none" stroke="#33c" stroke-miterlimit="10" stroke-width="1.5"/><path d="M353.89,240.33c-1.28,1.08-2.06,1.1-3.7,2.49s-1.79,2.17-3.07,3.25c-.56.48-.89.58-1.18.52a4.72,4.72,0,1,0,1.89,2.23c0-.3.14-.61.7-1.08,1.28-1.09,2.07-1.11,3.71-2.5s1.78-2.16,3.06-3.25c.56-.48.89-.57,1.19-.51a4.72,4.72,0,1,0-1.9-2.24c0,.3-.14.61-.7,1.09Z" fill="none" stroke="#fcb84d" stroke-miterlimit="10" stroke-width="1.5"/><path d="M353.42,255.43c-1.28,1.08-2.07,1.1-3.7,2.5s-1.79,2.16-3.07,3.25c-.56.47-.89.57-1.19.51a4.71,4.71,0,1,0,1.9,2.24c0-.31.14-.62.7-1.09,1.28-1.09,2.06-1.11,3.7-2.5s1.79-2.16,3.07-3.25c.56-.47.89-.57,1.18-.51a4.73,4.73,0,1,0-1.89-2.24c0,.3-.14.61-.7,1.09Z" fill="none" stroke="#fff" stroke-miterlimit="10" stroke-width="1.5"/><path d="M79.41,42.59s-1.23-4.69-3.16-7.15a.6.6,0,0,0-.08-.08L61.61,24.09S57.62,21,56,26L50.11,46.88a.77.77,0,0,0,0,.15V87.1Z" fill="#000015" stroke="#33c" stroke-linecap="round" stroke-linejoin="round" stroke-width="1.5"/><path d="M106,19.38a3.06,3.06,0,0,0-2.65-.94l-43.59,4A3.94,3.94,0,0,0,57,24.11a2.79,2.79,0,0,1,2.34-1,4.43,4.43,0,0,1,1.86.68" fill="#000015" stroke="#33c" stroke-linecap="round" stroke-linejoin="round" stroke-width="1.5"/><polyline points="105.99 19.38 120.16 29.54 73.93 33.63 61.19 23.81" fill="#000015" stroke="#33c" stroke-linecap="round" stroke-linejoin="round" stroke-width="1.5"/><path d="M124.52,38.18,79.41,42.59s-1.7-5.56-2.88-6.8a15.67,15.67,0,0,0-2.6-2.16l46.23-4.09a11.82,11.82,0,0,1,1.65,2C122.56,32.82,124.52,38.18,124.52,38.18Z" fill="#000015" stroke="#33c" stroke-linecap="round" stroke-linejoin="round" stroke-width="1.5"/><path d="M50.09,87.1h0L78.51,44A3.42,3.42,0,0,1,81,42.43l43.49-4.25.6,1.88-31,47.7a3.4,3.4,0,0,1-2.76,1.55l-37.73,1.2A3.4,3.4,0,0,1,50.09,87.1Z" fill="#000015" stroke="#33c" stroke-linecap="round" stroke-linejoin="round" stroke-width="1.5"/><path d="M97.71,27.48l-7.33.61s-2.76,0-3.89-1.59c-.75-1.08.82-1.77.82-1.77l6.36-.58a7,7,0,0,1,3.6,1.52C98.49,26.84,97.71,27.48,97.71,27.48Z" fill="#000015" stroke="#33c" stroke-linecap="round" stroke-linejoin="round" stroke-width="1.5"/><polygon points="100.86 21.34 101.69 21.78 102.11 22.57 103.83 21.37 100.86 21.34" fill="#000015" stroke="#33c" stroke-linecap="round" stroke-linejoin="round" stroke-width="1.5"/><polygon points="73.29 25.34 72.14 24.6 72.03 24.11 69.69 25.01 73.29 25.34" fill="#000015" stroke="#33c" stroke-linecap="round" stroke-linejoin="round" stroke-width="1.5"/><path d="M113,340.19s.83,2.65-1.53,3.21c0,0-1.46.2-2.94.37l-38.71,3.92a26.23,26.23,0,0,1-9.46-.78l-16.27-4.56a1.1,1.1,0,0,1-.88-1.16l.14-1.56" fill="#000015" stroke="#33c" stroke-linecap="round" stroke-linejoin="round" stroke-width="1.5"/><path d="M92.59,333.56s18.06,5.53,18.79,5.73c2.55.68,2.55,2-3.85,2.5l-5,.5L69.78,345.6a26,26,0,0,1-9.46-.77s-14-3.77-14.88-4c-3.52-1-2.4-1.86,1.35-2.31,2.38-.29,5.36-.58,5.36-.58l40.14-4.37A.77.77,0,0,1,92.59,333.56Z" fill="#000015" stroke="#33c" stroke-linecap="round" stroke-linejoin="round" stroke-width="1.5"/><path d="M65.07,78.73A12.92,12.92,0,0,0,52.15,91.65V340s-1,2.31,13,1.54l28.66-2.83s4.36,0,4.36-1.71V85.41a6.68,6.68,0,0,0-6.67-6.68Z" fill="#000015" stroke="#33c" stroke-linecap="round" stroke-linejoin="round" stroke-width="1.5"/><ellipse cx="11.2" cy="211.5" rx="3.24" ry="6.64" transform="matrix(0.5, -0.87, 0.87, 0.5, -177.56, 115.45)" fill="#000015" stroke="#33c" stroke-linecap="round" stroke-linejoin="round" stroke-width="1.5"/><path d="M87,90.37,17.12,214.53,5.54,208,75.41,83.3a15.18,15.18,0,0,1,7.76,2.3A12.49,12.49,0,0,1,87,90.37" fill="#000015" stroke="#33c" stroke-linecap="round" stroke-linejoin="round" stroke-width="1.5"/><path d="M110.67,89.48l97.8,107.15c.92,1,3.9-.11,6.63-2.6s4.11-5.36,3.19-6.36l-98-107.47" fill="#000015" stroke="#33c" stroke-linecap="round" stroke-linejoin="round" stroke-width="1.5"/><path d="M207.1,195.26c.92,1,3.9-.1,6.63-2.6s4.11-5.36,3.19-6.36" fill="#000015" stroke="#33c" stroke-linecap="round" stroke-linejoin="round" stroke-width="1.5"/><ellipse cx="10.9" cy="212.02" rx="2.64" ry="6.64" transform="matrix(0.5, -0.87, 0.87, 0.5, -178.16, 115.45)" fill="#000015" stroke="#33c" stroke-linecap="round" stroke-linejoin="round" stroke-width="1.5"/><path d="M120.2,62.61c-3.07-10.08.67-7.83,1.63-3.85a63.46,63.46,0,0,1,1.72,11.7c.06,5-3.87,10.73-3.87,10.73-6.85,9.64-14.78,10.32-14.78,10.32-.74-3.31-4.33-3.54-4.33-3.54-6.28-.51-9.87,5.08-9.87,5.08l-4.64-1,1-1.73C83.93,83,75.41,83.3,75.41,83.3L68.8,67.5s-4.34-7.65,12.2-18c0,0,21.91-13.11,34.8-4.56l5.72,12.85" fill="#000015" stroke="#33c" stroke-linecap="round" stroke-linejoin="round" stroke-width="1.5"/><path d="M76.78,83.29s-.68-1.76,1.89-4.9c0,0-4.6-9-1-13.34s11.2,4.27,11.2,4.27,4.39-3.7,17-6.61c0,0,2.35-3.82,5.93-2.63" fill="#000015" stroke="#33c" stroke-linecap="round" stroke-linejoin="round" stroke-width="1.5"/><path d="M90.7,93.05s-6.47-.54-2.83-8.93a24.64,24.64,0,0,0,6.83-.84c5.34-1.49,9.89-4.55,6-7.71,0,0,9.84-4.54,16.52-1.63a26.88,26.88,0,0,0-4.5,4.24c-2.62,3.15-1.79,6,7,3" fill="none" stroke="#33c" stroke-linecap="round" stroke-linejoin="round" stroke-width="1.5"/><polyline points="87.87 84.12 78.67 78.39 77.39 75.28" fill="#000015" stroke="#33c" stroke-linecap="round" stroke-linejoin="round" stroke-width="1.5"/><line x1="100.65" y1="75.57" x2="88.88" y2="69.32" fill="#000015" stroke="#33c" stroke-linecap="round" stroke-linejoin="round" stroke-width="1.5"/><path d="M111.12,59.82s-4.19-.74-6.16,4.67S107.89,73,107.89,73L181,93.49l3.16-13Z" fill="#000015" stroke="#33c" stroke-linecap="round" stroke-linejoin="round" stroke-width="1.5"/><path d="M187.94,88.22c-.81,3.59-3.92,6-6.95,5.27s-4.94-4.08-4.11-7.74,4-6,7.05-5.29S188.75,84.62,187.94,88.22Z" fill="#000015" stroke="#33c" stroke-linecap="round" stroke-linejoin="round" stroke-width="1.5"/><rect x="313.12" y="16.22" width="12.45" height="12.45" transform="translate(296.9 341.79) rotate(-90)" fill="#000015" stroke="#33c" stroke-linecap="round" stroke-linejoin="round" stroke-width="1.5"/><line x1="313.12" y1="22.44" x2="138.8" y2="22.44" fill="none" stroke="#33c" stroke-miterlimit="10" stroke-width="1.5"/><rect x="318.57" y="21.66" width="1.56" height="1.56" transform="translate(296.9 341.79) rotate(-90)" fill="#33c"/><polyline points="402.8 13.64 411.6 22.44 402.8 31.25" fill="none" stroke="#33c" stroke-linecap="round" stroke-linejoin="round" stroke-width="1.5"/><rect x="402.02" y="21.66" width="1.56" height="1.56" transform="translate(425.24 -380.35) rotate(90)" fill="#33c"/><path d="M373.58,17a.69.69,0,0,1-.24-.21A15.72,15.72,0,0,0,360,9.94a.68.68,0,1,1,0-1.35A17.13,17.13,0,0,1,374.44,16a.68.68,0,0,1-.86,1ZM353.2,14.49a.74.74,0,0,1-.29-.29.68.68,0,0,1,.29-.91,14,14,0,0,1,6.51-1.6A15.53,15.53,0,0,1,372.07,18a14,14,0,0,1,2.49,6.21A.67.67,0,0,1,374,25a.68.68,0,0,1-.77-.57A12.67,12.67,0,0,0,371,18.82,14.15,14.15,0,0,0,359.72,13a12.62,12.62,0,0,0-5.9,1.45.71.71,0,0,1-.62,0Zm.06,18.3a.65.65,0,0,1-.34-.4,14.4,14.4,0,0,1-.78-4.39,11.91,11.91,0,0,1,1.42-5.86,7.64,7.64,0,0,1,13.57,7,.68.68,0,0,1-1.2-.62,6.3,6.3,0,0,0-11.18-5.75A10.73,10.73,0,0,0,353.49,28a12.78,12.78,0,0,0,.71,4,.67.67,0,0,1-.44.85.58.58,0,0,1-.5,0ZM363,35a7.16,7.16,0,0,1-3.31-9.69.68.68,0,1,1,1.2.62,5.84,5.84,0,0,0,.13,5.46,5.9,5.9,0,0,0,2.6,2.42,9.94,9.94,0,0,0,1.31.53.67.67,0,1,1-.4,1.28A8.8,8.8,0,0,1,363,35Zm-3.69,1.24-.14-.11a10.37,10.37,0,0,1-3.16-4.8,9.87,9.87,0,0,1,.63-7.59,4.15,4.15,0,0,1,7.38,3.8,2.81,2.81,0,0,0,5,2.56,9.51,9.51,0,0,0-4.46-12.65,9.82,9.82,0,0,0-10.4.75,8.52,8.52,0,0,0-2.43,3,13.19,13.19,0,0,0-1.43,4.73.67.67,0,1,1-1.34-.16,15,15,0,0,1,1.56-5.19,9.91,9.91,0,0,1,2.82-3.45,11.19,11.19,0,0,1,11.82-.88c5.45,2.81,7.71,9.3,5.05,14.47a4.15,4.15,0,0,1-7.38-3.8,2.81,2.81,0,0,0-5-2.56,8.49,8.49,0,0,0-.54,6.55,9.06,9.06,0,0,0,2.78,4.23.68.68,0,0,1-.76,1.1Z" fill="#33c"/><path d="M176.6,9.61v-8a.16.16,0,0,1,.18-.18h3.06a1.92,1.92,0,0,1,1.4.5,1.88,1.88,0,0,1,.51,1.4V4a1.44,1.44,0,0,1-1.09,1.5,1.19,1.19,0,0,1,.84.43,1.57,1.57,0,0,1,.35,1v.87a1.87,1.87,0,0,1-.51,1.4,1.94,1.94,0,0,1-1.41.5h-3.15A.16.16,0,0,1,176.6,9.61Zm1.08-4.47h2A1,1,0,0,0,180.82,4V3.34a1,1,0,0,0-1.1-1.1h-2c-.09,0-.13,0-.13.13V5C177.55,5.1,177.59,5.14,177.68,5.14Zm0,3.84h2.13a1,1,0,0,0,1.12-1.1V7c0-.73-.4-1.1-1.2-1.1h-2c-.09,0-.13,0-.13.12v2.8C177.55,8.94,177.59,9,177.68,9Z" fill="#fff"/><path d="M185.53,1.61v8a.16.16,0,0,1-.18.18h-.59a.16.16,0,0,1-.18-.18v-8a.16.16,0,0,1,.18-.18h.59A.16.16,0,0,1,185.53,1.61Z" fill="#fff"/><path d="M191.77,9.79h-1.55a1.94,1.94,0,0,1-1.41-.51,1.91,1.91,0,0,1-.51-1.41V3.35a1.91,1.91,0,0,1,.51-1.41,1.94,1.94,0,0,1,1.41-.51h1.55a1.91,1.91,0,0,1,1.41.51,1.94,1.94,0,0,1,.51,1.41V7.87a1.94,1.94,0,0,1-.51,1.41A1.91,1.91,0,0,1,191.77,9.79ZM190.33,9h1.32a1,1,0,0,0,1.1-1.13V3.39a1,1,0,0,0-1.1-1.13h-1.32c-.72,0-1.08.38-1.08,1.13V7.83C189.25,8.58,189.61,9,190.33,9Z" fill="#fff"/><path d="M202.27,1.43h1.06a.16.16,0,0,1,.18.18v8a.16.16,0,0,1-.18.18h-.57c-.13,0-.19-.06-.19-.18V2.7h0l-2,5.1a.26.26,0,0,1-.24.17h-.62a.21.21,0,0,1-.22-.17l-2.06-5.11h-.05V9.61c0,.12,0,.18-.17.18h-.57a.16.16,0,0,1-.18-.18v-8a.16.16,0,0,1,.18-.18h1a.17.17,0,0,1,.16.1l2.13,5.39H200l2.13-5.39A.15.15,0,0,1,202.27,1.43Z" fill="#fff"/><path d="M210.61,9.79h-4.08c-.13,0-.19-.06-.19-.18v-8c0-.12.06-.18.19-.18h4.08a.16.16,0,0,1,.18.18v.47a.16.16,0,0,1-.18.18h-3.19c-.08,0-.13,0-.13.12V5c0,.07.05.11.13.11h2.78c.13,0,.19.06.19.18v.47c0,.12-.06.18-.19.18h-2.78c-.08,0-.13,0-.13.12V8.84c0,.08.05.12.13.12h3.19a.16.16,0,0,1,.18.18v.47A.16.16,0,0,1,210.61,9.79Z" fill="#fff"/><path d="M215.4,9.79h-.58a.16.16,0,0,1-.18-.18V2.38c0-.08,0-.12-.13-.12h-1.77c-.13,0-.2-.06-.2-.18V1.61c0-.12.07-.18.2-.18h4.74c.13,0,.2.06.2.18v.47c0,.12-.07.18-.2.18h-1.76c-.09,0-.13,0-.13.12V9.61C215.59,9.73,215.53,9.79,215.4,9.79Z" fill="#fff"/><path d="M220.46,9.79h-.58a.17.17,0,0,1-.19-.18v-8a.17.17,0,0,1,.19-.18h3a1.92,1.92,0,0,1,1.41.51,1.9,1.9,0,0,1,.52,1.41V4.54a1.94,1.94,0,0,1-.35,1.2,1.63,1.63,0,0,1-1,.63v0L225,9.58c.07.14,0,.21-.13.21h-.59a.33.33,0,0,1-.32-.18l-1.46-3.15h-1.72c-.08,0-.13,0-.13.12v3A.16.16,0,0,1,220.46,9.79Zm.31-4.12h2a1,1,0,0,0,1.11-1.12V3.39a1,1,0,0,0-1.11-1.13h-2c-.08,0-.13,0-.13.12V5.55C220.64,5.63,220.69,5.67,220.77,5.67Z" fill="#fff"/><path d="M228.47,1.61v8a.16.16,0,0,1-.18.18h-.59a.16.16,0,0,1-.18-.18v-8a.16.16,0,0,1,.18-.18h.59A.16.16,0,0,1,228.47,1.61Z" fill="#fff"/><path d="M231.47,9.79h-.65c-.11,0-.15-.06-.11-.18l2.43-8a.22.22,0,0,1,.24-.18h.94a.24.24,0,0,1,.25.18l2.43,8q0,.18-.12.18h-.66q-.15,0-.18-.18l-.62-1.9h-3.14l-.61,1.9C231.63,9.73,231.57,9.79,231.47,9.79Zm2.36-7.38L232.49,6.9h2.73l-1.34-4.49Z" fill="#fff"/><path d="M244.26,1.61v8a.16.16,0,0,1-.18.18h-.58a.17.17,0,0,1-.19-.18v-8a.17.17,0,0,1,.19-.18h.58A.16.16,0,0,1,244.26,1.61Z" fill="#fcb84d"/><path d="M247.92,9.79h-.57c-.13,0-.19-.06-.19-.18v-8c0-.12.06-.18.19-.18h.53a.24.24,0,0,1,.21.1l3.58,6.31h.06V1.61a.16.16,0,0,1,.18-.18h.57a.16.16,0,0,1,.18.18v8a.16.16,0,0,1-.18.18H252a.34.34,0,0,1-.27-.17l-3.58-6.24h-.05V9.61A.16.16,0,0,1,247.92,9.79Z" fill="#fcb84d"/><path d="M256.26,9.79h-.58a.16.16,0,0,1-.18-.18v-8a.16.16,0,0,1,.18-.18h4a.16.16,0,0,1,.18.18v.47a.16.16,0,0,1-.18.18h-3.15c-.08,0-.13,0-.13.12V5.21c0,.08.05.12.13.12h2.79a.16.16,0,0,1,.18.18V6a.16.16,0,0,1-.18.18h-2.79a.12.12,0,0,0-.13.13V9.61A.16.16,0,0,1,256.26,9.79Z" fill="#fcb84d"/><path d="M263.23,1.61v8a.16.16,0,0,1-.18.18h-.59a.16.16,0,0,1-.18-.18v-8a.16.16,0,0,1,.18-.18h.59A.16.16,0,0,1,263.23,1.61Z" fill="#fcb84d"/><path d="M266.88,9.79h-.57a.16.16,0,0,1-.18-.18v-8a.16.16,0,0,1,.18-.18h.53a.22.22,0,0,1,.21.1l3.59,6.31h.05V1.61a.16.16,0,0,1,.18-.18h.58a.16.16,0,0,1,.18.18v8a.16.16,0,0,1-.18.18H271a.38.38,0,0,1-.28-.17l-3.57-6.24h-.05V9.61C267.07,9.73,267,9.79,266.88,9.79Z" fill="#fcb84d"/><path d="M275.48,1.61v8c0,.12-.06.18-.19.18h-.58a.16.16,0,0,1-.18-.18v-8a.16.16,0,0,1,.18-.18h.58C275.42,1.43,275.48,1.49,275.48,1.61Z" fill="#fcb84d"/><path d="M280.42,9.79h-.59a.16.16,0,0,1-.18-.18V2.38c0-.08,0-.12-.13-.12h-1.77c-.13,0-.19-.06-.19-.18V1.61c0-.12.06-.18.19-.18h4.75c.13,0,.19.06.19.18v.47c0,.12-.06.18-.19.18h-1.77c-.09,0-.13,0-.13.12V9.61A.16.16,0,0,1,280.42,9.79Z" fill="#fcb84d"/><path d="M284.81,9.79h-.65q-.17,0-.12-.18l2.43-8a.24.24,0,0,1,.25-.18h.94a.22.22,0,0,1,.24.18l2.44,8q0,.18-.12.18h-.66c-.1,0-.16-.06-.19-.18l-.61-1.9h-3.14L285,9.61C285,9.73,284.91,9.79,284.81,9.79Zm2.35-7.38L285.82,6.9h2.73l-1.33-4.49Z" fill="#fcb84d"/><rect x="208.8" y="299.22" width="12.45" height="12.45" transform="translate(520.47 90.41) rotate(90)" fill="#000015" stroke="#33c" stroke-linecap="round" stroke-linejoin="round" stroke-width="1.5"/><line x1="221.26" y1="305.44" x2="300.57" y2="305.44" fill="none" stroke="#33c" stroke-miterlimit="10" stroke-width="1.5"/><rect x="214.25" y="304.66" width="1.56" height="1.56" transform="translate(520.47 90.41) rotate(90)" fill="#33c"/><path d="M226.28,268.21h1.95c.13,0,.19.07.19.2v.41a.17.17,0,0,1-.19.19h-1.95v2a.18.18,0,0,1-.2.21h-.44c-.13,0-.19-.07-.19-.21v-2h-2a.17.17,0,0,1-.19-.19v-.41c0-.13.06-.2.19-.2h2v-2c0-.14.06-.21.19-.21h.44a.18.18,0,0,1,.2.21Z" fill="#fff"/><path d="M235.33,272.79h-.65c-.12,0-.15-.06-.12-.18l2.43-8a.24.24,0,0,1,.25-.18h.93a.23.23,0,0,1,.25.18l2.43,8q.06.18-.12.18h-.66q-.13,0-.18-.18l-.61-1.9h-3.15l-.61,1.9C235.49,272.73,235.42,272.79,235.33,272.79Zm2.35-7.38-1.34,4.49h2.73l-1.34-4.49Z" fill="#fcb84d"/><path d="M243.79,272.79h-.59a.16.16,0,0,1-.18-.18v-8a.16.16,0,0,1,.18-.18h3.05a1.88,1.88,0,0,1,1.4.51,1.94,1.94,0,0,1,.51,1.41v1.45a1.77,1.77,0,0,1-1.91,1.92H244.1c-.08,0-.13,0-.13.12v2.77A.16.16,0,0,1,243.79,272.79Zm.31-3.91h2a1,1,0,0,0,1.09-1.12v-1.37c0-.75-.36-1.13-1.09-1.13h-2c-.08,0-.13,0-.13.12v3.38C244,268.84,244,268.88,244.1,268.88Z" fill="#fcb84d"/><path d="M255,272.79h-4.18a.16.16,0,0,1-.18-.18v-8a.16.16,0,0,1,.18-.18h.59a.16.16,0,0,1,.18.18v7.2c0,.08,0,.12.13.12H255c.12,0,.18.07.18.2v.48A.16.16,0,0,1,255,272.79Z" fill="#fcb84d"/><path d="M258.3,264.61v8a.16.16,0,0,1-.18.18h-.59a.16.16,0,0,1-.18-.18v-8a.16.16,0,0,1,.18-.18h.59A.16.16,0,0,1,258.3,264.61Z" fill="#fcb84d"/><path d="M264.55,272.79H263a1.77,1.77,0,0,1-1.92-1.92v-4.52a1.77,1.77,0,0,1,1.92-1.92h1.56a1.77,1.77,0,0,1,1.92,1.92V267a.16.16,0,0,1-.18.18h-.58a.16.16,0,0,1-.18-.18v-.6a1,1,0,0,0-1.1-1.13h-1.34c-.72,0-1.07.38-1.07,1.13v4.44c0,.75.35,1.13,1.07,1.13h1.34a1,1,0,0,0,1.1-1.13v-.6a.16.16,0,0,1,.18-.18h.58a.16.16,0,0,1,.18.18v.64a1.77,1.77,0,0,1-1.92,1.92Z" fill="#fcb84d"/><path d="M269.11,272.79h-.65c-.11,0-.15-.06-.11-.18l2.43-8a.22.22,0,0,1,.24-.18H272a.24.24,0,0,1,.25.18l2.43,8q0,.18-.12.18h-.66q-.15,0-.18-.18l-.61-1.9h-3.15l-.61,1.9C269.27,272.73,269.21,272.79,269.11,272.79Zm2.36-7.38-1.34,4.49h2.73l-1.34-4.49Z" fill="#fcb84d"/><path d="M278.85,272.79h-.58c-.13,0-.19-.06-.19-.18v-7.23c0-.08,0-.12-.13-.12h-1.76c-.13,0-.2-.06-.2-.18v-.47c0-.12.07-.18.2-.18h4.74c.13,0,.2.06.2.18v.47c0,.12-.07.18-.2.18h-1.77c-.08,0-.13,0-.13.12v7.23A.16.16,0,0,1,278.85,272.79Z" fill="#fcb84d"/><path d="M284.15,264.61v8a.16.16,0,0,1-.18.18h-.58a.16.16,0,0,1-.18-.18v-8a.16.16,0,0,1,.18-.18H284A.16.16,0,0,1,284.15,264.61Z" fill="#fcb84d"/><path d="M289.78,272.79h-.92a.21.21,0,0,1-.22-.18l-2.3-8c0-.13,0-.2.17-.2h.63a.19.19,0,0,1,.21.18l1.94,7.11h0l1.94-7.11a.19.19,0,0,1,.21-.18h.65c.13,0,.18.07.15.2l-2.3,8A.2.2,0,0,1,289.78,272.79Z" fill="#fcb84d"/><path d="M297.75,272.79h-1.54a2,2,0,0,1-1.42-.51,1.91,1.91,0,0,1-.51-1.41v-4.52a1.91,1.91,0,0,1,.51-1.41,2,2,0,0,1,1.42-.51h1.54a1.91,1.91,0,0,1,1.41.51,1.94,1.94,0,0,1,.52,1.41v4.52a1.94,1.94,0,0,1-.52,1.41A1.91,1.91,0,0,1,297.75,272.79Zm-1.44-.83h1.33a1,1,0,0,0,1.09-1.13v-4.44a1,1,0,0,0-1.09-1.13h-1.33c-.72,0-1.08.38-1.08,1.13v4.44C295.23,271.58,295.59,272,296.31,272Z" fill="#fcb84d"/><path d="M241.94,290.71v-8a.17.17,0,0,1,.19-.19h3.19a1.79,1.79,0,0,1,1.93,1.93V289a1.87,1.87,0,0,1-.52,1.41,1.91,1.91,0,0,1-1.41.51h-3.19C242,290.89,241.94,290.83,241.94,290.71Zm1.08-.65h2.19c.73,0,1.09-.38,1.09-1.13V284.5c0-.76-.36-1.13-1.09-1.13H243c-.08,0-.13,0-.13.11v6.46C242.89,290,242.94,290.06,243,290.06Z" fill="#fcb84d"/><path d="M254.22,290.89h-4.09a.16.16,0,0,1-.18-.18v-8c0-.13.06-.19.18-.19h4.09c.12,0,.18.06.18.19v.46a.17.17,0,0,1-.18.19H251c-.09,0-.13,0-.13.11v2.63c0,.08,0,.12.13.12h2.78a.16.16,0,0,1,.18.18v.47a.16.16,0,0,1-.18.18H251c-.09,0-.13,0-.13.11v2.77c0,.08,0,.12.13.12h3.19a.16.16,0,0,1,.18.18v.47A.16.16,0,0,1,254.22,290.89Z" fill="#fcb84d"/><path d="M263.09,290.89h-.58a.16.16,0,0,1-.18-.18v-7.23c0-.08-.05-.11-.13-.11h-1.77a.18.18,0,0,1-.2-.19v-.46c0-.13.07-.19.2-.19h4.74c.13,0,.2.06.2.19v.46a.18.18,0,0,1-.2.19h-1.76c-.09,0-.13,0-.13.11v7.23C263.28,290.83,263.22,290.89,263.09,290.89Z" fill="#fff"/><path d="M268.15,290.89h-.58c-.13,0-.19-.06-.19-.18v-8a.17.17,0,0,1,.19-.19h3a1.79,1.79,0,0,1,1.93,1.93v1.18a1.9,1.9,0,0,1-.35,1.2,1.63,1.63,0,0,1-1,.63v.06l1.51,3.15c.07.14,0,.21-.13.21H272a.33.33,0,0,1-.32-.18l-1.46-3.15h-1.72c-.08,0-.13,0-.13.12v3A.16.16,0,0,1,268.15,290.89Zm.31-4.12h2a1,1,0,0,0,1.11-1.12V284.5a1,1,0,0,0-1.11-1.13h-2c-.08,0-.13,0-.13.11v3.17C268.33,286.73,268.38,286.77,268.46,286.77Z" fill="#fff"/><path d="M279.41,290.89h-4.08a.16.16,0,0,1-.18-.18v-8c0-.13.06-.19.18-.19h4.08c.12,0,.18.06.18.19v.46a.17.17,0,0,1-.18.19h-3.19c-.08,0-.13,0-.13.11v2.63c0,.08.05.12.13.12H279a.16.16,0,0,1,.18.18v.47a.16.16,0,0,1-.18.18h-2.79c-.08,0-.13,0-.13.11v2.77c0,.08.05.12.13.12h3.19a.16.16,0,0,1,.18.18v.47A.16.16,0,0,1,279.41,290.89Z" fill="#fff"/><path d="M283.18,282.72v8a.16.16,0,0,1-.18.18h-.59a.16.16,0,0,1-.18-.18v-8c0-.13.06-.19.18-.19H283C283.12,282.53,283.18,282.59,283.18,282.72Z" fill="#fff"/><path d="M286.83,290.89h-.57a.16.16,0,0,1-.18-.18v-8c0-.13.06-.19.18-.19h.53a.21.21,0,0,1,.21.11l3.59,6.3h.05v-6.22c0-.13.06-.19.18-.19h.57a.17.17,0,0,1,.19.19v8c0,.12-.06.18-.19.18h-.48a.35.35,0,0,1-.27-.17l-3.57-6.24H287v6.23A.16.16,0,0,1,286.83,290.89Z" fill="#fff"/><path d="M297.75,290.89h-1.54a2,2,0,0,1-1.42-.5,1.91,1.91,0,0,1-.51-1.42v-4.51a1.91,1.91,0,0,1,.51-1.42,2,2,0,0,1,1.42-.51h1.54a1.87,1.87,0,0,1,1.41.52,1.91,1.91,0,0,1,.52,1.41V289a1.78,1.78,0,0,1-1.93,1.92Zm-1.44-.83h1.33a1,1,0,0,0,1.09-1.13V284.5c0-.76-.37-1.13-1.09-1.13h-1.33c-.72,0-1.08.37-1.08,1.13v4.43C295.23,289.68,295.59,290.06,296.31,290.06Z" fill="#fff"/></svg>