<svg id="d07b7f1e-e8da-4132-83f6-3d55d7b52d0a" data-name="Layer 1" xmlns="http://www.w3.org/2000/svg" viewBox="0 0 392 249.32"><title>ilustra-software</title><rect x="1" y="41" width="350" height="207.32" fill="#000015" stroke="#33c" stroke-miterlimit="10" stroke-width="2"/><rect x="11" y="31" width="350" height="207.32" fill="#000015" stroke="#33c" stroke-miterlimit="10" stroke-width="2"/><rect x="21" y="21" width="350" height="207.32" fill="#000015" stroke="#33c" stroke-miterlimit="10" stroke-width="2"/><polyline points="293.98 80.35 293.98 85.44 288.85 85.44" fill="none" stroke="#fff" stroke-miterlimit="10" stroke-width="2"/><polyline points="176.76 110.16 176.76 115.25 171.62 115.25" fill="none" stroke="#fff" stroke-miterlimit="10" stroke-width="2"/><polyline points="243.32 110.16 243.32 115.25 248.46 115.25" fill="none" stroke="#fff" stroke-miterlimit="10" stroke-width="2"/><rect x="41" y="1" width="350" height="207.32" fill="#000015" stroke="#33c" stroke-miterlimit="10" stroke-width="2"/><line x1="70.36" y1="45.21" x2="80.2" y2="45.21" fill="none" stroke="#33c" stroke-miterlimit="10" stroke-width="2"/><line x1="70.36" y1="72.06" x2="90.04" y2="72.06" fill="none" stroke="#33c" stroke-miterlimit="10" stroke-width="2"/><line x1="70.36" y1="85.48" x2="80.2" y2="85.48" fill="none" stroke="#33c" stroke-miterlimit="10" stroke-width="2"/><line x1="70.36" y1="98.9" x2="81.84" y2="98.9" fill="none" stroke="#fcb84d" stroke-miterlimit="10" stroke-width="2"/><line x1="70.36" y1="112.32" x2="80.2" y2="112.32" fill="none" stroke="#33c" stroke-miterlimit="10" stroke-width="2"/><line x1="70.36" y1="125.74" x2="75.28" y2="125.74" fill="none" stroke="#33c" stroke-miterlimit="10" stroke-width="2"/><line x1="70.36" y1="58.63" x2="90.04" y2="58.63" fill="none" stroke="#33c" stroke-miterlimit="10" stroke-width="2"/><rect x="70.36" y="167.59" width="15.89" height="15.89" transform="translate(253.85 97.23) rotate(90)" fill="#000015" stroke="#33c" stroke-linecap="round" stroke-linejoin="round" stroke-width="2"/><line x1="113.99" y1="175.54" x2="86.26" y2="175.54" fill="none" stroke="#33c" stroke-miterlimit="10" stroke-width="2"/><rect x="77.31" y="174.55" width="1.99" height="1.99" transform="translate(253.85 97.23) rotate(90)" fill="#33c"/><line x1="113.99" y1="167.59" x2="113.99" y2="183.49" fill="none" stroke="#33c" stroke-miterlimit="10" stroke-width="2"/><rect x="349.13" y="18.44" width="15.89" height="15.89" fill="#000015" stroke="#33c" stroke-linecap="round" stroke-linejoin="round" stroke-width="2"/><rect x="356.09" y="25.39" width="1.99" height="1.99" fill="#33c"/><line x1="70.36" y1="26.39" x2="348.9" y2="26.39" fill="none" stroke="#33c" stroke-miterlimit="10" stroke-width="2"/><path d="M231,67.27h-.87a.24.24,0,0,1-.27-.27V55.17a.24.24,0,0,1,.27-.27h6a.24.24,0,0,1,.27.27v.69a.24.24,0,0,1-.27.27h-4.66c-.13,0-.19.06-.19.17v4.2c0,.11.06.17.19.17h4.12a.24.24,0,0,1,.27.27v.69a.24.24,0,0,1-.27.27h-4.12c-.13,0-.19.07-.19.2V67A.24.24,0,0,1,231,67.27Z" fill="#fff"/><path d="M240,67.27h-1q-.26,0-.18-.27l3.6-11.83a.35.35,0,0,1,.37-.27h1.38a.34.34,0,0,1,.37.27L248.16,67c.05.18,0,.27-.17.27h-1c-.14,0-.23-.09-.26-.27l-.91-2.81h-4.66l-.9,2.81C240.22,67.18,240.12,67.27,240,67.27Zm3.48-10.93-2,6.66h4l-2-6.66Z" fill="#fff"/><path d="M254.4,67.27h-.87a.24.24,0,0,1-.27-.27V56.3c0-.11-.06-.17-.19-.17h-2.62c-.19,0-.29-.09-.29-.27v-.69c0-.18.1-.27.29-.27h7c.19,0,.29.09.29.27v.69c0,.18-.1.27-.29.27h-2.62c-.13,0-.19.06-.19.17V67A.24.24,0,0,1,254.4,67.27Z" fill="#fff"/><path d="M267.33,54.9h.87c.18,0,.27.08.27.25v9.27a2.6,2.6,0,0,1-2.83,2.85H263.5a2.62,2.62,0,0,1-2.85-2.85V55.17a.24.24,0,0,1,.27-.27h.87a.24.24,0,0,1,.27.27v9.2c0,1.11.53,1.67,1.6,1.67h1.8a1.46,1.46,0,0,0,1.62-1.67v-9.2C267.08,55,267.17,54.9,267.33,54.9Z" fill="#fff"/><path d="M273.7,67.27h-.86a.24.24,0,0,1-.27-.27V55.17a.24.24,0,0,1,.27-.27h4.42a2.84,2.84,0,0,1,2.1.76,2.75,2.75,0,0,1,.77,2.08V59.5a2.89,2.89,0,0,1-.52,1.78,2.41,2.41,0,0,1-1.44.93v.08L280.4,67c.12.2.05.3-.19.3h-.87a.52.52,0,0,1-.48-.27l-2.15-4.65h-2.54c-.13,0-.2,0-.2.17V67A.24.24,0,0,1,273.7,67.27Zm.47-6.1h2.9a1.46,1.46,0,0,0,1.66-1.65V57.8a1.47,1.47,0,0,0-1.66-1.67h-2.9c-.13,0-.2.06-.2.17V61C274,61.11,274,61.17,274.17,61.17Z" fill="#fff"/><path d="M284.21,67.27h-1c-.17,0-.22-.09-.17-.27l3.6-11.83a.34.34,0,0,1,.36-.27h1.39a.34.34,0,0,1,.36.27L292.4,67q.08.27-.18.27h-1q-.21,0-.27-.27l-.9-2.81h-4.66L284.5,67C284.45,67.18,284.35,67.27,284.21,67.27Zm3.49-10.93-2,6.66h4.05l-2-6.66Z" fill="#fff"/><path d="M304.31,54.9h1.56a.24.24,0,0,1,.27.27V67a.24.24,0,0,1-.27.27H305a.24.24,0,0,1-.27-.27V56.78h-.07l-3,7.55a.36.36,0,0,1-.34.25h-.93a.32.32,0,0,1-.33-.25l-3-7.57H297V67c0,.18-.09.27-.25.27h-.85a.24.24,0,0,1-.27-.27V55.17a.24.24,0,0,1,.27-.27h1.56a.23.23,0,0,1,.23.15l3.16,8h.09l3.16-8A.21.21,0,0,1,304.31,54.9Z" fill="#fff"/><path d="M316.65,67.27h-6a.24.24,0,0,1-.27-.27V55.17a.24.24,0,0,1,.27-.27h6a.24.24,0,0,1,.27.27v.69a.24.24,0,0,1-.27.27h-4.72c-.12,0-.19.06-.19.17v3.89c0,.12.07.17.19.17h4.12a.24.24,0,0,1,.27.27v.7a.24.24,0,0,1-.27.27h-4.12c-.12,0-.19,0-.19.17v4.1c0,.11.07.17.19.17h4.72a.24.24,0,0,1,.27.27V67A.24.24,0,0,1,316.65,67.27Z" fill="#fff"/><path d="M321.85,67.27H321a.24.24,0,0,1-.27-.27V55.17a.24.24,0,0,1,.27-.27h.79a.32.32,0,0,1,.31.15l5.31,9.34h.08V55.17a.24.24,0,0,1,.27-.27h.84a.24.24,0,0,1,.27.27V67a.24.24,0,0,1-.27.27h-.71a.52.52,0,0,1-.4-.25l-5.3-9.24h-.07V67A.24.24,0,0,1,321.85,67.27Z" fill="#fff"/><path d="M336.09,67.27h-.86A.24.24,0,0,1,335,67V56.3c0-.11-.07-.17-.2-.17h-2.61c-.2,0-.29-.09-.29-.27v-.69c0-.18.09-.27.29-.27h7c.19,0,.29.09.29.27v.69c0,.18-.1.27-.29.27h-2.62c-.12,0-.19.06-.19.17V67A.24.24,0,0,1,336.09,67.27Z" fill="#fff"/><path d="M347.39,67.27H345.1a2.86,2.86,0,0,1-2.09-.75,2.8,2.8,0,0,1-.76-2.1V57.74a2.8,2.8,0,0,1,.76-2.09,2.86,2.86,0,0,1,2.09-.75h2.29a2.63,2.63,0,0,1,2.85,2.84v6.68a2.63,2.63,0,0,1-2.85,2.85ZM345.25,66h2a1.46,1.46,0,0,0,1.62-1.67V57.8a1.46,1.46,0,0,0-1.62-1.67h-2c-1.06,0-1.59.56-1.59,1.67v6.57C343.66,65.48,344.19,66,345.25,66Z" fill="#fff"/><path d="M238.57,78h1.56a.24.24,0,0,1,.27.27V90.11a.24.24,0,0,1-.27.27h-.84a.24.24,0,0,1-.27-.27V79.89h-.08l-3,7.54a.39.39,0,0,1-.35.26h-.93a.32.32,0,0,1-.32-.26l-3-7.56h-.08V90.11c0,.18-.08.27-.25.27h-.85a.24.24,0,0,1-.27-.27V78.27a.24.24,0,0,1,.27-.27h1.56a.22.22,0,0,1,.23.16l3.16,8h.1l3.15-8A.21.21,0,0,1,238.57,78Z" fill="#fff"/><path d="M250.91,90.38h-6a.24.24,0,0,1-.27-.27V78.27a.24.24,0,0,1,.27-.27h6a.24.24,0,0,1,.27.27V79a.24.24,0,0,1-.27.27H246.2c-.13,0-.2.06-.2.18V83.3c0,.11.07.17.2.17h4.12c.18,0,.26.09.26.27v.69c0,.18-.08.27-.26.27H246.2c-.13,0-.2.06-.2.17V89c0,.12.07.18.2.18h4.71a.24.24,0,0,1,.27.27v.69A.24.24,0,0,1,250.91,90.38Z" fill="#fff"/><path d="M256.11,90.38h-.85a.24.24,0,0,1-.27-.27V78.27a.24.24,0,0,1,.27-.27h.79a.3.3,0,0,1,.31.16l5.31,9.33h.08V78.27A.24.24,0,0,1,262,78h.85a.24.24,0,0,1,.27.27V90.11a.24.24,0,0,1-.27.27h-.72a.52.52,0,0,1-.4-.25l-5.29-9.24h-.08v9.22A.24.24,0,0,1,256.11,90.38Z" fill="#fff"/><path d="M267.2,87.53v-.62a.24.24,0,0,1,.27-.26h.86a.24.24,0,0,1,.27.26v.51a1.52,1.52,0,0,0,1.72,1.73H272a1.54,1.54,0,0,0,1.71-1.77v-.66c0-.92-.76-1.52-2.29-1.81-.64-.11-1.28-.25-1.92-.4a3.44,3.44,0,0,1-1.64-.9,2.43,2.43,0,0,1-.67-1.82v-.94A2.63,2.63,0,0,1,270.05,78h2.13a2.84,2.84,0,0,1,2.08.76,2.79,2.79,0,0,1,.77,2.09v.48c0,.2-.08.29-.25.29h-.88c-.17,0-.25-.09-.25-.29V81a1.54,1.54,0,0,0-1.72-1.76H270.3c-1.15,0-1.72.61-1.72,1.83v.77q0,1,1.29,1.35c.39.1.81.2,1.27.28a11.82,11.82,0,0,1,1.4.33,6.69,6.69,0,0,1,1.28.5,2.3,2.3,0,0,1,.93.9,2.86,2.86,0,0,1,.36,1.47v.87a2.64,2.64,0,0,1-2.85,2.85h-2.21a2.64,2.64,0,0,1-2.85-2.85Z" fill="#fff"/><path d="M279.33,90.38h-1c-.16,0-.22-.09-.17-.27l3.6-11.84a.34.34,0,0,1,.37-.27h1.38a.35.35,0,0,1,.37.27l3.6,11.84q.08.27-.18.27h-1q-.21,0-.27-.27l-.9-2.81h-4.66l-.91,2.81C279.56,90.29,279.47,90.38,279.33,90.38Zm3.48-10.93-2,6.66h4l-2-6.66Z" fill="#fff"/><path d="M297.17,90.38H291a.24.24,0,0,1-.27-.27V78.27A.24.24,0,0,1,291,78h.87a.24.24,0,0,1,.27.27V88.94c0,.11.06.17.19.17h4.85c.18,0,.27.1.27.29v.71A.24.24,0,0,1,297.17,90.38Z" fill="#fff"/><path d="M235.18,140.74h3.41a.3.3,0,0,1,.34.34v.73c0,.21-.11.32-.34.32h-3.41v3.46a.32.32,0,0,1-.35.36h-.77c-.23,0-.34-.12-.34-.36v-3.46h-3.43c-.23,0-.35-.11-.35-.32v-.73a.31.31,0,0,1,.35-.34h3.43v-3.43c0-.25.11-.37.34-.37h.77c.23,0,.35.12.35.37Z" fill="#fcb84d"/><path d="M252.17,148.75h-1a.28.28,0,0,1-.32-.32v-14a.28.28,0,0,1,.32-.32h5.23a3.37,3.37,0,0,1,2.48.9,3.3,3.3,0,0,1,.91,2.47v2.07a3.48,3.48,0,0,1-.61,2.1,3,3,0,0,1-1.71,1.11v.09l2.64,5.53c.13.24.06.36-.23.36h-1a.61.61,0,0,1-.57-.32l-2.55-5.5h-3c-.15,0-.23.06-.23.2v5.3A.29.29,0,0,1,252.17,148.75Zm.55-7.21h3.43a1.73,1.73,0,0,0,2-2v-2a1.74,1.74,0,0,0-2-2h-3.43c-.15,0-.23.07-.23.2v5.55C252.49,141.47,252.57,141.54,252.72,141.54Z" fill="#fcb84d"/><path d="M269,151h-.77a.29.29,0,0,1-.32-.32v-1.91h-.54a3.25,3.25,0,0,1-2.43-.91,3.35,3.35,0,0,1-.89-2.46v-.63c0-.22.09-.32.29-.32h1.05c.19,0,.29.1.29.32v.5a1.8,1.8,0,0,0,2,2h1.43a1.82,1.82,0,0,0,2-2.09v-1.07a1.75,1.75,0,0,0-.59-1.5,3.28,3.28,0,0,0-1.8-.48l-1.25,0a4.36,4.36,0,0,1-2.57-.8,3.1,3.1,0,0,1-.94-2.61v-1.25a3.11,3.11,0,0,1,3.35-3.37h.54v-1.94a.28.28,0,0,1,.32-.31H269c.22,0,.32.1.32.31v1.94h.16a3.14,3.14,0,0,1,2.37.91,3.36,3.36,0,0,1,.89,2.46V138c0,.23-.11.35-.32.35h-1c-.21,0-.31-.12-.31-.35v-.43a1.81,1.81,0,0,0-2-2h-1.34c-1.35,0-2,.72-2,2.14v1.07a1.6,1.6,0,0,0,.58,1.42,3.41,3.41,0,0,0,1.79.45l1.41,0a4.09,4.09,0,0,1,2.46.82,3.19,3.19,0,0,1,.91,2.57v1.32a3.11,3.11,0,0,1-3.35,3.37h-.16v1.91A.28.28,0,0,1,269,151Z" fill="#fcb84d"/><path d="M289.55,148.75h-2.16a3.11,3.11,0,0,1-3.37-3.37v-7.89a3.11,3.11,0,0,1,3.37-3.37h4.41a.29.29,0,0,1,.32.32v.84c0,.2-.11.3-.32.3h-4.21a1.72,1.72,0,0,0-1.91,2v2.32h3.87a3.07,3.07,0,0,1,3.34,3.36v2.14a3.08,3.08,0,0,1-3.34,3.37Zm-2-1.46h1.75c1.28,0,1.91-.66,1.91-2v-2c0-1.32-.63-2-1.91-2h-3.66v4A1.72,1.72,0,0,0,287.59,147.29Z" fill="#fcb84d"/><path d="M301.92,140.74h-1.68a1.29,1.29,0,0,0-1.25.56c-.2.37-.4.56-.59.56h-1a.29.29,0,0,1-.32-.32v-7.1a.29.29,0,0,1,.32-.32h7.53c.23,0,.34.11.34.32v.91c0,.21-.11.32-.34.32h-6.19v4.84a1.85,1.85,0,0,1,1.94-1.13h1.64a2.95,2.95,0,0,1,3.25,3.25v2.75a3.08,3.08,0,0,1-3.35,3.37h-1.86a3.37,3.37,0,0,1-2.47-.89,3.33,3.33,0,0,1-.9-2.48v-.7c0-.23.11-.34.32-.34h1c.22,0,.32.11.32.34v.68q0,2,1.89,2H302a1.73,1.73,0,0,0,1.93-2v-2.53a2.29,2.29,0,0,0-.47-1.58A2,2,0,0,0,301.92,140.74Z" fill="#fcb84d"/><path d="M311.18,145.68v2.75c0,.21-.1.32-.29.32h-1.16c-.2,0-.3-.11-.3-.32v-2.75a.27.27,0,0,1,.3-.3h1.16A.26.26,0,0,1,311.18,145.68Z" fill="#fcb84d"/><path d="M320.92,148.75h-2.28a3.1,3.1,0,0,1-3.34-3.37v-7.89a3.33,3.33,0,0,1,.9-2.47,3.29,3.29,0,0,1,2.44-.9h2.28a3.32,3.32,0,0,1,2.45.9,3.37,3.37,0,0,1,.89,2.47v7.89a3.08,3.08,0,0,1-3.34,3.37Zm-2.07-1.46h1.86a1.72,1.72,0,0,0,1.92-2v-7.75a1.72,1.72,0,0,0-1.92-2h-1.86q-1.89,0-1.89,2v7.75Q317,147.29,318.85,147.29Z" fill="#fcb84d"/><path d="M334.11,148.75h-2.27a3.08,3.08,0,0,1-3.34-3.37v-7.89a3.1,3.1,0,0,1,3.34-3.37h2.27a3.11,3.11,0,0,1,3.35,3.37v7.89a3.1,3.1,0,0,1-3.35,3.37ZM332,147.29h1.87a1.72,1.72,0,0,0,1.91-2v-7.75a1.72,1.72,0,0,0-1.91-2H332c-1.25,0-1.88.66-1.88,2v7.75C330.16,146.63,330.79,147.29,332,147.29Z" fill="#fcb84d"/><path d="M347.31,148.75H345a3.1,3.1,0,0,1-3.34-3.37v-7.89a3.33,3.33,0,0,1,.9-2.47,3.29,3.29,0,0,1,2.44-.9h2.28a3.28,3.28,0,0,1,2.44.9,3.33,3.33,0,0,1,.9,2.47v7.89a3.1,3.1,0,0,1-3.34,3.37Zm-2.07-1.46h1.86a1.72,1.72,0,0,0,1.92-2v-7.75a1.72,1.72,0,0,0-1.92-2h-1.86q-1.89,0-1.89,2v7.75Q343.35,147.29,345.24,147.29Z" fill="#fcb84d"/><polyline points="375.06 10.96 381.04 10.96 381.04 16.95" fill="none" stroke="#fff" stroke-miterlimit="10" stroke-width="2"/><polyline points="50.97 16.73 50.97 10.75 56.95 10.75" fill="none" stroke="#fff" stroke-miterlimit="10" stroke-width="2"/><polyline points="381.04 192.38 381.04 198.36 375.06 198.36" fill="none" stroke="#fff" stroke-miterlimit="10" stroke-width="2"/><polyline points="56.95 198.6 50.97 198.6 50.97 192.62" fill="none" stroke="#fff" stroke-miterlimit="10" stroke-width="2"/><polyline points="204.84 121.4 120.73 121.4 120.73 55.6" fill="none" stroke="#33c" stroke-linecap="round" stroke-linejoin="round" stroke-width="2"/><line x1="120.73" y1="77.54" x2="204.84" y2="77.54" fill="#000015" stroke="#33c" stroke-linecap="round" stroke-linejoin="round" stroke-width="2"/><line x1="120.73" y1="99.47" x2="204.84" y2="99.47" fill="#000015" stroke="#33c" stroke-linecap="round" stroke-linejoin="round" stroke-width="2"/><line x1="148.77" y1="121.4" x2="148.77" y2="55.6" fill="#000015" stroke="#33c" stroke-linecap="round" stroke-linejoin="round" stroke-width="2"/><line x1="176.8" y1="121.4" x2="176.8" y2="55.6" fill="#000015" stroke="#33c" stroke-linecap="round" stroke-linejoin="round" stroke-width="2"/><polyline points="134.05 97.66 139.88 91.83 146.54 101.83 160.7 82.67 171.53 100.16 191.52 66.85" fill="none" stroke="#fcb84d" stroke-linecap="round" stroke-linejoin="round" stroke-width="2"/><line x1="120.84" y1="142.4" x2="138.34" y2="142.4" fill="none" stroke="#fcb84d" stroke-linecap="round" stroke-linejoin="round" stroke-width="2"/><line x1="148.84" y1="142.4" x2="166.34" y2="142.4" fill="#000015" stroke="#33c" stroke-linecap="round" stroke-linejoin="round" stroke-width="2"/></svg>