<svg xmlns="http://www.w3.org/2000/svg" viewBox="0 0 120 25.43"><title>logo-actuar</title><path d="M39.66,4.82a9.8,9.8,0,0,0-2.82.4,8.87,8.87,0,0,0-2.48,1.24A.81.81,0,0,0,34,7a.91.91,0,0,0,.18.6L35.13,9a.78.78,0,0,0,.51.38.84.84,0,0,0,.6-.2,5.67,5.67,0,0,1,1.44-.81,4.54,4.54,0,0,1,1.63-.31A3.35,3.35,0,0,1,42,9a4.34,4.34,0,0,1,.85,3v.18H39.55a7,7,0,0,0-4.66,1.37,4.92,4.92,0,0,0-1.61,3.93,5.13,5.13,0,0,0,1.66,4.09A7.35,7.35,0,0,0,39.76,23a7.12,7.12,0,0,0,5.08-1.72,6.6,6.6,0,0,0,1.75-4.91V11.73A7,7,0,0,0,44.8,6.56a7.15,7.15,0,0,0-5.14-1.74Zm.1,14.9a3,3,0,0,1-2-.59,2.16,2.16,0,0,1-.7-1.75,2.1,2.1,0,0,1,.79-1.76,3.49,3.49,0,0,1,2.2-.61H42.8v1a4.35,4.35,0,0,1-.74,2.76,2.8,2.8,0,0,1-2.3.9Zm20.75-.84a.72.72,0,0,0-.51-.35.86.86,0,0,0-.6.25,3.91,3.91,0,0,1-1.16.7,3.6,3.6,0,0,1-1.32.24,3.24,3.24,0,0,1-2.54-.93,4.3,4.3,0,0,1-.87-3V12a4.46,4.46,0,0,1,.82-3,3,3,0,0,1,2.42-.93A4.41,4.41,0,0,1,58,8.27a3.45,3.45,0,0,1,1,.49,1,1,0,0,0,.62.22.73.73,0,0,0,.5-.32l1-1.36a.91.91,0,0,0,.2-.61A.67.67,0,0,0,61,6.18a5.62,5.62,0,0,0-2-1,8.65,8.65,0,0,0-2.54-.36,6.86,6.86,0,0,0-5,1.74,7,7,0,0,0-1.78,5.13v4.4a7,7,0,0,0,1.82,5.16A7.05,7.05,0,0,0,56.61,23a7.84,7.84,0,0,0,2.63-.45,6.62,6.62,0,0,0,2.11-1.23.83.83,0,0,0,.29-.53.9.9,0,0,0-.19-.58l-.94-1.33Zm13.21,1a.66.66,0,0,0-.37-.49.9.9,0,0,0-.64,0,4.33,4.33,0,0,1-.7.21,4.4,4.4,0,0,1-.73.07,2.46,2.46,0,0,1-1.87-.67,2.72,2.72,0,0,1-.64-1.95V8.52H73a.72.72,0,0,0,.8-.8V6a.72.72,0,0,0-.8-.8H68.77V1.51a.85.85,0,0,0-.2-.6.85.85,0,0,0-.6-.2H65.78a.85.85,0,0,0-.6.2.85.85,0,0,0-.2.6V5.24H63.52a.73.73,0,0,0-.81.8V7.72a.73.73,0,0,0,.81.8H65V17.1a6,6,0,0,0,1.46,4.41A5.92,5.92,0,0,0,70.83,23a10.1,10.1,0,0,0,1.61-.13,5.52,5.52,0,0,0,1.32-.4.75.75,0,0,0,.43-.43.92.92,0,0,0,0-.61l-.45-1.53Zm16-13.85a.73.73,0,0,0-.8-.81H86.85a.81.81,0,0,0-.6.21.82.82,0,0,0-.2.6V16.41a3.85,3.85,0,0,1-.68,2.5,3.17,3.17,0,0,1-4.23,0,3.79,3.79,0,0,1-.67-2.5V6.05a.73.73,0,0,0-.8-.81h-2.2a.77.77,0,0,0-.59.21.78.78,0,0,0-.21.6V16.58a6.43,6.43,0,0,0,1.68,4.76A6.71,6.71,0,0,0,83.22,23a6.63,6.63,0,0,0,4.84-1.66,6.43,6.43,0,0,0,1.68-4.76V6.05Zm9.43-1.23a9.8,9.8,0,0,0-2.82.4,8.87,8.87,0,0,0-2.48,1.24.85.85,0,0,0-.35.52.91.91,0,0,0,.18.6L94.64,9a.8.8,0,0,0,.52.38.83.83,0,0,0,.59-.2,5.67,5.67,0,0,1,1.44-.81,4.58,4.58,0,0,1,1.63-.31,3.39,3.39,0,0,1,2.65.92,4.4,4.4,0,0,1,.84,3v.18H99.06a7,7,0,0,0-4.66,1.37,5,5,0,0,0-1.61,3.93,5.13,5.13,0,0,0,1.66,4.09A7.35,7.35,0,0,0,99.27,23a7.1,7.1,0,0,0,5.08-1.72,6.6,6.6,0,0,0,1.75-4.91V11.73a7,7,0,0,0-1.79-5.17,7.15,7.15,0,0,0-5.14-1.74Zm.1,14.9a3,3,0,0,1-2-.59,2.19,2.19,0,0,1-.7-1.75,2.12,2.12,0,0,1,.79-1.76A3.5,3.5,0,0,1,99.59,15h2.72v1a4.35,4.35,0,0,1-.73,2.76,2.82,2.82,0,0,1-2.31.9Zm10.37,2.05a.73.73,0,0,0,.8.81h2.2a.73.73,0,0,0,.8-.81V11.27c0-2.12.87-3.18,2.65-3.17a4,4,0,0,1,1,.12,4.4,4.4,0,0,1,.93.37,1,1,0,0,0,.64.13.67.67,0,0,0,.44-.41l.81-1.43a1,1,0,0,0,.09-.61.71.71,0,0,0-.37-.47,7.49,7.49,0,0,0-3.91-1,5.92,5.92,0,0,0-4.53,1.67,7.09,7.09,0,0,0-1.53,4.89Z" fill="#414751" fill-rule="evenodd"/><path d="M10.88,5.54l3.2,5.56L6.9,23.58A3.7,3.7,0,1,1,.49,19.89l10.36-18A3.71,3.71,0,0,0,10.88,5.54Z" fill="#ff5652"/><path d="M26.31,24.94a3.71,3.71,0,0,1-5-1.36L14.08,11.1l3.2-5.56a3.69,3.69,0,0,0,0-3.64l10.36,18A3.7,3.7,0,0,1,26.31,24.94Z" fill="#0096d3"/><path d="M17.25,5.6a3.74,3.74,0,0,0,.53-1.9,3.7,3.7,0,1,0-6.87,1.9l3.17,5.5Z" fill="#564588"/></svg>