<svg id="2c380160-4483-4ea4-9f3f-7d886ad31e38" data-name="Layer 1" xmlns="http://www.w3.org/2000/svg" xmlns:xlink="http://www.w3.org/1999/xlink" viewBox="0 0 452.4 582.53"><defs><radialGradient id="2eaf1f5c-21db-4793-9aac-2d145ccb79c2" cx="71.9" cy="3.35" r="66.81" gradientUnits="userSpaceOnUse"><stop offset="0" stop-color="#fce9ca"/><stop offset="0.1" stop-color="#fcd596"/><stop offset="0.19" stop-color="#fcc56e"/><stop offset="0.26" stop-color="#fcbc56"/><stop offset="0.3" stop-color="#fcb84d"/><stop offset="0.34" stop-color="#fcb749" stop-opacity="0.96"/><stop offset="0.57" stop-color="#fcb035" stop-opacity="0.72"/><stop offset="0.76" stop-color="#fbab26" stop-opacity="0.55"/><stop offset="0.91" stop-color="#fba81c" stop-opacity="0.44"/><stop offset="1" stop-color="#fba719" stop-opacity="0.4"/></radialGradient><linearGradient id="16d528c8-ea44-4a4b-a19e-ce73477187be" x1="23.97" y1="38.02" x2="23.97" y2="5.26" gradientUnits="userSpaceOnUse"><stop offset="0" stop-color="#b3b3b3" stop-opacity="0"/><stop offset="0.09" stop-color="#b6b5b3" stop-opacity="0.04"/><stop offset="0.23" stop-color="#bdb9b3" stop-opacity="0.13"/><stop offset="0.4" stop-color="#c8c0b2" stop-opacity="0.29"/><stop offset="0.61" stop-color="#d8c9b1" stop-opacity="0.51"/><stop offset="0.84" stop-color="#ecd6b1" stop-opacity="0.79"/><stop offset="1" stop-color="#fcdfb0"/></linearGradient><linearGradient id="263e3615-65a9-4b59-8144-e8c6729c68ac" x1="38.81" y1="38.02" x2="38.81" y2="5.26" xlink:href="#16d528c8-ea44-4a4b-a19e-ce73477187be"/><linearGradient id="589d3011-10d4-4da9-9b45-f0813eb0fdc5" x1="52.15" y1="38.02" x2="52.15" y2="5.26" xlink:href="#16d528c8-ea44-4a4b-a19e-ce73477187be"/><linearGradient id="dec0e59e-3b08-4f2a-918e-69f38e6cff75" x1="66.04" y1="38.02" x2="66.04" y2="5.26" xlink:href="#16d528c8-ea44-4a4b-a19e-ce73477187be"/><linearGradient id="77f80c0a-70cb-4567-966f-de41541c8f9f" x1="94.9" y1="43.58" x2="94.9" y2="5.26" xlink:href="#16d528c8-ea44-4a4b-a19e-ce73477187be"/><linearGradient id="d29bba8f-9760-429c-a8c7-11d52226f479" x1="109.32" y1="3.91" x2="109.32" y2="0" xlink:href="#16d528c8-ea44-4a4b-a19e-ce73477187be"/><linearGradient id="07cb4d57-81f4-432c-9e28-4dc49baf8959" x1="124.05" y1="38.02" x2="124.05" y2="5.26" xlink:href="#16d528c8-ea44-4a4b-a19e-ce73477187be"/><linearGradient id="6c219f01-3a94-4296-ba5e-682b12d23b48" x1="80.16" y1="38.02" x2="80.16" y2="5.2" xlink:href="#16d528c8-ea44-4a4b-a19e-ce73477187be"/><linearGradient id="424b8c11-cd1e-4605-9228-80c95ccc8dac" x1="109.31" y1="38.02" x2="109.31" y2="5.2" xlink:href="#16d528c8-ea44-4a4b-a19e-ce73477187be"/><radialGradient id="9d2d30ef-cb1c-41b3-85ac-a5675b24eb96" cx="199.78" cy="21.24" r="39.2" gradientUnits="userSpaceOnUse"><stop offset="0" stop-color="#696780"/><stop offset="1" stop-color="#2a2933"/></radialGradient><radialGradient id="ee911f60-1179-4988-a256-bde249c5c4e1" cx="193.46" cy="21.24" r="64.97" xlink:href="#9d2d30ef-cb1c-41b3-85ac-a5675b24eb96"/><linearGradient id="29526516-bf2d-4a60-a2ab-7bbb98b0e09f" x1="207.85" y1="17.92" x2="247.87" y2="17.92" gradientUnits="userSpaceOnUse"><stop offset="0" stop-color="#e7e4ff"/><stop offset="0.14" stop-color="#b7b5cd"/><stop offset="0.31" stop-color="#848296"/><stop offset="0.46" stop-color="#5e5d6e"/><stop offset="0.58" stop-color="#474656"/><stop offset="0.65" stop-color="#3f3e4d"/><stop offset="0.71" stop-color="#444352"/><stop offset="0.78" stop-color="#525160"/><stop offset="0.86" stop-color="#696878"/><stop offset="0.95" stop-color="#89889a"/><stop offset="1" stop-color="#a2a0b3"/></linearGradient><linearGradient id="5bd1ee8d-d197-438e-ba3d-4660c58eaa5b" x1="207.85" y1="24.28" x2="237.27" y2="24.28" xlink:href="#29526516-bf2d-4a60-a2ab-7bbb98b0e09f"/><linearGradient id="413cbf7b-63ab-4550-b115-02b5eb719214" x1="207.85" y1="30.64" x2="226.67" y2="30.64" xlink:href="#29526516-bf2d-4a60-a2ab-7bbb98b0e09f"/><linearGradient id="fb4eda38-c0e1-4e97-ba89-2b55185f2c22" x1="-10400.31" y1="17.92" x2="-10360.29" y2="17.92" gradientTransform="matrix(1, 0, 0, -1, 10545, 35.83)" xlink:href="#29526516-bf2d-4a60-a2ab-7bbb98b0e09f"/><linearGradient id="70df1d2e-676b-4eac-8b20-28f04ea9639b" x1="-10400.31" y1="24.28" x2="-10370.89" y2="24.28" gradientTransform="matrix(1, 0, 0, -1, 10555.6, 48.56)" xlink:href="#29526516-bf2d-4a60-a2ab-7bbb98b0e09f"/><linearGradient id="0dc9c906-e909-456b-bcb5-870712d74d72" x1="-10400.31" y1="30.64" x2="-10381.49" y2="30.64" gradientTransform="matrix(1, 0, 0, -1, 10566.2, 61.28)" xlink:href="#29526516-bf2d-4a60-a2ab-7bbb98b0e09f"/><linearGradient id="96d369e0-d34a-4bdf-8452-3a68a9ef1567" x1="186.73" y1="35.9" x2="206.39" y2="12.37" gradientUnits="userSpaceOnUse"><stop offset="0" stop-color="#a2a0b3"/><stop offset="0.05" stop-color="#89889a"/><stop offset="0.14" stop-color="#696878"/><stop offset="0.22" stop-color="#525160"/><stop offset="0.29" stop-color="#444352"/><stop offset="0.35" stop-color="#3f3e4d"/><stop offset="0.42" stop-color="#474656"/><stop offset="0.54" stop-color="#5e5d6e"/><stop offset="0.69" stop-color="#848296"/><stop offset="0.86" stop-color="#b7b5cd"/><stop offset="1" stop-color="#e7e4ff"/></linearGradient><linearGradient id="bd12ebe6-5e77-4907-8e28-be535a8a3a01" x1="196.44" y1="40.45" x2="196.44" y2="8.1" gradientUnits="userSpaceOnUse"><stop offset="0" stop-color="#5c5c66"/><stop offset="0.14" stop-color="#64646f"/><stop offset="0.37" stop-color="#7a7a87"/><stop offset="0.66" stop-color="#9e9eaf"/><stop offset="1" stop-color="#d0cfe6"/><stop offset="1" stop-color="#d0cfe6"/></linearGradient><linearGradient id="8492e4d2-aa53-429f-a955-d582fd4ef9a4" x1="196.44" y1="30.1" x2="204.26" y2="30.1" gradientUnits="userSpaceOnUse"><stop offset="0" stop-color="#686680"/><stop offset="0.16" stop-color="#77758e"/><stop offset="0.46" stop-color="#9f9eb3"/><stop offset="0.88" stop-color="#dfdfed"/><stop offset="1" stop-color="#f2f2ff"/></linearGradient><linearGradient id="1a0f62a4-06b3-4aba-ab9f-7309dfa0813a" x1="195.02" y1="24.74" x2="195.02" y2="11.34" gradientUnits="userSpaceOnUse"><stop offset="0" stop-color="#535266"/><stop offset="1" stop-color="#9390b3"/></linearGradient><linearGradient id="4c065ed5-4dde-4014-a00d-50bc4ee5d3bd" x1="200.35" y1="35.46" x2="200.35" y2="24.74" gradientUnits="userSpaceOnUse"><stop offset="0" stop-color="#9390b3"/><stop offset="1" stop-color="#3e3e4d"/></linearGradient><linearGradient id="df456cc0-4230-497e-9f5f-97eae9504101" x1="197.99" y1="24.74" x2="197.99" y2="11.34" gradientUnits="userSpaceOnUse"><stop offset="0" stop-color="#686680"/><stop offset="0.15" stop-color="#77758d"/><stop offset="0.43" stop-color="#9f9eae"/><stop offset="0.82" stop-color="#dfdfe4"/><stop offset="1" stop-color="#fff"/></linearGradient><linearGradient id="a736253e-3b26-45b8-a971-b99c66518ae8" x1="196.44" y1="22.69" x2="209.38" y2="22.69" gradientUnits="userSpaceOnUse"><stop offset="0" stop-color="#f2f2ff"/><stop offset="0.12" stop-color="#dfdfed"/><stop offset="0.54" stop-color="#9f9eb3"/><stop offset="0.84" stop-color="#77758e"/><stop offset="1" stop-color="#686680"/></linearGradient><radialGradient id="48eac864-8a54-4e66-b50a-311ae99f158e" cx="199.08" cy="24.84" r="6.54" xlink:href="#1a0f62a4-06b3-4aba-ab9f-7309dfa0813a"/><linearGradient id="2ee4cd69-c58d-4383-8699-72edb64c5799" x1="183.51" y1="23.36" x2="196.44" y2="23.36" xlink:href="#4c065ed5-4dde-4014-a00d-50bc4ee5d3bd"/><linearGradient id="af3b8ce1-f943-4465-8f09-68ff4ca08735" x1="183.51" y1="22.62" x2="196.44" y2="22.62" xlink:href="#8492e4d2-aa53-429f-a955-d582fd4ef9a4"/><linearGradient id="d8d859a7-bea8-4da0-b48b-2d06b10c8026" x1="188.49" y1="30.1" x2="196.44" y2="30.1" xlink:href="#a736253e-3b26-45b8-a971-b99c66518ae8"/><linearGradient id="0a55ba4f-85e0-4ea6-8c49-22937088bc4c" x1="188.49" y1="30.1" x2="196.44" y2="30.1" xlink:href="#4c065ed5-4dde-4014-a00d-50bc4ee5d3bd"/></defs><title>mobile-preco-combo</title><polygon points="1.2 581.33 451.2 581.33 451.2 111.82 169.31 111.82 105.67 85.8 1.2 85.8 1.2 581.33" fill="#000015" stroke="#33c" stroke-miterlimit="10" stroke-width="2.4"/><path d="M103.29,531.57h-2.18a.52.52,0,0,1-.58-.59V510a.51.51,0,0,1,.58-.58h8.08a5,5,0,0,1,5.38,5.38v2.9c0,2.64-1.1,4.31-3.28,5v.14l3.83,8.07q.38.69-.45.69h-2.14a1,1,0,0,1-1.07-.59l-3.69-7.93h-3.48c-.28,0-.42.11-.42.34V531A.52.52,0,0,1,103.29,531.57Zm1-11.28h4.38a2.25,2.25,0,0,0,2.56-2.52v-2.9a2.26,2.26,0,0,0-2.56-2.55h-4.38c-.25,0-.38.12-.38.34v7.28C103.87,520.17,104,520.29,104.25,520.29Z" fill="#fcb84d"/><path d="M126.64,535h-1.59a.52.52,0,0,1-.59-.59v-2.79h-.58a5.18,5.18,0,0,1-3.86-1.43,5.37,5.37,0,0,1-1.42-3.95v-.8a.55.55,0,0,1,.62-.62h2.18c.39,0,.58.21.58.62v.52a2.82,2.82,0,0,0,.66,2.09,3,3,0,0,0,2.14.64h1.79a2.82,2.82,0,0,0,2.1-.68,3.05,3.05,0,0,0,.66-2.19v-1.1a2.12,2.12,0,0,0-.9-2,6.17,6.17,0,0,0-2.69-.63,18.57,18.57,0,0,1-3.55-.38,5.72,5.72,0,0,1-1.83-.87q-1.76-1.2-1.76-4.44v-1.63a5.45,5.45,0,0,1,1.4-4,5.18,5.18,0,0,1,3.88-1.43h.58v-2.82a.52.52,0,0,1,.59-.59h1.59a.51.51,0,0,1,.58.59v2.82h.18a4.84,4.84,0,0,1,3.7,1.45,5.52,5.52,0,0,1,1.37,3.93v.76c0,.42-.2.62-.59.62h-2.17a.54.54,0,0,1-.62-.62V515a2.88,2.88,0,0,0-.64-2.08,2.91,2.91,0,0,0-2.12-.64h-1.59a2.83,2.83,0,0,0-2.14.67,3.4,3.4,0,0,0-.62,2.3v1.17a2,2,0,0,0,.88,1.83,6.32,6.32,0,0,0,2.71.62l1.76.07a6.51,6.51,0,0,1,3.9,1.36c1,.82,1.48,2.21,1.48,4.19v1.66a5.38,5.38,0,0,1-1.43,3.95,5.27,5.27,0,0,1-3.88,1.43h-.18v2.79A.52.52,0,0,1,126.64,535Z" fill="#fcb84d"/><path d="M148.16,529.81v-9.52a13.22,13.22,0,0,1,5.49-10.76l19.55-15.94q5-3.93,5-9.11v-3.41q0-7.45-7.76-7.45h-5.07q-3.93,0-5.69,1.76c-1.18,1.17-1.76,3.07-1.76,5.69v3.83c0,1.24-.59,1.86-1.76,1.86h-6.62c-1.18,0-1.76-.62-1.76-1.86v-4q0-7.55,4.24-11.69t11.9-4.14H172q7.54,0,11.8,4.14T188,480.86v4.25a16.38,16.38,0,0,1-6.31,13.24L161.82,514.6a5.86,5.86,0,0,0-2.38,4.65v3.31h26.9c1.25,0,1.87.59,1.87,1.76v5.49c0,1.17-.62,1.76-1.87,1.76H150C148.78,531.57,148.16,531,148.16,529.81Z" fill="#fff"/><path d="M224.22,531.57h-21c-1.31,0-2-.59-2-1.76v-5.38c0-1.11.66-1.66,2-1.66h19.56q7.44,0,7.45-7.66v-8.38H214.28q-7.65,0-11.9-4.19t-4.24-11.74v-9.73q0-7.65,4.24-11.85t11.9-4.19h9.94q7.65,0,11.9,4.19t4.24,11.85v34.46c0,5-1.42,9-4.24,11.79S229.32,531.57,224.22,531.57Zm-8.39-33.74h14.49V481.48q0-7.65-7.55-7.65h-6.94q-7.44,0-7.45,7.65v8.8Q208.38,497.84,215.83,497.83Z" fill="#fff"/><path d="M277.51,531.57h-21c-1.31,0-2-.59-2-1.76v-5.38c0-1.11.66-1.66,2-1.66h19.56q7.45,0,7.45-7.66v-8.38H267.57q-7.65,0-11.9-4.19t-4.24-11.74v-9.73q0-7.65,4.24-11.85t11.9-4.19h9.94q7.65,0,11.9,4.19t4.24,11.85v34.46c0,5-1.42,9-4.24,11.79S282.61,531.57,277.51,531.57Zm-8.39-33.74h14.49V481.48q0-7.65-7.55-7.65h-6.94q-7.44,0-7.45,7.65v8.8Q261.67,497.84,269.12,497.83Z" fill="#fff"/><path d="M332.25,531.57H321.9q-7.66,0-11.9-4.25c-2.83-2.82-4.24-6.76-4.24-11.79V481.07q0-7.65,4.24-11.85T321.9,465h10.35q7.54,0,11.79,4.19t4.24,11.85v34.46c0,5-1.41,9-4.24,11.79S337.28,531.57,332.25,531.57Zm-8.8-8.8h7.35q7.44,0,7.45-7.66V481.48q0-7.65-7.45-7.65h-7.35q-7.45,0-7.45,7.65v33.63Q316,522.78,323.45,522.77Z" fill="#fff"/><path d="M125,351.39h-1.89c-.36,0-.54-.17-.54-.52V334.93a.27.27,0,0,0-.3-.3h-3.79q-.54,0-.54-.51v-1.53q0-.51.54-.51h11.14q.54,0,.54.51v1.53q0,.51-.54.51h-3.78q-.33,0-.33.3v15.94A.45.45,0,0,1,125,351.39Z" fill="#33c"/><path d="M142.35,351.39h-3.48a4.25,4.25,0,0,1-4.65-4.66v-10a4.23,4.23,0,0,1,4.65-4.66h3.48a4.7,4.7,0,0,1,3.45,1.22,4.61,4.61,0,0,1,1.23,3.44v10a4.62,4.62,0,0,1-1.23,3.42A4.67,4.67,0,0,1,142.35,351.39Zm-3.06-2.56h2.61a2,2,0,0,0,2.19-2.22v-9.75a2,2,0,0,0-2.19-2.23h-2.61a1.94,1.94,0,0,0-2.16,2.23v9.75A1.94,1.94,0,0,0,139.29,348.83Z" fill="#33c"/><path d="M158.17,351.39h-1.89c-.36,0-.54-.17-.54-.52V334.93a.27.27,0,0,0-.3-.3h-3.78c-.36,0-.55-.17-.55-.51v-1.53c0-.34.19-.51.55-.51h11.13q.54,0,.54.51v1.53q0,.51-.54.51H159q-.33,0-.33.3v15.94A.45.45,0,0,1,158.17,351.39Z" fill="#33c"/><path d="M168.77,351.39h-2.16c-.29,0-.38-.17-.3-.52l5.22-18.28a.67.67,0,0,1,.72-.51h3a.65.65,0,0,1,.72.51l5.23,18.28c.08.35,0,.52-.34.52h-2.13a.51.51,0,0,1-.37-.11.83.83,0,0,1-.17-.41l-1.14-3.9h-6.6l-1.14,3.9C169.23,351.22,169.05,351.39,168.77,351.39ZM173.69,335l-2.64,9.61h5.43L173.81,335Z" fill="#33c"/><path d="M196.21,351.39h-9.73a.45.45,0,0,1-.51-.52V332.59a.45.45,0,0,1,.51-.51h1.89a.45.45,0,0,1,.51.51v15.88q0,.3.36.3h7q.51,0,.51.54v1.56A.45.45,0,0,1,196.21,351.39Z" fill="#33c"/><path d="M221.57,351.39h-1.89a.45.45,0,0,1-.51-.52V332.59a.45.45,0,0,1,.51-.51h7a4.33,4.33,0,0,1,4.69,4.69v2.52q0,3.45-2.85,4.35v.12l3.33,7c.22.41.09.61-.39.61h-1.86a.89.89,0,0,1-.93-.52l-3.22-6.9h-3q-.36,0-.36.3v6.6A.45.45,0,0,1,221.57,351.39Zm.84-9.82h3.81a2,2,0,0,0,2.23-2.19v-2.52a2,2,0,0,0-2.23-2.23h-3.81q-.33,0-.33.3v6.34Q222.08,341.57,222.41,341.57Z" fill="#33c"/><path d="M243.7,354.33h-1.38a.45.45,0,0,1-.51-.51v-2.43h-.52a4.51,4.51,0,0,1-3.36-1.25,4.69,4.69,0,0,1-1.23-3.44V346a.48.48,0,0,1,.54-.54h1.89q.51,0,.51.54v.45a2.47,2.47,0,0,0,.57,1.82,2.6,2.6,0,0,0,1.86.55h1.57a2.47,2.47,0,0,0,1.83-.58,2.68,2.68,0,0,0,.57-1.91v-1a1.83,1.83,0,0,0-.78-1.72,5.13,5.13,0,0,0-2.34-.56,15.82,15.82,0,0,1-3.1-.33,5.05,5.05,0,0,1-1.59-.75q-1.53-1-1.53-3.87v-1.41a4.71,4.71,0,0,1,1.22-3.44,4.49,4.49,0,0,1,3.37-1.25h.52v-2.46a.45.45,0,0,1,.51-.51h1.38a.45.45,0,0,1,.51.51v2.46h.15a4.2,4.2,0,0,1,3.22,1.26,4.8,4.8,0,0,1,1.19,3.43v.66q0,.54-.51.54h-1.89a.48.48,0,0,1-.54-.54V337a2.49,2.49,0,0,0-.56-1.82,2.53,2.53,0,0,0-1.84-.56h-1.38a2.46,2.46,0,0,0-1.87.59,2.94,2.94,0,0,0-.54,2v1a1.69,1.69,0,0,0,.77,1.59,5.39,5.39,0,0,0,2.36.54l1.53.06a5.68,5.68,0,0,1,3.39,1.18,4.5,4.5,0,0,1,1.29,3.65v1.44a4.66,4.66,0,0,1-1.25,3.44,4.55,4.55,0,0,1-3.37,1.25h-.15v2.43A.45.45,0,0,1,243.7,354.33Z" fill="#33c"/><path d="M268,340.49h1.65a2,2,0,0,0,2.22-2.19v-1.56a1.94,1.94,0,0,0-2.22-2.17h-1.77a2.26,2.26,0,0,0-1.63.51,2.23,2.23,0,0,0-.53,1.66v.87a.45.45,0,0,1-.51.51h-1.92a.45.45,0,0,1-.51-.51v-.93a4.53,4.53,0,0,1,1.23-3.4,4.73,4.73,0,0,1,3.45-1.2h2.61a4.77,4.77,0,0,1,3.46,1.2,4.53,4.53,0,0,1,1.23,3.4v1.65a3.16,3.16,0,0,1-2.41,3.36c1.61.38,2.41,1.5,2.41,3.36v1.74a4.52,4.52,0,0,1-1.23,3.39,4.74,4.74,0,0,1-3.46,1.21h-2.61a4.7,4.7,0,0,1-3.45-1.21,4.52,4.52,0,0,1-1.23-3.39v-1.05q0-.54.51-.54h1.92q.51,0,.51.54v1a2.24,2.24,0,0,0,.53,1.64,2.22,2.22,0,0,0,1.63.52h1.77a1.94,1.94,0,0,0,2.22-2.16v-1.65a2,2,0,0,0-2.22-2.19H268a.45.45,0,0,1-.51-.51V341Q267.47,340.49,268,340.49Z" fill="#33c"/><path d="M287.28,351.39h-6.09c-.38,0-.57-.17-.57-.52v-1.56q0-.48.57-.48h5.67a1.94,1.94,0,0,0,2.17-2.22v-2.43H284.4A4.66,4.66,0,0,1,281,343a4.56,4.56,0,0,1-1.23-3.4v-2.82A4.61,4.61,0,0,1,281,333.3a4.7,4.7,0,0,1,3.45-1.22h2.88a4.71,4.71,0,0,1,3.46,1.22,4.61,4.61,0,0,1,1.23,3.44v10a4.62,4.62,0,0,1-1.23,3.42A4.68,4.68,0,0,1,287.28,351.39Zm-2.43-9.79h4.21v-4.74a2,2,0,0,0-2.2-2.23h-2a1.94,1.94,0,0,0-2.16,2.23v2.55A1.92,1.92,0,0,0,284.85,341.6Z" fill="#33c"/><path d="M304.55,351.39h-6.1c-.38,0-.57-.17-.57-.52v-1.56q0-.48.57-.48h5.68a1.94,1.94,0,0,0,2.16-2.22v-2.43h-4.63a4.66,4.66,0,0,1-3.45-1.22,4.56,4.56,0,0,1-1.23-3.4v-2.82a4.61,4.61,0,0,1,1.23-3.44,4.7,4.7,0,0,1,3.45-1.22h2.89A4.7,4.7,0,0,1,308,333.3a4.61,4.61,0,0,1,1.23,3.44v10a4.62,4.62,0,0,1-1.23,3.42A4.67,4.67,0,0,1,304.55,351.39Zm-2.44-9.79h4.21v-4.74a2,2,0,0,0-2.19-2.23h-2a1.94,1.94,0,0,0-2.16,2.23v2.55A1.92,1.92,0,0,0,302.11,341.6Z" fill="#33c"/><path d="M322.23,351.39h-3a4.68,4.68,0,0,1-3.46-1.24,4.62,4.62,0,0,1-1.23-3.42v-10a4.61,4.61,0,0,1,1.23-3.44,4.71,4.71,0,0,1,3.46-1.22h3a4.66,4.66,0,0,1,3.42,1.22,4.61,4.61,0,0,1,1.23,3.44v10a4.28,4.28,0,0,1-4.65,4.66Zm-2.55-2.56h2.13a1.94,1.94,0,0,0,2.16-2.22v-9.75a1.94,1.94,0,0,0-2.16-2.23h-2.13a1.94,1.94,0,0,0-2.17,2.23v9.75A1.94,1.94,0,0,0,319.68,348.83Z" fill="#33c"/><path d="M112.45,379h-5.94q-.51,0-.51-.54v-1.32q0-.54.51-.54h5.94q.51,0,.51.54v1.32Q113,379,112.45,379Z" fill="#fcb84d"/><path d="M127.1,386.9V368.62a.45.45,0,0,1,.51-.51H135a4.69,4.69,0,0,1,3.43,1.21,4.59,4.59,0,0,1,1.25,3.44v10a4.59,4.59,0,0,1-1.25,3.42,4.66,4.66,0,0,1-3.43,1.23h-7.39A.45.45,0,0,1,127.1,386.9Zm3.24-2h4.23a1.94,1.94,0,0,0,2.17-2.22v-9.76a1.94,1.94,0,0,0-2.17-2.22h-4.23q-.33,0-.33.3v13.57A.29.29,0,0,0,130.34,384.86Z" fill="#fcb84d"/><path d="M155.68,387.41h-9.61a.45.45,0,0,1-.51-.51V368.62a.45.45,0,0,1,.51-.51h9.61q.48,0,.48.51v1.53q0,.51-.48.51h-6.85q-.36,0-.36.3V376q0,.3.36.3h5.8q.54,0,.54.51v1.53q0,.51-.54.51h-5.8q-.36,0-.36.3v5.35q0,.33.36.33h6.85q.48,0,.48.51v1.53Q156.16,387.41,155.68,387.41Z" fill="#fcb84d"/><path d="M161.41,382.73V382a.46.46,0,0,1,.51-.52h1.92a.47.47,0,0,1,.52.52v.54a2.48,2.48,0,0,0,.55,1.81,2.56,2.56,0,0,0,1.85.56h2.07a2.51,2.51,0,0,0,1.86-.59,2.65,2.65,0,0,0,.57-1.9v-.69a1.8,1.8,0,0,0-.74-1.52,3.93,3.93,0,0,0-1.81-.72c-.72-.11-1.51-.27-2.37-.47a21.81,21.81,0,0,1-2.38-.69,3.7,3.7,0,0,1-1.81-1.47,4.81,4.81,0,0,1-.74-2.76v-1.26a4.31,4.31,0,0,1,4.69-4.68h3.18a4.71,4.71,0,0,1,3.47,1.24,4.65,4.65,0,0,1,1.24,3.44v.66a.45.45,0,0,1-.51.51h-1.92a.45.45,0,0,1-.51-.51v-.39a2.56,2.56,0,0,0-.56-1.85,2.53,2.53,0,0,0-1.84-.55h-1.89a2.47,2.47,0,0,0-1.85.58,2.88,2.88,0,0,0-.55,2v.93c0,.9.64,1.51,1.95,1.83.58.14,1.21.26,1.9.36a15.94,15.94,0,0,1,2.09.45,8.71,8.71,0,0,1,1.92.8,3.66,3.66,0,0,1,1.41,1.5,5.09,5.09,0,0,1,.54,2.44v1.18a4.31,4.31,0,0,1-4.68,4.68h-3.36a4.71,4.71,0,0,1-3.46-1.25A4.6,4.6,0,0,1,161.41,382.73Z" fill="#fcb84d"/><path d="M187.86,387.41h-3.48a4.24,4.24,0,0,1-4.65-4.65v-10a4.22,4.22,0,0,1,4.65-4.65h3.48a4.24,4.24,0,0,1,4.65,4.65v1.44a.48.48,0,0,1-.54.54h-1.89q-.51,0-.51-.54v-1.32a1.94,1.94,0,0,0-2.16-2.22H184.8a1.94,1.94,0,0,0-2.16,2.22v9.76a1.94,1.94,0,0,0,2.16,2.22h2.61a1.94,1.94,0,0,0,2.16-2.22v-1.33q0-.54.51-.54H192a.48.48,0,0,1,.54.54v1.45a4.27,4.27,0,0,1-4.65,4.65Z" fill="#fcb84d"/><path d="M200.35,383.24v3.66q0,.51-.48.51h-2a.45.45,0,0,1-.51-.51v-3.66q0-.48.51-.48h2A.42.42,0,0,1,200.35,383.24Z" fill="#fcb84d"/><path d="M226.1,387.41h-1.89a.45.45,0,0,1-.51-.51V368.62a.45.45,0,0,1,.51-.51h7a4.3,4.3,0,0,1,4.68,4.68v2.52q0,3.45-2.85,4.35v.12l3.33,7q.33.6-.39.6h-1.86a.89.89,0,0,1-.93-.51L230,380h-3c-.25,0-.37.1-.37.3v6.61A.45.45,0,0,1,226.1,387.41Zm.84-9.82h3.82A2,2,0,0,0,233,375.4v-2.52a2,2,0,0,0-2.22-2.22h-3.82q-.33,0-.33.3v6.33Q226.61,377.59,226.94,377.59Z" fill="#fcb84d"/><path d="M248.23,390.35h-1.38a.45.45,0,0,1-.51-.51v-2.43h-.51a4.54,4.54,0,0,1-3.37-1.25,4.66,4.66,0,0,1-1.23-3.43V382a.48.48,0,0,1,.54-.55h1.9c.34,0,.51.19.51.55v.45a2.44,2.44,0,0,0,.57,1.81,2.6,2.6,0,0,0,1.86.56h1.56a2.47,2.47,0,0,0,1.83-.59,2.65,2.65,0,0,0,.57-1.9v-1a1.84,1.84,0,0,0-.78-1.73,5.27,5.27,0,0,0-2.34-.56,15.8,15.8,0,0,1-3.09-.33,5.11,5.11,0,0,1-1.6-.75q-1.53-1.05-1.53-3.87v-1.41a4.72,4.72,0,0,1,1.22-3.44,4.51,4.51,0,0,1,3.38-1.24h.51v-2.47a.45.45,0,0,1,.51-.51h1.38a.45.45,0,0,1,.51.51v2.47h.15a4.24,4.24,0,0,1,3.23,1.26,4.79,4.79,0,0,1,1.18,3.42v.66q0,.54-.51.54H250.9a.48.48,0,0,1-.54-.54V373a2,2,0,0,0-2.4-2.37h-1.38a2.45,2.45,0,0,0-1.86.58,2.94,2.94,0,0,0-.54,2v1a1.69,1.69,0,0,0,.76,1.59,5.43,5.43,0,0,0,2.36.54l1.53.06a5.69,5.69,0,0,1,3.39,1.19,4.48,4.48,0,0,1,1.29,3.64v1.45a4.63,4.63,0,0,1-1.24,3.43,4.58,4.58,0,0,1-3.38,1.25h-.15v2.43A.45.45,0,0,1,248.23,390.35Z" fill="#fcb84d"/><path d="M266.72,372.82v-1.77a.78.78,0,0,1,.42-.72l3.12-1.89a2,2,0,0,1,1-.33H273a.45.45,0,0,1,.51.51V386.9q0,.51-.48.51h-2a.45.45,0,0,1-.51-.51V371.23l-3.27,1.89Q266.72,373.39,266.72,372.82Z" fill="#fcb84d"/><path d="M286.92,387.41h-3a4.27,4.27,0,0,1-4.68-4.65v-10a4.62,4.62,0,0,1,1.23-3.44,4.7,4.7,0,0,1,3.45-1.21h3a4.68,4.68,0,0,1,3.43,1.21,4.62,4.62,0,0,1,1.23,3.44v10a4.27,4.27,0,0,1-4.66,4.65Zm-2.55-2.55h2.13a1.94,1.94,0,0,0,2.16-2.22v-9.76a1.94,1.94,0,0,0-2.16-2.22h-2.13a1.94,1.94,0,0,0-2.16,2.22v9.76A1.94,1.94,0,0,0,284.37,384.86Z" fill="#fcb84d"/><path d="M304.58,387.41h-3a4.27,4.27,0,0,1-4.68-4.65v-10a4.62,4.62,0,0,1,1.23-3.44,4.7,4.7,0,0,1,3.45-1.21h3a4.24,4.24,0,0,1,4.65,4.65v10a4.27,4.27,0,0,1-4.65,4.65ZM302,384.86h2.13a1.94,1.94,0,0,0,2.17-2.22v-9.76a1.94,1.94,0,0,0-2.17-2.22H302a1.94,1.94,0,0,0-2.16,2.22v9.76A1.94,1.94,0,0,0,302,384.86Z" fill="#fcb84d"/><path d="M322.23,387.41h-3a4.67,4.67,0,0,1-3.46-1.23,4.62,4.62,0,0,1-1.23-3.42v-10a4.62,4.62,0,0,1,1.23-3.44,4.7,4.7,0,0,1,3.46-1.21h3a4.24,4.24,0,0,1,4.65,4.65v10a4.27,4.27,0,0,1-4.65,4.65Zm-2.55-2.55h2.13a1.94,1.94,0,0,0,2.16-2.22v-9.76a1.94,1.94,0,0,0-2.16-2.22h-2.13a1.94,1.94,0,0,0-2.17,2.22v9.76A1.94,1.94,0,0,0,319.68,384.86Z" fill="#fcb84d"/><rect x="43.23" y="411.58" width="21.48" height="21.48" transform="translate(-368.35 476.28) rotate(-90)" fill="#000015" stroke="#33c" stroke-linecap="round" stroke-linejoin="round" stroke-width="2.4"/><line x1="64.7" y1="422.32" x2="450.75" y2="422.32" fill="none" stroke="#33c" stroke-miterlimit="10" stroke-width="2.4"/><rect x="52.62" y="420.97" width="2.68" height="2.68" transform="translate(-368.35 476.28) rotate(-90)" fill="#33c"/><path d="M28.77,6.53a4.37,4.37,0,0,0-3.2-1.13H22.34a4.3,4.3,0,0,0-3.18,1.13A4.33,4.33,0,0,0,18,9.72V33.56a4.31,4.31,0,0,0,1.13,3.17,4.27,4.27,0,0,0,3.18,1.14h3.23a4.33,4.33,0,0,0,3.2-1.14,4.27,4.27,0,0,0,1.14-3.17V9.72A4.29,4.29,0,0,0,28.77,6.53ZM27.19,33.45a1.81,1.81,0,0,1-2,2.06H22.73a1.8,1.8,0,0,1-2-2.06V9.83a1.8,1.8,0,0,1,2-2.06h2.42a1.81,1.81,0,0,1,2,2.06Z" stroke-linecap="round" stroke-linejoin="round" stroke-width="0.29" fill="url(#2eaf1f5c-21db-4793-9aac-2d145ccb79c2)" stroke="url(#16d528c8-ea44-4a4b-a19e-ce73477187be)"/><path d="M43.38,6.53A4.33,4.33,0,0,0,40.2,5.4H33.58a.42.42,0,0,0-.47.48V37.4a.41.41,0,0,0,.47.47h1.76a.41.41,0,0,0,.47-.47V26c0-.19.11-.28.33-.28H40.2a4.3,4.3,0,0,0,3.18-1.14,4.29,4.29,0,0,0,1.14-3.17V9.72A4.29,4.29,0,0,0,43.38,6.53ZM41.79,21.22c0,1.37-.66,2.06-2,2.06h-3.7c-.2,0-.3-.1-.3-.28V8.05c0-.19.1-.28.3-.28h3.7c1.32,0,2,.69,2,2.06Z" stroke-linecap="round" stroke-linejoin="round" stroke-width="0.29" fill="url(#2eaf1f5c-21db-4793-9aac-2d145ccb79c2)" stroke="url(#263e3615-65a9-4b59-8144-e8c6729c68ac)"/><path d="M50.28,7.77h6.34c.3,0,.44-.16.44-.47V5.88c0-.32-.14-.48-.44-.48h-8.9a.42.42,0,0,0-.48.48V37.4a.42.42,0,0,0,.48.47h8.9c.3,0,.44-.15.44-.47V36c0-.31-.14-.47-.44-.47H50.28c-.23,0-.34-.1-.34-.31V24.42c0-.19.11-.28.34-.28h5.37c.33,0,.5-.16.5-.47V22.25c0-.32-.17-.47-.5-.47H50.28c-.23,0-.34-.1-.34-.28V8.05C49.94,7.86,50.05,7.77,50.28,7.77Z" stroke-linecap="round" stroke-linejoin="round" stroke-width="0.29" fill="url(#2eaf1f5c-21db-4793-9aac-2d145ccb79c2)" stroke="url(#589d3011-10d4-4da9-9b45-f0813eb0fdc5)"/><path d="M72,37.52,68.72,22.06V22c1.76-.56,2.64-1.9,2.64-4V9.74a4.29,4.29,0,0,0-1.15-3.18A4.3,4.3,0,0,0,67,5.4H60.51a.48.48,0,0,0-.47.48V37.4a.47.47,0,0,0,.47.47h1.76a.47.47,0,0,0,.47-.47V22.53c0-.18.11-.28.33-.28h2.82L69.1,37.64a.29.29,0,0,0,.29.23h2.35A.29.29,0,0,0,72,37.52ZM68.64,18a1.81,1.81,0,0,1-2.06,2H63.05c-.21,0-.31-.09-.31-.28V8.05c0-.19.1-.28.31-.28h3.53a1.82,1.82,0,0,1,2.06,2.06Z" stroke-linecap="round" stroke-linejoin="round" stroke-width="0.29" fill="url(#2eaf1f5c-21db-4793-9aac-2d145ccb79c2)" stroke="url(#dec0e59e-3b08-4f2a-918e-69f38e6cff75)"/><path d="M98.58,11.55h1.75a.44.44,0,0,0,.5-.5V9.72a4.29,4.29,0,0,0-1.14-3.19A4.33,4.33,0,0,0,96.52,5.4H93.29A4.33,4.33,0,0,0,90.1,6.53,4.32,4.32,0,0,0,89,9.72V33.56a3.93,3.93,0,0,0,4.31,4.31h1.22L93.4,39.15a.86.86,0,0,0-.2.89.66.66,0,0,0,.67.48h.59a2.26,2.26,0,0,1,1.05.16.66.66,0,0,1,.28.62v.08a.55.55,0,0,1-.28.54,2.45,2.45,0,0,1-1.05.15h-.81a.43.43,0,0,0-.33.1.59.59,0,0,0-.09.38V43q0,.45.42.45h1.06c1.67,0,2.5-.62,2.5-1.86v-.45c0-1.28-.7-1.92-2.11-1.92V39.1l1.17-1.23h.25a4,4,0,0,0,4.31-4.31V32.23a.44.44,0,0,0-.5-.5H98.58c-.32,0-.48.16-.48.5v1.22a1.79,1.79,0,0,1-2,2.06H93.68a1.79,1.79,0,0,1-2-2.06V9.83a1.79,1.79,0,0,1,2-2.06H96.1a1.79,1.79,0,0,1,2,2.06v1.22C98.1,11.39,98.26,11.55,98.58,11.55Z" stroke-linecap="round" stroke-linejoin="round" stroke-width="0.29" fill="url(#2eaf1f5c-21db-4793-9aac-2d145ccb79c2)" stroke="url(#77f80c0a-70cb-4567-966f-de41541c8f9f)"/><path d="M110.65.15A1.84,1.84,0,0,0,109,1.2a6.35,6.35,0,0,1-.56.89.54.54,0,0,1-.43.2.42.42,0,0,1-.39-.25,2.54,2.54,0,0,1-.12-.95V.53a.25.25,0,0,0-.28-.27h-.84a.24.24,0,0,0-.27.27V1.62c0,1.43.63,2.14,1.89,2.14a1.64,1.64,0,0,0,1.53-.89l.22-.43.18-.29a2,2,0,0,1,.28-.39.54.54,0,0,1,.42-.14.4.4,0,0,1,.4.24,2.75,2.75,0,0,1,.11,1v.52c0,.23.09.34.28.34h.83c.17,0,.25-.11.25-.34v-1C112.51.86,111.89.15,110.65.15Z" stroke-linecap="round" stroke-linejoin="round" stroke-width="0.29" fill="url(#2eaf1f5c-21db-4793-9aac-2d145ccb79c2)" stroke="url(#d29bba8f-9760-429c-a8c7-11d52226f479)"/><path d="M128.85,6.53a4.38,4.38,0,0,0-3.2-1.13h-3.23a4.33,4.33,0,0,0-3.19,1.13,4.32,4.32,0,0,0-1.12,3.19V33.56a3.93,3.93,0,0,0,4.31,4.31h3.23a4.35,4.35,0,0,0,3.2-1.14A4.27,4.27,0,0,0,130,33.56V9.72A4.29,4.29,0,0,0,128.85,6.53Zm-1.59,26.92a1.81,1.81,0,0,1-2,2.06h-2.42a1.79,1.79,0,0,1-2-2.06V9.83a1.79,1.79,0,0,1,2-2.06h2.42a1.81,1.81,0,0,1,2,2.06Z" stroke-linecap="round" stroke-linejoin="round" stroke-width="0.29" fill="url(#2eaf1f5c-21db-4793-9aac-2d145ccb79c2)" stroke="url(#07cb4d57-81f4-432c-9e28-4dc49baf8959)"/><path d="M85,6.47a4.38,4.38,0,0,0-3.2-1.13H78.53a4.33,4.33,0,0,0-3.19,1.13,4.3,4.3,0,0,0-1.12,3.18V37.57a.29.29,0,0,0,.3.3H76.7a.29.29,0,0,0,.3-.3V21.86h6.42V37.57a.3.3,0,0,0,.3.3H85.8a.3.3,0,0,0,.3-.3V9.65A4.27,4.27,0,0,0,85,6.47Zm-1.59,13H76.91V9.77a1.8,1.8,0,0,1,2-2.06h2.42a1.81,1.81,0,0,1,2,2.06Z" stroke-linecap="round" stroke-linejoin="round" stroke-width="0.29" fill="url(#2eaf1f5c-21db-4793-9aac-2d145ccb79c2)" stroke="url(#6c219f01-3a94-4296-ba5e-682b12d23b48)"/><path d="M114.11,6.47a4.35,4.35,0,0,0-3.2-1.13h-3.23a4.3,4.3,0,0,0-3.18,1.13,4.3,4.3,0,0,0-1.12,3.18V37.57a.29.29,0,0,0,.3.3h2.18a.29.29,0,0,0,.3-.3V21.86h6.42V37.57a.29.29,0,0,0,.3.3H115a.29.29,0,0,0,.3-.3V9.65A4.27,4.27,0,0,0,114.11,6.47Zm-1.58,13h-6.46V9.77a1.8,1.8,0,0,1,2-2.06h2.42a1.81,1.81,0,0,1,2,2.06Z" stroke-linecap="round" stroke-linejoin="round" stroke-width="0.29" fill="url(#2eaf1f5c-21db-4793-9aac-2d145ccb79c2)" stroke="url(#424b8c11-cd1e-4605-9228-80c95ccc8dac)"/><path d="M267.73,34.61h-2.88q-.54,0-.36-.63l4.74-18a.86.86,0,0,1,.9-.64h4a.82.82,0,0,1,.91.64l4.74,18q.18.63-.36.63h-2.88a.57.57,0,0,1-.45-.14.91.91,0,0,1-.18-.49l-.85-3.3H269.2l-.84,3.3a.83.83,0,0,1-.2.49A.58.58,0,0,1,267.73,34.61Zm4.35-15.67-2.16,8.67h4.44l-2.16-8.67Z" fill="#fff"/><path d="M288.38,30.68v3.57q0,.36-.3.36H287q-.33,0-.33-.36V30.68c0-.23.11-.34.33-.34h1.05C288.28,30.34,288.38,30.45,288.38,30.68Z" fill="#fcb84d"/><path d="M304.41,34.61h-3.18a5,5,0,0,1-3.66-1.26,4.86,4.86,0,0,1-1.29-3.64V20.2a4.85,4.85,0,0,1,1.29-3.63,5,5,0,0,1,3.66-1.27h3.18a5,5,0,0,1,3.64,1.28,4.87,4.87,0,0,1,1.29,3.62v.9q0,.66-.63.66h-2.56c-.42,0-.62-.22-.62-.66v-.72a2,2,0,0,0-.4-1.37,1.83,1.83,0,0,0-1.35-.4h-1.95a1.82,1.82,0,0,0-1.33.4,1.9,1.9,0,0,0-.41,1.37v9.15a1.88,1.88,0,0,0,.41,1.37,1.82,1.82,0,0,0,1.33.41h1.95a1.83,1.83,0,0,0,1.35-.41,1.93,1.93,0,0,0,.4-1.37V27.64a.3.3,0,0,0-.34-.33h-1.8a.56.56,0,0,1-.63-.63v-2a.56.56,0,0,1,.63-.63h5.26a.61.61,0,0,1,.69.69v5a4.85,4.85,0,0,1-1.29,3.62A5,5,0,0,1,304.41,34.61Z" fill="#fff"/><path d="M318.88,30.68v3.57q0,.36-.3.36h-1.05q-.33,0-.33-.36V30.68c0-.23.11-.34.33-.34h1.05C318.78,30.34,318.88,30.45,318.88,30.68Z" fill="#fcb84d"/><path d="M335.09,34.61h-3.36a5,5,0,0,1-3.66-1.26,4.86,4.86,0,0,1-1.29-3.64V20.2a4.85,4.85,0,0,1,1.29-3.63,5,5,0,0,1,3.66-1.27h3.36a5,5,0,0,1,3.67,1.27,4.85,4.85,0,0,1,1.29,3.63v9.51a4.86,4.86,0,0,1-1.29,3.64A5,5,0,0,1,335.09,34.61Zm-2.76-3.3h2.13a1.9,1.9,0,0,0,1.37-.41,1.89,1.89,0,0,0,.4-1.37V20.38a1.9,1.9,0,0,0-.4-1.37,1.9,1.9,0,0,0-1.37-.4h-2.13A1.83,1.83,0,0,0,331,19a2,2,0,0,0-.39,1.37v9.15A1.93,1.93,0,0,0,331,30.9,1.83,1.83,0,0,0,332.33,31.31Z" fill="#fff"/><path d="M349.59,30.68v3.57q0,.36-.3.36h-1.05q-.33,0-.33-.36V30.68c0-.23.11-.34.33-.34h1.05C349.49,30.34,349.59,30.45,349.59,30.68Z" fill="#fcb84d"/><path d="M357.31,29.68v-.6a.56.56,0,0,1,.63-.63h2.55a.56.56,0,0,1,.63.63v.24a2.12,2.12,0,0,0,.45,1.57,2.45,2.45,0,0,0,1.65.42h1.41a2.35,2.35,0,0,0,1.64-.45,2.37,2.37,0,0,0,.46-1.69v-.36a1.49,1.49,0,0,0-.7-1.33,3.74,3.74,0,0,0-1.76-.56,18.83,18.83,0,0,1-2.26-.34,14.71,14.71,0,0,1-2.27-.66A3.56,3.56,0,0,1,358,24.33a5.91,5.91,0,0,1-.7-3V20.23a4.84,4.84,0,0,1,1.32-3.63,5,5,0,0,1,3.66-1.3h3a5.09,5.09,0,0,1,3.7,1.3,4.84,4.84,0,0,1,1.32,3.63v.57a.56.56,0,0,1-.63.63H367.1a.56.56,0,0,1-.64-.63v-.18A2.16,2.16,0,0,0,366,19a2.45,2.45,0,0,0-1.65-.42h-1.17a2.26,2.26,0,0,0-1.66.46,2.75,2.75,0,0,0-.44,1.82v.57q0,1.41,2.46,1.62a15.3,15.3,0,0,1,4.54,1,3.84,3.84,0,0,1,1.75,1.61,5.58,5.58,0,0,1,.71,2.95v1a4.85,4.85,0,0,1-1.32,3.64,5,5,0,0,1-3.67,1.29h-3.27a5,5,0,0,1-3.66-1.29A4.85,4.85,0,0,1,357.31,29.68Z" fill="#fff"/><path d="M379.91,30.68v3.57q0,.36-.3.36h-1.05q-.33,0-.33-.36V30.68c0-.23.11-.34.33-.34h1.05C379.81,30.34,379.91,30.45,379.91,30.68Z" fill="#fcb84d"/><path d="M394.08,34.61h-2.52q-.66,0-.66-.63v-15a.29.29,0,0,0-.33-.33h-3.42a.56.56,0,0,1-.63-.63v-2a.56.56,0,0,1,.63-.64h11.34a.56.56,0,0,1,.64.64v2a.56.56,0,0,1-.64.63h-3.42q-.36,0-.36.33V34A.56.56,0,0,1,394.08,34.61Z" fill="#fff"/><path d="M407.35,30.68v3.57q0,.36-.3.36H406q-.33,0-.33-.36V30.68c0-.23.11-.34.33-.34h1.05C407.25,30.34,407.35,30.45,407.35,30.68Z" fill="#fcb84d"/><path d="M423.56,34.61H420.2a5,5,0,0,1-3.66-1.26,4.86,4.86,0,0,1-1.29-3.64V20.2a4.85,4.85,0,0,1,1.29-3.63,5,5,0,0,1,3.66-1.27h3.36a5,5,0,0,1,3.66,1.27,4.85,4.85,0,0,1,1.3,3.63v9.51a4.86,4.86,0,0,1-1.3,3.64A5,5,0,0,1,423.56,34.61Zm-2.76-3.3h2.13a1.9,1.9,0,0,0,1.37-.41,1.89,1.89,0,0,0,.4-1.37V20.38a1.9,1.9,0,0,0-.4-1.37,1.9,1.9,0,0,0-1.37-.4H420.8a1.83,1.83,0,0,0-1.35.4,2,2,0,0,0-.39,1.37v9.15a1.93,1.93,0,0,0,.39,1.37A1.83,1.83,0,0,0,420.8,31.31Z" fill="#fff"/><path d="M247.87,14.21H204.14a1.05,1.05,0,0,0-1.06,1.06v5.3a1,1,0,0,0,.15.53.94.94,0,0,0-.15.53v5.3a1,1,0,0,0,.15.53.94.94,0,0,0-.15.53v5.3a1.06,1.06,0,0,0,1.06,1.06h17.23A6.37,6.37,0,0,0,227.73,28H232a6.37,6.37,0,0,0,6.36-6.36h4.24a6.37,6.37,0,0,0,6.36-6.36A1.05,1.05,0,0,0,247.87,14.21Z" fill="url(#9d2d30ef-cb1c-41b3-85ac-a5675b24eb96)"/><path d="M144.69,14.21h43.73a1.05,1.05,0,0,1,1.06,1.06v5.3a1.08,1.08,0,0,1-.14.53,1,1,0,0,1,.14.53v5.3a1.08,1.08,0,0,1-.14.53,1,1,0,0,1,.14.53v5.3a1.06,1.06,0,0,1-1.06,1.06H171.19A6.38,6.38,0,0,1,164.83,28h-4.24a6.38,6.38,0,0,1-6.36-6.36H150a6.37,6.37,0,0,1-6.36-6.36A1.06,1.06,0,0,1,144.69,14.21Z" fill="url(#ee911f60-1179-4988-a256-bde249c5c4e1)"/><path d="M207.85,15.27h40a0,0,0,0,1,0,0v0a5.3,5.3,0,0,1-5.3,5.3H207.85a0,0,0,0,1,0,0v-5.3A0,0,0,0,1,207.85,15.27Z" fill="url(#29526516-bf2d-4a60-a2ab-7bbb98b0e09f)"/><path d="M207.85,21.63h29.42a0,0,0,0,1,0,0v0a5.3,5.3,0,0,1-5.3,5.3H207.85a0,0,0,0,1,0,0v-5.3A0,0,0,0,1,207.85,21.63Z" fill="url(#5bd1ee8d-d197-438e-ba3d-4660c58eaa5b)"/><path d="M207.85,28h18.82a0,0,0,0,1,0,0v0a5.3,5.3,0,0,1-5.3,5.3H207.85a0,0,0,0,1,0,0V28A0,0,0,0,1,207.85,28Z" fill="url(#413cbf7b-63ab-4550-b115-02b5eb719214)"/><path d="M144.69,15.27h34.72a5.3,5.3,0,0,1,5.3,5.3v0a0,0,0,0,1,0,0h-40a0,0,0,0,1,0,0v-5.3A0,0,0,0,1,144.69,15.27Z" transform="translate(329.4 35.83) rotate(180)" fill="url(#fb4eda38-c0e1-4e97-ba89-2b55185f2c22)"/><path d="M155.29,21.63h24.12a5.3,5.3,0,0,1,5.3,5.3v0a0,0,0,0,1,0,0H155.29a0,0,0,0,1,0,0v-5.3A0,0,0,0,1,155.29,21.63Z" transform="translate(340.01 48.56) rotate(-180)" fill="url(#70df1d2e-676b-4eac-8b20-28f04ea9639b)"/><path d="M165.89,28h13.52a5.3,5.3,0,0,1,5.3,5.3v0a0,0,0,0,1,0,0H165.89a0,0,0,0,1,0,0V28A0,0,0,0,1,165.89,28Z" transform="translate(350.61 61.28) rotate(-180)" fill="url(#0dc9c906-e909-456b-bcb5-870712d74d72)"/><circle cx="196.44" cy="24.28" r="15.86" stroke-linecap="round" stroke-linejoin="round" stroke-width="0.63" fill="url(#96d369e0-d34a-4bdf-8452-3a68a9ef1567)" stroke="url(#bd12ebe6-5e77-4907-8e28-be535a8a3a01)"/><polygon points="204.26 35.46 196.44 24.74 201.36 26.34 204.26 35.46" fill="url(#8492e4d2-aa53-429f-a955-d582fd4ef9a4)"/><polygon points="196.58 11.34 196.44 24.74 193.46 20.65 196.58 11.34" fill="url(#1a0f62a4-06b3-4aba-ab9f-7309dfa0813a)"/><polygon points="204.26 35.46 196.44 29.8 196.44 24.74 204.26 35.46" fill="url(#4c065ed5-4dde-4014-a00d-50bc4ee5d3bd)"/><polygon points="199.54 20.64 196.44 24.74 196.58 11.34 199.54 20.64" fill="url(#df456cc0-4230-497e-9f5f-97eae9504101)"/><polygon points="209.38 20.64 196.44 24.74 199.54 20.64 209.38 20.64" fill="url(#a736253e-3b26-45b8-a971-b99c66518ae8)"/><polygon points="209.38 20.64 201.36 26.34 196.44 24.74 209.38 20.64" fill="url(#48eac864-8a54-4e66-b50a-311ae99f158e)"/><polygon points="196.44 24.74 191.59 26.21 183.51 20.5 196.44 24.74" fill="url(#2ee4cd69-c58d-4383-8699-72edb64c5799)"/><polygon points="196.44 24.74 183.51 20.5 193.46 20.65 196.44 24.74" fill="url(#af3b8ce1-f943-4465-8f09-68ff4ca08735)"/><polygon points="196.44 24.74 188.49 35.46 191.59 26.21 196.44 24.74" fill="url(#d8d859a7-bea8-4da0-b48b-2d06b10c8026)"/><polygon points="196.44 24.74 196.44 29.8 188.49 35.46 196.44 24.74" fill="url(#0a55ba4f-85e0-4ea6-8c49-22937088bc4c)"/><polygon points="209.38 20.64 199.54 20.64 196.58 11.34 193.46 20.65 183.51 20.5 191.59 26.21 188.49 35.46 196.44 29.8 204.26 35.46 201.36 26.34 209.38 20.64" fill="#fba719" opacity="0.5"/><path d="M54.66,184.29H50.48a5.1,5.1,0,0,1-5.58-5.59v-12a5.08,5.08,0,0,1,5.58-5.59h4.18a5.62,5.62,0,0,1,4.11,1.46,5.56,5.56,0,0,1,1.47,4.13v1.72a.57.57,0,0,1-.64.65H57.33c-.41,0-.62-.21-.62-.65v-1.58c0-1.78-.86-2.67-2.59-2.67H51c-1.73,0-2.6.89-2.6,2.67v11.71c0,1.78.87,2.66,2.6,2.66h3.13c1.73,0,2.59-.88,2.59-2.66V177c0-.43.21-.65.62-.65H59.6a.57.57,0,0,1,.64.65v1.73a5.12,5.12,0,0,1-5.58,5.59Z" fill="#fff"/><path d="M68.13,184.29H65.54c-.34,0-.46-.21-.36-.62l6.27-21.94a.81.81,0,0,1,.86-.61h3.6a.78.78,0,0,1,.87.61l6.27,21.94c.09.41,0,.62-.4.62H80.09a.67.67,0,0,1-.45-.13,1,1,0,0,1-.2-.49L78.08,179H70.15l-1.37,4.68C68.69,184.08,68.47,184.29,68.13,184.29ZM74,164.58l-3.17,11.53h6.52l-3.2-11.53Z" fill="#fff"/><path d="M95.11,184.29H92.85c-.44,0-.65-.21-.65-.62V164.54a.32.32,0,0,0-.36-.36H87.3c-.43,0-.65-.2-.65-.61v-1.84c0-.4.22-.61.65-.61h13.36c.44,0,.65.21.65.61v1.84c0,.41-.21.61-.65.61H96.12q-.39,0-.39.36v19.13A.55.55,0,0,1,95.11,184.29Z" fill="#fff"/><path d="M109.45,184.29h-2.27a.54.54,0,0,1-.61-.62V161.73a.54.54,0,0,1,.61-.61h8.43a5.18,5.18,0,0,1,5.62,5.62v3q0,4.14-3.42,5.22v.15l4,8.42c.26.49.11.73-.47.73h-2.23a1.08,1.08,0,0,1-1.12-.62l-3.86-8.28H110.5c-.29,0-.44.12-.44.36v7.92A.54.54,0,0,1,109.45,184.29Zm1-11.78H115a2.34,2.34,0,0,0,2.66-2.63v-3a2.36,2.36,0,0,0-2.66-2.67h-4.58c-.26,0-.4.12-.4.36v7.61C110.06,172.39,110.2,172.51,110.46,172.51Z" fill="#fff"/><path d="M129.52,184.29h-2.6c-.33,0-.45-.21-.36-.62l6.27-21.94a.82.82,0,0,1,.87-.61h3.6a.77.77,0,0,1,.86.61l6.27,21.94c.1.41,0,.62-.4.62h-2.55a.63.63,0,0,1-.45-.13.94.94,0,0,1-.2-.49L139.46,179h-7.93l-1.36,4.68C130.07,184.08,129.85,184.29,129.52,184.29Zm5.91-19.71-3.17,11.53h6.52l-3.21-11.53Z" fill="#fff"/><path d="M159.56,184.29h-4.18a5.1,5.1,0,0,1-5.58-5.59v-12a5.08,5.08,0,0,1,5.58-5.59h4.18a5.62,5.62,0,0,1,4.11,1.46,5.56,5.56,0,0,1,1.48,4.13v1.72a.57.57,0,0,1-.65.65h-2.27c-.41,0-.62-.21-.62-.65v-1.58c0-1.78-.86-2.67-2.59-2.67h-3.13c-1.73,0-2.6.89-2.6,2.67v11.71c0,1.78.87,2.66,2.6,2.66H159c1.73,0,2.59-.88,2.59-2.66V177c0-.43.21-.65.62-.65h2.27a.58.58,0,0,1,.65.65v1.73a5.13,5.13,0,0,1-5.59,5.59Z" fill="#fff"/><path d="M173,184.29h-2.59c-.34,0-.46-.21-.36-.62l6.27-21.94a.81.81,0,0,1,.86-.61h3.61a.78.78,0,0,1,.86.61L188,183.67c.09.41,0,.62-.4.62H185a.67.67,0,0,1-.45-.13,1,1,0,0,1-.19-.49L183,179h-7.93l-1.37,4.68C173.59,184.08,173.37,184.29,173,184.29Zm5.91-19.71-3.17,11.53h6.52l-3.2-11.53Z" fill="#fff"/><path d="M213.2,171.24h5.15c.46,0,.69.25.69.73v1.51a.61.61,0,0,1-.69.68H213.2v5.23a.64.64,0,0,1-.72.72h-1.62q-.69,0-.69-.72v-5.23H205a.61.61,0,0,1-.69-.68V172c0-.48.23-.73.69-.73h5.18v-5.18q0-.72.69-.72h1.62a.64.64,0,0,1,.72.72Z" fill="#fcb84d"/><path d="M236.65,178.67v-.94a.54.54,0,0,1,.61-.61h2.31a.54.54,0,0,1,.61.61v.65a3,3,0,0,0,.67,2.18,3.06,3.06,0,0,0,2.21.66h2.49a3,3,0,0,0,2.23-.7,3.18,3.18,0,0,0,.69-2.29v-.82a2.15,2.15,0,0,0-.89-1.82,4.6,4.6,0,0,0-2.18-.87c-.86-.13-1.81-.32-2.84-.56a24.16,24.16,0,0,1-2.85-.83,4.49,4.49,0,0,1-2.18-1.76,5.78,5.78,0,0,1-.88-3.32v-1.51a5.19,5.19,0,0,1,5.62-5.62h3.82a5.61,5.61,0,0,1,4.16,1.5,5.55,5.55,0,0,1,1.5,4.12v.79a.55.55,0,0,1-.62.62h-2.3a.55.55,0,0,1-.62-.62v-.46a2.44,2.44,0,0,0-2.88-2.89h-2.27a2.93,2.93,0,0,0-2.21.71,3.38,3.38,0,0,0-.67,2.39v1.12c0,1.08.78,1.81,2.34,2.2.7.16,1.46.31,2.29.43a19,19,0,0,1,2.5.54,10.86,10.86,0,0,1,2.31,1,4.4,4.4,0,0,1,1.69,1.8,6.08,6.08,0,0,1,.65,2.94v1.41a5.18,5.18,0,0,1-5.62,5.62h-4a5.63,5.63,0,0,1-4.15-1.5A5.57,5.57,0,0,1,236.65,178.67Z" fill="#fff"/><path d="M268.39,184.29h-4.18a5.11,5.11,0,0,1-5.59-5.59v-12a5.08,5.08,0,0,1,5.59-5.59h4.18a5.67,5.67,0,0,1,4.14,1.46,5.56,5.56,0,0,1,1.48,4.13v12a5.13,5.13,0,0,1-5.62,5.59Zm-3.68-3.07h3.14a2.34,2.34,0,0,0,2.63-2.66V166.85a2.34,2.34,0,0,0-2.63-2.67h-3.14c-1.73,0-2.59.89-2.59,2.67v11.71C262.12,180.34,263,181.22,264.71,181.22Z" fill="#fff"/><path d="M283.91,184.29h-2.27a.55.55,0,0,1-.61-.62V161.73a.54.54,0,0,1,.61-.61H293a.54.54,0,0,1,.61.61v1.84a.54.54,0,0,1-.61.61h-8c-.29,0-.43.12-.43.36v6.81c0,.27.14.4.43.4h7c.43,0,.65.2.65.61v1.8a.58.58,0,0,1-.65.65h-7c-.29,0-.43.12-.43.36v8.5A.55.55,0,0,1,283.91,184.29Z" fill="#fff"/><path d="M305.89,184.29h-2.27c-.43,0-.65-.21-.65-.62V164.54a.32.32,0,0,0-.36-.36h-4.54c-.43,0-.65-.2-.65-.61v-1.84c0-.4.22-.61.65-.61h13.37c.43,0,.64.21.64.61v1.84c0,.41-.21.61-.64.61H306.9c-.27,0-.4.12-.4.36v19.13A.54.54,0,0,1,305.89,184.29Z" fill="#fff"/><path d="M324.33,184.29h-3.82a.68.68,0,0,1-.75-.62l-4.29-21.94c-.05-.4.16-.61.61-.61h2.78c.45,0,.69.21.72.61l2.91,18.88h.22l4.25-19a.58.58,0,0,1,.65-.54h3a.62.62,0,0,1,.68.54l4.29,19h.21l2.92-18.84a.63.63,0,0,1,.72-.65h2.78c.48,0,.68.22.61.65l-4.29,21.9a.66.66,0,0,1-.72.62H334a.66.66,0,0,1-.72-.62l-4.07-18.22h-.14L325,183.67A.66.66,0,0,1,324.33,184.29Z" fill="#fff"/><path d="M349.66,184.29h-2.6c-.33,0-.45-.21-.36-.62L353,161.73a.81.81,0,0,1,.86-.61h3.61a.77.77,0,0,1,.86.61l6.27,21.94c.1.41,0,.62-.4.62h-2.55a.63.63,0,0,1-.45-.13.94.94,0,0,1-.2-.49L359.6,179h-7.93l-1.37,4.68C350.21,184.08,350,184.29,349.66,184.29Zm5.9-19.71-3.17,11.53h6.52l-3.2-11.53Z" fill="#fff"/><path d="M373.18,184.29h-2.27a.54.54,0,0,1-.61-.62V161.73a.54.54,0,0,1,.61-.61h8.43a5.19,5.19,0,0,1,5.62,5.62v3q0,4.14-3.42,5.22v.15l4,8.42c.26.49.1.73-.47.73h-2.24a1.06,1.06,0,0,1-1.11-.62l-3.86-8.28h-3.64c-.28,0-.43.12-.43.36v7.92A.54.54,0,0,1,373.18,184.29Zm1-11.78h4.57a2.34,2.34,0,0,0,2.67-2.63v-3a2.36,2.36,0,0,0-2.67-2.67h-4.57c-.27,0-.4.12-.4.36v7.61C373.79,172.39,373.92,172.51,374.19,172.51Z" fill="#fff"/><path d="M404.12,184.29H392.6a.55.55,0,0,1-.62-.62V161.73a.55.55,0,0,1,.62-.61h11.52c.39,0,.58.21.58.61v1.84c0,.41-.19.61-.58.61h-8.21c-.29,0-.43.12-.43.36v6.09c0,.24.14.36.43.36h6.95c.44,0,.65.21.65.61v1.84c0,.41-.21.61-.65.61h-6.95c-.29,0-.43.13-.43.36v6.42c0,.26.14.39.43.39h8.21c.39,0,.58.21.58.62v1.83C404.7,184.08,404.51,184.29,404.12,184.29Z" fill="#fff"/><path d="M54.05,215.67H59.2c.46,0,.68.24.68.72v1.52a.6.6,0,0,1-.68.68H54.05v5.23a.64.64,0,0,1-.72.72H51.71q-.69,0-.69-.72v-5.23H45.83a.6.6,0,0,1-.68-.68v-1.52c0-.48.23-.72.68-.72H51v-5.18q0-.72.69-.72h1.62a.64.64,0,0,1,.72.72Z" fill="#fcb84d"/><path d="M79.19,228.72H76.6c-.34,0-.46-.21-.36-.62l6.27-21.94a.81.81,0,0,1,.86-.61H87a.79.79,0,0,1,.87.61l6.27,21.94c.09.41,0,.62-.4.62H91.15a.67.67,0,0,1-.45-.13,1,1,0,0,1-.2-.49l-1.37-4.68H81.21l-1.37,4.68C79.74,228.51,79.53,228.72,79.19,228.72ZM85.1,209l-3.17,11.53h6.52L85.24,209Z" fill="#fff"/><path d="M102.72,228.72h-2.27a.55.55,0,0,1-.62-.62V206.16a.55.55,0,0,1,.62-.61H109a5.62,5.62,0,0,1,4.11,1.46,5.56,5.56,0,0,1,1.47,4.13v3.74a5.12,5.12,0,0,1-5.58,5.59h-5.26c-.29,0-.43.12-.43.36v7.27A.55.55,0,0,1,102.72,228.72Zm1-11.35h4.8q2.55,0,2.55-2.67v-3.42q0-2.67-2.55-2.67h-4.8q-.39,0-.39.36v8Q103.33,217.37,103.72,217.37Z" fill="#fff"/><path d="M133.3,228.72H121.63a.54.54,0,0,1-.61-.62V206.16a.54.54,0,0,1,.61-.61h2.27a.54.54,0,0,1,.61.61v19.06c0,.24.14.36.43.36h8.36c.41,0,.61.22.61.65v1.87A.54.54,0,0,1,133.3,228.72Z" fill="#fff"/><path d="M143.06,206.16V228.1a.54.54,0,0,1-.61.62h-2.27a.54.54,0,0,1-.61-.62V206.16a.54.54,0,0,1,.61-.61h2.27A.54.54,0,0,1,143.06,206.16Z" fill="#fff"/><path d="M160.07,228.72h-4.18a5.56,5.56,0,0,1-4.13-1.48,5.62,5.62,0,0,1-1.46-4.11v-12a5.08,5.08,0,0,1,5.59-5.59h4.18a5.58,5.58,0,0,1,4.1,1.46,5.52,5.52,0,0,1,1.48,4.13v1.72a.57.57,0,0,1-.65.65h-2.27c-.41,0-.61-.21-.61-.65v-1.58c0-1.78-.87-2.67-2.59-2.67h-3.14c-1.73,0-2.59.89-2.59,2.67V223c0,1.77.86,2.66,2.59,2.66h3.14c1.72,0,2.59-.89,2.59-2.66V221.4c0-.43.2-.65.61-.65H165a.58.58,0,0,1,.65.65v1.73a5.13,5.13,0,0,1-5.58,5.59Z" fill="#fff"/><path d="M173.54,228.72h-2.6c-.33,0-.45-.21-.36-.62l6.27-21.94a.82.82,0,0,1,.87-.61h3.6a.77.77,0,0,1,.86.61l6.27,21.94c.1.41,0,.62-.39.62H185.5a.63.63,0,0,1-.45-.13.94.94,0,0,1-.2-.49l-1.37-4.68h-7.92l-1.37,4.68C174.09,228.51,173.87,228.72,173.54,228.72ZM179.45,209l-3.17,11.53h6.52L179.59,209Z" fill="#fff"/><path d="M200.52,228.72h-2.27c-.43,0-.65-.21-.65-.62V209a.32.32,0,0,0-.36-.36H192.7c-.43,0-.65-.2-.65-.61v-1.84c0-.4.22-.61.65-.61h13.37c.43,0,.65.21.65.61V208c0,.41-.22.61-.65.61h-4.54c-.27,0-.4.12-.4.36V228.1A.54.54,0,0,1,200.52,228.72Z" fill="#fff"/><path d="M215.65,206.16V228.1a.55.55,0,0,1-.61.62h-2.27a.55.55,0,0,1-.62-.62V206.16a.55.55,0,0,1,.62-.61H215A.54.54,0,0,1,215.65,206.16Z" fill="#fff"/><path d="M231.68,228.72h-3.57a.7.7,0,0,1-.75-.62l-6-21.86q-.23-.69.54-.69h2.56a.65.65,0,0,1,.68.61L229.81,225H230l4.61-18.81a.7.7,0,0,1,.72-.61h2.52c.51,0,.7.23.58.69l-6,21.86A.67.67,0,0,1,231.68,228.72Z" fill="#fff"/><path d="M253.29,228.72h-4.18a5.55,5.55,0,0,1-4.12-1.48,5.62,5.62,0,0,1-1.46-4.11v-12a5.08,5.08,0,0,1,5.58-5.59h4.18a5.67,5.67,0,0,1,4.15,1.46,5.56,5.56,0,0,1,1.47,4.13v12a5.12,5.12,0,0,1-5.62,5.59Zm-3.67-3.07h3.13a2.34,2.34,0,0,0,2.63-2.66V211.28a2.34,2.34,0,0,0-2.63-2.67h-3.13c-1.73,0-2.59.89-2.59,2.67V223C247,224.76,247.89,225.65,249.62,225.65Z" fill="#fff"/><path d="M283,228.72h-2.27c-.43,0-.65-.21-.65-.62V209a.32.32,0,0,0-.36-.36h-4.54c-.43,0-.64-.2-.64-.61v-1.84c0-.4.21-.61.64-.61h13.37c.43,0,.65.21.65.61V208c0,.41-.22.61-.65.61H284c-.26,0-.4.12-.4.36V228.1A.54.54,0,0,1,283,228.72Z" fill="#fff"/><path d="M297.35,228.72h-2.27a.54.54,0,0,1-.61-.62V206.16a.54.54,0,0,1,.61-.61h8.43a5.18,5.18,0,0,1,5.62,5.62v3q0,4.14-3.42,5.22v.15l4,8.42c.26.49.1.73-.47.73H307a1.07,1.07,0,0,1-1.11-.62L302,219.82H298.4c-.29,0-.44.12-.44.36v7.92A.54.54,0,0,1,297.35,228.72Zm1-11.78h4.57a2.34,2.34,0,0,0,2.67-2.63v-3a2.36,2.36,0,0,0-2.67-2.67h-4.57c-.27,0-.4.12-.4.36v7.6C298,216.82,298.09,216.94,298.36,216.94Z" fill="#fff"/><path d="M328.29,228.72H316.77a.55.55,0,0,1-.62-.62V206.16a.55.55,0,0,1,.62-.61h11.52c.39,0,.58.21.58.61V208c0,.41-.19.61-.58.61h-8.21c-.29,0-.43.12-.43.36v6.09c0,.24.14.36.43.36H327c.44,0,.65.21.65.61v1.84c0,.41-.21.61-.65.61h-6.95c-.29,0-.43.12-.43.36v6.42c0,.26.14.39.43.39h8.21c.39,0,.58.21.58.62v1.83C328.87,228.51,328.68,228.72,328.29,228.72Z" fill="#fff"/><path d="M339.28,206.16V228.1a.54.54,0,0,1-.61.62H336.4a.54.54,0,0,1-.61-.62V206.16a.54.54,0,0,1,.61-.61h2.27A.54.54,0,0,1,339.28,206.16Z" fill="#fff"/><path d="M349.66,223.71v4.39c0,.41-.2.62-.58.62h-2.45a.54.54,0,0,1-.61-.62v-4.39c0-.39.2-.58.61-.58h2.45A.51.51,0,0,1,349.66,223.71Z" fill="#fcb84d"/><path d="M359.06,228.72h-2.24a.55.55,0,0,1-.61-.62V206.16a.54.54,0,0,1,.61-.61h2a.8.8,0,0,1,.79.4l8.72,15.67h.15V206.16a.54.54,0,0,1,.61-.61h2.23a.54.54,0,0,1,.61.61V228.1a.54.54,0,0,1-.61.62H369.4a1.08,1.08,0,0,1-.94-.58l-8.64-15.49h-.15V228.1A.54.54,0,0,1,359.06,228.72Z" fill="#fff"/><path d="M388.78,228.72H384.6a5.09,5.09,0,0,1-5.58-5.59v-12a5.07,5.07,0,0,1,5.58-5.59h4.18a5.65,5.65,0,0,1,4.14,1.46,5.56,5.56,0,0,1,1.48,4.13v12a5.13,5.13,0,0,1-5.62,5.59Zm-3.68-3.07h3.14a2.34,2.34,0,0,0,2.63-2.66V211.28a2.34,2.34,0,0,0-2.63-2.67H385.1c-1.73,0-2.59.89-2.59,2.67V223C382.51,224.76,383.37,225.65,385.1,225.65Z" fill="#fff"/><path d="M54.05,260.1H59.2c.46,0,.68.24.68.72v1.52a.6.6,0,0,1-.68.68H54.05v5.23a.64.64,0,0,1-.72.72H51.71q-.69,0-.69-.72V263H45.83a.6.6,0,0,1-.68-.68v-1.52c0-.48.23-.72.68-.72H51v-5.18q0-.72.69-.72h1.62a.64.64,0,0,1,.72.72Z" fill="#fcb84d"/><path d="M77.93,272.53V250.59a.54.54,0,0,1,.61-.61h8.54a5.67,5.67,0,0,1,4.14,1.44,5.41,5.41,0,0,1,1.48,4.07v1.77a3.83,3.83,0,0,1-3,4,3.59,3.59,0,0,1,2.32,1.23,4.1,4.1,0,0,1,.92,2.81v2.3a5.39,5.39,0,0,1-1.48,4.07,5.61,5.61,0,0,1-4.1,1.44H78.54A.54.54,0,0,1,77.93,272.53Zm3.89-12.68H86.5c1.83,0,2.74-.87,2.74-2.63v-1.65a2.33,2.33,0,0,0-2.66-2.6H81.82q-.39,0-.39.36v6.16Q81.43,259.85,81.82,259.85Zm0,10.3h5c1.81,0,2.71-.86,2.71-2.59v-2.23c0-1.73-.95-2.6-2.85-2.6h-4.9q-.39,0-.39.36v6.7Q81.43,270.15,81.82,270.15Z" fill="#fcb84d"/><path d="M109.38,273.14H105.2a5.09,5.09,0,0,1-5.58-5.58v-12A5.08,5.08,0,0,1,105.2,250h4.18a5.63,5.63,0,0,1,4.14,1.46,5.52,5.52,0,0,1,1.48,4.13v12a5.12,5.12,0,0,1-5.62,5.58Zm-3.67-3.06h3.13a2.34,2.34,0,0,0,2.63-2.66V255.71a2.34,2.34,0,0,0-2.63-2.67h-3.13c-1.73,0-2.6.89-2.6,2.67v11.71A2.33,2.33,0,0,0,105.71,270.08Zm5.33-22.4h-1.66a.54.54,0,0,1-.54-.36l-1.48-2.81-1.44,2.81a.55.55,0,0,1-.57.36h-1.63c-.36,0-.44-.15-.25-.44l2.27-3.85a.87.87,0,0,1,.76-.36h1.76a.87.87,0,0,1,.76.36l2.23,3.85C111.45,247.53,111.37,247.68,111,247.68Z" fill="#fcb84d"/><path d="M124.87,273.14h-2.23a.54.54,0,0,1-.62-.61V250.59a.55.55,0,0,1,.62-.61h2a.83.83,0,0,1,.8.4l8.71,15.67h.15V250.59a.54.54,0,0,1,.61-.61h2.23a.55.55,0,0,1,.62.61v21.94a.54.54,0,0,1-.62.61h-1.94a1.07,1.07,0,0,1-.94-.57l-8.64-15.49h-.15v15.45A.54.54,0,0,1,124.87,273.14Z" fill="#fcb84d"/><path d="M157.29,250h2.27c.43,0,.65.19.65.58v17a5.52,5.52,0,0,1-1.5,4.11,5.61,5.61,0,0,1-4.12,1.47h-4a5.1,5.1,0,0,1-5.58-5.58v-17a.54.54,0,0,1,.61-.61h2.27a.54.54,0,0,1,.61.61v16.83a2.33,2.33,0,0,0,2.6,2.66h3a2.34,2.34,0,0,0,2.63-2.66V250.59A.54.54,0,0,1,157.29,250Z" fill="#fcb84d"/><path d="M167,267.53v-.94a.54.54,0,0,1,.61-.61h2.31a.54.54,0,0,1,.61.61v.65a3,3,0,0,0,.67,2.18,3.06,3.06,0,0,0,2.21.66h2.49a3,3,0,0,0,2.23-.7,3.18,3.18,0,0,0,.69-2.29v-.83a2.15,2.15,0,0,0-.89-1.81,4.6,4.6,0,0,0-2.18-.87c-.86-.13-1.81-.32-2.84-.56a24.16,24.16,0,0,1-2.85-.83,4.49,4.49,0,0,1-2.18-1.76,5.85,5.85,0,0,1-.88-3.32V255.6A5.19,5.19,0,0,1,172.6,250h3.82a5.61,5.61,0,0,1,4.16,1.5,5.55,5.55,0,0,1,1.5,4.12v.79a.55.55,0,0,1-.62.62h-2.3a.55.55,0,0,1-.62-.62v-.46a3.07,3.07,0,0,0-.66-2.22,3.1,3.1,0,0,0-2.22-.67h-2.27a2.93,2.93,0,0,0-2.21.71,3.38,3.38,0,0,0-.67,2.39v1.12c0,1.08.78,1.81,2.34,2.2.7.16,1.46.31,2.29.43a19,19,0,0,1,2.5.54,10.86,10.86,0,0,1,2.31.95,4.4,4.4,0,0,1,1.69,1.8,6.08,6.08,0,0,1,.65,2.94v1.41a5.16,5.16,0,0,1-5.62,5.61h-4a5.63,5.63,0,0,1-4.15-1.49A5.57,5.57,0,0,1,167,267.53Z" fill="#fcb84d"/><path d="M210.31,253.41h-.89a1,1,0,0,0-.45.1.58.58,0,0,0-.24.22q-.16.33-.39.33h-.91a.21.21,0,0,1-.24-.24v-4.53a.21.21,0,0,1,.24-.24h4.89c.17,0,.26.08.26.24v.82c0,.17-.09.25-.26.25H208.6V253a1.13,1.13,0,0,1,1.21-.71h.85a1.92,1.92,0,0,1,2.13,2.14v1.67a2,2,0,0,1-2.23,2.23h-1.23a2.19,2.19,0,0,1-1.65-.59,2.22,2.22,0,0,1-.58-1.64v-.38c0-.17.08-.26.25-.26h.9c.17,0,.25.09.25.26v.36a.92.92,0,0,0,1,1.06h.82a.93.93,0,0,0,1.06-1.06v-1.45a1.33,1.33,0,0,0-.25-.92A1.1,1.1,0,0,0,210.31,253.41Z" fill="#fcb84d"/><path d="M224.57,258.31H220a.21.21,0,0,1-.24-.24v-8.78a.21.21,0,0,1,.24-.24h4.62a.21.21,0,0,1,.23.24V250a.21.21,0,0,1-.23.24h-3.29c-.12,0-.17,0-.17.15v2.43c0,.1,0,.14.17.14h2.78a.23.23,0,0,1,.26.25V254c0,.17-.09.25-.26.25h-2.78c-.12,0-.17.05-.17.14v2.57c0,.1,0,.16.17.16h3.29a.21.21,0,0,1,.23.24v.74A.21.21,0,0,1,224.57,258.31Z" fill="#fcb84d"/><path d="M230,258.31h-.91c-.18,0-.26-.08-.26-.24v-7.65a.13.13,0,0,0-.15-.15H226.9c-.17,0-.26-.08-.26-.24v-.74c0-.16.09-.24.26-.24h5.34c.18,0,.26.08.26.24V250c0,.16-.08.24-.26.24h-1.81c-.11,0-.16,0-.16.15v7.65A.21.21,0,0,1,230,258.31Z" fill="#fcb84d"/><path d="M235.11,258.31h-1c-.13,0-.18-.08-.14-.24l2.51-8.78a.32.32,0,0,1,.34-.24h1.45a.31.31,0,0,1,.34.24l2.51,8.78c0,.16,0,.24-.16.24h-1c-.09,0-.15,0-.18-.05a.34.34,0,0,1-.08-.19l-.55-1.88h-3.17l-.55,1.88C235.33,258.23,235.25,258.31,235.11,258.31Zm2.37-7.88L236.21,255h2.61l-1.29-4.61Z" fill="#fcb84d"/><path d="M244.52,258.31h-.91a.21.21,0,0,1-.24-.24v-8.78a.21.21,0,0,1,.24-.24H247a2.26,2.26,0,0,1,1.65.58,2.23,2.23,0,0,1,.59,1.65v1.5A2,2,0,0,1,247,255h-2.1c-.12,0-.17.05-.17.15v2.91C244.77,258.23,244.69,258.31,244.52,258.31Zm.41-4.54h1.91c.68,0,1-.35,1-1.06v-1.37c0-.71-.34-1.07-1-1.07h-1.91c-.11,0-.16,0-.16.15v3.21C244.77,253.73,244.82,253.77,244.93,253.77Z" fill="#fcb84d"/><path d="M252.35,258.31h-1c-.14,0-.18-.08-.15-.24l2.51-8.78a.32.32,0,0,1,.35-.24h1.44c.19,0,.31.08.34.24l2.51,8.78c0,.16,0,.24-.16.24h-1c-.09,0-.15,0-.18-.05a.43.43,0,0,1-.08-.19l-.55-1.88h-3.17l-.54,1.88C252.57,258.23,252.48,258.31,252.35,258.31Zm2.36-7.88L253.44,255h2.61l-1.28-4.61Z" fill="#fcb84d"/><path d="M260.43,256.06v-.37a.22.22,0,0,1,.24-.25h.93a.22.22,0,0,1,.24.25V256a1,1,0,0,0,1.15,1.14h1a1.23,1.23,0,0,0,.89-.28,1.31,1.31,0,0,0,.28-.92v-.33a.86.86,0,0,0-.36-.73,1.79,1.79,0,0,0-.87-.34c-.34-.06-.72-.13-1.14-.23a8.52,8.52,0,0,1-1.14-.33,1.82,1.82,0,0,1-.87-.7,2.37,2.37,0,0,1-.35-1.33v-.61a2.23,2.23,0,0,1,.6-1.65,2.27,2.27,0,0,1,1.65-.59h1.52a2.28,2.28,0,0,1,1.67.59,2.23,2.23,0,0,1,.6,1.65v.32a.22.22,0,0,1-.25.25h-.92c-.16,0-.24-.08-.24-.25v-.19a1,1,0,0,0-1.16-1.15H263a1.2,1.2,0,0,0-.88.28,1.38,1.38,0,0,0-.27,1V252c0,.43.31.72.94.88.28.06.58.12.91.17a6.86,6.86,0,0,1,1,.22,3.86,3.86,0,0,1,.93.38,1.74,1.74,0,0,1,.67.72,2.35,2.35,0,0,1,.26,1.17v.56a2.06,2.06,0,0,1-2.24,2.25h-1.62a2.27,2.27,0,0,1-1.66-.6A2.2,2.2,0,0,1,260.43,256.06Z" fill="#fcb84d"/><path d="M274.81,258.31h-.91a.21.21,0,0,1-.24-.24v-8.78a.21.21,0,0,1,.24-.24h3.43a2,2,0,0,1,2.24,2.23v1.5a2.06,2.06,0,0,1-2.24,2.23h-2.1q-.18,0-.18.15v2.91A.21.21,0,0,1,274.81,258.31Zm.4-4.54h1.92c.68,0,1-.35,1-1.06v-1.37c0-.71-.34-1.07-1-1.07h-1.92a.14.14,0,0,0-.16.15v3.21C275.05,253.73,275.11,253.77,275.21,253.77Z" fill="#fcb84d"/><path d="M282.63,258.31h-1q-.21,0-.15-.24l2.51-8.78a.32.32,0,0,1,.35-.24h1.44a.31.31,0,0,1,.34.24l2.51,8.78c0,.16,0,.24-.16.24h-1c-.09,0-.15,0-.18-.05a.34.34,0,0,1-.08-.19l-.55-1.88h-3.17l-.55,1.88A.25.25,0,0,1,282.63,258.31Zm2.37-7.88L283.73,255h2.61l-1.28-4.61Z" fill="#fcb84d"/><path d="M292,258.31h-.9c-.17,0-.25-.08-.25-.24v-8.78c0-.16.08-.24.25-.24h3.37a2.27,2.27,0,0,1,1.65.59,2.23,2.23,0,0,1,.6,1.65v1.22a1.93,1.93,0,0,1-1.37,2.08v.06L297,258c.1.2,0,.29-.19.29h-.9a.42.42,0,0,1-.44-.24l-1.54-3.32h-1.46c-.11,0-.17.05-.17.15v3.17C292.29,258.23,292.21,258.31,292,258.31Zm.41-4.71h1.83a.93.93,0,0,0,1.06-1v-1.21a.94.94,0,0,0-1.06-1.07h-1.83c-.11,0-.16,0-.16.15v3C292.29,253.55,292.34,253.6,292.45,253.6Z" fill="#fcb84d"/><path d="M300.07,258.31h-1c-.13,0-.18-.08-.14-.24l2.51-8.78a.31.31,0,0,1,.34-.24h1.44a.32.32,0,0,1,.35.24l2.5,8.78q.06.24-.15.24h-1a.24.24,0,0,1-.18-.05.43.43,0,0,1-.08-.19l-.54-1.88h-3.17l-.55,1.88C300.29,258.23,300.2,258.31,300.07,258.31Zm2.36-7.88L301.16,255h2.61l-1.28-4.61Z" fill="#fcb84d"/><path d="M313.12,258.31h-1q-.21,0-.15-.24l2.51-8.78a.32.32,0,0,1,.35-.24h1.44a.31.31,0,0,1,.34.24l2.51,8.78c0,.16,0,.24-.16.24h-1c-.09,0-.15,0-.18-.05a.34.34,0,0,1-.08-.19l-.55-1.88h-3.17l-.55,1.88A.25.25,0,0,1,313.12,258.31Zm2.37-7.88L314.22,255h2.61l-1.28-4.61Z" fill="#fcb84d"/><path d="M326.22,249.05h.91c.17,0,.26.07.26.23v6.8a2.19,2.19,0,0,1-.6,1.64,2.22,2.22,0,0,1-1.65.59h-1.6a2.19,2.19,0,0,1-1.64-.59,2.22,2.22,0,0,1-.59-1.64v-6.79a.21.21,0,0,1,.24-.24h.91a.22.22,0,0,1,.25.24V256c0,.71.34,1.07,1,1.07h1.19A.94.94,0,0,0,326,256v-6.73A.21.21,0,0,1,326.22,249.05Z" fill="#fcb84d"/><path d="M336.61,249.05h1.62a.21.21,0,0,1,.24.24v8.78a.21.21,0,0,1-.24.24h-.9a.21.21,0,0,1-.24-.24v-7.28H337l-1.87,5.27a.32.32,0,0,1-.32.23h-.92a.31.31,0,0,1-.31-.23l-1.91-5.28h-.06v7.29a.29.29,0,0,1-.05.19s-.1.05-.19.05h-.88c-.17,0-.25-.08-.25-.24v-8.78c0-.16.08-.24.25-.24h1.61a.23.23,0,0,1,.23.16l2,5.56h.08l2-5.56C336.41,249.1,336.49,249.05,336.61,249.05Z" fill="#fcb84d"/><path d="M346.3,258.31h-4.62a.21.21,0,0,1-.24-.24v-8.78a.21.21,0,0,1,.24-.24h4.62a.21.21,0,0,1,.23.24V250a.21.21,0,0,1-.23.24H343c-.12,0-.17,0-.17.15v2.43c0,.1.05.14.17.14h2.78a.23.23,0,0,1,.26.25V254c0,.17-.09.25-.26.25H343c-.12,0-.17.05-.17.14v2.57c0,.1.05.16.17.16h3.29a.21.21,0,0,1,.23.24v.74A.21.21,0,0,1,346.3,258.31Z" fill="#fcb84d"/><path d="M350.36,258.31h-.89c-.17,0-.25-.08-.25-.24v-8.78c0-.16.08-.24.25-.24h.8a.32.32,0,0,1,.32.16l3.49,6.26h.05v-6.18a.22.22,0,0,1,.25-.24h.89c.17,0,.25.08.25.24v8.78c0,.16-.08.24-.25.24h-.78a.42.42,0,0,1-.37-.23l-3.46-6.19h-.06v6.18A.21.21,0,0,1,350.36,258.31Z" fill="#fcb84d"/><path d="M361,258.31h-.91c-.17,0-.26-.08-.26-.24v-7.65c0-.1,0-.15-.14-.15h-1.82c-.17,0-.25-.08-.25-.24v-.74c0-.16.08-.24.25-.24h5.35c.17,0,.26.08.26.24V250c0,.16-.09.24-.26.24h-1.82a.13.13,0,0,0-.15.15v7.65A.22.22,0,0,1,361,258.31Z" fill="#fcb84d"/><path d="M366.11,258.31h-1c-.13,0-.18-.08-.14-.24l2.5-8.78a.33.33,0,0,1,.35-.24h1.44a.32.32,0,0,1,.35.24l2.5,8.78c0,.16,0,.24-.16.24h-1a.23.23,0,0,1-.18-.05.43.43,0,0,1-.08-.19l-.55-1.88h-3.17l-.54,1.88C366.33,258.23,366.24,258.31,366.11,258.31Zm2.36-7.88L367.2,255h2.61l-1.28-4.61Z" fill="#fcb84d"/><path d="M375.52,258.31h-.91a.22.22,0,0,1-.25-.24v-8.78a.22.22,0,0,1,.25-.24H378a2.27,2.27,0,0,1,1.65.59,2.23,2.23,0,0,1,.6,1.65v1.22a1.93,1.93,0,0,1-1.37,2.08v.06l1.6,3.37c.11.2,0,.29-.19.29h-.89a.44.44,0,0,1-.45-.24l-1.54-3.32h-1.46c-.11,0-.17.05-.17.15v3.17A.21.21,0,0,1,375.52,258.31Zm.4-4.71h1.83a.94.94,0,0,0,1.07-1v-1.21a1,1,0,0,0-1.07-1.07h-1.83c-.11,0-.16,0-.16.15v3C375.76,253.55,375.81,253.6,375.92,253.6Z" fill="#fcb84d"/><path d="M207.22,272.16v-.38a.21.21,0,0,1,.24-.24h.92c.17,0,.25.08.25.24V272a1,1,0,0,0,1.15,1.14h1a1.23,1.23,0,0,0,.89-.28,1.3,1.3,0,0,0,.27-.92v-.33a.88.88,0,0,0-.35-.73,2,2,0,0,0-.87-.34c-.35-.06-.73-.13-1.14-.23a8.52,8.52,0,0,1-1.14-.33,1.73,1.73,0,0,1-.87-.7,2.29,2.29,0,0,1-.35-1.33v-.6a2.19,2.19,0,0,1,.59-1.65,2.23,2.23,0,0,1,1.65-.6H211a2.22,2.22,0,0,1,1.66.6,2.2,2.2,0,0,1,.6,1.65v.31c0,.17-.08.25-.24.25h-.92a.22.22,0,0,1-.25-.25v-.18a1.21,1.21,0,0,0-.27-.89,1.19,1.19,0,0,0-.88-.27h-.91a1.23,1.23,0,0,0-.89.28,1.43,1.43,0,0,0-.26,1v.45c0,.43.31.72.93.88.28.06.59.12.92.17a7.49,7.49,0,0,1,1,.22,3.78,3.78,0,0,1,.92.38,1.76,1.76,0,0,1,.68.72,2.47,2.47,0,0,1,.26,1.17v.57a2.19,2.19,0,0,1-.6,1.64,2.23,2.23,0,0,1-1.65.6h-1.61a2.25,2.25,0,0,1-1.66-.6A2.19,2.19,0,0,1,207.22,272.16Z" fill="#fcb84d"/><path d="M221,274.4h-4.62a.21.21,0,0,1-.24-.24v-8.78a.21.21,0,0,1,.24-.24H221a.21.21,0,0,1,.23.24v.74a.21.21,0,0,1-.23.24h-3.29c-.12,0-.17.05-.17.15v2.43c0,.1,0,.15.17.15h2.78c.17,0,.26.08.26.24v.74c0,.16-.09.24-.26.24h-2.78c-.12,0-.17.05-.17.14V273c0,.11,0,.16.17.16H221a.21.21,0,0,1,.23.24v.74A.21.21,0,0,1,221,274.4Z" fill="#fcb84d"/><path d="M228.77,265.14h.91c.17,0,.26.07.26.23v6.8a2.19,2.19,0,0,1-.6,1.64,2.22,2.22,0,0,1-1.65.59h-1.6a2.19,2.19,0,0,1-1.64-.59,2.22,2.22,0,0,1-.59-1.64v-6.79a.21.21,0,0,1,.24-.24H225a.22.22,0,0,1,.25.24v6.73c0,.71.34,1.07,1,1.07h1.19a.94.94,0,0,0,1.05-1.07v-6.73A.21.21,0,0,1,228.77,265.14Z" fill="#fcb84d"/><path d="M238.27,274.4h-.91a.22.22,0,0,1-.25-.24v-8.78a.22.22,0,0,1,.25-.24h4.52c.17,0,.25.08.25.24v.74c0,.16-.08.24-.25.24h-3.19q-.18,0-.18.15v2.72c0,.11.06.16.18.16h2.78c.17,0,.26.08.26.24v.72a.23.23,0,0,1-.26.26h-2.78q-.18,0-.18.15v3.4A.21.21,0,0,1,238.27,274.4Z" fill="#fcb84d"/><path d="M245,274.4h-1c-.14,0-.18-.08-.15-.24l2.51-8.78a.32.32,0,0,1,.35-.24h1.44a.31.31,0,0,1,.34.24l2.51,8.78c0,.16,0,.24-.16.24h-1c-.09,0-.15,0-.18,0a.43.43,0,0,1-.08-.19l-.55-1.88h-3.17l-.55,1.88C245.25,274.32,245.16,274.4,245,274.4Zm2.36-7.88-1.27,4.61h2.61l-1.28-4.61Z" fill="#fcb84d"/><path d="M255.82,274.4h-.91c-.17,0-.26-.08-.26-.24v-7.65c0-.1-.05-.15-.14-.15h-1.82c-.17,0-.26-.08-.26-.24v-.74c0-.16.09-.24.26-.24H258c.17,0,.26.08.26.24v.74c0,.16-.09.24-.26.24h-1.82a.14.14,0,0,0-.16.15v7.65A.21.21,0,0,1,255.82,274.4Z" fill="#fcb84d"/><path d="M265.24,265.14h.91c.17,0,.26.07.26.23v6.8a2.19,2.19,0,0,1-.6,1.64,2.22,2.22,0,0,1-1.65.59h-1.6a2.19,2.19,0,0,1-1.64-.59,2.22,2.22,0,0,1-.59-1.64v-6.79a.21.21,0,0,1,.24-.24h.91a.22.22,0,0,1,.25.24v6.73c0,.71.34,1.07,1,1.07h1.18a.94.94,0,0,0,1.06-1.07v-6.73A.21.21,0,0,1,265.24,265.14Z" fill="#fcb84d"/><path d="M270.44,274.4h-.9c-.17,0-.25-.08-.25-.24v-8.78c0-.16.08-.24.25-.24h3.37a2.23,2.23,0,0,1,1.65.6,2.2,2.2,0,0,1,.6,1.65v1.21a2,2,0,0,1-1.37,2.09v.05l1.6,3.38c.1.19,0,.28-.19.28h-.89a.43.43,0,0,1-.45-.24l-1.54-3.32h-1.46c-.11,0-.17.05-.17.15v3.17C270.69,274.32,270.61,274.4,270.44,274.4Zm.41-4.71h1.83a.93.93,0,0,0,1.06-1.05v-1.21a.94.94,0,0,0-1.06-1.07h-1.83c-.11,0-.16.05-.16.15v3C270.69,269.64,270.74,269.69,270.85,269.69Z" fill="#fcb84d"/><path d="M278.47,274.4h-1c-.13,0-.18-.08-.14-.24l2.51-8.78a.31.31,0,0,1,.34-.24h1.44a.32.32,0,0,1,.35.24l2.51,8.78c0,.16,0,.24-.16.24h-1a.24.24,0,0,1-.18,0,.43.43,0,0,1-.08-.19l-.54-1.88h-3.17l-.55,1.88C278.69,274.32,278.6,274.4,278.47,274.4Zm2.36-7.88-1.26,4.61h2.6l-1.28-4.61Z" fill="#fcb84d"/><path d="M293.07,265.14h1.61a.22.22,0,0,1,.25.24v8.78a.22.22,0,0,1-.25.24h-.89c-.17,0-.25-.08-.25-.24v-7.28h-.06l-1.87,5.28a.32.32,0,0,1-.32.23h-.92a.31.31,0,0,1-.3-.23l-1.92-5.29h0v7.29a.24.24,0,0,1-.06.19s-.09,0-.19,0H287a.21.21,0,0,1-.24-.24v-8.78a.21.21,0,0,1,.24-.24h1.62a.24.24,0,0,1,.23.16l2,5.56h.07l2-5.56C292.87,265.19,292.94,265.14,293.07,265.14Z" fill="#fcb84d"/><path d="M302.75,274.4h-4.61a.22.22,0,0,1-.25-.24v-8.78a.22.22,0,0,1,.25-.24h4.61a.21.21,0,0,1,.23.24v.74a.21.21,0,0,1-.23.24h-3.29c-.11,0-.17.05-.17.15v2.43c0,.1.06.15.17.15h2.79c.17,0,.26.08.26.24v.74c0,.16-.09.24-.26.24h-2.79c-.11,0-.17.05-.17.14V273c0,.11.06.16.17.16h3.29a.21.21,0,0,1,.23.24v.74A.21.21,0,0,1,302.75,274.4Z" fill="#fcb84d"/><path d="M306.81,274.4h-.89a.22.22,0,0,1-.25-.24v-8.78a.22.22,0,0,1,.25-.24h.81a.31.31,0,0,1,.31.16l3.49,6.26h.06v-6.18a.21.21,0,0,1,.24-.24h.9a.21.21,0,0,1,.24.24v8.78a.21.21,0,0,1-.24.24H311a.42.42,0,0,1-.38-.23L307.12,268h-.06v6.18C307.06,274.32,307,274.4,306.81,274.4Z" fill="#fcb84d"/><path d="M317.48,274.4h-.91c-.17,0-.26-.08-.26-.24v-7.65a.13.13,0,0,0-.15-.15h-1.81c-.17,0-.26-.08-.26-.24v-.74c0-.16.09-.24.26-.24h5.34c.18,0,.26.08.26.24v.74c0,.16-.08.24-.26.24h-1.81c-.11,0-.16.05-.16.15v7.65A.21.21,0,0,1,317.48,274.4Z" fill="#fcb84d"/><path d="M325.82,274.4h-1.67a2.19,2.19,0,0,1-1.65-.59,2.22,2.22,0,0,1-.59-1.64v-4.8a2,2,0,0,1,2.24-2.23h1.67a2.27,2.27,0,0,1,1.66.58,2.23,2.23,0,0,1,.59,1.65v4.8a2,2,0,0,1-2.25,2.23Zm-1.47-1.22h1.25a.94.94,0,0,0,1-1.07v-4.68a.94.94,0,0,0-1-1.07h-1.25a.94.94,0,0,0-1,1.07v4.68A.94.94,0,0,0,324.35,273.18Z" fill="#fcb84d"/></svg>