<svg id="6fc49beb-bed0-4f0e-a61f-3850a5b14936" data-name="Layer 1" xmlns="http://www.w3.org/2000/svg" xmlns:xlink="http://www.w3.org/1999/xlink" viewBox="0 0 452.4 582.53"><defs><radialGradient id="96c5bdcd-3e50-4c80-b0ea-4f1672b33d81" cx="71.9" cy="3.35" r="66.81" gradientUnits="userSpaceOnUse"><stop offset="0" stop-color="#fce9ca"/><stop offset="0.1" stop-color="#fcd596"/><stop offset="0.19" stop-color="#fcc56e"/><stop offset="0.26" stop-color="#fcbc56"/><stop offset="0.3" stop-color="#fcb84d"/><stop offset="0.34" stop-color="#fcb749" stop-opacity="0.96"/><stop offset="0.57" stop-color="#fcb035" stop-opacity="0.72"/><stop offset="0.76" stop-color="#fbab26" stop-opacity="0.55"/><stop offset="0.91" stop-color="#fba81c" stop-opacity="0.44"/><stop offset="1" stop-color="#fba719" stop-opacity="0.4"/></radialGradient><linearGradient id="3bb9c0e2-7ddc-40c9-9cc8-b6c5585130cc" x1="23.97" y1="38.02" x2="23.97" y2="5.26" gradientUnits="userSpaceOnUse"><stop offset="0" stop-color="#b3b3b3" stop-opacity="0"/><stop offset="0.09" stop-color="#b6b5b3" stop-opacity="0.04"/><stop offset="0.23" stop-color="#bdb9b3" stop-opacity="0.13"/><stop offset="0.4" stop-color="#c8c0b2" stop-opacity="0.29"/><stop offset="0.61" stop-color="#d8c9b1" stop-opacity="0.51"/><stop offset="0.84" stop-color="#ecd6b1" stop-opacity="0.79"/><stop offset="1" stop-color="#fcdfb0"/></linearGradient><linearGradient id="05a5840f-0e93-418a-8a25-e925ee77c62c" x1="38.81" y1="38.02" x2="38.81" y2="5.26" xlink:href="#3bb9c0e2-7ddc-40c9-9cc8-b6c5585130cc"/><linearGradient id="86c5ae2e-7726-49b8-9506-83a81cb63ece" x1="52.15" y1="38.02" x2="52.15" y2="5.26" xlink:href="#3bb9c0e2-7ddc-40c9-9cc8-b6c5585130cc"/><linearGradient id="e8292287-cf9f-4438-8930-a63ed2c1b16a" x1="66.04" y1="38.02" x2="66.04" y2="5.26" xlink:href="#3bb9c0e2-7ddc-40c9-9cc8-b6c5585130cc"/><linearGradient id="b2f70ba3-6833-420c-a3bd-5b0921a9e67c" x1="94.9" y1="43.58" x2="94.9" y2="5.26" xlink:href="#3bb9c0e2-7ddc-40c9-9cc8-b6c5585130cc"/><linearGradient id="33aa4eac-ca3c-4dad-aafe-f017589b501f" x1="109.32" y1="3.91" x2="109.32" y2="0" xlink:href="#3bb9c0e2-7ddc-40c9-9cc8-b6c5585130cc"/><linearGradient id="0e9a57a5-fbea-4a6d-8166-919a86d45ede" x1="124.05" y1="38.02" x2="124.05" y2="5.26" xlink:href="#3bb9c0e2-7ddc-40c9-9cc8-b6c5585130cc"/><linearGradient id="54700774-bbf7-412d-ac99-c6355fce9bf6" x1="80.16" y1="38.02" x2="80.16" y2="5.2" xlink:href="#3bb9c0e2-7ddc-40c9-9cc8-b6c5585130cc"/><linearGradient id="35e83d52-8309-4595-815d-1ed22dcbe0d3" x1="109.31" y1="38.02" x2="109.31" y2="5.2" xlink:href="#3bb9c0e2-7ddc-40c9-9cc8-b6c5585130cc"/><radialGradient id="369d4d0f-78af-49e3-9ed9-61d38e3ad2d0" cx="199.78" cy="21.24" r="39.2" gradientUnits="userSpaceOnUse"><stop offset="0" stop-color="#696780"/><stop offset="1" stop-color="#2a2933"/></radialGradient><radialGradient id="39866508-db7a-4663-b1f0-d980c2b66f0f" cx="193.46" cy="21.24" r="64.97" xlink:href="#369d4d0f-78af-49e3-9ed9-61d38e3ad2d0"/><linearGradient id="1823e353-0023-4ee5-a9d7-0d0981834330" x1="207.85" y1="17.92" x2="247.87" y2="17.92" gradientUnits="userSpaceOnUse"><stop offset="0" stop-color="#e7e4ff"/><stop offset="0.14" stop-color="#b7b5cd"/><stop offset="0.31" stop-color="#848296"/><stop offset="0.46" stop-color="#5e5d6e"/><stop offset="0.58" stop-color="#474656"/><stop offset="0.65" stop-color="#3f3e4d"/><stop offset="0.71" stop-color="#444352"/><stop offset="0.78" stop-color="#525160"/><stop offset="0.86" stop-color="#696878"/><stop offset="0.95" stop-color="#89889a"/><stop offset="1" stop-color="#a2a0b3"/></linearGradient><linearGradient id="b2588065-c7b9-4e13-8730-cc61812d267d" x1="207.85" y1="24.28" x2="237.27" y2="24.28" xlink:href="#1823e353-0023-4ee5-a9d7-0d0981834330"/><linearGradient id="d8e4e248-8c06-4ca2-bf46-fa906d4f0be1" x1="207.85" y1="30.64" x2="226.67" y2="30.64" xlink:href="#1823e353-0023-4ee5-a9d7-0d0981834330"/><linearGradient id="f2a6c130-d014-40b0-bf41-865ac65979c3" x1="-12110.31" y1="17.92" x2="-12070.29" y2="17.92" gradientTransform="matrix(1, 0, 0, -1, 12255, 35.83)" xlink:href="#1823e353-0023-4ee5-a9d7-0d0981834330"/><linearGradient id="0cb98ef5-d481-450e-8f95-16ec1c580a3f" x1="-12110.31" y1="24.28" x2="-12080.89" y2="24.28" gradientTransform="matrix(1, 0, 0, -1, 12265.6, 48.56)" xlink:href="#1823e353-0023-4ee5-a9d7-0d0981834330"/><linearGradient id="16f23aee-a7b7-43fb-95d3-95919c8bb711" x1="-12110.31" y1="30.64" x2="-12091.49" y2="30.64" gradientTransform="matrix(1, 0, 0, -1, 12276.2, 61.28)" xlink:href="#1823e353-0023-4ee5-a9d7-0d0981834330"/><linearGradient id="55a41ea0-0fc6-4ed1-a7ea-11aebb31d316" x1="186.73" y1="35.9" x2="206.39" y2="12.37" gradientUnits="userSpaceOnUse"><stop offset="0" stop-color="#a2a0b3"/><stop offset="0.05" stop-color="#89889a"/><stop offset="0.14" stop-color="#696878"/><stop offset="0.22" stop-color="#525160"/><stop offset="0.29" stop-color="#444352"/><stop offset="0.35" stop-color="#3f3e4d"/><stop offset="0.42" stop-color="#474656"/><stop offset="0.54" stop-color="#5e5d6e"/><stop offset="0.69" stop-color="#848296"/><stop offset="0.86" stop-color="#b7b5cd"/><stop offset="1" stop-color="#e7e4ff"/></linearGradient><linearGradient id="9b5ef5f6-da15-4cd4-89c6-dbfcbed2331e" x1="196.44" y1="40.45" x2="196.44" y2="8.1" gradientUnits="userSpaceOnUse"><stop offset="0" stop-color="#5c5c66"/><stop offset="0.14" stop-color="#64646f"/><stop offset="0.37" stop-color="#7a7a87"/><stop offset="0.66" stop-color="#9e9eaf"/><stop offset="1" stop-color="#d0cfe6"/><stop offset="1" stop-color="#d0cfe6"/></linearGradient><linearGradient id="da7ae86c-fead-4c35-b06c-fd38649123fb" x1="196.44" y1="30.1" x2="204.26" y2="30.1" gradientUnits="userSpaceOnUse"><stop offset="0" stop-color="#686680"/><stop offset="0.16" stop-color="#77758e"/><stop offset="0.46" stop-color="#9f9eb3"/><stop offset="0.88" stop-color="#dfdfed"/><stop offset="1" stop-color="#f2f2ff"/></linearGradient><linearGradient id="7964e397-2cc3-4496-b371-6290f19a908c" x1="195.02" y1="24.74" x2="195.02" y2="11.34" gradientUnits="userSpaceOnUse"><stop offset="0" stop-color="#535266"/><stop offset="1" stop-color="#9390b3"/></linearGradient><linearGradient id="e45d3a66-47d2-45df-bed0-bf4f3e7f0c99" x1="200.35" y1="35.46" x2="200.35" y2="24.74" gradientUnits="userSpaceOnUse"><stop offset="0" stop-color="#9390b3"/><stop offset="1" stop-color="#3e3e4d"/></linearGradient><linearGradient id="034bdae1-f5ee-4333-aef4-f696c9609abf" x1="197.99" y1="24.74" x2="197.99" y2="11.34" gradientUnits="userSpaceOnUse"><stop offset="0" stop-color="#686680"/><stop offset="0.15" stop-color="#77758d"/><stop offset="0.43" stop-color="#9f9eae"/><stop offset="0.82" stop-color="#dfdfe4"/><stop offset="1" stop-color="#fff"/></linearGradient><linearGradient id="664df950-ea13-46cf-888d-ccabd54be651" x1="196.44" y1="22.69" x2="209.38" y2="22.69" gradientUnits="userSpaceOnUse"><stop offset="0" stop-color="#f2f2ff"/><stop offset="0.12" stop-color="#dfdfed"/><stop offset="0.54" stop-color="#9f9eb3"/><stop offset="0.84" stop-color="#77758e"/><stop offset="1" stop-color="#686680"/></linearGradient><radialGradient id="023605f0-2dcd-47a5-9ea0-63abac84cf90" cx="199.08" cy="24.84" r="6.54" xlink:href="#7964e397-2cc3-4496-b371-6290f19a908c"/><linearGradient id="7b8117e9-dfbc-4d22-82d9-1b2299a0d16f" x1="183.51" y1="23.36" x2="196.44" y2="23.36" xlink:href="#e45d3a66-47d2-45df-bed0-bf4f3e7f0c99"/><linearGradient id="6023339e-eaf7-460e-997e-ec226ab9e006" x1="183.51" y1="22.62" x2="196.44" y2="22.62" xlink:href="#da7ae86c-fead-4c35-b06c-fd38649123fb"/><linearGradient id="c24e162b-6138-4397-b9f2-599a1974e625" x1="188.49" y1="30.1" x2="196.44" y2="30.1" xlink:href="#664df950-ea13-46cf-888d-ccabd54be651"/><linearGradient id="eb0b917f-daef-4a3a-bc1c-d71a903f8714" x1="188.49" y1="30.1" x2="196.44" y2="30.1" xlink:href="#e45d3a66-47d2-45df-bed0-bf4f3e7f0c99"/></defs><title>mobile-preco-software</title><polygon points="1.2 581.33 451.2 581.33 451.2 111.82 169.31 111.82 105.67 85.8 1.2 85.8 1.2 581.33" fill="#000015" stroke="#33c" stroke-miterlimit="10" stroke-width="2.4"/><path d="M44.83,178.67v-.94a.54.54,0,0,1,.61-.61h2.3a.54.54,0,0,1,.62.61v.65a3,3,0,0,0,.66,2.18,3.1,3.1,0,0,0,2.22.66h2.48a3,3,0,0,0,2.24-.7,3.23,3.23,0,0,0,.68-2.29v-.82a2.14,2.14,0,0,0-.88-1.82,4.69,4.69,0,0,0-2.18-.87c-.86-.13-1.81-.32-2.85-.56a23.44,23.44,0,0,1-2.84-.83,4.44,4.44,0,0,1-2.18-1.76,5.78,5.78,0,0,1-.88-3.32v-1.51a5.18,5.18,0,0,1,5.62-5.62h3.81a5.18,5.18,0,0,1,5.66,5.62v.79a.54.54,0,0,1-.61.62H57a.54.54,0,0,1-.61-.62v-.46a2.45,2.45,0,0,0-2.88-2.89H51.24a3,3,0,0,0-2.22.71,3.43,3.43,0,0,0-.66,2.39v1.12c0,1.08.78,1.81,2.34,2.2.69.16,1.46.31,2.28.43a19.09,19.09,0,0,1,2.51.54,10.57,10.57,0,0,1,2.3,1,4.42,4.42,0,0,1,1.7,1.8,6.2,6.2,0,0,1,.65,2.94v1.41a5.19,5.19,0,0,1-5.62,5.62h-4a5.63,5.63,0,0,1-4.14-1.5A5.53,5.53,0,0,1,44.83,178.67Z" fill="#fff"/><path d="M76.56,184.29H72.38a5.55,5.55,0,0,1-4.12-1.48,5.62,5.62,0,0,1-1.46-4.11v-12a5.08,5.08,0,0,1,5.58-5.59h4.18a5.67,5.67,0,0,1,4.15,1.46,5.56,5.56,0,0,1,1.47,4.13v12a5.12,5.12,0,0,1-5.62,5.59Zm-3.67-3.07H76a2.33,2.33,0,0,0,2.63-2.66V166.85A2.34,2.34,0,0,0,76,164.18H72.89c-1.73,0-2.6.89-2.6,2.67v11.71C70.29,180.34,71.16,181.22,72.89,181.22Z" fill="#fff"/><path d="M92.09,184.29H89.82a.54.54,0,0,1-.61-.62V161.73a.54.54,0,0,1,.61-.61h11.31a.54.54,0,0,1,.61.61v1.84a.54.54,0,0,1-.61.61h-8c-.28,0-.43.12-.43.36v6.81c0,.27.15.4.43.4h7c.43,0,.64.2.64.61v1.8a.57.57,0,0,1-.64.65h-7c-.28,0-.43.12-.43.36v8.5A.54.54,0,0,1,92.09,184.29Z" fill="#fff"/><path d="M114.06,184.29h-2.27a.56.56,0,0,1-.64-.62V164.54a.32.32,0,0,0-.37-.36h-4.53c-.44,0-.65-.2-.65-.61v-1.84c0-.4.21-.61.65-.61h13.36c.43,0,.65.21.65.61v1.84c0,.41-.22.61-.65.61h-4.54q-.39,0-.39.36v19.13A.55.55,0,0,1,114.06,184.29Z" fill="#fff"/><path d="M132.51,184.29h-3.82a.69.69,0,0,1-.76-.62l-4.28-21.94c-.05-.4.15-.61.61-.61H127c.46,0,.7.21.72.61l2.92,18.88h.22l4.25-19a.57.57,0,0,1,.64-.54h3a.63.63,0,0,1,.69.54l4.28,19H144l2.92-18.84a.63.63,0,0,1,.72-.65h2.77c.48,0,.69.22.61.65l-4.28,21.9a.68.68,0,0,1-.72.62H142.2a.66.66,0,0,1-.72-.62l-4.07-18.22h-.15l-4.07,18.22A.65.65,0,0,1,132.51,184.29Z" fill="#fff"/><path d="M157.83,184.29h-2.59c-.34,0-.46-.21-.36-.62l6.27-21.94a.81.81,0,0,1,.86-.61h3.6a.79.79,0,0,1,.87.61l6.27,21.94c.09.41,0,.62-.4.62h-2.56a.67.67,0,0,1-.45-.13,1,1,0,0,1-.2-.49L167.77,179h-7.92l-1.37,4.68C158.38,184.08,158.17,184.29,157.83,184.29Zm5.91-19.71-3.17,11.53h6.52l-3.21-11.53Z" fill="#fff"/><path d="M181.36,184.29h-2.27a.55.55,0,0,1-.62-.62V161.73a.55.55,0,0,1,.62-.61h8.43a5.19,5.19,0,0,1,5.62,5.62v3c0,2.76-1.15,4.5-3.43,5.22v.15l4,8.42c.27.49.11.73-.47.73H191a1.08,1.08,0,0,1-1.12-.62L186,175.39H182.4c-.29,0-.43.12-.43.36v7.92A.55.55,0,0,1,181.36,184.29Zm1-11.78h4.58a2.34,2.34,0,0,0,2.66-2.63v-3a2.35,2.35,0,0,0-2.66-2.67h-4.58q-.39,0-.39.36v7.61Q182,172.51,182.36,172.51Z" fill="#fff"/><path d="M212.3,184.29H200.77a.54.54,0,0,1-.61-.62V161.73a.54.54,0,0,1,.61-.61H212.3a.53.53,0,0,1,.58.61v1.84c0,.41-.2.61-.58.61h-8.21c-.29,0-.44.12-.44.36v6.09c0,.24.15.36.44.36H211c.43,0,.65.21.65.61v1.84c0,.41-.22.61-.65.61h-6.95c-.29,0-.44.13-.44.36v6.42c0,.26.15.39.44.39h8.21c.38,0,.58.21.58.62v1.83C212.88,184.08,212.68,184.29,212.3,184.29Z" fill="#fff"/><path d="M54.05,215.67H59.2c.46,0,.68.24.68.72v1.52a.6.6,0,0,1-.68.68H54.05v5.23a.64.64,0,0,1-.72.72H51.71q-.69,0-.69-.72v-5.23H45.83a.6.6,0,0,1-.68-.68v-1.52c0-.48.23-.72.68-.72H51v-5.18q0-.72.69-.72h1.62a.64.64,0,0,1,.72.72Z" fill="#fcb84d"/><path d="M79.19,228.72H76.6c-.34,0-.46-.21-.36-.62l6.27-21.94a.81.81,0,0,1,.86-.61H87a.79.79,0,0,1,.87.61l6.27,21.94c.09.41,0,.62-.4.62H91.15a.67.67,0,0,1-.45-.13,1,1,0,0,1-.2-.49l-1.37-4.68H81.21l-1.37,4.68C79.74,228.51,79.53,228.72,79.19,228.72ZM85.1,209l-3.17,11.53h6.52L85.24,209Z" fill="#fff"/><path d="M102.72,228.72h-2.27a.55.55,0,0,1-.62-.62V206.16a.55.55,0,0,1,.62-.61H109a5.62,5.62,0,0,1,4.11,1.46,5.56,5.56,0,0,1,1.47,4.13v3.74a5.12,5.12,0,0,1-5.58,5.59h-5.26c-.29,0-.43.12-.43.36v7.27A.55.55,0,0,1,102.72,228.72Zm1-11.35h4.8q2.55,0,2.55-2.67v-3.42q0-2.67-2.55-2.67h-4.8q-.39,0-.39.36v8Q103.33,217.37,103.72,217.37Z" fill="#fff"/><path d="M133.3,228.72H121.63a.54.54,0,0,1-.61-.62V206.16a.54.54,0,0,1,.61-.61h2.27a.54.54,0,0,1,.61.61v19.06c0,.24.14.36.43.36h8.36c.41,0,.61.22.61.65v1.87A.54.54,0,0,1,133.3,228.72Z" fill="#fff"/><path d="M143.06,206.16V228.1a.54.54,0,0,1-.61.62h-2.27a.54.54,0,0,1-.61-.62V206.16a.54.54,0,0,1,.61-.61h2.27A.54.54,0,0,1,143.06,206.16Z" fill="#fff"/><path d="M160.07,228.72h-4.18a5.56,5.56,0,0,1-4.13-1.48,5.62,5.62,0,0,1-1.46-4.11v-12a5.08,5.08,0,0,1,5.59-5.59h4.18a5.58,5.58,0,0,1,4.1,1.46,5.52,5.52,0,0,1,1.48,4.13v1.72a.57.57,0,0,1-.65.65h-2.27c-.41,0-.61-.21-.61-.65v-1.58c0-1.78-.87-2.67-2.59-2.67h-3.14c-1.73,0-2.59.89-2.59,2.67V223c0,1.77.86,2.66,2.59,2.66h3.14c1.72,0,2.59-.89,2.59-2.66V221.4c0-.43.2-.65.61-.65H165a.58.58,0,0,1,.65.65v1.73a5.13,5.13,0,0,1-5.58,5.59Z" fill="#fff"/><path d="M173.54,228.72h-2.6c-.33,0-.45-.21-.36-.62l6.27-21.94a.82.82,0,0,1,.87-.61h3.6a.77.77,0,0,1,.86.61l6.27,21.94c.1.41,0,.62-.39.62H185.5a.63.63,0,0,1-.45-.13.94.94,0,0,1-.2-.49l-1.37-4.68h-7.92l-1.37,4.68C174.09,228.51,173.87,228.72,173.54,228.72ZM179.45,209l-3.17,11.53h6.52L179.59,209Z" fill="#fff"/><path d="M200.52,228.72h-2.27c-.43,0-.65-.21-.65-.62V209a.32.32,0,0,0-.36-.36H192.7c-.43,0-.65-.2-.65-.61v-1.84c0-.4.22-.61.65-.61h13.37c.43,0,.65.21.65.61V208c0,.41-.22.61-.65.61h-4.54c-.27,0-.4.12-.4.36V228.1A.54.54,0,0,1,200.52,228.72Z" fill="#fff"/><path d="M215.65,206.16V228.1a.55.55,0,0,1-.61.62h-2.27a.55.55,0,0,1-.62-.62V206.16a.55.55,0,0,1,.62-.61H215A.54.54,0,0,1,215.65,206.16Z" fill="#fff"/><path d="M231.68,228.72h-3.57a.7.7,0,0,1-.75-.62l-6-21.86q-.23-.69.54-.69h2.56a.65.65,0,0,1,.68.61L229.81,225H230l4.61-18.81a.7.7,0,0,1,.72-.61h2.52c.51,0,.7.23.58.69l-6,21.86A.67.67,0,0,1,231.68,228.72Z" fill="#fff"/><path d="M253.29,228.72h-4.18a5.55,5.55,0,0,1-4.12-1.48,5.62,5.62,0,0,1-1.46-4.11v-12a5.08,5.08,0,0,1,5.58-5.59h4.18a5.67,5.67,0,0,1,4.15,1.46,5.56,5.56,0,0,1,1.47,4.13v12a5.12,5.12,0,0,1-5.62,5.59Zm-3.67-3.07h3.13a2.34,2.34,0,0,0,2.63-2.66V211.28a2.34,2.34,0,0,0-2.63-2.67h-3.13c-1.73,0-2.59.89-2.59,2.67V223C247,224.76,247.89,225.65,249.62,225.65Z" fill="#fff"/><path d="M283,228.72h-2.27c-.43,0-.65-.21-.65-.62V209a.32.32,0,0,0-.36-.36h-4.54c-.43,0-.64-.2-.64-.61v-1.84c0-.4.21-.61.64-.61h13.37c.43,0,.65.21.65.61V208c0,.41-.22.61-.65.61H284c-.26,0-.4.12-.4.36V228.1A.54.54,0,0,1,283,228.72Z" fill="#fff"/><path d="M297.35,228.72h-2.27a.54.54,0,0,1-.61-.62V206.16a.54.54,0,0,1,.61-.61h8.43a5.18,5.18,0,0,1,5.62,5.62v3q0,4.14-3.42,5.22v.15l4,8.42c.26.49.1.73-.47.73H307a1.07,1.07,0,0,1-1.11-.62L302,219.82H298.4c-.29,0-.44.12-.44.36v7.92A.54.54,0,0,1,297.35,228.72Zm1-11.78h4.57a2.34,2.34,0,0,0,2.67-2.63v-3a2.36,2.36,0,0,0-2.67-2.67h-4.57c-.27,0-.4.12-.4.36v7.6C298,216.82,298.09,216.94,298.36,216.94Z" fill="#fff"/><path d="M328.29,228.72H316.77a.55.55,0,0,1-.62-.62V206.16a.55.55,0,0,1,.62-.61h11.52c.39,0,.58.21.58.61V208c0,.41-.19.61-.58.61h-8.21c-.29,0-.43.12-.43.36v6.09c0,.24.14.36.43.36H327c.44,0,.65.21.65.61v1.84c0,.41-.21.61-.65.61h-6.95c-.29,0-.43.12-.43.36v6.42c0,.26.14.39.43.39h8.21c.39,0,.58.21.58.62v1.83C328.87,228.51,328.68,228.72,328.29,228.72Z" fill="#fff"/><path d="M339.28,206.16V228.1a.54.54,0,0,1-.61.62H336.4a.54.54,0,0,1-.61-.62V206.16a.54.54,0,0,1,.61-.61h2.27A.54.54,0,0,1,339.28,206.16Z" fill="#fff"/><path d="M349.66,223.71v4.39c0,.41-.2.62-.58.62h-2.45a.54.54,0,0,1-.61-.62v-4.39c0-.39.2-.58.61-.58h2.45A.51.51,0,0,1,349.66,223.71Z" fill="#fcb84d"/><path d="M359.06,228.72h-2.24a.55.55,0,0,1-.61-.62V206.16a.54.54,0,0,1,.61-.61h2a.8.8,0,0,1,.79.4l8.72,15.67h.15V206.16a.54.54,0,0,1,.61-.61h2.23a.54.54,0,0,1,.61.61V228.1a.54.54,0,0,1-.61.62H369.4a1.08,1.08,0,0,1-.94-.58l-8.64-15.49h-.15V228.1A.54.54,0,0,1,359.06,228.72Z" fill="#fff"/><path d="M388.78,228.72H384.6a5.09,5.09,0,0,1-5.58-5.59v-12a5.07,5.07,0,0,1,5.58-5.59h4.18a5.65,5.65,0,0,1,4.14,1.46,5.56,5.56,0,0,1,1.48,4.13v12a5.13,5.13,0,0,1-5.62,5.59Zm-3.68-3.07h3.14a2.34,2.34,0,0,0,2.63-2.66V211.28a2.34,2.34,0,0,0-2.63-2.67H385.1c-1.73,0-2.59.89-2.59,2.67V223C382.51,224.76,383.37,225.65,385.1,225.65Z" fill="#fff"/><path d="M54.05,260.1H59.2c.46,0,.68.24.68.72v1.52a.6.6,0,0,1-.68.68H54.05v5.23a.64.64,0,0,1-.72.72H51.71q-.69,0-.69-.72V263H45.83a.6.6,0,0,1-.68-.68v-1.52c0-.48.23-.72.68-.72H51v-5.18q0-.72.69-.72h1.62a.64.64,0,0,1,.72.72Z" fill="#fcb84d"/><path d="M77.93,272.53V250.59a.54.54,0,0,1,.61-.61h8.54a5.67,5.67,0,0,1,4.14,1.44,5.41,5.41,0,0,1,1.48,4.07v1.77a3.83,3.83,0,0,1-3,4,3.59,3.59,0,0,1,2.32,1.23,4.1,4.1,0,0,1,.92,2.81v2.3a5.39,5.39,0,0,1-1.48,4.07,5.61,5.61,0,0,1-4.1,1.44H78.54A.54.54,0,0,1,77.93,272.53Zm3.89-12.68H86.5c1.83,0,2.74-.87,2.74-2.63v-1.65a2.33,2.33,0,0,0-2.66-2.6H81.82q-.39,0-.39.36v6.16Q81.43,259.85,81.82,259.85Zm0,10.3h5c1.81,0,2.71-.86,2.71-2.59v-2.23c0-1.73-.95-2.6-2.85-2.6h-4.9q-.39,0-.39.36v6.7Q81.43,270.15,81.82,270.15Z" fill="#fcb84d"/><path d="M109.38,273.14H105.2a5.09,5.09,0,0,1-5.58-5.58v-12A5.08,5.08,0,0,1,105.2,250h4.18a5.63,5.63,0,0,1,4.14,1.46,5.52,5.52,0,0,1,1.48,4.13v12a5.12,5.12,0,0,1-5.62,5.58Zm-3.67-3.06h3.13a2.34,2.34,0,0,0,2.63-2.66V255.71a2.34,2.34,0,0,0-2.63-2.67h-3.13c-1.73,0-2.6.89-2.6,2.67v11.71A2.33,2.33,0,0,0,105.71,270.08Zm5.33-22.4h-1.66a.54.54,0,0,1-.54-.36l-1.48-2.81-1.44,2.81a.55.55,0,0,1-.57.36h-1.63c-.36,0-.44-.15-.25-.44l2.27-3.85a.87.87,0,0,1,.76-.36h1.76a.87.87,0,0,1,.76.36l2.23,3.85C111.45,247.53,111.37,247.68,111,247.68Z" fill="#fcb84d"/><path d="M124.87,273.14h-2.23a.54.54,0,0,1-.62-.61V250.59a.55.55,0,0,1,.62-.61h2a.83.83,0,0,1,.8.4l8.71,15.67h.15V250.59a.54.54,0,0,1,.61-.61h2.23a.55.55,0,0,1,.62.61v21.94a.54.54,0,0,1-.62.61h-1.94a1.07,1.07,0,0,1-.94-.57l-8.64-15.49h-.15v15.45A.54.54,0,0,1,124.87,273.14Z" fill="#fcb84d"/><path d="M157.29,250h2.27c.43,0,.65.19.65.58v17a5.52,5.52,0,0,1-1.5,4.11,5.61,5.61,0,0,1-4.12,1.47h-4a5.1,5.1,0,0,1-5.58-5.58v-17a.54.54,0,0,1,.61-.61h2.27a.54.54,0,0,1,.61.61v16.83a2.33,2.33,0,0,0,2.6,2.66h3a2.34,2.34,0,0,0,2.63-2.66V250.59A.54.54,0,0,1,157.29,250Z" fill="#fcb84d"/><path d="M167,267.53v-.94a.54.54,0,0,1,.61-.61h2.31a.54.54,0,0,1,.61.61v.65a3,3,0,0,0,.67,2.18,3.06,3.06,0,0,0,2.21.66h2.49a3,3,0,0,0,2.23-.7,3.18,3.18,0,0,0,.69-2.29v-.83a2.15,2.15,0,0,0-.89-1.81,4.6,4.6,0,0,0-2.18-.87c-.86-.13-1.81-.32-2.84-.56a24.16,24.16,0,0,1-2.85-.83,4.49,4.49,0,0,1-2.18-1.76,5.85,5.85,0,0,1-.88-3.32V255.6A5.19,5.19,0,0,1,172.6,250h3.82a5.61,5.61,0,0,1,4.16,1.5,5.55,5.55,0,0,1,1.5,4.12v.79a.55.55,0,0,1-.62.62h-2.3a.55.55,0,0,1-.62-.62v-.46a3.07,3.07,0,0,0-.66-2.22,3.1,3.1,0,0,0-2.22-.67h-2.27a2.93,2.93,0,0,0-2.21.71,3.38,3.38,0,0,0-.67,2.39v1.12c0,1.08.78,1.81,2.34,2.2.7.16,1.46.31,2.29.43a19,19,0,0,1,2.5.54,10.86,10.86,0,0,1,2.31.95,4.4,4.4,0,0,1,1.69,1.8,6.08,6.08,0,0,1,.65,2.94v1.41a5.16,5.16,0,0,1-5.62,5.61h-4a5.63,5.63,0,0,1-4.15-1.49A5.57,5.57,0,0,1,167,267.53Z" fill="#fcb84d"/><path d="M210.31,253.41h-.89a1,1,0,0,0-.45.1.58.58,0,0,0-.24.22q-.16.33-.39.33h-.91a.21.21,0,0,1-.24-.24v-4.53a.21.21,0,0,1,.24-.24h4.89c.17,0,.26.08.26.24v.82c0,.17-.09.25-.26.25H208.6V253a1.13,1.13,0,0,1,1.21-.71h.85a1.92,1.92,0,0,1,2.13,2.14v1.67a2,2,0,0,1-2.23,2.23h-1.23a2.19,2.19,0,0,1-1.65-.59,2.22,2.22,0,0,1-.58-1.64v-.38c0-.17.08-.26.25-.26h.9c.17,0,.25.09.25.26v.36a.92.92,0,0,0,1,1.06h.82a.93.93,0,0,0,1.06-1.06v-1.45a1.33,1.33,0,0,0-.25-.92A1.1,1.1,0,0,0,210.31,253.41Z" fill="#fcb84d"/><path d="M224.57,258.31H220a.21.21,0,0,1-.24-.24v-8.78a.21.21,0,0,1,.24-.24h4.62a.21.21,0,0,1,.23.24V250a.21.21,0,0,1-.23.24h-3.29c-.12,0-.17,0-.17.15v2.43c0,.1,0,.14.17.14h2.78a.23.23,0,0,1,.26.25V254c0,.17-.09.25-.26.25h-2.78c-.12,0-.17.05-.17.14v2.57c0,.1,0,.16.17.16h3.29a.21.21,0,0,1,.23.24v.74A.21.21,0,0,1,224.57,258.31Z" fill="#fcb84d"/><path d="M230,258.31h-.91c-.18,0-.26-.08-.26-.24v-7.65a.13.13,0,0,0-.15-.15H226.9c-.17,0-.26-.08-.26-.24v-.74c0-.16.09-.24.26-.24h5.34c.18,0,.26.08.26.24V250c0,.16-.08.24-.26.24h-1.81c-.11,0-.16,0-.16.15v7.65A.21.21,0,0,1,230,258.31Z" fill="#fcb84d"/><path d="M235.11,258.31h-1c-.13,0-.18-.08-.14-.24l2.51-8.78a.32.32,0,0,1,.34-.24h1.45a.31.31,0,0,1,.34.24l2.51,8.78c0,.16,0,.24-.16.24h-1c-.09,0-.15,0-.18-.05a.34.34,0,0,1-.08-.19l-.55-1.88h-3.17l-.55,1.88C235.33,258.23,235.25,258.31,235.11,258.31Zm2.37-7.88L236.21,255h2.61l-1.29-4.61Z" fill="#fcb84d"/><path d="M244.52,258.31h-.91a.21.21,0,0,1-.24-.24v-8.78a.21.21,0,0,1,.24-.24H247a2.26,2.26,0,0,1,1.65.58,2.23,2.23,0,0,1,.59,1.65v1.5A2,2,0,0,1,247,255h-2.1c-.12,0-.17.05-.17.15v2.91C244.77,258.23,244.69,258.31,244.52,258.31Zm.41-4.54h1.91c.68,0,1-.35,1-1.06v-1.37c0-.71-.34-1.07-1-1.07h-1.91c-.11,0-.16,0-.16.15v3.21C244.77,253.73,244.82,253.77,244.93,253.77Z" fill="#fcb84d"/><path d="M252.35,258.31h-1c-.14,0-.18-.08-.15-.24l2.51-8.78a.32.32,0,0,1,.35-.24h1.44c.19,0,.31.08.34.24l2.51,8.78c0,.16,0,.24-.16.24h-1c-.09,0-.15,0-.18-.05a.43.43,0,0,1-.08-.19l-.55-1.88h-3.17l-.54,1.88C252.57,258.23,252.48,258.31,252.35,258.31Zm2.36-7.88L253.44,255h2.61l-1.28-4.61Z" fill="#fcb84d"/><path d="M260.43,256.06v-.37a.22.22,0,0,1,.24-.25h.93a.22.22,0,0,1,.24.25V256a1,1,0,0,0,1.15,1.14h1a1.23,1.23,0,0,0,.89-.28,1.31,1.31,0,0,0,.28-.92v-.33a.86.86,0,0,0-.36-.73,1.79,1.79,0,0,0-.87-.34c-.34-.06-.72-.13-1.14-.23a8.52,8.52,0,0,1-1.14-.33,1.82,1.82,0,0,1-.87-.7,2.37,2.37,0,0,1-.35-1.33v-.61a2.23,2.23,0,0,1,.6-1.65,2.27,2.27,0,0,1,1.65-.59h1.52a2.28,2.28,0,0,1,1.67.59,2.23,2.23,0,0,1,.6,1.65v.32a.22.22,0,0,1-.25.25h-.92c-.16,0-.24-.08-.24-.25v-.19a1,1,0,0,0-1.16-1.15H263a1.2,1.2,0,0,0-.88.28,1.38,1.38,0,0,0-.27,1V252c0,.43.31.72.94.88.28.06.58.12.91.17a6.86,6.86,0,0,1,1,.22,3.86,3.86,0,0,1,.93.38,1.74,1.74,0,0,1,.67.72,2.35,2.35,0,0,1,.26,1.17v.56a2.06,2.06,0,0,1-2.24,2.25h-1.62a2.27,2.27,0,0,1-1.66-.6A2.2,2.2,0,0,1,260.43,256.06Z" fill="#fcb84d"/><path d="M274.81,258.31h-.91a.21.21,0,0,1-.24-.24v-8.78a.21.21,0,0,1,.24-.24h3.43a2,2,0,0,1,2.24,2.23v1.5a2.06,2.06,0,0,1-2.24,2.23h-2.1q-.18,0-.18.15v2.91A.21.21,0,0,1,274.81,258.31Zm.4-4.54h1.92c.68,0,1-.35,1-1.06v-1.37c0-.71-.34-1.07-1-1.07h-1.92a.14.14,0,0,0-.16.15v3.21C275.05,253.73,275.11,253.77,275.21,253.77Z" fill="#fcb84d"/><path d="M282.63,258.31h-1q-.21,0-.15-.24l2.51-8.78a.32.32,0,0,1,.35-.24h1.44a.31.31,0,0,1,.34.24l2.51,8.78c0,.16,0,.24-.16.24h-1c-.09,0-.15,0-.18-.05a.34.34,0,0,1-.08-.19l-.55-1.88h-3.17l-.55,1.88A.25.25,0,0,1,282.63,258.31Zm2.37-7.88L283.73,255h2.61l-1.28-4.61Z" fill="#fcb84d"/><path d="M292,258.31h-.9c-.17,0-.25-.08-.25-.24v-8.78c0-.16.08-.24.25-.24h3.37a2.27,2.27,0,0,1,1.65.59,2.23,2.23,0,0,1,.6,1.65v1.22a1.93,1.93,0,0,1-1.37,2.08v.06L297,258c.1.2,0,.29-.19.29h-.9a.42.42,0,0,1-.44-.24l-1.54-3.32h-1.46c-.11,0-.17.05-.17.15v3.17C292.29,258.23,292.21,258.31,292,258.31Zm.41-4.71h1.83a.93.93,0,0,0,1.06-1v-1.21a.94.94,0,0,0-1.06-1.07h-1.83c-.11,0-.16,0-.16.15v3C292.29,253.55,292.34,253.6,292.45,253.6Z" fill="#fcb84d"/><path d="M300.07,258.31h-1c-.13,0-.18-.08-.14-.24l2.51-8.78a.31.31,0,0,1,.34-.24h1.44a.32.32,0,0,1,.35.24l2.5,8.78q.06.24-.15.24h-1a.24.24,0,0,1-.18-.05.43.43,0,0,1-.08-.19l-.54-1.88h-3.17l-.55,1.88C300.29,258.23,300.2,258.31,300.07,258.31Zm2.36-7.88L301.16,255h2.61l-1.28-4.61Z" fill="#fcb84d"/><path d="M313.12,258.31h-1q-.21,0-.15-.24l2.51-8.78a.32.32,0,0,1,.35-.24h1.44a.31.31,0,0,1,.34.24l2.51,8.78c0,.16,0,.24-.16.24h-1c-.09,0-.15,0-.18-.05a.34.34,0,0,1-.08-.19l-.55-1.88h-3.17l-.55,1.88A.25.25,0,0,1,313.12,258.31Zm2.37-7.88L314.22,255h2.61l-1.28-4.61Z" fill="#fcb84d"/><path d="M326.22,249.05h.91c.17,0,.26.07.26.23v6.8a2.19,2.19,0,0,1-.6,1.64,2.22,2.22,0,0,1-1.65.59h-1.6a2.19,2.19,0,0,1-1.64-.59,2.22,2.22,0,0,1-.59-1.64v-6.79a.21.21,0,0,1,.24-.24h.91a.22.22,0,0,1,.25.24V256c0,.71.34,1.07,1,1.07h1.19A.94.94,0,0,0,326,256v-6.73A.21.21,0,0,1,326.22,249.05Z" fill="#fcb84d"/><path d="M336.61,249.05h1.62a.21.21,0,0,1,.24.24v8.78a.21.21,0,0,1-.24.24h-.9a.21.21,0,0,1-.24-.24v-7.28H337l-1.87,5.27a.32.32,0,0,1-.32.23h-.92a.31.31,0,0,1-.31-.23l-1.91-5.28h-.06v7.29a.29.29,0,0,1-.05.19s-.1.05-.19.05h-.88c-.17,0-.25-.08-.25-.24v-8.78c0-.16.08-.24.25-.24h1.61a.23.23,0,0,1,.23.16l2,5.56h.08l2-5.56C336.41,249.1,336.49,249.05,336.61,249.05Z" fill="#fcb84d"/><path d="M346.3,258.31h-4.62a.21.21,0,0,1-.24-.24v-8.78a.21.21,0,0,1,.24-.24h4.62a.21.21,0,0,1,.23.24V250a.21.21,0,0,1-.23.24H343c-.12,0-.17,0-.17.15v2.43c0,.1.05.14.17.14h2.78a.23.23,0,0,1,.26.25V254c0,.17-.09.25-.26.25H343c-.12,0-.17.05-.17.14v2.57c0,.1.05.16.17.16h3.29a.21.21,0,0,1,.23.24v.74A.21.21,0,0,1,346.3,258.31Z" fill="#fcb84d"/><path d="M350.36,258.31h-.89c-.17,0-.25-.08-.25-.24v-8.78c0-.16.08-.24.25-.24h.8a.32.32,0,0,1,.32.16l3.49,6.26h.05v-6.18a.22.22,0,0,1,.25-.24h.89c.17,0,.25.08.25.24v8.78c0,.16-.08.24-.25.24h-.78a.42.42,0,0,1-.37-.23l-3.46-6.19h-.06v6.18A.21.21,0,0,1,350.36,258.31Z" fill="#fcb84d"/><path d="M361,258.31h-.91c-.17,0-.26-.08-.26-.24v-7.65c0-.1,0-.15-.14-.15h-1.82c-.17,0-.25-.08-.25-.24v-.74c0-.16.08-.24.25-.24h5.35c.17,0,.26.08.26.24V250c0,.16-.09.24-.26.24h-1.82a.13.13,0,0,0-.15.15v7.65A.22.22,0,0,1,361,258.31Z" fill="#fcb84d"/><path d="M366.11,258.31h-1c-.13,0-.18-.08-.14-.24l2.5-8.78a.33.33,0,0,1,.35-.24h1.44a.32.32,0,0,1,.35.24l2.5,8.78c0,.16,0,.24-.16.24h-1a.23.23,0,0,1-.18-.05.43.43,0,0,1-.08-.19l-.55-1.88h-3.17l-.54,1.88C366.33,258.23,366.24,258.31,366.11,258.31Zm2.36-7.88L367.2,255h2.61l-1.28-4.61Z" fill="#fcb84d"/><path d="M375.52,258.31h-.91a.22.22,0,0,1-.25-.24v-8.78a.22.22,0,0,1,.25-.24H378a2.27,2.27,0,0,1,1.65.59,2.23,2.23,0,0,1,.6,1.65v1.22a1.93,1.93,0,0,1-1.37,2.08v.06l1.6,3.37c.11.2,0,.29-.19.29h-.89a.44.44,0,0,1-.45-.24l-1.54-3.32h-1.46c-.11,0-.17.05-.17.15v3.17A.21.21,0,0,1,375.52,258.31Zm.4-4.71h1.83a.94.94,0,0,0,1.07-1v-1.21a1,1,0,0,0-1.07-1.07h-1.83c-.11,0-.16,0-.16.15v3C375.76,253.55,375.81,253.6,375.92,253.6Z" fill="#fcb84d"/><path d="M207.22,272.16v-.38a.21.21,0,0,1,.24-.24h.92c.17,0,.25.08.25.24V272a1,1,0,0,0,1.15,1.14h1a1.23,1.23,0,0,0,.89-.28,1.3,1.3,0,0,0,.27-.92v-.33a.88.88,0,0,0-.35-.73,2,2,0,0,0-.87-.34c-.35-.06-.73-.13-1.14-.23a8.52,8.52,0,0,1-1.14-.33,1.73,1.73,0,0,1-.87-.7,2.29,2.29,0,0,1-.35-1.33v-.6a2.19,2.19,0,0,1,.59-1.65,2.23,2.23,0,0,1,1.65-.6H211a2.22,2.22,0,0,1,1.66.6,2.2,2.2,0,0,1,.6,1.65v.31c0,.17-.08.25-.24.25h-.92a.22.22,0,0,1-.25-.25v-.18a1.21,1.21,0,0,0-.27-.89,1.19,1.19,0,0,0-.88-.27h-.91a1.23,1.23,0,0,0-.89.28,1.43,1.43,0,0,0-.26,1v.45c0,.43.31.72.93.88.28.06.59.12.92.17a7.49,7.49,0,0,1,1,.22,3.78,3.78,0,0,1,.92.38,1.76,1.76,0,0,1,.68.72,2.47,2.47,0,0,1,.26,1.17v.57a2.19,2.19,0,0,1-.6,1.64,2.23,2.23,0,0,1-1.65.6h-1.61a2.25,2.25,0,0,1-1.66-.6A2.19,2.19,0,0,1,207.22,272.16Z" fill="#fcb84d"/><path d="M221,274.4h-4.62a.21.21,0,0,1-.24-.24v-8.78a.21.21,0,0,1,.24-.24H221a.21.21,0,0,1,.23.24v.74a.21.21,0,0,1-.23.24h-3.29c-.12,0-.17.05-.17.15v2.43c0,.1,0,.15.17.15h2.78c.17,0,.26.08.26.24v.74c0,.16-.09.24-.26.24h-2.78c-.12,0-.17.05-.17.14V273c0,.11,0,.16.17.16H221a.21.21,0,0,1,.23.24v.74A.21.21,0,0,1,221,274.4Z" fill="#fcb84d"/><path d="M228.77,265.14h.91c.17,0,.26.07.26.23v6.8a2.19,2.19,0,0,1-.6,1.64,2.22,2.22,0,0,1-1.65.59h-1.6a2.19,2.19,0,0,1-1.64-.59,2.22,2.22,0,0,1-.59-1.64v-6.79a.21.21,0,0,1,.24-.24H225a.22.22,0,0,1,.25.24v6.73c0,.71.34,1.07,1,1.07h1.19a.94.94,0,0,0,1.05-1.07v-6.73A.21.21,0,0,1,228.77,265.14Z" fill="#fcb84d"/><path d="M238.27,274.4h-.91a.22.22,0,0,1-.25-.24v-8.78a.22.22,0,0,1,.25-.24h4.52c.17,0,.25.08.25.24v.74c0,.16-.08.24-.25.24h-3.19q-.18,0-.18.15v2.72c0,.11.06.16.18.16h2.78c.17,0,.26.08.26.24v.72a.23.23,0,0,1-.26.26h-2.78q-.18,0-.18.15v3.4A.21.21,0,0,1,238.27,274.4Z" fill="#fcb84d"/><path d="M245,274.4h-1c-.14,0-.18-.08-.15-.24l2.51-8.78a.32.32,0,0,1,.35-.24h1.44a.31.31,0,0,1,.34.24l2.51,8.78c0,.16,0,.24-.16.24h-1c-.09,0-.15,0-.18,0a.43.43,0,0,1-.08-.19l-.55-1.88h-3.17l-.55,1.88C245.25,274.32,245.16,274.4,245,274.4Zm2.36-7.88-1.27,4.61h2.61l-1.28-4.61Z" fill="#fcb84d"/><path d="M255.82,274.4h-.91c-.17,0-.26-.08-.26-.24v-7.65c0-.1-.05-.15-.14-.15h-1.82c-.17,0-.26-.08-.26-.24v-.74c0-.16.09-.24.26-.24H258c.17,0,.26.08.26.24v.74c0,.16-.09.24-.26.24h-1.82a.14.14,0,0,0-.16.15v7.65A.21.21,0,0,1,255.82,274.4Z" fill="#fcb84d"/><path d="M265.24,265.14h.91c.17,0,.26.07.26.23v6.8a2.19,2.19,0,0,1-.6,1.64,2.22,2.22,0,0,1-1.65.59h-1.6a2.19,2.19,0,0,1-1.64-.59,2.22,2.22,0,0,1-.59-1.64v-6.79a.21.21,0,0,1,.24-.24h.91a.22.22,0,0,1,.25.24v6.73c0,.71.34,1.07,1,1.07h1.18a.94.94,0,0,0,1.06-1.07v-6.73A.21.21,0,0,1,265.24,265.14Z" fill="#fcb84d"/><path d="M270.44,274.4h-.9c-.17,0-.25-.08-.25-.24v-8.78c0-.16.08-.24.25-.24h3.37a2.23,2.23,0,0,1,1.65.6,2.2,2.2,0,0,1,.6,1.65v1.21a2,2,0,0,1-1.37,2.09v.05l1.6,3.38c.1.19,0,.28-.19.28h-.89a.43.43,0,0,1-.45-.24l-1.54-3.32h-1.46c-.11,0-.17.05-.17.15v3.17C270.69,274.32,270.61,274.4,270.44,274.4Zm.41-4.71h1.83a.93.93,0,0,0,1.06-1.05v-1.21a.94.94,0,0,0-1.06-1.07h-1.83c-.11,0-.16.05-.16.15v3C270.69,269.64,270.74,269.69,270.85,269.69Z" fill="#fcb84d"/><path d="M278.47,274.4h-1c-.13,0-.18-.08-.14-.24l2.51-8.78a.31.31,0,0,1,.34-.24h1.44a.32.32,0,0,1,.35.24l2.51,8.78c0,.16,0,.24-.16.24h-1a.24.24,0,0,1-.18,0,.43.43,0,0,1-.08-.19l-.54-1.88h-3.17l-.55,1.88C278.69,274.32,278.6,274.4,278.47,274.4Zm2.36-7.88-1.26,4.61h2.6l-1.28-4.61Z" fill="#fcb84d"/><path d="M293.07,265.14h1.61a.22.22,0,0,1,.25.24v8.78a.22.22,0,0,1-.25.24h-.89c-.17,0-.25-.08-.25-.24v-7.28h-.06l-1.87,5.28a.32.32,0,0,1-.32.23h-.92a.31.31,0,0,1-.3-.23l-1.92-5.29h0v7.29a.24.24,0,0,1-.06.19s-.09,0-.19,0H287a.21.21,0,0,1-.24-.24v-8.78a.21.21,0,0,1,.24-.24h1.62a.24.24,0,0,1,.23.16l2,5.56h.07l2-5.56C292.87,265.19,292.94,265.14,293.07,265.14Z" fill="#fcb84d"/><path d="M302.75,274.4h-4.61a.22.22,0,0,1-.25-.24v-8.78a.22.22,0,0,1,.25-.24h4.61a.21.21,0,0,1,.23.24v.74a.21.21,0,0,1-.23.24h-3.29c-.11,0-.17.05-.17.15v2.43c0,.1.06.15.17.15h2.79c.17,0,.26.08.26.24v.74c0,.16-.09.24-.26.24h-2.79c-.11,0-.17.05-.17.14V273c0,.11.06.16.17.16h3.29a.21.21,0,0,1,.23.24v.74A.21.21,0,0,1,302.75,274.4Z" fill="#fcb84d"/><path d="M306.81,274.4h-.89a.22.22,0,0,1-.25-.24v-8.78a.22.22,0,0,1,.25-.24h.81a.31.31,0,0,1,.31.16l3.49,6.26h.06v-6.18a.21.21,0,0,1,.24-.24h.9a.21.21,0,0,1,.24.24v8.78a.21.21,0,0,1-.24.24H311a.42.42,0,0,1-.38-.23L307.12,268h-.06v6.18C307.06,274.32,307,274.4,306.81,274.4Z" fill="#fcb84d"/><path d="M317.48,274.4h-.91c-.17,0-.26-.08-.26-.24v-7.65a.13.13,0,0,0-.15-.15h-1.81c-.17,0-.26-.08-.26-.24v-.74c0-.16.09-.24.26-.24h5.34c.18,0,.26.08.26.24v.74c0,.16-.08.24-.26.24h-1.81c-.11,0-.16.05-.16.15v7.65A.21.21,0,0,1,317.48,274.4Z" fill="#fcb84d"/><path d="M325.82,274.4h-1.67a2.19,2.19,0,0,1-1.65-.59,2.22,2.22,0,0,1-.59-1.64v-4.8a2,2,0,0,1,2.24-2.23h1.67a2.27,2.27,0,0,1,1.66.58,2.23,2.23,0,0,1,.59,1.65v4.8a2,2,0,0,1-2.25,2.23Zm-1.47-1.22h1.25a.94.94,0,0,0,1-1.07v-4.68a.94.94,0,0,0-1-1.07h-1.25a.94.94,0,0,0-1,1.07v4.68A.94.94,0,0,0,324.35,273.18Z" fill="#fcb84d"/><path d="M236.88,170.24h-1.54a2,2,0,0,1-2.23-2.23v-4.8a2,2,0,0,1,2.23-2.24h1.54a2,2,0,0,1,2.24,2.24v.52c0,.17-.08.26-.25.26H238c-.16,0-.24-.09-.24-.26v-.46a.93.93,0,0,0-1-1.07h-1.14c-.69,0-1,.35-1,1.07V168a.92.92,0,0,0,1,1.06h1.14a.93.93,0,0,0,1-1.06v-1.3c0-.09-.05-.14-.16-.14h-1.17c-.16,0-.24-.08-.24-.25v-.73c0-.17.08-.25.24-.25h2.43c.2,0,.3.1.3.31V168a2.22,2.22,0,0,1-.59,1.64A2.27,2.27,0,0,1,236.88,170.24Z" fill="#fcb84d"/><path d="M246.8,170.24h-4.61a.22.22,0,0,1-.25-.25v-8.77a.22.22,0,0,1,.25-.25h4.61c.15,0,.23.09.23.25V162c0,.17-.08.25-.23.25h-3.29c-.11,0-.17.05-.17.14v2.44c0,.09.06.14.17.14h2.78c.18,0,.26.08.26.25v.73c0,.17-.08.25-.26.25h-2.78c-.11,0-.17,0-.17.14v2.57c0,.1.06.15.17.15h3.29c.15,0,.23.09.23.25V170C247,170.16,247,170.24,246.8,170.24Z" fill="#fcb84d"/><path d="M249.55,168v-.37c0-.17.08-.25.24-.25h.93c.16,0,.24.08.24.25v.26a1,1,0,0,0,1.15,1.13h1a1.19,1.19,0,0,0,.89-.28,1.27,1.27,0,0,0,.28-.91v-.33a.86.86,0,0,0-.36-.73,1.9,1.9,0,0,0-.87-.35c-.34,0-.72-.12-1.14-.22s-.79-.21-1.14-.33a1.84,1.84,0,0,1-.87-.71,2.31,2.31,0,0,1-.35-1.32v-.61A2.08,2.08,0,0,1,251.8,161h1.52a2.08,2.08,0,0,1,2.27,2.25v.32c0,.16-.08.24-.25.24h-.92a.21.21,0,0,1-.24-.24v-.19a1.19,1.19,0,0,0-.27-.88,1.21,1.21,0,0,0-.89-.27h-.91a1.16,1.16,0,0,0-.88.28,1.38,1.38,0,0,0-.27,1v.45c0,.43.31.72.94.87.28.07.58.13.91.18a9.07,9.07,0,0,1,1,.21,5.07,5.07,0,0,1,.92.38,1.7,1.7,0,0,1,.67.73,2.35,2.35,0,0,1,.26,1.17V168a2.27,2.27,0,0,1-.59,1.65,2.23,2.23,0,0,1-1.65.6h-1.62a2.27,2.27,0,0,1-1.66-.6A2.23,2.23,0,0,1,249.55,168Z" fill="#fcb84d"/><path d="M261,170.24h-.91c-.17,0-.26-.08-.26-.25v-7.65a.12.12,0,0,0-.14-.14h-1.82c-.17,0-.26-.08-.26-.25v-.73a.23.23,0,0,1,.26-.25h5.35a.23.23,0,0,1,.26.25V162c0,.17-.09.25-.26.25h-1.82c-.1,0-.15.05-.15.14V170A.22.22,0,0,1,261,170.24Z" fill="#fcb84d"/><path d="M266.11,170.24h-1c-.14,0-.18-.08-.14-.25l2.5-8.77a.34.34,0,0,1,.35-.25h1.44a.32.32,0,0,1,.35.25l2.5,8.77c0,.17,0,.25-.16.25h-1a.26.26,0,0,1-.18-.05.43.43,0,0,1-.08-.2l-.55-1.87h-3.17l-.54,1.87C266.33,170.16,266.24,170.24,266.11,170.24Zm1.71-10.12c-.65,0-1-.37-1-1.11v-.56c0-.09.05-.14.15-.14h.43a.13.13,0,0,1,.14.14v.29a1.12,1.12,0,0,0,.07.49.2.2,0,0,0,.2.13.27.27,0,0,0,.22-.1,3,3,0,0,0,.29-.46.94.94,0,0,1,.85-.55c.64,0,1,.37,1,1.11v.55c0,.11-.05.17-.13.17h-.44c-.09,0-.14-.06-.14-.17v-.28a1.28,1.28,0,0,0-.06-.49.22.22,0,0,0-.21-.13.26.26,0,0,0-.21.08.93.93,0,0,0-.15.2l-.09.15-.12.22A.83.83,0,0,1,267.82,160.12Zm.65,2.24L267.2,167h2.61l-1.28-4.61Z" fill="#fcb84d"/><path d="M278.11,170.24h-1.67A2,2,0,0,1,274.2,168v-4.8a2,2,0,0,1,2.24-2.24h1.67a2.27,2.27,0,0,1,1.66.59,2.23,2.23,0,0,1,.59,1.65V168a2.22,2.22,0,0,1-.59,1.64A2.27,2.27,0,0,1,278.11,170.24ZM276.64,169h1.25a.93.93,0,0,0,1.05-1.06v-4.68a.93.93,0,0,0-1.05-1.07h-1.25a.93.93,0,0,0-1,1.07V168A.93.93,0,0,0,276.64,169Z" fill="#fcb84d"/><path d="M291.22,170.24h-1.67a2,2,0,0,1-2.23-2.23v-4.8a2,2,0,0,1,2.23-2.24h1.67a2.22,2.22,0,0,1,1.64.59,2.19,2.19,0,0,1,.59,1.65v.69c0,.17-.08.26-.25.26h-.91c-.17,0-.25-.09-.25-.26v-.63c0-.72-.34-1.07-1-1.07h-1.26a.93.93,0,0,0-1,1.07V168a.93.93,0,0,0,1,1.06H291a.92.92,0,0,0,1-1.06v-.64c0-.17.08-.26.25-.26h.91c.17,0,.25.09.25.26v.7a2.19,2.19,0,0,1-.59,1.64A2.22,2.22,0,0,1,291.22,170.24Z" fill="#fcb84d"/><path d="M299.87,170.24H298.2A2,2,0,0,1,296,168v-4.8A2,2,0,0,1,298.2,161h1.67a2.23,2.23,0,0,1,1.65.59,2.19,2.19,0,0,1,.59,1.65V168a2.19,2.19,0,0,1-.59,1.64A2.23,2.23,0,0,1,299.87,170.24ZM298.4,169h1.25A.93.93,0,0,0,300.7,168v-4.68a.93.93,0,0,0-1.05-1.07H298.4a.93.93,0,0,0-1,1.07V168A.93.93,0,0,0,298.4,169Z" fill="#fcb84d"/><path d="M311.27,161h1.61a.22.22,0,0,1,.24.25V170c0,.17-.08.25-.24.25H312c-.16,0-.24-.08-.24-.25v-7.27h-.06L309.81,168a.31.31,0,0,1-.32.23h-.92a.3.3,0,0,1-.3-.23l-1.92-5.29h-.06V170c0,.1,0,.17-.05.2a.29.29,0,0,1-.19.05h-.88a.22.22,0,0,1-.25-.25v-8.77a.23.23,0,0,1,.25-.25h1.61a.24.24,0,0,1,.23.16l2,5.56h.07l2-5.56A.2.2,0,0,1,311.27,161Z" fill="#fcb84d"/><path d="M317.25,170.24h-.91a.22.22,0,0,1-.25-.25v-8.77a.22.22,0,0,1,.25-.25h3.43a2,2,0,0,1,2.23,2.24v1.5a2,2,0,0,1-2.23,2.23h-2.11c-.11,0-.17.05-.17.14V170C317.49,170.16,317.41,170.24,317.25,170.24Zm.4-4.54h1.92c.68,0,1-.36,1-1.07v-1.36c0-.72-.34-1.07-1-1.07h-1.92c-.11,0-.16.05-.16.14v3.22C317.49,165.65,317.54,165.7,317.65,165.7Z" fill="#fcb84d"/><path d="M329.48,170.24h-4.67c-.16,0-.24-.08-.24-.25v-8.77a.22.22,0,0,1,.24-.25h.91a.22.22,0,0,1,.24.25v7.62q0,.15.18.15h3.34c.16,0,.24.08.24.26V170C329.72,170.16,329.64,170.24,329.48,170.24Z" fill="#fcb84d"/><path d="M336.77,170.24h-4.61a.22.22,0,0,1-.25-.25v-8.77a.23.23,0,0,1,.25-.25h4.61c.15,0,.23.09.23.25V162c0,.17-.08.25-.23.25h-3.29c-.11,0-.17.05-.17.14v2.44c0,.09.06.14.17.14h2.79c.17,0,.26.08.26.25v.73c0,.17-.09.25-.26.25h-2.79c-.11,0-.17,0-.17.14v2.57c0,.1.06.15.17.15h3.29c.15,0,.23.09.23.25V170C337,170.16,336.92,170.24,336.77,170.24Z" fill="#fcb84d"/><path d="M342.23,170.24h-.91c-.17,0-.26-.08-.26-.25v-7.65a.12.12,0,0,0-.14-.14H339.1a.22.22,0,0,1-.25-.25v-.73a.22.22,0,0,1,.25-.25h5.35a.23.23,0,0,1,.26.25V162c0,.17-.09.25-.26.25h-1.82c-.1,0-.15.05-.15.14V170A.22.22,0,0,1,342.23,170.24Z" fill="#fcb84d"/><path d="M347.32,170.24h-1c-.13,0-.18-.08-.14-.25l2.5-8.77A.34.34,0,0,1,349,161h1.44a.32.32,0,0,1,.35.25l2.5,8.77c0,.17,0,.25-.16.25h-1a.28.28,0,0,1-.18-.05.43.43,0,0,1-.08-.2l-.55-1.87h-3.17l-.54,1.87C347.54,170.16,347.45,170.24,347.32,170.24Zm2.36-7.88L348.41,167H351l-1.28-4.61Z" fill="#fcb84d"/><path d="M234.41,186.33h-.91c-.17,0-.25-.08-.25-.24v-8.78c0-.16.08-.24.25-.24h3.43a2,2,0,0,1,2.23,2.23v1.5a2,2,0,0,1-2.23,2.23h-2.11c-.11,0-.17.05-.17.14v2.92A.21.21,0,0,1,234.41,186.33Zm.4-4.54h1.92c.68,0,1-.35,1-1.07v-1.36c0-.71-.34-1.07-1-1.07h-1.92c-.11,0-.16.05-.16.14v3.22C234.65,181.74,234.7,181.79,234.81,181.79Z" fill="#fcb84d"/><path d="M242.23,186.33h-1c-.13,0-.18-.08-.14-.24l2.51-8.78a.31.31,0,0,1,.34-.24h1.44a.32.32,0,0,1,.35.24l2.5,8.78q.06.24-.15.24h-1a.3.3,0,0,1-.18-.05.43.43,0,0,1-.08-.19l-.54-1.88H243l-.55,1.88C242.45,186.25,242.36,186.33,242.23,186.33Zm2.36-7.88-1.27,4.61h2.61l-1.28-4.61Z" fill="#fcb84d"/><path d="M251.64,186.33h-.91a.21.21,0,0,1-.24-.24v-8.78a.21.21,0,0,1,.24-.24h3.37a2.06,2.06,0,0,1,2.25,2.24v1.21a1.94,1.94,0,0,1-1.37,2.09v.06l1.6,3.37c.11.19,0,.29-.19.29h-.89a.44.44,0,0,1-.45-.24l-1.54-3.32h-1.45q-.18,0-.18.15v3.17A.21.21,0,0,1,251.64,186.33Zm.4-4.71h1.83a.94.94,0,0,0,1.07-1.05v-1.21a1,1,0,0,0-1.07-1.07H252c-.1,0-.16.05-.16.14v3A.14.14,0,0,0,252,181.62Z" fill="#fcb84d"/><path d="M259.67,186.33h-1q-.21,0-.15-.24l2.51-8.78a.32.32,0,0,1,.35-.24h1.44a.31.31,0,0,1,.34.24l2.51,8.78c0,.16,0,.24-.16.24h-1a.26.26,0,0,1-.18-.05.34.34,0,0,1-.08-.19l-.55-1.88h-3.17l-.55,1.88C259.89,186.25,259.8,186.33,259.67,186.33Zm2.36-7.88-1.27,4.61h2.61l-1.28-4.61Z" fill="#fcb84d"/><path d="M272.72,186.33h-1c-.13,0-.18-.08-.14-.24l2.51-8.78a.31.31,0,0,1,.34-.24h1.44a.32.32,0,0,1,.35.24l2.51,8.78c0,.16,0,.24-.16.24h-1a.3.3,0,0,1-.18-.05.43.43,0,0,1-.08-.19l-.54-1.88h-3.17l-.55,1.88C272.94,186.25,272.85,186.33,272.72,186.33Zm2.36-7.88-1.26,4.61h2.6l-1.28-4.61Z" fill="#fcb84d"/><path d="M284.74,186.33h-1.67a2,2,0,0,1-2.24-2.23v-4.8a2,2,0,0,1,2.24-2.23h1.67A2,2,0,0,1,287,179.3V180a.23.23,0,0,1-.26.26h-.91c-.16,0-.24-.09-.24-.26v-.63a.94.94,0,0,0-1-1.07h-1.25a.94.94,0,0,0-1,1.07V184a.94.94,0,0,0,1,1.07h1.25a.94.94,0,0,0,1-1.07v-.63c0-.18.08-.26.24-.26h.91a.23.23,0,0,1,.26.26v.69a2,2,0,0,1-2.23,2.23Z" fill="#fcb84d"/><path d="M290.13,186.33h-1c-.14,0-.18-.08-.15-.24l2.51-8.78a.32.32,0,0,1,.35-.24h1.44c.19,0,.31.08.34.24l2.51,8.78c0,.16,0,.24-.16.24h-1a.26.26,0,0,1-.18-.05.43.43,0,0,1-.08-.19l-.55-1.88h-3.17l-.54,1.88C290.35,186.25,290.26,186.33,290.13,186.33Zm2.36-7.88-1.27,4.61h2.61l-1.28-4.61Z" fill="#fcb84d"/><path d="M298.38,186.09v-8.78a.22.22,0,0,1,.25-.24h3.54a2.26,2.26,0,0,1,1.65.58,2.2,2.2,0,0,1,.6,1.65v4.8a2.19,2.19,0,0,1-.6,1.64,2.27,2.27,0,0,1-1.65.59h-3.54A.22.22,0,0,1,298.38,186.09Zm1.56-1h2a.94.94,0,0,0,1-1.07v-4.68a.94.94,0,0,0-1-1.07h-2c-.11,0-.16.05-.16.14V185A.14.14,0,0,0,299.94,185.11Z" fill="#fcb84d"/><path d="M312.1,186.33h-4.61a.22.22,0,0,1-.25-.24v-8.78a.22.22,0,0,1,.25-.24h4.61a.21.21,0,0,1,.23.24V178c0,.17-.08.25-.23.25h-3.28c-.12,0-.18.05-.18.14v2.44c0,.1.06.14.18.14h2.78c.17,0,.26.08.26.25V182c0,.17-.09.25-.26.25h-2.78c-.12,0-.18,0-.18.14V185c0,.1.06.16.18.16h3.28a.21.21,0,0,1,.23.24v.74A.21.21,0,0,1,312.1,186.33Z" fill="#fcb84d"/><path d="M321.37,177.07H323a.22.22,0,0,1,.25.24v8.78a.22.22,0,0,1-.25.24h-.89c-.17,0-.25-.08-.25-.24v-7.28h-.06l-1.87,5.27a.31.31,0,0,1-.32.23h-.92a.3.3,0,0,1-.3-.23l-1.92-5.29h-.05v7.3a.24.24,0,0,1-.06.19.27.27,0,0,1-.19.05h-.88a.21.21,0,0,1-.24-.24v-8.78a.21.21,0,0,1,.24-.24h1.62a.25.25,0,0,1,.23.15l2,5.57h.07l2-5.57C321.17,177.12,321.24,177.07,321.37,177.07Z" fill="#fcb84d"/><path d="M327.66,177.31v8.78a.21.21,0,0,1-.24.24h-.91a.21.21,0,0,1-.24-.24v-8.78a.21.21,0,0,1,.24-.24h.91A.21.21,0,0,1,327.66,177.31Z" fill="#fcb84d"/><path d="M331.21,186.33h-1c-.13,0-.18-.08-.14-.24l2.5-8.78a.33.33,0,0,1,.35-.24h1.44a.32.32,0,0,1,.35.24l2.5,8.78q.06.24-.15.24h-1a.3.3,0,0,1-.18-.05.43.43,0,0,1-.08-.19l-.54-1.88H332l-.55,1.88C331.43,186.25,331.34,186.33,331.21,186.33Zm2.36-7.88-1.27,4.61h2.61l-1.28-4.61Z" fill="#fcb84d"/><path d="M28.77,6.53a4.37,4.37,0,0,0-3.2-1.13H22.34a4.3,4.3,0,0,0-3.18,1.13A4.33,4.33,0,0,0,18,9.72V33.56a4.31,4.31,0,0,0,1.13,3.17,4.27,4.27,0,0,0,3.18,1.14h3.23a4.33,4.33,0,0,0,3.2-1.14,4.27,4.27,0,0,0,1.14-3.17V9.72A4.29,4.29,0,0,0,28.77,6.53ZM27.19,33.45a1.81,1.81,0,0,1-2,2.06H22.73a1.8,1.8,0,0,1-2-2.06V9.83a1.8,1.8,0,0,1,2-2.06h2.42a1.81,1.81,0,0,1,2,2.06Z" stroke-linecap="round" stroke-linejoin="round" stroke-width="0.29" fill="url(#96c5bdcd-3e50-4c80-b0ea-4f1672b33d81)" stroke="url(#3bb9c0e2-7ddc-40c9-9cc8-b6c5585130cc)"/><path d="M43.38,6.53A4.33,4.33,0,0,0,40.2,5.4H33.58a.42.42,0,0,0-.47.48V37.4a.41.41,0,0,0,.47.47h1.76a.41.41,0,0,0,.47-.47V26c0-.19.11-.28.33-.28H40.2a4.3,4.3,0,0,0,3.18-1.14,4.29,4.29,0,0,0,1.14-3.17V9.72A4.29,4.29,0,0,0,43.38,6.53ZM41.79,21.22c0,1.37-.66,2.06-2,2.06h-3.7c-.2,0-.3-.1-.3-.28V8.05c0-.19.1-.28.3-.28h3.7c1.32,0,2,.69,2,2.06Z" stroke-linecap="round" stroke-linejoin="round" stroke-width="0.29" fill="url(#96c5bdcd-3e50-4c80-b0ea-4f1672b33d81)" stroke="url(#05a5840f-0e93-418a-8a25-e925ee77c62c)"/><path d="M50.28,7.77h6.34c.3,0,.44-.16.44-.47V5.88c0-.32-.14-.48-.44-.48h-8.9a.42.42,0,0,0-.48.48V37.4a.42.42,0,0,0,.48.47h8.9c.3,0,.44-.15.44-.47V36c0-.31-.14-.47-.44-.47H50.28c-.23,0-.34-.1-.34-.31V24.42c0-.19.11-.28.34-.28h5.37c.33,0,.5-.16.5-.47V22.25c0-.32-.17-.47-.5-.47H50.28c-.23,0-.34-.1-.34-.28V8.05C49.94,7.86,50.05,7.77,50.28,7.77Z" stroke-linecap="round" stroke-linejoin="round" stroke-width="0.29" fill="url(#96c5bdcd-3e50-4c80-b0ea-4f1672b33d81)" stroke="url(#86c5ae2e-7726-49b8-9506-83a81cb63ece)"/><path d="M72,37.52,68.72,22.06V22c1.76-.56,2.64-1.9,2.64-4V9.74a4.29,4.29,0,0,0-1.15-3.18A4.3,4.3,0,0,0,67,5.4H60.51a.48.48,0,0,0-.47.48V37.4a.47.47,0,0,0,.47.47h1.76a.47.47,0,0,0,.47-.47V22.53c0-.18.11-.28.33-.28h2.82L69.1,37.64a.29.29,0,0,0,.29.23h2.35A.29.29,0,0,0,72,37.52ZM68.64,18a1.81,1.81,0,0,1-2.06,2H63.05c-.21,0-.31-.09-.31-.28V8.05c0-.19.1-.28.31-.28h3.53a1.82,1.82,0,0,1,2.06,2.06Z" stroke-linecap="round" stroke-linejoin="round" stroke-width="0.29" fill="url(#96c5bdcd-3e50-4c80-b0ea-4f1672b33d81)" stroke="url(#e8292287-cf9f-4438-8930-a63ed2c1b16a)"/><path d="M98.58,11.55h1.75a.44.44,0,0,0,.5-.5V9.72a4.29,4.29,0,0,0-1.14-3.19A4.33,4.33,0,0,0,96.52,5.4H93.29A4.33,4.33,0,0,0,90.1,6.53,4.32,4.32,0,0,0,89,9.72V33.56a3.93,3.93,0,0,0,4.31,4.31h1.22L93.4,39.15a.86.86,0,0,0-.2.89.66.66,0,0,0,.67.48h.59a2.26,2.26,0,0,1,1.05.16.66.66,0,0,1,.28.62v.08a.55.55,0,0,1-.28.54,2.45,2.45,0,0,1-1.05.15h-.81a.43.43,0,0,0-.33.1.59.59,0,0,0-.09.38V43q0,.45.42.45h1.06c1.67,0,2.5-.62,2.5-1.86v-.45c0-1.28-.7-1.92-2.11-1.92V39.1l1.17-1.23h.25a4,4,0,0,0,4.31-4.31V32.23a.44.44,0,0,0-.5-.5H98.58c-.32,0-.48.16-.48.5v1.22a1.79,1.79,0,0,1-2,2.06H93.68a1.79,1.79,0,0,1-2-2.06V9.83a1.79,1.79,0,0,1,2-2.06H96.1a1.79,1.79,0,0,1,2,2.06v1.22C98.1,11.39,98.26,11.55,98.58,11.55Z" stroke-linecap="round" stroke-linejoin="round" stroke-width="0.29" fill="url(#96c5bdcd-3e50-4c80-b0ea-4f1672b33d81)" stroke="url(#b2f70ba3-6833-420c-a3bd-5b0921a9e67c)"/><path d="M110.65.15A1.84,1.84,0,0,0,109,1.2a6.35,6.35,0,0,1-.56.89.54.54,0,0,1-.43.2.42.42,0,0,1-.39-.25,2.54,2.54,0,0,1-.12-.95V.53a.25.25,0,0,0-.28-.27h-.84a.24.24,0,0,0-.27.27V1.62c0,1.43.63,2.14,1.89,2.14a1.64,1.64,0,0,0,1.53-.89l.22-.43.18-.29a2,2,0,0,1,.28-.39.54.54,0,0,1,.42-.14.4.4,0,0,1,.4.24,2.75,2.75,0,0,1,.11,1v.52c0,.23.09.34.28.34h.83c.17,0,.25-.11.25-.34v-1C112.51.86,111.89.15,110.65.15Z" stroke-linecap="round" stroke-linejoin="round" stroke-width="0.29" fill="url(#96c5bdcd-3e50-4c80-b0ea-4f1672b33d81)" stroke="url(#33aa4eac-ca3c-4dad-aafe-f017589b501f)"/><path d="M128.85,6.53a4.38,4.38,0,0,0-3.2-1.13h-3.23a4.33,4.33,0,0,0-3.19,1.13,4.32,4.32,0,0,0-1.12,3.19V33.56a3.93,3.93,0,0,0,4.31,4.31h3.23a4.35,4.35,0,0,0,3.2-1.14A4.27,4.27,0,0,0,130,33.56V9.72A4.29,4.29,0,0,0,128.85,6.53Zm-1.59,26.92a1.81,1.81,0,0,1-2,2.06h-2.42a1.79,1.79,0,0,1-2-2.06V9.83a1.79,1.79,0,0,1,2-2.06h2.42a1.81,1.81,0,0,1,2,2.06Z" stroke-linecap="round" stroke-linejoin="round" stroke-width="0.29" fill="url(#96c5bdcd-3e50-4c80-b0ea-4f1672b33d81)" stroke="url(#0e9a57a5-fbea-4a6d-8166-919a86d45ede)"/><path d="M85,6.47a4.38,4.38,0,0,0-3.2-1.13H78.53a4.33,4.33,0,0,0-3.19,1.13,4.3,4.3,0,0,0-1.12,3.18V37.57a.29.29,0,0,0,.3.3H76.7a.29.29,0,0,0,.3-.3V21.86h6.42V37.57a.3.3,0,0,0,.3.3H85.8a.3.3,0,0,0,.3-.3V9.65A4.27,4.27,0,0,0,85,6.47Zm-1.59,13H76.91V9.77a1.8,1.8,0,0,1,2-2.06h2.42a1.81,1.81,0,0,1,2,2.06Z" stroke-linecap="round" stroke-linejoin="round" stroke-width="0.29" fill="url(#96c5bdcd-3e50-4c80-b0ea-4f1672b33d81)" stroke="url(#54700774-bbf7-412d-ac99-c6355fce9bf6)"/><path d="M114.11,6.47a4.35,4.35,0,0,0-3.2-1.13h-3.23a4.3,4.3,0,0,0-3.18,1.13,4.3,4.3,0,0,0-1.12,3.18V37.57a.29.29,0,0,0,.3.3h2.18a.29.29,0,0,0,.3-.3V21.86h6.42V37.57a.29.29,0,0,0,.3.3H115a.29.29,0,0,0,.3-.3V9.65A4.27,4.27,0,0,0,114.11,6.47Zm-1.58,13h-6.46V9.77a1.8,1.8,0,0,1,2-2.06h2.42a1.81,1.81,0,0,1,2,2.06Z" stroke-linecap="round" stroke-linejoin="round" stroke-width="0.29" fill="url(#96c5bdcd-3e50-4c80-b0ea-4f1672b33d81)" stroke="url(#35e83d52-8309-4595-815d-1ed22dcbe0d3)"/><path d="M267.73,34.61h-2.88q-.54,0-.36-.63l4.74-18a.86.86,0,0,1,.9-.64h4a.82.82,0,0,1,.91.64l4.74,18q.18.63-.36.63h-2.88a.59.59,0,0,1-.45-.14,1,1,0,0,1-.18-.49l-.85-3.3H269.2l-.84,3.3a.91.91,0,0,1-.19.49A.61.61,0,0,1,267.73,34.61Zm4.35-15.67-2.16,8.67h4.44l-2.16-8.67Z" fill="#fff"/><path d="M288.38,30.68v3.57q0,.36-.3.36H287q-.33,0-.33-.36V30.68c0-.23.11-.34.33-.34h1.05C288.28,30.34,288.38,30.45,288.38,30.68Z" fill="#fcb84d"/><path d="M304.41,34.61h-3.18a5,5,0,0,1-3.66-1.26,4.86,4.86,0,0,1-1.29-3.64V20.2a4.85,4.85,0,0,1,1.29-3.63,5,5,0,0,1,3.66-1.27h3.18a5,5,0,0,1,3.64,1.28,4.87,4.87,0,0,1,1.29,3.62v.9q0,.66-.63.66h-2.55q-.63,0-.63-.66v-.72a2,2,0,0,0-.4-1.37,1.83,1.83,0,0,0-1.35-.4h-1.95a1.82,1.82,0,0,0-1.33.4,1.9,1.9,0,0,0-.41,1.37v9.15a1.88,1.88,0,0,0,.41,1.37,1.82,1.82,0,0,0,1.33.41h1.95a1.83,1.83,0,0,0,1.35-.41,1.93,1.93,0,0,0,.4-1.37V27.64c0-.22-.11-.33-.34-.33h-1.8a.56.56,0,0,1-.63-.63v-2a.56.56,0,0,1,.63-.63h5.26a.61.61,0,0,1,.69.69v5a4.85,4.85,0,0,1-1.29,3.62A5,5,0,0,1,304.41,34.61Z" fill="#fff"/><path d="M318.88,30.68v3.57q0,.36-.3.36h-1.05q-.33,0-.33-.36V30.68c0-.23.11-.34.33-.34h1.05C318.78,30.34,318.88,30.45,318.88,30.68Z" fill="#fcb84d"/><path d="M335.1,34.61h-3.37a5,5,0,0,1-3.66-1.26,4.86,4.86,0,0,1-1.29-3.64V20.2a4.85,4.85,0,0,1,1.29-3.63,5,5,0,0,1,3.66-1.27h3.37a5,5,0,0,1,3.66,1.27,4.85,4.85,0,0,1,1.29,3.63v9.51a4.86,4.86,0,0,1-1.29,3.64A5,5,0,0,1,335.1,34.61Zm-2.77-3.3h2.13a1.51,1.51,0,0,0,1.78-1.78V20.38a1.9,1.9,0,0,0-.41-1.37,1.89,1.89,0,0,0-1.37-.4h-2.13A1.83,1.83,0,0,0,331,19a2,2,0,0,0-.39,1.37v9.15A1.93,1.93,0,0,0,331,30.9,1.83,1.83,0,0,0,332.33,31.31Z" fill="#fff"/><path d="M349.59,30.68v3.57q0,.36-.3.36h-1.05q-.33,0-.33-.36V30.68c0-.23.11-.34.33-.34h1.05C349.49,30.34,349.59,30.45,349.59,30.68Z" fill="#fcb84d"/><path d="M357.31,29.68v-.6a.56.56,0,0,1,.63-.63h2.55a.56.56,0,0,1,.63.63v.24a2.12,2.12,0,0,0,.45,1.57,2.45,2.45,0,0,0,1.65.42h1.41a2.35,2.35,0,0,0,1.64-.45,2.37,2.37,0,0,0,.47-1.69v-.36a1.5,1.5,0,0,0-.71-1.33,3.74,3.74,0,0,0-1.76-.56,18.83,18.83,0,0,1-2.26-.34,14.71,14.71,0,0,1-2.27-.66A3.56,3.56,0,0,1,358,24.33a5.91,5.91,0,0,1-.7-3V20.23a4.84,4.84,0,0,1,1.32-3.63,5,5,0,0,1,3.66-1.3h3A5.06,5.06,0,0,1,369,16.6a4.84,4.84,0,0,1,1.32,3.63v.57a.56.56,0,0,1-.63.63H367.1a.56.56,0,0,1-.64-.63v-.18A2.21,2.21,0,0,0,366,19a2.49,2.49,0,0,0-1.66-.42h-1.17a2.26,2.26,0,0,0-1.66.46,2.75,2.75,0,0,0-.44,1.82v.57q0,1.41,2.46,1.62a15.3,15.3,0,0,1,4.54,1,3.84,3.84,0,0,1,1.75,1.61,5.58,5.58,0,0,1,.71,2.95v1a4.85,4.85,0,0,1-1.32,3.64,5,5,0,0,1-3.67,1.29h-3.27a5,5,0,0,1-3.66-1.29A4.85,4.85,0,0,1,357.31,29.68Z" fill="#fff"/><path d="M379.91,30.68v3.57q0,.36-.3.36h-1.05q-.33,0-.33-.36V30.68c0-.23.11-.34.33-.34h1.05C379.81,30.34,379.91,30.45,379.91,30.68Z" fill="#fcb84d"/><path d="M394.08,34.61h-2.52q-.66,0-.66-.63v-15a.29.29,0,0,0-.33-.33h-3.42a.56.56,0,0,1-.63-.63v-2a.56.56,0,0,1,.63-.64H398.5a.56.56,0,0,1,.63.64v2a.56.56,0,0,1-.63.63h-3.43q-.36,0-.36.33V34A.56.56,0,0,1,394.08,34.61Z" fill="#fff"/><path d="M407.35,30.68v3.57q0,.36-.3.36H406q-.33,0-.33-.36V30.68c0-.23.11-.34.33-.34h1.05C407.25,30.34,407.35,30.45,407.35,30.68Z" fill="#fcb84d"/><path d="M423.56,34.61H420.2a5,5,0,0,1-3.66-1.26,4.86,4.86,0,0,1-1.29-3.64V20.2a4.85,4.85,0,0,1,1.29-3.63,5,5,0,0,1,3.66-1.27h3.36a5,5,0,0,1,3.66,1.27,4.81,4.81,0,0,1,1.3,3.63v9.51a4.82,4.82,0,0,1-1.3,3.64A5,5,0,0,1,423.56,34.61Zm-2.76-3.3h2.13a1.9,1.9,0,0,0,1.37-.41,1.89,1.89,0,0,0,.4-1.37V20.38a1.9,1.9,0,0,0-.4-1.37,1.9,1.9,0,0,0-1.37-.4H420.8a1.83,1.83,0,0,0-1.35.4,2,2,0,0,0-.39,1.37v9.15a1.93,1.93,0,0,0,.39,1.37A1.83,1.83,0,0,0,420.8,31.31Z" fill="#fff"/><path d="M247.87,14.21H204.14a1.05,1.05,0,0,0-1.06,1.06v5.3a1,1,0,0,0,.15.53.94.94,0,0,0-.15.53v5.3a1,1,0,0,0,.15.53.94.94,0,0,0-.15.53v5.3a1.06,1.06,0,0,0,1.06,1.06h17.23A6.37,6.37,0,0,0,227.73,28H232a6.37,6.37,0,0,0,6.36-6.36h4.24a6.37,6.37,0,0,0,6.36-6.36A1.05,1.05,0,0,0,247.87,14.21Z" fill="url(#369d4d0f-78af-49e3-9ed9-61d38e3ad2d0)"/><path d="M144.69,14.21h43.73a1.05,1.05,0,0,1,1.06,1.06v5.3a1.08,1.08,0,0,1-.14.53,1,1,0,0,1,.14.53v5.3a1.08,1.08,0,0,1-.14.53,1,1,0,0,1,.14.53v5.3a1.06,1.06,0,0,1-1.06,1.06H171.19A6.38,6.38,0,0,1,164.83,28h-4.24a6.38,6.38,0,0,1-6.36-6.36H150a6.37,6.37,0,0,1-6.36-6.36A1.06,1.06,0,0,1,144.69,14.21Z" fill="url(#39866508-db7a-4663-b1f0-d980c2b66f0f)"/><path d="M207.85,15.27h40a0,0,0,0,1,0,0v0a5.3,5.3,0,0,1-5.3,5.3H207.85a0,0,0,0,1,0,0v-5.3A0,0,0,0,1,207.85,15.27Z" fill="url(#1823e353-0023-4ee5-a9d7-0d0981834330)"/><path d="M207.85,21.63h29.42a0,0,0,0,1,0,0v0a5.3,5.3,0,0,1-5.3,5.3H207.85a0,0,0,0,1,0,0v-5.3A0,0,0,0,1,207.85,21.63Z" fill="url(#b2588065-c7b9-4e13-8730-cc61812d267d)"/><path d="M207.85,28h18.82a0,0,0,0,1,0,0v0a5.3,5.3,0,0,1-5.3,5.3H207.85a0,0,0,0,1,0,0V28A0,0,0,0,1,207.85,28Z" fill="url(#d8e4e248-8c06-4ca2-bf46-fa906d4f0be1)"/><path d="M144.69,15.27h34.72a5.3,5.3,0,0,1,5.3,5.3v0a0,0,0,0,1,0,0h-40a0,0,0,0,1,0,0v-5.3a0,0,0,0,1,0,0Z" transform="translate(329.4 35.83) rotate(-180)" fill="url(#f2a6c130-d014-40b0-bf41-865ac65979c3)"/><path d="M155.29,21.63h24.12a5.3,5.3,0,0,1,5.3,5.3v0a0,0,0,0,1,0,0H155.29a0,0,0,0,1,0,0v-5.3A0,0,0,0,1,155.29,21.63Z" transform="translate(340.01 48.56) rotate(180)" fill="url(#0cb98ef5-d481-450e-8f95-16ec1c580a3f)"/><path d="M165.89,28h13.52a5.3,5.3,0,0,1,5.3,5.3v0a0,0,0,0,1,0,0H165.89a0,0,0,0,1,0,0V28A0,0,0,0,1,165.89,28Z" transform="translate(350.61 61.28) rotate(-180)" fill="url(#16f23aee-a7b7-43fb-95d3-95919c8bb711)"/><circle cx="196.44" cy="24.28" r="15.86" stroke-linecap="round" stroke-linejoin="round" stroke-width="0.63" fill="url(#55a41ea0-0fc6-4ed1-a7ea-11aebb31d316)" stroke="url(#9b5ef5f6-da15-4cd4-89c6-dbfcbed2331e)"/><polygon points="204.26 35.46 196.44 24.74 201.36 26.34 204.26 35.46" fill="url(#da7ae86c-fead-4c35-b06c-fd38649123fb)"/><polygon points="196.58 11.34 196.44 24.74 193.46 20.65 196.58 11.34" fill="url(#7964e397-2cc3-4496-b371-6290f19a908c)"/><polygon points="204.26 35.46 196.44 29.8 196.44 24.74 204.26 35.46" fill="url(#e45d3a66-47d2-45df-bed0-bf4f3e7f0c99)"/><polygon points="199.54 20.64 196.44 24.74 196.58 11.34 199.54 20.64" fill="url(#034bdae1-f5ee-4333-aef4-f696c9609abf)"/><polygon points="209.38 20.64 196.44 24.74 199.54 20.64 209.38 20.64" fill="url(#664df950-ea13-46cf-888d-ccabd54be651)"/><polygon points="209.38 20.64 201.36 26.34 196.44 24.74 209.38 20.64" fill="url(#023605f0-2dcd-47a5-9ea0-63abac84cf90)"/><polygon points="196.44 24.74 191.59 26.21 183.51 20.5 196.44 24.74" fill="url(#7b8117e9-dfbc-4d22-82d9-1b2299a0d16f)"/><polygon points="196.44 24.74 183.51 20.5 193.46 20.65 196.44 24.74" fill="url(#6023339e-eaf7-460e-997e-ec226ab9e006)"/><polygon points="196.44 24.74 188.49 35.46 191.59 26.21 196.44 24.74" fill="url(#c24e162b-6138-4397-b9f2-599a1974e625)"/><polygon points="196.44 24.74 196.44 29.8 188.49 35.46 196.44 24.74" fill="url(#eb0b917f-daef-4a3a-bc1c-d71a903f8714)"/><polygon points="209.38 20.64 199.54 20.64 196.58 11.34 193.46 20.65 183.51 20.5 191.59 26.21 188.49 35.46 196.44 29.8 204.26 35.46 201.36 26.34 209.38 20.64" fill="#fba719" opacity="0.5"/><rect x="43.23" y="321.58" width="21.48" height="21.48" transform="translate(-278.35 386.28) rotate(-90)" fill="#000015" stroke="#33c" stroke-linecap="round" stroke-linejoin="round" stroke-width="2.4"/><line x1="64.7" y1="332.32" x2="450.75" y2="332.32" fill="none" stroke="#33c" stroke-miterlimit="10" stroke-width="2.4"/><rect x="52.62" y="330.97" width="2.68" height="2.68" transform="translate(-278.35 386.28) rotate(-90)" fill="#33c"/><path d="M99.43,466.28H96.74a.64.64,0,0,1-.72-.72V439.61a.64.64,0,0,1,.72-.72h10a6.13,6.13,0,0,1,6.65,6.65v3.57q0,4.9-4,6.18v.17l4.73,10c.31.57.13.85-.55.85h-2.65a1.27,1.27,0,0,1-1.32-.72l-4.56-9.8h-4.3c-.34,0-.51.14-.51.43v9.37A.64.64,0,0,1,99.43,466.28Zm1.19-13.93H106c2.1,0,3.15-1,3.15-3.11v-3.58q0-3.15-3.15-3.15h-5.41c-.31,0-.47.14-.47.43v9C100.15,452.21,100.31,452.35,100.62,452.35Z" fill="#fcb84d"/><path d="M128.27,470.46h-2a.64.64,0,0,1-.72-.72v-3.46h-.73a6.38,6.38,0,0,1-4.77-1.76,6.63,6.63,0,0,1-1.75-4.88v-1a.68.68,0,0,1,.77-.77h2.68c.49,0,.73.26.73.77v.64a3.5,3.5,0,0,0,.81,2.58,3.72,3.72,0,0,0,2.64.78h2.22a3.46,3.46,0,0,0,2.59-.83,3.76,3.76,0,0,0,.81-2.7v-1.37a2.63,2.63,0,0,0-1.1-2.45,7.46,7.46,0,0,0-3.33-.78,23.52,23.52,0,0,1-4.39-.47,7.29,7.29,0,0,1-2.25-1.07q-2.17-1.49-2.18-5.49v-2a6.7,6.7,0,0,1,1.73-4.88,6.42,6.42,0,0,1,4.79-1.76h.73v-3.5a.64.64,0,0,1,.72-.72h2a.64.64,0,0,1,.72.72v3.5h.22a6,6,0,0,1,4.58,1.79,6.8,6.8,0,0,1,1.68,4.85v.94c0,.51-.24.77-.72.77h-2.69a.68.68,0,0,1-.76-.77v-.55a3.55,3.55,0,0,0-.79-2.58,3.6,3.6,0,0,0-2.62-.79h-2a3.49,3.49,0,0,0-2.64.83,4.11,4.11,0,0,0-.77,2.83v1.45a2.39,2.39,0,0,0,1.09,2.26,7.62,7.62,0,0,0,3.34.77l2.17.08a8.12,8.12,0,0,1,4.82,1.69q1.83,1.51,1.83,5.17v2.05a6.6,6.6,0,0,1-1.77,4.88,6.47,6.47,0,0,1-4.79,1.76H129v3.46A.64.64,0,0,1,128.27,470.46Z" fill="#fcb84d"/><path d="M183.49,422.83h-7.93a8.19,8.19,0,0,0-4,.89,5,5,0,0,0-2.11,1.92q-1.41,2.94-3.45,2.94h-8.06a1.92,1.92,0,0,1-2.17-2.17V386.27a1.92,1.92,0,0,1,2.17-2.17h43.33c1.54,0,2.3.72,2.3,2.17v7.29c0,1.45-.76,2.17-2.3,2.17h-33V419q2.16-6.25,10.73-6.26h7.54q9.21,0,14.06,4.79t4.86,14.13v14.82q0,9.33-5.24,14.57t-14.57,5.24H174.8q-9.47,0-14.64-5.24T155,446.47v-3.32c0-1.53.73-2.3,2.18-2.3h8.05c1.45,0,2.17.77,2.17,2.3v3.19q0,9.35,9.2,9.34h7.29q9.47,0,9.46-9.34v-12.9q0-5.76-2.24-8.19T183.49,422.83Z" fill="#fff"/><path d="M224.52,454.44v6.65a11.61,11.61,0,0,1-1.62,5.11l-4.52,8.27a1.27,1.27,0,0,1-1.28.76c-.79,0-1.19-.45-1.19-1.36V454.44c0-.91.48-1.36,1.45-1.36h5.79A1.21,1.21,0,0,1,224.52,454.44Z" fill="#fff"/><path d="M259.37,466.28h-17.3q-1.62,0-1.62-1.44v-4.43c0-.91.54-1.37,1.62-1.37h16.11q6.13,0,6.13-6.3v-6.91H251.19q-6.31,0-9.8-3.45t-3.5-9.67v-8q0-6.3,3.5-9.76t9.8-3.45h8.18q6.3,0,9.8,3.45t3.49,9.76v28.38q0,6.21-3.49,9.71T259.37,466.28Zm-6.9-27.77H264.4V425q0-6.3-6.22-6.3h-5.71q-6.14,0-6.14,6.3v7.24Q246.33,438.51,252.47,438.51Z" fill="#fff"/><path d="M309.56,466.28H301q-6.32,0-9.8-3.49t-3.5-9.71V424.7q0-6.3,3.5-9.76t9.8-3.45h8.52q6.21,0,9.71,3.45t3.5,9.76v28.38q0,6.21-3.5,9.71T309.56,466.28ZM302.32,459h6q6.15,0,6.14-6.3V425q0-6.3-6.14-6.3h-6q-6.13,0-6.14,6.3v27.7Q296.18,459,302.32,459Z" fill="#fff"/><path d="M215.62,498.38h-1.17c-.28,0-.38-.12-.28-.36.3-.77,1.06-2.82,2.28-6.17s2-5.42,2.31-6.22a.52.52,0,0,1,.47-.37h1.18q.39,0,.27.39L216.09,498A.47.47,0,0,1,215.62,498.38Z" fill="#fcb84d"/><path d="M229.57,498.38h-2.36a2.89,2.89,0,0,1-3.17-3.16v-6.79a2.89,2.89,0,0,1,3.17-3.17h2.36a3.17,3.17,0,0,1,2.33.83,3.13,3.13,0,0,1,.83,2.34v1a.32.32,0,0,1-.36.36h-1.29a.32.32,0,0,1-.35-.36v-.9c0-1-.48-1.51-1.46-1.51h-1.78a1.32,1.32,0,0,0-1.47,1.51v6.63a1.32,1.32,0,0,0,1.47,1.51h1.78c1,0,1.46-.5,1.46-1.51v-.9a.32.32,0,0,1,.35-.37h1.29a.33.33,0,0,1,.36.37v1a2.88,2.88,0,0,1-3.16,3.16Z" fill="#fcb84d"/><path d="M237.2,498.38h-1.47c-.19,0-.25-.11-.2-.34l3.55-12.43a.46.46,0,0,1,.49-.35h2a.44.44,0,0,1,.49.35L245.65,498c0,.23,0,.34-.22.34H244a.37.37,0,0,1-.26-.07.57.57,0,0,1-.11-.27l-.78-2.66h-4.48l-.78,2.66C237.52,498.27,237.39,498.38,237.2,498.38Zm3.35-11.16-1.8,6.53h3.7l-1.82-6.53Z" fill="#fcb84d"/><path d="M248.89,498V485.61a.31.31,0,0,1,.35-.35h5a3.23,3.23,0,0,1,2.34.83,3.13,3.13,0,0,1,.84,2.34v6.79a3.15,3.15,0,0,1-.84,2.33,3.23,3.23,0,0,1-2.34.83h-5A.31.31,0,0,1,248.89,498Zm2.21-1.39H254a1.31,1.31,0,0,0,1.46-1.51v-6.63A1.31,1.31,0,0,0,254,487H251.1c-.15,0-.23.07-.23.2v9.22A.21.21,0,0,0,251.1,496.65Z" fill="#fcb84d"/><path d="M262.16,498.38h-1.47c-.19,0-.26-.11-.21-.34L264,485.61a.47.47,0,0,1,.49-.35h2a.44.44,0,0,1,.49.35L270.6,498c.06.23,0,.34-.22.34h-1.45a.33.33,0,0,1-.25-.07.57.57,0,0,1-.12-.27l-.77-2.66H263.3l-.77,2.66C262.47,498.27,262.35,498.38,262.16,498.38Zm3.34-11.16-1.79,6.53h3.69l-1.81-6.53Z" fill="#fcb84d"/><path d="M273.6,495.2v-.53a.31.31,0,0,1,.35-.35h1.31a.31.31,0,0,1,.34.35V495a1.69,1.69,0,0,0,.38,1.23,1.74,1.74,0,0,0,1.26.38h1.4a1.7,1.7,0,0,0,1.27-.4,1.8,1.8,0,0,0,.39-1.3v-.46a1.25,1.25,0,0,0-.5-1,2.69,2.69,0,0,0-1.24-.48c-.49-.08-1-.18-1.61-.32a14.11,14.11,0,0,1-1.61-.47,2.58,2.58,0,0,1-1.24-1,3.31,3.31,0,0,1-.5-1.88v-.85a2.94,2.94,0,0,1,3.19-3.19H279a3.22,3.22,0,0,1,2.36.85,3.16,3.16,0,0,1,.84,2.34v.44c0,.24-.11.35-.34.35H280.5a.31.31,0,0,1-.35-.35v-.26a1.37,1.37,0,0,0-1.63-1.63h-1.28a1.66,1.66,0,0,0-1.26.4,1.93,1.93,0,0,0-.38,1.35v.63c0,.62.45,1,1.33,1.25a13.22,13.22,0,0,0,1.3.24,10.5,10.5,0,0,1,1.41.31,6.42,6.42,0,0,1,1.31.54,2.63,2.63,0,0,1,1,1,3.54,3.54,0,0,1,.37,1.66v.8a2.93,2.93,0,0,1-3.19,3.18h-2.28a3.2,3.2,0,0,1-2.35-.84A3.16,3.16,0,0,1,273.6,495.2Z" fill="#fcb84d"/><path d="M289.84,498.38h-1.28c-.25,0-.37-.11-.37-.34V487.2a.18.18,0,0,0-.2-.2h-2.57c-.25,0-.37-.12-.37-.35v-1c0-.23.12-.35.37-.35H293a.32.32,0,0,1,.36.35v1a.32.32,0,0,1-.36.35h-2.57c-.15,0-.23.07-.23.2V498C290.19,498.27,290.08,498.38,289.84,498.38Z" fill="#fcb84d"/><path d="M298,498.38h-1.29a.31.31,0,0,1-.35-.34V485.61a.31.31,0,0,1,.35-.35h4.77a3.17,3.17,0,0,1,2.34.85,3.13,3.13,0,0,1,.85,2.34v1.71a2.76,2.76,0,0,1-1.94,3v.08L305,498c.15.28.07.41-.26.41h-1.27a.61.61,0,0,1-.63-.34l-2.18-4.7h-2.06c-.17,0-.25.07-.25.21V498A.3.3,0,0,1,298,498.38Zm.57-6.67h2.59a1.33,1.33,0,0,0,1.51-1.49v-1.71a1.34,1.34,0,0,0-1.51-1.51h-2.59c-.15,0-.23.07-.23.2v4.31C298.31,491.64,298.39,491.71,298.54,491.71Z" fill="#fcb84d"/><path d="M313.94,498.38h-2.37a2.88,2.88,0,0,1-3.16-3.16v-6.79a2.89,2.89,0,0,1,3.16-3.17h2.37a3.21,3.21,0,0,1,2.35.83,3.13,3.13,0,0,1,.83,2.34v6.79a3.15,3.15,0,0,1-.83,2.33A3.21,3.21,0,0,1,313.94,498.38Zm-2.08-1.73h1.78a1.32,1.32,0,0,0,1.48-1.51v-6.63a1.32,1.32,0,0,0-1.48-1.51h-1.78a1.32,1.32,0,0,0-1.47,1.51v6.63A1.32,1.32,0,0,0,311.86,496.65Z" fill="#fcb84d"/><path d="M322.94,482.1v-.22c0-.22.11-.33.35-.33h.79a.29.29,0,0,1,.33.33v.22a5.61,5.61,0,0,1-.7,2.53s.07,0,.15-.14a4.16,4.16,0,0,1,.3-.31c.13-.12.27-.25.43-.38a3.73,3.73,0,0,1,1.29-.68l.24-.08a.3.3,0,0,1,.41.23l.25.75c.06.23,0,.38-.23.43a5.66,5.66,0,0,1-2.84.18,3.85,3.85,0,0,1,.6.29,4.61,4.61,0,0,1,1.65,1.51q.23.27-.06.45l-.66.47c-.2.11-.36.08-.46-.08a5.28,5.28,0,0,1-1.07-2.64,5.59,5.59,0,0,1-.85,2.51l-.15.21c-.12.16-.27.17-.47,0l-.63-.47a.27.27,0,0,1-.08-.47,5.74,5.74,0,0,1,2.18-1.82,5.28,5.28,0,0,1-2.63,0l-.24-.08a.29.29,0,0,1-.19-.43l.25-.77c.07-.22.21-.28.43-.19a5.17,5.17,0,0,1,2.38,1.49A6.08,6.08,0,0,1,322.94,482.1Z" fill="#fcb84d"/><path d="M157.26,531.17V531c0-.16.09-.24.26-.24h.58a.21.21,0,0,1,.24.24v.17a4.22,4.22,0,0,1-.51,1.86l.11-.11a2.28,2.28,0,0,1,.22-.23c.09-.09.2-.18.32-.28a2.73,2.73,0,0,1,.94-.49l.18-.06a.22.22,0,0,1,.3.16l.18.56c0,.17,0,.27-.16.31a4.27,4.27,0,0,1-2.09.14,2.42,2.42,0,0,1,.44.21,3.38,3.38,0,0,1,1.21,1.11c.11.13.1.24,0,.33L159,535a.24.24,0,0,1-.35-.06,3.87,3.87,0,0,1-.78-1.93,4.09,4.09,0,0,1-.63,1.84l-.1.15c-.09.12-.21.13-.35,0l-.46-.34a.2.2,0,0,1-.06-.35,4.15,4.15,0,0,1,1.6-1.33,3.93,3.93,0,0,1-1.93,0l-.18-.06a.21.21,0,0,1-.14-.31l.18-.57a.21.21,0,0,1,.32-.14,3.76,3.76,0,0,1,1.75,1.1A4.44,4.44,0,0,1,157.26,531.17Z" fill="#33c"/><path d="M166.74,540.41H165a2.12,2.12,0,0,1-2.32-2.33v-5a2.11,2.11,0,0,1,2.32-2.33h1.74a2.13,2.13,0,0,1,2.33,2.33v.72a.24.24,0,0,1-.27.27h-1c-.17,0-.25-.09-.25-.27v-.66a1,1,0,0,0-1.08-1.11h-1.31a1,1,0,0,0-1.08,1.11V538a1,1,0,0,0,1.08,1.11h1.31A1,1,0,0,0,167.6,538v-.66c0-.18.08-.27.25-.27h1a.24.24,0,0,1,.27.27v.72a2.15,2.15,0,0,1-2.33,2.33Z" fill="#33c"/><path d="M175.17,540.41h-1.32a2.12,2.12,0,0,1-2.32-2.33v-3a2.1,2.1,0,0,1,2.32-2.32h1.32a2.39,2.39,0,0,1,1.72.6,2.32,2.32,0,0,1,.62,1.72v3a2.31,2.31,0,0,1-.62,1.71A2.35,2.35,0,0,1,175.17,540.41Zm-1.11-1.28H175a1,1,0,0,0,1.08-1.09v-2.91A1,1,0,0,0,175,534h-.92a1.12,1.12,0,0,0-.82.26,1.19,1.19,0,0,0-.26.84V538a1.16,1.16,0,0,0,.26.83A1.12,1.12,0,0,0,174.06,539.13Z" fill="#33c"/><path d="M181.34,540.41h-1c-.17,0-.25-.09-.25-.26V533a.22.22,0,0,1,.25-.25h1a.22.22,0,0,1,.25.25v.54h.06a1.49,1.49,0,0,1,1.52-.79h.66a2.24,2.24,0,0,1,1.68.6,2.36,2.36,0,0,1,.58,1.72v5.07a.24.24,0,0,1-.27.26h-.94a.23.23,0,0,1-.26-.26v-5a1,1,0,0,0-1.09-1.11h-.71c-.82,0-1.23.43-1.23,1.28v4.84C181.59,540.32,181.51,540.41,181.34,540.41Z" fill="#33c"/><path d="M191.52,540.41h-2.76c-.17,0-.25-.09-.25-.26v-.73c0-.16.08-.24.25-.24h2.52c.65,0,1-.23,1-.68v-.18a1,1,0,0,0-.71-.91l-1.63-.78a3.06,3.06,0,0,1-1.11-.8,1.78,1.78,0,0,1-.35-1.14c0-1.29.72-1.93,2.15-1.93h2.49c.16,0,.24.08.24.25v.74c0,.17-.08.25-.24.25h-2.19a1.21,1.21,0,0,0-.69.16.47.47,0,0,0-.24.41v.17c0,.32.25.6.76.84l1.65.84a1.95,1.95,0,0,1,1.37,2C193.76,539.76,193,540.41,191.52,540.41Z" fill="#33c"/><path d="M199.05,540.41h-.67a2.2,2.2,0,0,1-1.66-.61,2.39,2.39,0,0,1-.58-1.72V533c0-.17.09-.25.26-.25h.94c.17,0,.26.08.26.25v5a1,1,0,0,0,1.08,1.11h.72a1.1,1.1,0,0,0,1.23-1.27V533a.22.22,0,0,1,.25-.25h1c.18,0,.27.08.27.25v7.14a.24.24,0,0,1-.27.26h-1c-.17,0-.25-.09-.25-.26v-.54h-.06A1.5,1.5,0,0,1,199.05,540.41Z" fill="#33c"/><path d="M206.15,540.41h-1c-.17,0-.25-.09-.25-.26v-10c0-.17.08-.26.25-.26h1c.17,0,.25.09.25.26v10C206.4,540.32,206.32,540.41,206.15,540.41Z" fill="#33c"/><path d="M209.49,534h-.72a.3.3,0,0,1-.2,0,.26.26,0,0,1,0-.19V533a.22.22,0,0,1,.25-.25h.72a.13.13,0,0,0,.15-.15v-1.35a.24.24,0,0,1,.27-.26h1c.17,0,.25.09.25.26v1.35c0,.1.06.15.17.15h1.39c.18,0,.27.08.27.25v.78q0,.24-.27.24h-1.39c-.11,0-.17.05-.17.15V538c0,.73.38,1.09,1.13,1.09h.58a.24.24,0,0,1,.27.26v.78q0,.24-.27.24H212a2.42,2.42,0,0,1-1.74-.6,2.24,2.24,0,0,1-.63-1.7v-3.93A.13.13,0,0,0,209.49,534Z" fill="#33c"/><path d="M220.85,540.41h-3.24a2.13,2.13,0,0,1-2.33-2.33v-3a2.11,2.11,0,0,1,2.33-2.32h1.23a2.35,2.35,0,0,1,1.72.6,2.32,2.32,0,0,1,.62,1.72V537a.24.24,0,0,1-.27.27h-4c-.11,0-.17,0-.17.15v.64a1,1,0,0,0,1.1,1.1h3a.24.24,0,0,1,.27.27v.75Q221.12,540.41,220.85,540.41Zm-4-4.17h2.68a.13.13,0,0,0,.15-.15v-1a1.19,1.19,0,0,0-.25-.84,1.15,1.15,0,0,0-.83-.26h-.82a1.15,1.15,0,0,0-.83.26,1.19,1.19,0,0,0-.25.84v1A.13.13,0,0,0,216.89,536.24Z" fill="#33c"/><path d="M232.26,540.41h-1.74a2.32,2.32,0,0,1-1.72-.62,2.35,2.35,0,0,1-.61-1.71v-5a2.34,2.34,0,0,1,.61-1.72,2.32,2.32,0,0,1,1.72-.61h1.74a2.13,2.13,0,0,1,2.33,2.33v.72a.24.24,0,0,1-.27.27h-.95c-.17,0-.25-.09-.25-.27v-.66A1,1,0,0,0,232,532h-1.31a1,1,0,0,0-1.08,1.11V538a1,1,0,0,0,1.08,1.11H232a1,1,0,0,0,1.08-1.11v-.66c0-.18.08-.27.25-.27h.95a.24.24,0,0,1,.27.27v.72a2.15,2.15,0,0,1-2.33,2.33Z" fill="#33c"/><path d="M240.69,540.41h-1.32a2.12,2.12,0,0,1-2.32-2.33v-3a2.1,2.1,0,0,1,2.32-2.32h1.32a2.39,2.39,0,0,1,1.72.6,2.32,2.32,0,0,1,.62,1.72v3a2.31,2.31,0,0,1-.62,1.71A2.35,2.35,0,0,1,240.69,540.41Zm-1.11-1.28h.92a1,1,0,0,0,1.08-1.09v-2.91a1,1,0,0,0-1.08-1.1h-.92a1.12,1.12,0,0,0-.82.26,1.19,1.19,0,0,0-.26.84V538a1.16,1.16,0,0,0,.26.83A1.12,1.12,0,0,0,239.58,539.13Z" fill="#33c"/><path d="M246.86,540.41h-1c-.17,0-.25-.09-.25-.26V533a.22.22,0,0,1,.25-.25h1a.22.22,0,0,1,.25.25v.54h.06a1.49,1.49,0,0,1,1.52-.79h.66a2.24,2.24,0,0,1,1.68.6,2.36,2.36,0,0,1,.58,1.72v5.07a.24.24,0,0,1-.27.26h-.94a.23.23,0,0,1-.26-.26v-5a1,1,0,0,0-1.09-1.11h-.71c-.82,0-1.23.43-1.23,1.28v4.84C247.11,540.32,247,540.41,246.86,540.41Z" fill="#33c"/><path d="M257.16,540.41h-.76a2.2,2.2,0,0,1-1.66-.61,2.39,2.39,0,0,1-.58-1.72v-3a2.36,2.36,0,0,1,.58-1.72,2.19,2.19,0,0,1,1.66-.6h.76a1.45,1.45,0,0,1,1.5.79h.06v-3.43a.23.23,0,0,1,.26-.26h1c.17,0,.25.09.25.26v10c0,.17-.08.26-.25.26h-1a.23.23,0,0,1-.26-.26v-.54h-.06A1.46,1.46,0,0,1,257.16,540.41Zm1.56-2.55v-2.55c0-.85-.41-1.28-1.23-1.28h-.8a1,1,0,0,0-1.08,1.11V538a1,1,0,0,0,1.08,1.11h.8A1.1,1.1,0,0,0,258.72,537.86Z" fill="#33c"/><path d="M263.06,531.48v-1.36a.21.21,0,0,1,.23-.24h1a.21.21,0,0,1,.24.24v1.36c0,.17-.08.26-.24.26h-1C263.14,531.74,263.06,531.65,263.06,531.48Zm0,8.67V533c0-.17.08-.25.23-.25h1a.22.22,0,0,1,.25.25v7.14a.3.3,0,0,1-.05.2.25.25,0,0,1-.19.06h-1C263.14,540.41,263.06,540.32,263.06,540.15Z" fill="#33c"/><path d="M271.76,534h-2a1,1,0,0,0-1.08,1.11V538a1,1,0,0,0,1.08,1.11h2a.24.24,0,0,1,.27.26v.78q0,.24-.27.24h-.95l-.55.57V541q1.14,0,1.14,1.05v.22c0,.66-.46,1-1.35,1h-.56c-.1,0-.16,0-.19,0a.26.26,0,0,1-.05-.18v-.26c0-.15.08-.22.24-.22h.42a1.23,1.23,0,0,0,.57-.09.35.35,0,0,0,.15-.32v0a.34.34,0,0,0-.14-.32,1.28,1.28,0,0,0-.58-.08h-.31a.35.35,0,0,1-.36-.27.44.44,0,0,1,.1-.47l.52-.61h-.31a2.12,2.12,0,0,1-2.32-2.33v-3a2.1,2.1,0,0,1,2.32-2.32h2.21c.18,0,.27.08.27.25v.78Q272,534,271.76,534Z" fill="#33c"/><path d="M277.85,540.41h-1.32a2.13,2.13,0,0,1-2.33-2.33v-3a2.11,2.11,0,0,1,2.33-2.32h1.32a2.36,2.36,0,0,1,1.71.6,2.29,2.29,0,0,1,.63,1.72v3a2.28,2.28,0,0,1-.63,1.71A2.33,2.33,0,0,1,277.85,540.41Zm-2.48-9.78v-.57c0-.11.05-.17.15-.17H276c.1,0,.15.06.15.17v.28a1.47,1.47,0,0,0,.06.52.22.22,0,0,0,.21.13.3.3,0,0,0,.24-.11,3,3,0,0,0,.29-.46,1.4,1.4,0,0,1,.4-.47.93.93,0,0,1,.5-.12c.66,0,1,.39,1,1.16v.57c0,.12,0,.18-.13.18h-.46c-.1,0-.14-.06-.14-.18v-.27a1.71,1.71,0,0,0-.06-.52.23.23,0,0,0-.22-.13.33.33,0,0,0-.24.08l-.27.42a1.1,1.1,0,0,1-.4.51,1,1,0,0,1-.53.13C275.7,531.78,275.37,531.4,275.37,530.63Zm1.36,8.5h.92a1,1,0,0,0,1.08-1.09v-2.91a1,1,0,0,0-1.08-1.1h-.92a1.14,1.14,0,0,0-.82.26,1.19,1.19,0,0,0-.26.84V538a1.16,1.16,0,0,0,.26.83A1.14,1.14,0,0,0,276.73,539.13Z" fill="#33c"/><path d="M288.22,540.41H285a2.28,2.28,0,0,1-1.71-.62,2.31,2.31,0,0,1-.61-1.71v-3a2.11,2.11,0,0,1,2.32-2.32h1.23a2.38,2.38,0,0,1,1.73.6,2.32,2.32,0,0,1,.61,1.72V537a.24.24,0,0,1-.27.27h-4c-.12,0-.17,0-.17.15v.64a1,1,0,0,0,1.09,1.1h3a.24.24,0,0,1,.27.27v.75Q288.49,540.41,288.22,540.41Zm-4-4.17H287a.13.13,0,0,0,.15-.15v-1a1.19,1.19,0,0,0-.25-.84A1.15,1.15,0,0,0,286,534h-.83a1.12,1.12,0,0,0-.82.26,1.19,1.19,0,0,0-.26.84v1C284.11,536.19,284.16,536.24,284.27,536.24Z" fill="#33c"/><path d="M293.84,540.41h-2.76a.23.23,0,0,1-.26-.26v-.73c0-.16.08-.24.26-.24h2.52c.65,0,1-.23,1-.68v-.18a1,1,0,0,0-.71-.91l-1.63-.78a3.06,3.06,0,0,1-1.11-.8,1.78,1.78,0,0,1-.34-1.14c0-1.29.71-1.93,2.14-1.93h2.49c.16,0,.24.08.24.25v.74c0,.17-.08.25-.24.25h-2.19a1.21,1.21,0,0,0-.69.16.47.47,0,0,0-.24.41v.17c0,.32.25.6.77.84l1.64.84a2.34,2.34,0,0,1,1.08.81,2.38,2.38,0,0,1,.29,1.23C296.07,539.76,295.33,540.41,293.84,540.41Z" fill="#33c"/></svg>