<svg id="5b9de18f-9fee-417d-9c0d-6881fa45fe78" data-name="Layer 1" xmlns="http://www.w3.org/2000/svg" xmlns:xlink="http://www.w3.org/1999/xlink" viewBox="0 0 168 94"><defs><radialGradient id="7f76ecae-963c-4d78-ae8a-30386fa98c4b" cx="135.7" cy="-36.94" r="111.9" gradientTransform="translate(-34.5 38.16) scale(0.85)" gradientUnits="userSpaceOnUse"><stop offset="0" stop-color="#fce9ca"/><stop offset="0.1" stop-color="#fcd596"/><stop offset="0.19" stop-color="#fcc56e"/><stop offset="0.26" stop-color="#fcbc56"/><stop offset="0.3" stop-color="#fcb84d"/><stop offset="0.41" stop-color="#fcb442" stop-opacity="0.79"/><stop offset="0.57" stop-color="#fcb033" stop-opacity="0.51"/><stop offset="0.72" stop-color="#fbac28" stop-opacity="0.29"/><stop offset="0.84" stop-color="#fba920" stop-opacity="0.13"/><stop offset="0.94" stop-color="#fba81b" stop-opacity="0.04"/><stop offset="1" stop-color="#fba719" stop-opacity="0"/></radialGradient><linearGradient id="6d7d3585-005f-41c6-8e82-d84ea0e0b351" x1="12.68" y1="56.15" x2="12.68" y2="9.44" gradientUnits="userSpaceOnUse"><stop offset="0" stop-color="#b3b3b3" stop-opacity="0"/><stop offset="0.09" stop-color="#b6b5b3" stop-opacity="0.04"/><stop offset="0.23" stop-color="#bdb9b3" stop-opacity="0.13"/><stop offset="0.4" stop-color="#c8c0b2" stop-opacity="0.29"/><stop offset="0.61" stop-color="#d8c9b1" stop-opacity="0.51"/><stop offset="0.84" stop-color="#ecd6b1" stop-opacity="0.79"/><stop offset="1" stop-color="#fcdfb0"/></linearGradient><linearGradient id="33413b03-7bb3-490c-8551-e39ddac28389" x1="33.85" y1="56.15" x2="33.85" y2="9.44" xlink:href="#6d7d3585-005f-41c6-8e82-d84ea0e0b351"/><linearGradient id="c2b54d32-abff-44f7-b2f8-8b63ea2545c3" x1="52.87" y1="56.15" x2="52.87" y2="9.44" xlink:href="#6d7d3585-005f-41c6-8e82-d84ea0e0b351"/><linearGradient id="e487856d-2179-4a8e-b4d7-585e963720f8" x1="72.67" y1="56.15" x2="72.67" y2="9.44" xlink:href="#6d7d3585-005f-41c6-8e82-d84ea0e0b351"/><linearGradient id="4eb97c73-7514-4f50-a7bb-e66aea461383" x1="113.83" y1="64.09" x2="113.83" y2="9.44" xlink:href="#6d7d3585-005f-41c6-8e82-d84ea0e0b351"/><linearGradient id="6b85d572-694c-49d7-826e-5118b8ba90a6" x1="134.38" y1="7.51" x2="134.38" y2="1.94" xlink:href="#6d7d3585-005f-41c6-8e82-d84ea0e0b351"/><linearGradient id="83f48b7f-94d1-4073-8a68-a64511996d76" x1="155.39" y1="56.15" x2="155.39" y2="9.44" xlink:href="#6d7d3585-005f-41c6-8e82-d84ea0e0b351"/><linearGradient id="d2073516-5208-411b-84d2-fbd453672314" x1="92.8" y1="56.15" x2="92.8" y2="9.35" xlink:href="#6d7d3585-005f-41c6-8e82-d84ea0e0b351"/><linearGradient id="22a87c30-ff8d-4235-b72b-a97e025d03f1" x1="134.38" y1="56.15" x2="134.38" y2="9.35" xlink:href="#6d7d3585-005f-41c6-8e82-d84ea0e0b351"/><radialGradient id="d1f9f659-c8a4-4984-8a49-39ae335a2252" cx="138.97" cy="23.06" r="73.1" gradientTransform="translate(-34.5 38.16) scale(0.85)" gradientUnits="userSpaceOnUse"><stop offset="0" stop-color="#696780"/><stop offset="1" stop-color="#2a2933"/></radialGradient><radialGradient id="c4a98fab-5280-41d3-b066-d7f41b0255c0" cx="140.56" cy="23.06" r="67.03" xlink:href="#d1f9f659-c8a4-4984-8a49-39ae335a2252"/><linearGradient id="76ce82d4-2d4a-4252-bb56-9f8c921d25c7" x1="92.88" y1="55.22" x2="163.12" y2="55.22" gradientUnits="userSpaceOnUse"><stop offset="0" stop-color="#e7e4ff"/><stop offset="0.14" stop-color="#b7b5cd"/><stop offset="0.31" stop-color="#848296"/><stop offset="0.46" stop-color="#5e5d6e"/><stop offset="0.58" stop-color="#474656"/><stop offset="0.65" stop-color="#3f3e4d"/><stop offset="0.71" stop-color="#444352"/><stop offset="0.78" stop-color="#525160"/><stop offset="0.86" stop-color="#696878"/><stop offset="0.95" stop-color="#89889a"/><stop offset="1" stop-color="#a2a0b3"/></linearGradient><linearGradient id="cb9ab89e-e45b-4e5b-87a9-85a76c701562" x1="92.88" y1="60.14" x2="154.92" y2="60.14" xlink:href="#76ce82d4-2d4a-4252-bb56-9f8c921d25c7"/><linearGradient id="4219ea13-fc90-4787-a9bb-bc2da1c4da5a" x1="92.88" y1="65.06" x2="146.72" y2="65.06" xlink:href="#76ce82d4-2d4a-4252-bb56-9f8c921d25c7"/><linearGradient id="22de8f38-0f25-4b80-ae69-4a4b727a3dfd" x1="-4995.36" y1="55.22" x2="-4925.13" y2="55.22" gradientTransform="matrix(1, 0, 0, -1, 5000.12, 110.45)" xlink:href="#76ce82d4-2d4a-4252-bb56-9f8c921d25c7"/><linearGradient id="954f3a68-dc3d-45c6-96cc-6dcb4f53d1e8" x1="-4995.36" y1="60.14" x2="-4933.33" y2="60.14" gradientTransform="matrix(1, 0, 0, -1, 5008.32, 120.29)" xlink:href="#76ce82d4-2d4a-4252-bb56-9f8c921d25c7"/><linearGradient id="fad9bfef-3bc4-4fe4-958c-2ed80d204bd2" x1="-4995.36" y1="65.06" x2="-4941.52" y2="65.06" gradientTransform="matrix(1, 0, 0, -1, 5016.51, 130.12)" xlink:href="#76ce82d4-2d4a-4252-bb56-9f8c921d25c7"/><linearGradient id="5843e4f0-7e86-4041-b717-05ee8bf071fc" x1="76.55" y1="69.13" x2="91.75" y2="50.94" gradientUnits="userSpaceOnUse"><stop offset="0" stop-color="#a2a0b3"/><stop offset="0.05" stop-color="#89889a"/><stop offset="0.14" stop-color="#696878"/><stop offset="0.22" stop-color="#525160"/><stop offset="0.29" stop-color="#444352"/><stop offset="0.35" stop-color="#3f3e4d"/><stop offset="0.42" stop-color="#474656"/><stop offset="0.54" stop-color="#5e5d6e"/><stop offset="0.69" stop-color="#848296"/><stop offset="0.86" stop-color="#b7b5cd"/><stop offset="1" stop-color="#e7e4ff"/></linearGradient><linearGradient id="b5683116-f8e9-4d29-8937-dd98311b1af0" x1="84.06" y1="72.65" x2="84.06" y2="47.63" gradientUnits="userSpaceOnUse"><stop offset="0" stop-color="#5c5c66"/><stop offset="0.14" stop-color="#64646f"/><stop offset="0.37" stop-color="#7a7a87"/><stop offset="0.66" stop-color="#9e9eaf"/><stop offset="1" stop-color="#d0cfe6"/><stop offset="1" stop-color="#d0cfe6"/></linearGradient><linearGradient id="59768b6b-761e-4906-af61-9115d03c67ba" x1="84.06" y1="64.65" x2="90.11" y2="64.65" gradientUnits="userSpaceOnUse"><stop offset="0" stop-color="#686680"/><stop offset="0.16" stop-color="#77758e"/><stop offset="0.46" stop-color="#9f9eb3"/><stop offset="0.88" stop-color="#dfdfed"/><stop offset="1" stop-color="#f2f2ff"/></linearGradient><linearGradient id="50a21601-118f-4ec2-9362-59f4614ebaa7" x1="82.96" y1="60.5" x2="82.96" y2="50.14" gradientUnits="userSpaceOnUse"><stop offset="0" stop-color="#535266"/><stop offset="1" stop-color="#9390b3"/></linearGradient><linearGradient id="ad299342-d646-45bd-ad52-59b37ae61c31" x1="87.08" y1="68.79" x2="87.08" y2="60.5" gradientUnits="userSpaceOnUse"><stop offset="0" stop-color="#9390b3"/><stop offset="1" stop-color="#3e3e4d"/></linearGradient><linearGradient id="57ec7b71-847c-406e-af19-4f3ce53ff6b4" x1="85.26" y1="60.5" x2="85.26" y2="50.14" gradientUnits="userSpaceOnUse"><stop offset="0" stop-color="#686680"/><stop offset="0.15" stop-color="#77758d"/><stop offset="0.43" stop-color="#9f9eae"/><stop offset="0.82" stop-color="#dfdfe4"/><stop offset="1" stop-color="#fff"/></linearGradient><linearGradient id="5af2c6fb-ede8-4737-b320-2927708eaea7" x1="84.06" y1="58.91" x2="94.07" y2="58.91" gradientUnits="userSpaceOnUse"><stop offset="0" stop-color="#f2f2ff"/><stop offset="0.12" stop-color="#dfdfed"/><stop offset="0.54" stop-color="#9f9eb3"/><stop offset="0.84" stop-color="#77758e"/><stop offset="1" stop-color="#686680"/></linearGradient><radialGradient id="a855e8c3-313b-4760-93bd-52ada84363b0" cx="141.66" cy="26.33" r="5.94" gradientTransform="translate(-34.5 38.16) scale(0.85)" xlink:href="#50a21601-118f-4ec2-9362-59f4614ebaa7"/><linearGradient id="5d175f37-e08b-4440-9aaf-045e79879b3c" x1="74.06" y1="59.43" x2="84.06" y2="59.43" xlink:href="#ad299342-d646-45bd-ad52-59b37ae61c31"/><linearGradient id="aeb561db-fb07-4207-b52f-08708db4881a" x1="74.06" y1="58.86" x2="84.06" y2="58.86" xlink:href="#59768b6b-761e-4906-af61-9115d03c67ba"/><linearGradient id="c57f3dda-34d8-450a-8a5b-664384c16a0a" x1="77.91" y1="64.65" x2="84.06" y2="64.65" xlink:href="#5af2c6fb-ede8-4737-b320-2927708eaea7"/><linearGradient id="26a5c02a-231c-4108-a1cc-fd059ecc8a3a" x1="77.91" y1="64.65" x2="84.06" y2="64.65" xlink:href="#ad299342-d646-45bd-ad52-59b37ae61c31"/></defs><title>operacao-agosto</title><path d="M19.53,11.25A6.24,6.24,0,0,0,15,9.64h-4.6a6.15,6.15,0,0,0-4.54,1.61,6.15,6.15,0,0,0-1.6,4.54v34a6.15,6.15,0,0,0,1.6,4.52,6.12,6.12,0,0,0,4.54,1.62H15a6.21,6.21,0,0,0,4.57-1.62,6.12,6.12,0,0,0,1.62-4.52v-34A6.12,6.12,0,0,0,19.53,11.25ZM17.27,49.64c0,2-1,2.93-2.9,2.93H10.92c-1.91,0-2.86-1-2.86-2.93V16C8.06,14,9,13,10.92,13h3.45c1.93,0,2.9,1,2.9,2.93Z" stroke-linecap="round" stroke-linejoin="round" stroke-width="0.42" fill="url(#7f76ecae-963c-4d78-ae8a-30386fa98c4b)" stroke="url(#6d7d3585-005f-41c6-8e82-d84ea0e0b351)"/><path d="M40.36,11.25a6.19,6.19,0,0,0-4.53-1.61H26.39a.6.6,0,0,0-.67.68v45a.59.59,0,0,0,.67.67h2.5a.59.59,0,0,0,.67-.67V38.94c0-.26.16-.4.48-.4h5.79a6.16,6.16,0,0,0,4.53-1.62A6.12,6.12,0,0,0,42,32.4V15.79A6.12,6.12,0,0,0,40.36,11.25Zm-2.27,21c0,2-.94,2.93-2.81,2.93H30c-.29,0-.44-.13-.44-.39V13.42c0-.27.15-.4.44-.4h5.28c1.87,0,2.81,1,2.81,2.93Z" stroke-linecap="round" stroke-linejoin="round" stroke-width="0.42" fill="url(#7f76ecae-963c-4d78-ae8a-30386fa98c4b)" stroke="url(#33413b03-7bb3-490c-8551-e39ddac28389)"/><path d="M50.19,13h9.05c.42,0,.63-.23.63-.68v-2c0-.45-.21-.68-.63-.68H46.54a.6.6,0,0,0-.67.68v45a.59.59,0,0,0,.67.67h12.7c.42,0,.63-.22.63-.67v-2c0-.45-.21-.68-.63-.68H50.19c-.31,0-.47-.14-.47-.43V36.76c0-.26.16-.4.47-.4h7.66c.48,0,.71-.22.71-.67v-2c0-.45-.23-.68-.71-.68H50.19c-.31,0-.47-.13-.47-.4V13.42C49.72,13.15,49.88,13,50.19,13Z" stroke-linecap="round" stroke-linejoin="round" stroke-width="0.42" fill="url(#7f76ecae-963c-4d78-ae8a-30386fa98c4b)" stroke="url(#c2b54d32-abff-44f7-b2f8-8b63ea2545c3)"/><path d="M81.21,55.44l-4.71-22v-.15c2.51-.8,3.76-2.71,3.76-5.76V15.84a6.13,6.13,0,0,0-1.64-4.55,6.13,6.13,0,0,0-4.54-1.65H64.79a.68.68,0,0,0-.67.68v45a.67.67,0,0,0,.67.67h2.5a.67.67,0,0,0,.68-.67V34.07c0-.26.16-.4.47-.4h4L77,55.62a.41.41,0,0,0,.41.32H80.8A.41.41,0,0,0,81.21,55.44ZM76.38,27.6c0,1.93-1,2.9-2.94,2.9h-5c-.3,0-.44-.13-.44-.4V13.42c0-.27.14-.4.44-.4h5A2.6,2.6,0,0,1,76.38,16Z" stroke-linecap="round" stroke-linejoin="round" stroke-width="0.42" fill="url(#7f76ecae-963c-4d78-ae8a-30386fa98c4b)" stroke="url(#e487856d-2179-4a8e-b4d7-585e963720f8)"/><path d="M119.07,18.41h2.5a.63.63,0,0,0,.71-.71V15.79a6.08,6.08,0,0,0-1.63-4.54,6.15,6.15,0,0,0-4.52-1.61h-4.6A6.14,6.14,0,0,0,107,11.25a6.11,6.11,0,0,0-1.61,4.54v34a5.61,5.61,0,0,0,6.15,6.14h1.74l-1.58,1.83a1.2,1.2,0,0,0-.28,1.27.93.93,0,0,0,1,.67h.84a3.18,3.18,0,0,1,1.5.24.93.93,0,0,1,.4.88V61a.8.8,0,0,1-.4.77,3.54,3.54,0,0,1-1.5.22H112a.59.59,0,0,0-.47.14.84.84,0,0,0-.12.53v.64c0,.42.2.63.59.63h1.51c2.38,0,3.57-.88,3.57-2.66v-.63c0-1.83-1-2.74-3-2.74v-.16l1.66-1.75h.36a5.64,5.64,0,0,0,6.15-6.14V47.89a.63.63,0,0,0-.71-.71h-2.5a.62.62,0,0,0-.68.71v1.75c0,2-1,2.93-2.85,2.93h-3.45c-1.91,0-2.86-1-2.86-2.93V16c0-1.95,1-2.93,2.86-2.93h3.45c1.9,0,2.85,1,2.85,2.93V17.7C118.39,18.18,118.62,18.41,119.07,18.41Z" stroke-linecap="round" stroke-linejoin="round" stroke-width="0.42" fill="url(#7f76ecae-963c-4d78-ae8a-30386fa98c4b)" stroke="url(#4eb97c73-7514-4f50-a7bb-e66aea461383)"/><path d="M136.28,2.15a2.63,2.63,0,0,0-2.34,1.51,10,10,0,0,1-.79,1.27.78.78,0,0,1-.62.27.59.59,0,0,1-.55-.35,3.41,3.41,0,0,1-.18-1.35V2.7a.35.35,0,0,0-.4-.39h-1.19a.34.34,0,0,0-.39.39V4.25c0,2,.9,3.05,2.69,3.05A2.36,2.36,0,0,0,134.7,6c.18-.37.29-.58.32-.62l.25-.42a4.42,4.42,0,0,1,.4-.55.78.78,0,0,1,.59-.2.58.58,0,0,1,.58.34A3.67,3.67,0,0,1,137,6v.75q0,.48.39.48h1.19c.25,0,.36-.16.36-.48V5.2C138.94,3.17,138.06,2.15,136.28,2.15Z" stroke-linecap="round" stroke-linejoin="round" stroke-width="0.42" fill="url(#7f76ecae-963c-4d78-ae8a-30386fa98c4b)" stroke="url(#6b85d572-694c-49d7-826e-5118b8ba90a6)"/><path d="M162.23,11.25a6.22,6.22,0,0,0-4.56-1.61h-4.6a6.16,6.16,0,0,0-4.55,1.61,6.15,6.15,0,0,0-1.6,4.54v34a5.6,5.6,0,0,0,6.15,6.14h4.6a6.18,6.18,0,0,0,4.56-1.62,6.08,6.08,0,0,0,1.63-4.52v-34A6.08,6.08,0,0,0,162.23,11.25ZM160,49.64c0,2-1,2.93-2.9,2.93h-3.45c-1.9,0-2.85-1-2.85-2.93V16c0-1.95.95-2.93,2.85-2.93h3.45C159,13,160,14,160,16Z" stroke-linecap="round" stroke-linejoin="round" stroke-width="0.42" fill="url(#7f76ecae-963c-4d78-ae8a-30386fa98c4b)" stroke="url(#83f48b7f-94d1-4073-8a68-a64511996d76)"/><path d="M99.64,11.17a6.16,6.16,0,0,0-4.56-1.61h-4.6a6.1,6.1,0,0,0-4.54,1.61,6.14,6.14,0,0,0-1.61,4.54V55.52a.43.43,0,0,0,.43.42h3.12a.43.43,0,0,0,.43-.42V33.11h9.14V55.52a.43.43,0,0,0,.44.42h3a.42.42,0,0,0,.43-.42V15.71A6.07,6.07,0,0,0,99.64,11.17ZM97.38,29.74h-9.2V15.87q0-2.94,2.85-2.94h3.45c1.94,0,2.9,1,2.9,2.94Z" stroke-linecap="round" stroke-linejoin="round" stroke-width="0.42" fill="url(#7f76ecae-963c-4d78-ae8a-30386fa98c4b)" stroke="url(#d2073516-5208-411b-84d2-fbd453672314)"/><path d="M141.22,11.17a6.16,6.16,0,0,0-4.56-1.61h-4.6a6.1,6.1,0,0,0-4.54,1.61,6.1,6.1,0,0,0-1.61,4.54V55.52a.42.42,0,0,0,.43.42h3.11a.43.43,0,0,0,.44-.42V33.11H139V55.52a.42.42,0,0,0,.43.42h3a.43.43,0,0,0,.43-.42V15.71A6.07,6.07,0,0,0,141.22,11.17ZM139,29.74h-9.2V15.87q0-2.94,2.85-2.94h3.45c1.94,0,2.9,1,2.9,2.94Z" stroke-linecap="round" stroke-linejoin="round" stroke-width="0.42" fill="url(#7f76ecae-963c-4d78-ae8a-30386fa98c4b)" stroke="url(#22a87c30-ff8d-4235-b72b-a97e025d03f1)"/><path d="M17.21,92.06H14.8c-.3,0-.41-.18-.3-.53l4-15.08a.73.73,0,0,1,.75-.53h3.34a.69.69,0,0,1,.76.53l4,15.08c.1.35,0,.53-.3.53H24.56a.54.54,0,0,1-.38-.11,1.1,1.1,0,0,1-.15-.42l-.7-2.76H18.44l-.71,2.76a.75.75,0,0,1-.16.42A.53.53,0,0,1,17.21,92.06ZM20.85,79,19,86.21h3.71L21,79Z" fill="#fff"/><path d="M34.48,88.77v3c0,.2-.09.3-.26.3h-.87c-.19,0-.28-.1-.28-.3v-3c0-.18.09-.27.28-.27h.87A.24.24,0,0,1,34.48,88.77Z" fill="#fcb84d"/><path d="M47.88,92.06H45.22a4.21,4.21,0,0,1-3.06-1,4.07,4.07,0,0,1-1.08-3V80a4.07,4.07,0,0,1,1.08-3,4.21,4.21,0,0,1,3.06-1h2.66a4.1,4.1,0,0,1,3,1.07A4.06,4.06,0,0,1,52,80v.75c0,.37-.18.56-.53.56H49.34c-.36,0-.53-.19-.53-.56v-.6A1.62,1.62,0,0,0,48.48,79a1.51,1.51,0,0,0-1.13-.34H45.72A1.53,1.53,0,0,0,44.6,79a1.62,1.62,0,0,0-.33,1.14v7.66A1.62,1.62,0,0,0,44.6,89a1.53,1.53,0,0,0,1.12.34h1.63A1.51,1.51,0,0,0,48.48,89a1.62,1.62,0,0,0,.33-1.14V86.24a.24.24,0,0,0-.28-.28H47a.47.47,0,0,1-.53-.53v-1.7A.47.47,0,0,1,47,83.2h4.39a.51.51,0,0,1,.58.58V88a4.06,4.06,0,0,1-1.08,3A4.14,4.14,0,0,1,47.88,92.06Z" fill="#fff"/><path d="M60,88.77v3c0,.2-.08.3-.25.3h-.88c-.18,0-.28-.1-.28-.3v-3a.25.25,0,0,1,.28-.27h.88C59.9,88.5,60,88.59,60,88.77Z" fill="#fcb84d"/><path d="M73.53,92.06H70.72a4.21,4.21,0,0,1-3.06-1,4.07,4.07,0,0,1-1.08-3V80a4.07,4.07,0,0,1,1.08-3,4.21,4.21,0,0,1,3.06-1h2.81a4.22,4.22,0,0,1,3.07,1,4.07,4.07,0,0,1,1.08,3v8a4.07,4.07,0,0,1-1.08,3A4.22,4.22,0,0,1,73.53,92.06ZM71.22,89.3H73a1.25,1.25,0,0,0,1.48-1.48V80.16A1.25,1.25,0,0,0,73,78.68H71.22A1.49,1.49,0,0,0,70.1,79a1.62,1.62,0,0,0-.33,1.14v7.66A1.62,1.62,0,0,0,70.1,89,1.49,1.49,0,0,0,71.22,89.3Z" fill="#fff"/><path d="M85.66,88.77v3c0,.2-.09.3-.25.3h-.88c-.19,0-.28-.1-.28-.3v-3c0-.18.09-.27.28-.27h.88C85.57,88.5,85.66,88.59,85.66,88.77Z" fill="#fcb84d"/><path d="M92.11,87.94v-.5a.47.47,0,0,1,.53-.53h2.13a.47.47,0,0,1,.53.53v.2A1.78,1.78,0,0,0,95.67,89a2.07,2.07,0,0,0,1.38.35h1.18A1.46,1.46,0,0,0,100,87.52v-.3a1.27,1.27,0,0,0-.59-1.12,3.08,3.08,0,0,0-1.47-.47A16.34,16.34,0,0,1,96,85.35a12.81,12.81,0,0,1-1.9-.56,3,3,0,0,1-1.47-1.33,5,5,0,0,1-.59-2.55V80a4,4,0,0,1,1.11-3,4.19,4.19,0,0,1,3.06-1.08h2.51A4.24,4.24,0,0,1,101.85,77a4.07,4.07,0,0,1,1.1,3v.47a.46.46,0,0,1-.52.53h-2.14a.46.46,0,0,1-.52-.53v-.15A1.82,1.82,0,0,0,99.39,79,2.07,2.07,0,0,0,98,78.68H97a1.88,1.88,0,0,0-1.39.39,2.26,2.26,0,0,0-.37,1.52v.48c0,.78.69,1.23,2.06,1.35a12.87,12.87,0,0,1,3.79.85,3.22,3.22,0,0,1,1.47,1.35,4.7,4.7,0,0,1,.59,2.47v.85a4,4,0,0,1-1.11,3A4.17,4.17,0,0,1,99,92.06H96.28A4.21,4.21,0,0,1,93.21,91,4.07,4.07,0,0,1,92.11,87.94Z" fill="#fff"/><path d="M111,88.77v3c0,.2-.08.3-.25.3h-.88c-.18,0-.28-.1-.28-.3v-3a.25.25,0,0,1,.28-.27h.88C110.93,88.5,111,88.59,111,88.77Z" fill="#fcb84d"/><path d="M122.86,92.06h-2.11c-.37,0-.55-.18-.55-.53V79a.24.24,0,0,0-.28-.28h-2.86a.47.47,0,0,1-.53-.53v-1.7a.47.47,0,0,1,.53-.53h9.49a.47.47,0,0,1,.53.53v1.7a.47.47,0,0,1-.53.53h-2.86c-.2,0-.3.09-.3.28V91.53A.47.47,0,0,1,122.86,92.06Z" fill="#fff"/><path d="M134,88.77v3c0,.2-.08.3-.25.3h-.88q-.27,0-.27-.3v-3a.24.24,0,0,1,.27-.27h.88C133.87,88.5,134,88.59,134,88.77Z" fill="#fcb84d"/><path d="M147.51,92.06H144.7a4.22,4.22,0,0,1-3.07-1,4.07,4.07,0,0,1-1.08-3V80a4.07,4.07,0,0,1,1.08-3,4.22,4.22,0,0,1,3.07-1h2.81a4.21,4.21,0,0,1,3.06,1,4.07,4.07,0,0,1,1.08,3v8a4.07,4.07,0,0,1-1.08,3A4.21,4.21,0,0,1,147.51,92.06ZM145.2,89.3H147a1.54,1.54,0,0,0,1.14-.34,1.57,1.57,0,0,0,.34-1.14V80.16a1.57,1.57,0,0,0-.34-1.14,1.54,1.54,0,0,0-1.14-.34H145.2a1.51,1.51,0,0,0-1.13.34,1.62,1.62,0,0,0-.33,1.14v7.66a1.62,1.62,0,0,0,.33,1.14A1.51,1.51,0,0,0,145.2,89.3Z" fill="#fff"/><path d="M163.12,52.36H90a.82.82,0,0,0-.82.82v4.09a.82.82,0,0,0,.12.41.82.82,0,0,0-.12.41v4.1a.82.82,0,0,0,.12.41.82.82,0,0,0-.12.41v4.1a.82.82,0,0,0,.82.82h52.61A4.93,4.93,0,0,0,147.54,63h3.28a4.92,4.92,0,0,0,4.92-4.92H159a4.92,4.92,0,0,0,4.92-4.91A.82.82,0,0,0,163.12,52.36Z" fill="url(#d1f9f659-c8a4-4984-8a49-39ae335a2252)"/><path d="M4.76,52.36h73.1a.82.82,0,0,1,.82.82v4.09a.81.81,0,0,1-.11.41.81.81,0,0,1,.11.41v4.1a.81.81,0,0,1-.11.41.81.81,0,0,1,.11.41v4.1a.82.82,0,0,1-.82.82H25.25A4.93,4.93,0,0,1,20.33,63H17.05a4.92,4.92,0,0,1-4.92-4.92H8.85a4.91,4.91,0,0,1-4.91-4.91A.81.81,0,0,1,4.76,52.36Z" fill="url(#c4a98fab-5280-41d3-b066-d7f41b0255c0)"/><path d="M92.88,53.18h70.24a0,0,0,0,1,0,0v0a4.1,4.1,0,0,1-4.1,4.1H92.88a0,0,0,0,1,0,0v-4.1A0,0,0,0,1,92.88,53.18Z" fill="url(#76ce82d4-2d4a-4252-bb56-9f8c921d25c7)"/><path d="M92.88,58.09h62a0,0,0,0,1,0,0v0a4.1,4.1,0,0,1-4.1,4.1H92.88a0,0,0,0,1,0,0v-4.1a0,0,0,0,1,0,0Z" fill="url(#cb9ab89e-e45b-4e5b-87a9-85a76c701562)"/><path d="M92.88,63h53.84a0,0,0,0,1,0,0v0a4.1,4.1,0,0,1-4.1,4.1H92.88a0,0,0,0,1,0,0V63A0,0,0,0,1,92.88,63Z" fill="url(#4219ea13-fc90-4787-a9bb-bc2da1c4da5a)"/><path d="M4.76,53.18H70.89a4.1,4.1,0,0,1,4.1,4.1v0a0,0,0,0,1,0,0H4.76a0,0,0,0,1,0,0v-4.1A0,0,0,0,1,4.76,53.18Z" transform="translate(79.75 110.45) rotate(180)" fill="url(#22de8f38-0f25-4b80-ae69-4a4b727a3dfd)"/><path d="M13,58.09H70.89a4.1,4.1,0,0,1,4.1,4.1v0a0,0,0,0,1,0,0H13a0,0,0,0,1,0,0v-4.1a0,0,0,0,1,0,0Z" transform="translate(87.94 120.29) rotate(180)" fill="url(#954f3a68-dc3d-45c6-96cc-6dcb4f53d1e8)"/><path d="M21.15,63H70.89a4.1,4.1,0,0,1,4.1,4.1v0a0,0,0,0,1,0,0H21.15a0,0,0,0,1,0,0V63A0,0,0,0,1,21.15,63Z" transform="translate(96.14 130.12) rotate(180)" fill="url(#fad9bfef-3bc4-4fe4-958c-2ed80d204bd2)"/><circle cx="84.06" cy="60.14" r="12.27" stroke-linecap="round" stroke-linejoin="round" stroke-width="0.49" fill="url(#5843e4f0-7e86-4041-b717-05ee8bf071fc)" stroke="url(#b5683116-f8e9-4d29-8937-dd98311b1af0)"/><polygon points="90.11 68.79 84.06 60.5 87.86 61.74 90.11 68.79" fill="url(#59768b6b-761e-4906-af61-9115d03c67ba)"/><polygon points="84.17 50.14 84.06 60.5 81.75 57.34 84.17 50.14" fill="url(#50a21601-118f-4ec2-9362-59f4614ebaa7)"/><polygon points="90.11 68.79 84.06 64.42 84.06 60.5 90.11 68.79" fill="url(#ad299342-d646-45bd-ad52-59b37ae61c31)"/><polygon points="86.46 57.33 84.06 60.5 84.17 50.14 86.46 57.33" fill="url(#57ec7b71-847c-406e-af19-4f3ce53ff6b4)"/><polygon points="94.07 57.33 84.06 60.5 86.46 57.33 94.07 57.33" fill="url(#5af2c6fb-ede8-4737-b320-2927708eaea7)"/><polygon points="94.07 57.33 87.86 61.74 84.06 60.5 94.07 57.33" fill="url(#a855e8c3-313b-4760-93bd-52ada84363b0)"/><polygon points="84.06 60.5 80.31 61.64 74.06 57.23 84.06 60.5" fill="url(#5d175f37-e08b-4440-9aaf-045e79879b3c)"/><polygon points="84.06 60.5 74.06 57.23 81.75 57.34 84.06 60.5" fill="url(#aeb561db-fb07-4207-b52f-08708db4881a)"/><polygon points="84.06 60.5 77.91 68.79 80.31 61.64 84.06 60.5" fill="url(#c57f3dda-34d8-450a-8a5b-664384c16a0a)"/><polygon points="84.06 60.5 84.06 64.42 77.91 68.79 84.06 60.5" fill="url(#26a5c02a-231c-4108-a1cc-fd059ecc8a3a)"/><polygon points="94.07 57.33 86.46 57.33 84.17 50.14 81.75 57.34 74.06 57.23 80.31 61.64 77.91 68.79 84.06 64.42 90.11 68.79 87.86 61.74 94.07 57.33" fill="#fba719" opacity="0.5"/></svg>