<svg id="8c9efce9-8c16-497a-9ee0-a7c1097fcdc6" data-name="Layer 1" xmlns="http://www.w3.org/2000/svg" xmlns:xlink="http://www.w3.org/1999/xlink" viewBox="0 0 350 40"><defs><radialGradient id="5847f43e-0445-4c90-b9f1-ee6cfd4af4de" cx="49" cy="4.64" r="55.63" gradientUnits="userSpaceOnUse"><stop offset="0" stop-color="#fce9ca"/><stop offset="0.1" stop-color="#fcd596"/><stop offset="0.19" stop-color="#fcc56e"/><stop offset="0.26" stop-color="#fcbc56"/><stop offset="0.3" stop-color="#fcb84d"/><stop offset="0.34" stop-color="#fcb749" stop-opacity="0.96"/><stop offset="0.57" stop-color="#fcb035" stop-opacity="0.72"/><stop offset="0.76" stop-color="#fbab26" stop-opacity="0.55"/><stop offset="0.91" stop-color="#fba81c" stop-opacity="0.44"/><stop offset="1" stop-color="#fba719" stop-opacity="0.4"/></radialGradient><linearGradient id="d6235f63-4a5d-4a62-8fa8-196e5a968b1a" x1="9.09" y1="33.51" x2="9.09" y2="6.23" gradientUnits="userSpaceOnUse"><stop offset="0" stop-color="#b3b3b3" stop-opacity="0"/><stop offset="0.09" stop-color="#b6b5b3" stop-opacity="0.04"/><stop offset="0.23" stop-color="#bdb9b3" stop-opacity="0.13"/><stop offset="0.4" stop-color="#c8c0b2" stop-opacity="0.29"/><stop offset="0.61" stop-color="#d8c9b1" stop-opacity="0.51"/><stop offset="0.84" stop-color="#ecd6b1" stop-opacity="0.79"/><stop offset="1" stop-color="#fcdfb0"/></linearGradient><linearGradient id="2f762257-c2d9-4f61-af7c-36b8d0c8e902" x1="21.45" y1="33.51" x2="21.45" y2="6.23" xlink:href="#d6235f63-4a5d-4a62-8fa8-196e5a968b1a"/><linearGradient id="1498f30c-97b4-4504-a929-588fd3126d76" x1="32.56" y1="33.51" x2="32.56" y2="6.23" xlink:href="#d6235f63-4a5d-4a62-8fa8-196e5a968b1a"/><linearGradient id="2e6dc7d9-4e25-49e6-946b-a486a936ef60" x1="44.12" y1="33.51" x2="44.12" y2="6.23" xlink:href="#d6235f63-4a5d-4a62-8fa8-196e5a968b1a"/><linearGradient id="ec1fca28-8cba-447f-babb-69c5de188cd8" x1="68.16" y1="38.15" x2="68.16" y2="6.23" xlink:href="#d6235f63-4a5d-4a62-8fa8-196e5a968b1a"/><linearGradient id="ec0d2185-d10a-49ee-8416-fc9b6cce29f0" x1="80.16" y1="5.11" x2="80.16" y2="1.85" xlink:href="#d6235f63-4a5d-4a62-8fa8-196e5a968b1a"/><linearGradient id="9094babb-5a49-4929-ac17-ad2ec60fdfdb" x1="92.43" y1="33.51" x2="92.43" y2="6.23" xlink:href="#d6235f63-4a5d-4a62-8fa8-196e5a968b1a"/><linearGradient id="3f43809c-670a-46f8-837b-7e1c550f76af" x1="55.88" y1="33.51" x2="55.88" y2="6.18" xlink:href="#d6235f63-4a5d-4a62-8fa8-196e5a968b1a"/><linearGradient id="32c39b1e-84d1-4497-a45f-bfed65e04efb" x1="80.16" y1="33.51" x2="80.16" y2="6.18" xlink:href="#d6235f63-4a5d-4a62-8fa8-196e5a968b1a"/><radialGradient id="f6cf1069-5ea2-40d6-9657-ca7569ca6d33" cx="155.49" cy="19.54" r="32.64" gradientUnits="userSpaceOnUse"><stop offset="0" stop-color="#696780"/><stop offset="1" stop-color="#2a2933"/></radialGradient><radialGradient id="56b51fc8-de2d-4a93-99cb-2a8d571afd82" cx="150.23" cy="19.54" r="54.11" xlink:href="#f6cf1069-5ea2-40d6-9657-ca7569ca6d33"/><linearGradient id="6982098e-f668-462d-8736-adb8e3538ec7" x1="162.22" y1="16.77" x2="195.55" y2="16.77" gradientUnits="userSpaceOnUse"><stop offset="0" stop-color="#e7e4ff"/><stop offset="0.14" stop-color="#b7b5cd"/><stop offset="0.31" stop-color="#848296"/><stop offset="0.46" stop-color="#5e5d6e"/><stop offset="0.58" stop-color="#474656"/><stop offset="0.65" stop-color="#3f3e4d"/><stop offset="0.71" stop-color="#444352"/><stop offset="0.78" stop-color="#525160"/><stop offset="0.86" stop-color="#696878"/><stop offset="0.95" stop-color="#89889a"/><stop offset="1" stop-color="#a2a0b3"/></linearGradient><linearGradient id="53468df3-359c-4d8a-9734-4a1f1fd48545" x1="162.22" y1="22.07" x2="186.72" y2="22.07" xlink:href="#6982098e-f668-462d-8736-adb8e3538ec7"/><linearGradient id="263bc311-9b53-4efb-8bef-6686a19b7006" x1="162.22" y1="27.37" x2="177.89" y2="27.37" xlink:href="#6982098e-f668-462d-8736-adb8e3538ec7"/><linearGradient id="5cb98071-547d-49ff-86ef-4862e219f32f" x1="-2091.67" y1="16.77" x2="-2058.34" y2="16.77" gradientTransform="matrix(1, 0, 0, -1, 2201.29, 33.55)" xlink:href="#6982098e-f668-462d-8736-adb8e3538ec7"/><linearGradient id="1989864c-83f9-4f73-81f2-a693495c8350" x1="-2091.67" y1="22.07" x2="-2067.17" y2="22.07" gradientTransform="matrix(1, 0, 0, -1, 2210.12, 44.14)" xlink:href="#6982098e-f668-462d-8736-adb8e3538ec7"/><linearGradient id="22f5c363-1617-41ec-b9d5-2b065bda1269" x1="-2091.67" y1="27.37" x2="-2075.99" y2="27.37" gradientTransform="matrix(1, 0, 0, -1, 2218.94, 54.73)" xlink:href="#6982098e-f668-462d-8736-adb8e3538ec7"/><linearGradient id="9be1b50e-ae1b-43bf-9d02-09bf61213c45" x1="144.63" y1="31.75" x2="161" y2="12.16" gradientUnits="userSpaceOnUse"><stop offset="0" stop-color="#a2a0b3"/><stop offset="0.05" stop-color="#89889a"/><stop offset="0.14" stop-color="#696878"/><stop offset="0.22" stop-color="#525160"/><stop offset="0.29" stop-color="#444352"/><stop offset="0.35" stop-color="#3f3e4d"/><stop offset="0.42" stop-color="#474656"/><stop offset="0.54" stop-color="#5e5d6e"/><stop offset="0.69" stop-color="#848296"/><stop offset="0.86" stop-color="#b7b5cd"/><stop offset="1" stop-color="#e7e4ff"/></linearGradient><linearGradient id="2bfd3727-634f-458e-bf7c-e259dd471db6" x1="152.72" y1="35.54" x2="152.72" y2="8.6" gradientUnits="userSpaceOnUse"><stop offset="0" stop-color="#5c5c66"/><stop offset="0.14" stop-color="#64646f"/><stop offset="0.37" stop-color="#7a7a87"/><stop offset="0.66" stop-color="#9e9eaf"/><stop offset="1" stop-color="#d0cfe6"/><stop offset="1" stop-color="#d0cfe6"/></linearGradient><linearGradient id="3c33cab5-b624-4f17-945b-371632a8dfbe" x1="152.72" y1="26.92" x2="159.23" y2="26.92" gradientUnits="userSpaceOnUse"><stop offset="0" stop-color="#686680"/><stop offset="0.16" stop-color="#77758e"/><stop offset="0.46" stop-color="#9f9eb3"/><stop offset="0.88" stop-color="#dfdfed"/><stop offset="1" stop-color="#f2f2ff"/></linearGradient><linearGradient id="0cac17ac-ad68-4f2e-b781-8c9f8e9cb9b0" x1="151.53" y1="22.45" x2="151.53" y2="11.3" gradientUnits="userSpaceOnUse"><stop offset="0" stop-color="#535266"/><stop offset="1" stop-color="#9390b3"/></linearGradient><linearGradient id="de6d9004-4f6a-4ece-8893-4fcaf5062810" x1="155.97" y1="31.38" x2="155.97" y2="22.45" gradientUnits="userSpaceOnUse"><stop offset="0" stop-color="#9390b3"/><stop offset="1" stop-color="#3e3e4d"/></linearGradient><linearGradient id="dec14f0b-336b-4322-8ad1-c343a8b7fcb6" x1="154.01" y1="22.45" x2="154.01" y2="11.3" gradientUnits="userSpaceOnUse"><stop offset="0" stop-color="#686680"/><stop offset="0.15" stop-color="#77758d"/><stop offset="0.43" stop-color="#9f9eae"/><stop offset="0.82" stop-color="#dfdfe4"/><stop offset="1" stop-color="#fff"/></linearGradient><linearGradient id="928c80a9-1b7f-4ac9-afdc-e8e4204280a4" x1="152.72" y1="20.75" x2="163.49" y2="20.75" gradientUnits="userSpaceOnUse"><stop offset="0" stop-color="#f2f2ff"/><stop offset="0.12" stop-color="#dfdfed"/><stop offset="0.54" stop-color="#9f9eb3"/><stop offset="0.84" stop-color="#77758e"/><stop offset="1" stop-color="#686680"/></linearGradient><radialGradient id="c93ce7ec-06d4-42d0-a966-0a333ae789c3" cx="154.91" cy="22.54" r="5.45" xlink:href="#0cac17ac-ad68-4f2e-b781-8c9f8e9cb9b0"/><linearGradient id="0789787a-7df2-4c63-bbda-e520e033d7f3" x1="141.94" y1="21.3" x2="152.72" y2="21.3" xlink:href="#de6d9004-4f6a-4ece-8893-4fcaf5062810"/><linearGradient id="b00e9bba-8d6c-4272-b202-335e9c0ab866" x1="141.94" y1="20.69" x2="152.72" y2="20.69" xlink:href="#3c33cab5-b624-4f17-945b-371632a8dfbe"/><linearGradient id="2cd54de7-fbe3-41c8-bb60-9e2978066892" x1="146.1" y1="26.92" x2="152.72" y2="26.92" xlink:href="#928c80a9-1b7f-4ac9-afdc-e8e4204280a4"/><linearGradient id="99fe3998-bee5-47b9-8eda-9687042d3622" x1="146.1" y1="26.92" x2="152.72" y2="26.92" xlink:href="#de6d9004-4f6a-4ece-8893-4fcaf5062810"/></defs><title>operacao-agosto-horizontal</title><path d="M13.08,7.29a3.6,3.6,0,0,0-2.66-.94H7.73a3.56,3.56,0,0,0-2.65.94,3.58,3.58,0,0,0-.94,2.65V29.8a3.57,3.57,0,0,0,.94,2.64,3.53,3.53,0,0,0,2.65,1h2.69a3.56,3.56,0,0,0,2.66-1A3.53,3.53,0,0,0,14,29.8V9.94A3.54,3.54,0,0,0,13.08,7.29ZM11.76,29.71a1.5,1.5,0,0,1-1.69,1.71h-2a1.49,1.49,0,0,1-1.66-1.71V10c0-1.15.55-1.72,1.66-1.72h2A1.5,1.5,0,0,1,11.76,10Z" stroke-linecap="round" stroke-linejoin="round" stroke-width="0.24" fill="url(#5847f43e-0445-4c90-b9f1-ee6cfd4af4de)" stroke="url(#d6235f63-4a5d-4a62-8fa8-196e5a968b1a)"/><path d="M25.25,7.29a3.6,3.6,0,0,0-2.64-.94H17.09a.35.35,0,0,0-.39.4V33a.34.34,0,0,0,.39.39h1.46a.34.34,0,0,0,.39-.39V23.46c0-.15.1-.23.28-.23h3.39a3.6,3.6,0,0,0,2.64-.95,3.57,3.57,0,0,0,.95-2.64V9.94A3.58,3.58,0,0,0,25.25,7.29ZM23.93,19.52c0,1.15-.55,1.72-1.65,1.72H19.2c-.17,0-.26-.08-.26-.23V8.55c0-.15.09-.23.26-.23h3.08c1.1,0,1.65.57,1.65,1.72Z" stroke-linecap="round" stroke-linejoin="round" stroke-width="0.24" fill="url(#5847f43e-0445-4c90-b9f1-ee6cfd4af4de)" stroke="url(#2f762257-c2d9-4f61-af7c-36b8d0c8e902)"/><path d="M31,8.32h5.28a.34.34,0,0,0,.38-.39V6.75c0-.27-.13-.4-.38-.4H28.86a.35.35,0,0,0-.39.4V33a.34.34,0,0,0,.39.39h7.41a.34.34,0,0,0,.38-.39V31.82a.35.35,0,0,0-.38-.4H31c-.18,0-.27-.08-.27-.25v-9c0-.16.09-.23.27-.23h4.48a.36.36,0,0,0,.41-.4V20.38c0-.26-.14-.39-.41-.39H31q-.27,0-.27-.24V8.55C30.72,8.4,30.81,8.32,31,8.32Z" stroke-linecap="round" stroke-linejoin="round" stroke-width="0.24" fill="url(#5847f43e-0445-4c90-b9f1-ee6cfd4af4de)" stroke="url(#1498f30c-97b4-4504-a929-588fd3126d76)"/><path d="M49.11,33.1,46.35,20.22v-.09a3.11,3.11,0,0,0,2.2-3.36V10a3.6,3.6,0,0,0-1-2.66,3.58,3.58,0,0,0-2.65-1H39.52a.4.4,0,0,0-.4.4V33a.39.39,0,0,0,.4.39H41a.38.38,0,0,0,.39-.39V20.62c0-.16.1-.24.28-.24H44L46.67,33.2a.26.26,0,0,0,.24.19h2A.25.25,0,0,0,49.11,33.1ZM46.28,16.84a1.5,1.5,0,0,1-1.71,1.69H41.63c-.17,0-.26-.08-.26-.23V8.55c0-.15.09-.23.26-.23h2.94A1.51,1.51,0,0,1,46.28,10Z" stroke-linecap="round" stroke-linejoin="round" stroke-width="0.24" fill="url(#5847f43e-0445-4c90-b9f1-ee6cfd4af4de)" stroke="url(#2e6dc7d9-4e25-49e6-946b-a486a936ef60)"/><path d="M71.22,11.47h1.45a.37.37,0,0,0,.42-.41V9.94a3.58,3.58,0,0,0-1-2.65,3.57,3.57,0,0,0-2.64-.94H66.81a3.56,3.56,0,0,0-2.65.94,3.58,3.58,0,0,0-.94,2.65V29.8a3.57,3.57,0,0,0,.94,2.64,3.53,3.53,0,0,0,2.65,1h1l-.93,1.07a.71.71,0,0,0-.16.74.55.55,0,0,0,.56.39h.49a2,2,0,0,1,.88.14.55.55,0,0,1,.23.51v.07a.47.47,0,0,1-.23.45,2,2,0,0,1-.88.13h-.68a.36.36,0,0,0-.27.08.49.49,0,0,0-.07.31v.37c0,.25.11.38.34.38H68c1.38,0,2.08-.52,2.08-1.56V36.1c0-1.06-.59-1.6-1.76-1.6v-.09l1-1h.21a3.53,3.53,0,0,0,2.64-1,3.57,3.57,0,0,0,1-2.64V28.69a.37.37,0,0,0-.42-.42H71.22c-.27,0-.4.14-.4.42v1a1.49,1.49,0,0,1-1.67,1.71h-2a1.5,1.5,0,0,1-1.67-1.71V10a1.5,1.5,0,0,1,1.67-1.72h2A1.49,1.49,0,0,1,70.82,10v1A.36.36,0,0,0,71.22,11.47Z" stroke-linecap="round" stroke-linejoin="round" stroke-width="0.24" fill="url(#5847f43e-0445-4c90-b9f1-ee6cfd4af4de)" stroke="url(#ec1fca28-8cba-447f-babb-69c5de188cd8)"/><path d="M81.27,2a1.55,1.55,0,0,0-1.37.88,5.47,5.47,0,0,1-.46.75.47.47,0,0,1-.36.16.33.33,0,0,1-.32-.21,2,2,0,0,1-.11-.79V2.3c0-.16-.07-.23-.23-.23h-.69c-.16,0-.24.07-.24.23v.9C77.49,4.39,78,5,79.07,5a1.34,1.34,0,0,0,1.27-.74l.19-.36s.07-.1.15-.24a1.57,1.57,0,0,1,.23-.32.45.45,0,0,1,.35-.12.33.33,0,0,1,.33.2,2,2,0,0,1,.1.8v.44c0,.18.07.28.23.28h.69c.14,0,.21-.1.21-.28V3.76C82.82,2.57,82.31,2,81.27,2Z" stroke-linecap="round" stroke-linejoin="round" stroke-width="0.24" fill="url(#5847f43e-0445-4c90-b9f1-ee6cfd4af4de)" stroke="url(#ec0d2185-d10a-49ee-8416-fc9b6cce29f0)"/><path d="M96.42,7.29a3.6,3.6,0,0,0-2.66-.94H91.07a3.56,3.56,0,0,0-2.65.94,3.58,3.58,0,0,0-.94,2.65V29.8a3.57,3.57,0,0,0,.94,2.64,3.53,3.53,0,0,0,2.65,1h2.69a3.3,3.3,0,0,0,3.61-3.59V9.94A3.54,3.54,0,0,0,96.42,7.29ZM95.1,29.71a1.5,1.5,0,0,1-1.69,1.71h-2a1.49,1.49,0,0,1-1.67-1.71V10A1.49,1.49,0,0,1,91.4,8.32h2A1.5,1.5,0,0,1,95.1,10Z" stroke-linecap="round" stroke-linejoin="round" stroke-width="0.24" fill="url(#5847f43e-0445-4c90-b9f1-ee6cfd4af4de)" stroke="url(#9094babb-5a49-4929-ac17-ad2ec60fdfdb)"/><path d="M59.87,7.24a3.6,3.6,0,0,0-2.66-.94H54.52a3.56,3.56,0,0,0-2.65.94,3.56,3.56,0,0,0-.94,2.65V33.14a.25.25,0,0,0,.25.25H53a.25.25,0,0,0,.25-.25V20.05h5.34V33.14a.26.26,0,0,0,.26.25h1.72a.25.25,0,0,0,.25-.25V9.89A3.53,3.53,0,0,0,59.87,7.24ZM58.55,18.09H53.18V10a1.49,1.49,0,0,1,1.66-1.71h2A1.5,1.5,0,0,1,58.55,10Z" stroke-linecap="round" stroke-linejoin="round" stroke-width="0.24" fill="url(#5847f43e-0445-4c90-b9f1-ee6cfd4af4de)" stroke="url(#3f43809c-670a-46f8-837b-7e1c550f76af)"/><path d="M84.16,7.24a3.64,3.64,0,0,0-2.67-.94H78.8a3.58,3.58,0,0,0-2.65.94,3.56,3.56,0,0,0-.94,2.65V33.14a.25.25,0,0,0,.25.25h1.82a.25.25,0,0,0,.25-.25V20.05h5.35V33.14a.25.25,0,0,0,.25.25h1.72a.25.25,0,0,0,.25-.25V9.89A3.56,3.56,0,0,0,84.16,7.24ZM82.83,18.09H77.46V10a1.49,1.49,0,0,1,1.67-1.71h2A1.5,1.5,0,0,1,82.83,10Z" stroke-linecap="round" stroke-linejoin="round" stroke-width="0.24" fill="url(#5847f43e-0445-4c90-b9f1-ee6cfd4af4de)" stroke="url(#32c39b1e-84d1-4497-a45f-bfed65e04efb)"/><path d="M212.08,30.67h-2.4c-.3,0-.4-.17-.3-.52l4-15a.72.72,0,0,1,.75-.52h3.33a.68.68,0,0,1,.75.52l4,15c.1.35,0,.52-.3.52h-2.4a.52.52,0,0,1-.38-.11,1,1,0,0,1-.15-.41l-.7-2.75h-4.87l-.7,2.75a.89.89,0,0,1-.16.41A.54.54,0,0,1,212.08,30.67Zm3.63-13-1.8,7.23h3.7l-1.8-7.23Z" fill="#fff"/><path d="M229.28,27.4v3c0,.2-.08.3-.25.3h-.87c-.19,0-.28-.1-.28-.3v-3a.24.24,0,0,1,.28-.28H229C229.2,27.12,229.28,27.21,229.28,27.4Z" fill="#fcb84d"/><path d="M242.63,30.67H240a4.2,4.2,0,0,1-3-1.05,4.06,4.06,0,0,1-1.07-3V18.67a4.06,4.06,0,0,1,1.07-3,4.2,4.2,0,0,1,3-1.05h2.65a4.13,4.13,0,0,1,3,1.06,4.07,4.07,0,0,1,1.07,3v.75c0,.37-.17.55-.52.55h-2.13c-.35,0-.52-.18-.52-.55v-.6a1.62,1.62,0,0,0-.33-1.14,1.53,1.53,0,0,0-1.12-.33h-1.63a1.57,1.57,0,0,0-1.11.33,1.62,1.62,0,0,0-.34,1.14v7.63a1.57,1.57,0,0,0,.34,1.13,1.52,1.52,0,0,0,1.11.34h1.63a1.49,1.49,0,0,0,1.12-.34,1.57,1.57,0,0,0,.33-1.13V24.87c0-.18-.09-.27-.28-.27h-1.5a.46.46,0,0,1-.52-.53v-1.7a.46.46,0,0,1,.52-.52h4.38a.5.5,0,0,1,.57.57V26.6a4.07,4.07,0,0,1-1.07,3A4.13,4.13,0,0,1,242.63,30.67Z" fill="#fff"/><path d="M254.68,27.4v3c0,.2-.08.3-.25.3h-.87c-.19,0-.28-.1-.28-.3v-3a.24.24,0,0,1,.28-.28h.87C254.6,27.12,254.68,27.21,254.68,27.4Z" fill="#fcb84d"/><path d="M268.18,30.67h-2.8a4.2,4.2,0,0,1-3.05-1.05,4.06,4.06,0,0,1-1.07-3V18.67a4.06,4.06,0,0,1,1.07-3,4.2,4.2,0,0,1,3.05-1.05h2.8a4.17,4.17,0,0,1,3.05,1.05,4,4,0,0,1,1.08,3V26.6a4,4,0,0,1-1.08,3A4.17,4.17,0,0,1,268.18,30.67Zm-2.3-2.75h1.78a1.24,1.24,0,0,0,1.47-1.47V18.82a1.62,1.62,0,0,0-.33-1.14,1.62,1.62,0,0,0-1.14-.33h-1.78a1.53,1.53,0,0,0-1.12.33,1.62,1.62,0,0,0-.33,1.14v7.63a1.57,1.57,0,0,0,.33,1.13A1.49,1.49,0,0,0,265.88,27.92Z" fill="#fff"/><path d="M280.26,27.4v3c0,.2-.09.3-.25.3h-.88q-.27,0-.27-.3v-3c0-.19.09-.28.27-.28H280C280.17,27.12,280.26,27.21,280.26,27.4Z" fill="#fcb84d"/><path d="M286.68,26.57v-.5a.46.46,0,0,1,.53-.52h2.12a.46.46,0,0,1,.53.52v.2a1.74,1.74,0,0,0,.37,1.3,2,2,0,0,0,1.38.35h1.17a1.93,1.93,0,0,0,1.36-.37,1.94,1.94,0,0,0,.39-1.4v-.3a1.24,1.24,0,0,0-.59-1.12,3.15,3.15,0,0,0-1.46-.46,14.55,14.55,0,0,1-1.89-.29,11.47,11.47,0,0,1-1.88-.55,2.94,2.94,0,0,1-1.47-1.32,4.92,4.92,0,0,1-.58-2.54V18.7a4,4,0,0,1,1.1-3,4.2,4.2,0,0,1,3.05-1.07h2.5a4.23,4.23,0,0,1,3.07,1.07,4,4,0,0,1,1.1,3v.47a.46.46,0,0,1-.52.53h-2.13a.46.46,0,0,1-.52-.53V19a1.78,1.78,0,0,0-.38-1.32,2,2,0,0,0-1.37-.35h-1a2,2,0,0,0-1.39.38,2.32,2.32,0,0,0-.36,1.52v.47c0,.79.69,1.24,2.05,1.35a12.81,12.81,0,0,1,3.78.85,3.22,3.22,0,0,1,1.46,1.34,4.67,4.67,0,0,1,.59,2.46v.85a4.07,4.07,0,0,1-1.1,3,4.21,4.21,0,0,1-3.05,1.07h-2.73a4.21,4.21,0,0,1-3.05-1.07A4.07,4.07,0,0,1,286.68,26.57Z" fill="#fff"/><path d="M305.51,27.4v3c0,.2-.09.3-.25.3h-.88q-.27,0-.27-.3v-3c0-.19.09-.28.27-.28h.88C305.42,27.12,305.51,27.21,305.51,27.4Z" fill="#fcb84d"/><path d="M317.31,30.67h-2.1c-.37,0-.55-.17-.55-.52V17.62c0-.18-.09-.27-.28-.27h-2.85a.46.46,0,0,1-.52-.53v-1.7a.46.46,0,0,1,.52-.52H321a.46.46,0,0,1,.53.52v1.7a.47.47,0,0,1-.53.53h-2.85q-.3,0-.3.27V30.15A.46.46,0,0,1,317.31,30.67Z" fill="#fff"/><path d="M328.36,27.4v3c0,.2-.09.3-.25.3h-.88q-.27,0-.27-.3v-3c0-.19.09-.28.27-.28h.88C328.27,27.12,328.36,27.21,328.36,27.4Z" fill="#fcb84d"/><path d="M341.86,30.67h-2.8A4.17,4.17,0,0,1,336,29.62a4,4,0,0,1-1.08-3V18.67a4,4,0,0,1,1.08-3,4.17,4.17,0,0,1,3.05-1.05h2.8a4.2,4.2,0,0,1,3.05,1.05,4.06,4.06,0,0,1,1.07,3V26.6a4.06,4.06,0,0,1-1.07,3A4.2,4.2,0,0,1,341.86,30.67Zm-2.3-2.75h1.77a1.25,1.25,0,0,0,1.48-1.47V18.82a1.62,1.62,0,0,0-.34-1.14,1.62,1.62,0,0,0-1.14-.33h-1.77a1.56,1.56,0,0,0-1.13.33,1.62,1.62,0,0,0-.32,1.14v7.63a1.57,1.57,0,0,0,.32,1.13A1.51,1.51,0,0,0,339.56,27.92Z" fill="#fff"/><path d="M195.55,13.68H159.13a.89.89,0,0,0-.89.89V19a.84.84,0,0,0,.13.44.84.84,0,0,0-.13.44v4.42a.84.84,0,0,0,.13.44.84.84,0,0,0-.13.44v4.41a.89.89,0,0,0,.89.89h14.35a5.3,5.3,0,0,0,5.29-5.3h3.53a5.31,5.31,0,0,0,5.3-5.3h3.53a5.3,5.3,0,0,0,5.3-5.29A.89.89,0,0,0,195.55,13.68Z" fill="url(#f6cf1069-5ea2-40d6-9657-ca7569ca6d33)"/><path d="M109.62,13.68H146a.88.88,0,0,1,.88.89V19a.93.93,0,0,1-.12.44.93.93,0,0,1,.12.44v4.42a.93.93,0,0,1-.12.44.93.93,0,0,1,.12.44v4.41a.88.88,0,0,1-.88.89H131.69a5.31,5.31,0,0,1-5.3-5.3h-3.53a5.31,5.31,0,0,1-5.3-5.3H114a5.29,5.29,0,0,1-5.29-5.29A.88.88,0,0,1,109.62,13.68Z" fill="url(#56b51fc8-de2d-4a93-99cb-2a8d571afd82)"/><path d="M162.22,14.57h33.33a0,0,0,0,1,0,0v0A4.41,4.41,0,0,1,191.13,19H162.22a0,0,0,0,1,0,0V14.57A0,0,0,0,1,162.22,14.57Z" fill="url(#6982098e-f668-462d-8736-adb8e3538ec7)"/><path d="M162.22,19.86h24.5a0,0,0,0,1,0,0v0a4.41,4.41,0,0,1-4.41,4.41H162.22a0,0,0,0,1,0,0V19.86A0,0,0,0,1,162.22,19.86Z" fill="url(#53468df3-359c-4d8a-9734-4a1f1fd48545)"/><path d="M162.22,25.16h15.67a0,0,0,0,1,0,0v0a4.41,4.41,0,0,1-4.41,4.41H162.22a0,0,0,0,1,0,0V25.16A0,0,0,0,1,162.22,25.16Z" fill="url(#263bc311-9b53-4efb-8bef-6686a19b7006)"/><path d="M109.62,14.57h28.92A4.41,4.41,0,0,1,142.95,19v0a0,0,0,0,1,0,0H109.62a0,0,0,0,1,0,0V14.57A0,0,0,0,1,109.62,14.57Z" transform="translate(252.57 33.55) rotate(-180)" fill="url(#5cb98071-547d-49ff-86ef-4862e219f32f)"/><path d="M118.45,19.86h20.09a4.41,4.41,0,0,1,4.41,4.41v0a0,0,0,0,1,0,0h-24.5a0,0,0,0,1,0,0V19.86A0,0,0,0,1,118.45,19.86Z" transform="translate(261.4 44.14) rotate(-180)" fill="url(#1989864c-83f9-4f73-81f2-a693495c8350)"/><path d="M127.27,25.16h11.26a4.41,4.41,0,0,1,4.41,4.41v0a0,0,0,0,1,0,0H127.27a0,0,0,0,1,0,0V25.16A0,0,0,0,1,127.27,25.16Z" transform="translate(270.22 54.73) rotate(-180)" fill="url(#22f5c363-1617-41ec-b9d5-2b065bda1269)"/><circle cx="152.72" cy="22.07" r="13.21" stroke-linecap="round" stroke-linejoin="round" stroke-width="0.52" fill="url(#9be1b50e-ae1b-43bf-9d02-09bf61213c45)" stroke="url(#2bfd3727-634f-458e-bf7c-e259dd471db6)"/><polygon points="159.23 31.39 152.72 22.45 156.81 23.79 159.23 31.39" fill="url(#3c33cab5-b624-4f17-945b-371632a8dfbe)"/><polygon points="152.83 11.29 152.72 22.45 150.23 19.05 152.83 11.29" fill="url(#0cac17ac-ad68-4f2e-b781-8c9f8e9cb9b0)"/><polygon points="159.23 31.39 152.72 26.67 152.72 22.45 159.23 31.39" fill="url(#de6d9004-4f6a-4ece-8893-4fcaf5062810)"/><polygon points="155.3 19.04 152.72 22.45 152.83 11.29 155.3 19.04" fill="url(#dec14f0b-336b-4322-8ad1-c343a8b7fcb6)"/><polygon points="163.49 19.04 152.72 22.45 155.3 19.04 163.49 19.04" fill="url(#928c80a9-1b7f-4ac9-afdc-e8e4204280a4)"/><polygon points="163.49 19.04 156.81 23.79 152.72 22.45 163.49 19.04" fill="url(#c93ce7ec-06d4-42d0-a966-0a333ae789c3)"/><polygon points="152.72 22.45 148.68 23.68 141.94 18.93 152.72 22.45" fill="url(#0789787a-7df2-4c63-bbda-e520e033d7f3)"/><polygon points="152.72 22.45 141.94 18.93 150.23 19.05 152.72 22.45" fill="url(#b00e9bba-8d6c-4272-b202-335e9c0ab866)"/><polygon points="152.72 22.45 146.1 31.39 148.68 23.68 152.72 22.45" fill="url(#2cd54de7-fbe3-41c8-bb60-9e2978066892)"/><polygon points="152.72 22.45 152.72 26.67 146.1 31.39 152.72 22.45" fill="url(#99fe3998-bee5-47b9-8eda-9687042d3622)"/><polygon points="163.49 19.04 155.3 19.04 152.83 11.29 150.23 19.05 141.94 18.93 148.68 23.68 146.1 31.39 152.72 26.67 159.23 31.39 156.81 23.79 163.49 19.04" fill="#fba719" opacity="0.5"/></svg>