<svg id="2c2134d5-46a7-4b81-bea1-d7402f582b39" data-name="Layer 1" xmlns="http://www.w3.org/2000/svg" xmlns:xlink="http://www.w3.org/1999/xlink" viewBox="0 0 561 248.36"><defs><clipPath id="704d9de0-feb2-4cd6-8be6-a9115da1450d"><rect x="-556.5" y="-1187.4" width="1366" height="768" fill="none"/></clipPath><linearGradient id="6a3d1abc-26fc-42de-8598-e8cf8fcfd938" x1="413.81" y1="113.74" x2="413.81" y2="65.92" gradientUnits="userSpaceOnUse"><stop offset="0" stop-color="#b3b3b3" stop-opacity="0"/><stop offset="0.09" stop-color="#b6b5b3" stop-opacity="0.04"/><stop offset="0.23" stop-color="#bdb9b3" stop-opacity="0.13"/><stop offset="0.4" stop-color="#c8c0b2" stop-opacity="0.29"/><stop offset="0.61" stop-color="#d8c9b1" stop-opacity="0.51"/><stop offset="0.84" stop-color="#ecd6b1" stop-opacity="0.79"/><stop offset="1" stop-color="#fcdfb0"/></linearGradient><radialGradient id="cf34f857-37fa-44a1-ba2c-0e5db21d1ba6" cx="391.88" cy="67.56" r="99.58" gradientUnits="userSpaceOnUse"><stop offset="0" stop-color="#fce9ca"/><stop offset="0.1" stop-color="#fcd596"/><stop offset="0.19" stop-color="#fcc56e"/><stop offset="0.26" stop-color="#fcbc56"/><stop offset="0.3" stop-color="#fcb84d"/><stop offset="0.34" stop-color="#fcb749" stop-opacity="0.96"/><stop offset="0.57" stop-color="#fcb035" stop-opacity="0.72"/><stop offset="0.76" stop-color="#fbab26" stop-opacity="0.55"/><stop offset="0.91" stop-color="#fba81c" stop-opacity="0.44"/><stop offset="1" stop-color="#fba719" stop-opacity="0.4"/></radialGradient></defs><title>shape-retangulo-bonus</title><path d="M55.42,28.42h-1.7c-.29,0-.39-.15-.3-.47L59.78,7a.6.6,0,0,1,.64-.48h2.45a.62.62,0,0,1,.65.48L69.87,28c.09.32,0,.47-.3.47H67.83c-.25,0-.4-.15-.47-.47l-1.6-5H57.53l-1.6,5C55.84,28.27,55.67,28.42,55.42,28.42ZM61.58,9.11l-3.5,11.77h7.13L61.71,9.11Z" fill="#fff"/><path d="M75.31,23.39V22.3a.42.42,0,0,1,.48-.47h1.53a.41.41,0,0,1,.47.47v.89q0,3.06,3,3.06h3q3,0,3-3.13V22q0-2.45-4-3.19c-1.13-.21-2.26-.44-3.4-.72a6,6,0,0,1-2.89-1.58,4.31,4.31,0,0,1-1.19-3.21V11.59a5,5,0,0,1,1.35-3.68,5,5,0,0,1,3.69-1.35h3.77a5,5,0,0,1,3.67,1.35,4.91,4.91,0,0,1,1.36,3.68v.85c0,.34-.15.51-.44.51H87.14c-.29,0-.44-.17-.44-.51v-.61q0-3.09-3-3.09H80.79c-2,0-3,1.07-3,3.23v1.36c0,1.15.76,1.95,2.28,2.38.68.18,1.43.34,2.24.49a25.16,25.16,0,0,1,2.47.58,12.81,12.81,0,0,1,2.26.88,4.09,4.09,0,0,1,1.65,1.6,5.06,5.06,0,0,1,.63,2.6v1.53a4.66,4.66,0,0,1-5,5h-3.9a4.66,4.66,0,0,1-5-5Z" fill="#fff"/><path d="M96.22,23.39V22.3a.42.42,0,0,1,.48-.47h1.53a.42.42,0,0,1,.48.47v.89c0,2,1,3.06,3,3.06h3q3,0,3-3.13V22q0-2.45-4-3.19c-1.13-.21-2.26-.44-3.4-.72a6,6,0,0,1-2.89-1.58,4.31,4.31,0,0,1-1.19-3.21V11.59a5,5,0,0,1,1.35-3.68,5,5,0,0,1,3.69-1.35H105a5,5,0,0,1,3.67,1.35,4.91,4.91,0,0,1,1.36,3.68v.85c0,.34-.15.51-.44.51h-1.57c-.29,0-.44-.17-.44-.51v-.61q0-3.09-3-3.09H101.7c-2,0-3,1.07-3,3.23v1.36c0,1.15.76,1.95,2.28,2.38.68.18,1.43.34,2.24.49a25.16,25.16,0,0,1,2.47.58,12.81,12.81,0,0,1,2.26.88,4.09,4.09,0,0,1,1.65,1.6,5.06,5.06,0,0,1,.63,2.6v1.53a4.66,4.66,0,0,1-5,5h-3.9a4.66,4.66,0,0,1-5-5Z" fill="#fff"/><path d="M120,7V28a.41.41,0,0,1-.47.47H118a.42.42,0,0,1-.48-.47V7a.42.42,0,0,1,.48-.48h1.53A.42.42,0,0,1,120,7Z" fill="#fff"/><path d="M127.37,23.39V22.3a.42.42,0,0,1,.47-.47h1.53a.42.42,0,0,1,.48.47v.89q0,3.06,3,3.06h3q3,0,3-3.13V22q0-2.45-4-3.19c-1.14-.21-2.27-.44-3.4-.72a5.91,5.91,0,0,1-2.89-1.58,4.27,4.27,0,0,1-1.19-3.21V11.59a4.94,4.94,0,0,1,1.34-3.68,5,5,0,0,1,3.69-1.35h3.77a5,5,0,0,1,3.67,1.35,4.92,4.92,0,0,1,1.37,3.68v.85q0,.51-.45.51H139.2c-.3,0-.44-.17-.44-.51v-.61q0-3.09-3-3.09h-2.89c-2,0-3,1.07-3,3.23v1.36c0,1.15.76,1.95,2.28,2.38.68.18,1.43.34,2.25.49s1.63.34,2.46.58a12.51,12.51,0,0,1,2.26.88,4.09,4.09,0,0,1,1.65,1.6,5.06,5.06,0,0,1,.63,2.6v1.53A4.92,4.92,0,0,1,140,27.08a5,5,0,0,1-3.67,1.34H132.4a4.66,4.66,0,0,1-5-5Z" fill="#fff"/><path d="M153.85,28.42h-1.53a.41.41,0,0,1-.47-.47V9c0-.2-.12-.3-.34-.3h-4.63q-.51,0-.51-.48V7q0-.48.51-.48h12.41q.51,0,.51.48V8.26q0,.48-.51.48h-4.62c-.23,0-.34.1-.34.3V28A.42.42,0,0,1,153.85,28.42Z" fill="#fff"/><path d="M165.34,28.42h-1.7c-.29,0-.39-.15-.3-.47L169.7,7a.6.6,0,0,1,.64-.48h2.45a.61.61,0,0,1,.65.48L179.79,28c.09.32,0,.47-.3.47h-1.74c-.25,0-.4-.15-.47-.47l-1.6-5h-8.23l-1.6,5C165.76,28.27,165.59,28.42,165.34,28.42ZM171.5,9.11,168,20.88h7.14L171.63,9.11Z" fill="#fff"/><path d="M204.88,28.42h-4a5,5,0,0,1-3.69-1.32,5,5,0,0,1-1.34-3.71V11.59a4.94,4.94,0,0,1,1.34-3.7,5,5,0,0,1,3.69-1.33h4a5,5,0,0,1,3.69,1.35,5,5,0,0,1,1.35,3.68v11.8a4.65,4.65,0,0,1-5,5Zm-3.77-2.17h3.47c1.9,0,2.86-1,2.86-3V11.7c0-2-1-3-2.86-3h-3.47c-1.88,0-2.82,1-2.82,3V23.29C198.29,25.26,199.23,26.25,201.11,26.25Z" fill="#fff"/><path d="M227.19,27.71V7.28a.63.63,0,0,1,.71-.72h8.16A5.7,5.7,0,0,1,240.21,8a5.42,5.42,0,0,1,1.46,4.08v1.39A3.55,3.55,0,0,1,239,17.2a3.56,3.56,0,0,1,2.17,1.11,3.67,3.67,0,0,1,.82,2.57v2A5.49,5.49,0,0,1,240.52,27a5.67,5.67,0,0,1-4.12,1.42h-8.5A.63.63,0,0,1,227.19,27.71Zm4.69-12.27h3.47A2.39,2.39,0,0,0,237,15a2,2,0,0,0,.51-1.52V12.14a2,2,0,0,0-.5-1.51,2.24,2.24,0,0,0-1.58-.46h-3.5a.32.32,0,0,0-.37.37v4.52A.33.33,0,0,0,231.88,15.44Zm0,9.38h3.81a2.29,2.29,0,0,0,1.61-.46,2,2,0,0,0,.5-1.51v-2a1.89,1.89,0,0,0-.51-1.5,2.57,2.57,0,0,0-1.67-.44h-3.74a.32.32,0,0,0-.37.37v5.14A.32.32,0,0,0,231.88,24.82Z" fill="#fba719"/><path d="M257.18,28.42h-3.81A5.71,5.71,0,0,1,249.22,27a5.54,5.54,0,0,1-1.46-4.12V12.1A5.5,5.5,0,0,1,249.22,8a5.71,5.71,0,0,1,4.15-1.43h3.81A5.67,5.67,0,0,1,261.32,8a5.46,5.46,0,0,1,1.47,4.11V22.88A5.5,5.5,0,0,1,261.32,27,5.67,5.67,0,0,1,257.18,28.42Zm1.94-24h-2.05A.55.55,0,0,1,256.5,4l-1.12-2.25L254.29,4a.62.62,0,0,1-.61.41h-2q-.51,0-.27-.45L253.54.37a.89.89,0,0,1,.75-.37h2.21a.92.92,0,0,1,.75.37l2.1,3.57C259.51,4.24,259.43,4.39,259.12,4.39Zm-5.07,20.29h2.41a2.16,2.16,0,0,0,1.55-.45,2.14,2.14,0,0,0,.46-1.55V12.31a2.13,2.13,0,0,0-.46-1.55,2.16,2.16,0,0,0-1.55-.46h-2.41a2.09,2.09,0,0,0-1.53.46,2.18,2.18,0,0,0-.44,1.55V22.68a2.19,2.19,0,0,0,.44,1.55A2.09,2.09,0,0,0,254.05,24.68Z" fill="#fba719"/><path d="M272.44,28.42h-2.82a.62.62,0,0,1-.71-.71V7.28a.63.63,0,0,1,.71-.72h2.55a1,1,0,0,1,.95.48L280,19.92h.14V7.28a.63.63,0,0,1,.71-.72h2.82a.64.64,0,0,1,.72.72V27.71a.63.63,0,0,1-.72.71h-2.48a1.13,1.13,0,0,1-1.09-.68l-6.8-12.64h-.13V27.71A.63.63,0,0,1,272.44,28.42Z" fill="#fba719"/><path d="M302,6.56h2.86c.5,0,.75.23.75.68V22.88a5.49,5.49,0,0,1-1.48,4.1A5.67,5.67,0,0,1,300,28.42h-3.74A5.69,5.69,0,0,1,292.13,27a5.5,5.5,0,0,1-1.46-4.12V7.28a.63.63,0,0,1,.71-.72h2.89a.63.63,0,0,1,.71.72v15.4a2.19,2.19,0,0,0,.46,1.55,2.12,2.12,0,0,0,1.52.45h2.34a2.17,2.17,0,0,0,1.55-.45,2.14,2.14,0,0,0,.46-1.55V7.28A.63.63,0,0,1,302,6.56Z" fill="#fba719"/><path d="M311.37,22.85v-.68a.64.64,0,0,1,.72-.72H315a.63.63,0,0,1,.71.72v.27a2.4,2.4,0,0,0,.51,1.77,2.75,2.75,0,0,0,1.87.47h1.6a2.64,2.64,0,0,0,1.85-.51,2.63,2.63,0,0,0,.53-1.9v-.41a1.7,1.7,0,0,0-.8-1.51,4.26,4.26,0,0,0-2-.63,22.7,22.7,0,0,1-2.57-.39,16,16,0,0,1-2.56-.75,4,4,0,0,1-2-1.8,6.72,6.72,0,0,1-.8-3.45V12.14A5.53,5.53,0,0,1,312.83,8,5.71,5.71,0,0,1,317,6.56h3.4A5.73,5.73,0,0,1,324.56,8a5.5,5.5,0,0,1,1.5,4.12v.64a.63.63,0,0,1-.71.72h-2.89a.64.64,0,0,1-.72-.72v-.2a2.45,2.45,0,0,0-.51-1.8,2.75,2.75,0,0,0-1.87-.48H318a2.59,2.59,0,0,0-1.89.53,3.11,3.11,0,0,0-.49,2.06v.64c0,1.07.93,1.68,2.79,1.84a17.42,17.42,0,0,1,5.13,1.15,4.38,4.38,0,0,1,2,1.82,6.39,6.39,0,0,1,.8,3.35v1.16a5.46,5.46,0,0,1-1.5,4.11,5.66,5.66,0,0,1-4.15,1.46H317A5.66,5.66,0,0,1,312.87,27,5.46,5.46,0,0,1,311.37,22.85Z" fill="#fba719"/><path d="M354.59,28.42H343.91a.42.42,0,0,1-.48-.47V7a.42.42,0,0,1,.48-.48h10.68a.42.42,0,0,1,.47.48V8.26a.42.42,0,0,1-.47.48h-8.33c-.23,0-.34.1-.34.3v6.87c0,.21.11.31.34.31h7.27a.42.42,0,0,1,.48.47v1.23a.42.42,0,0,1-.48.47h-7.27c-.23,0-.34.11-.34.31v7.24c0,.21.11.31.34.31h8.33a.42.42,0,0,1,.47.47V28A.41.41,0,0,1,354.59,28.42Z" fill="#fba719"/><path d="M362.27,28.42H360.5a.33.33,0,0,1-.32-.15.36.36,0,0,1,0-.36L366.15,17,360.5,7.07a.29.29,0,0,1,0-.35.37.37,0,0,1,.34-.16h1.7a.75.75,0,0,1,.75.48l4.55,8.36H368L372.44,7a.83.83,0,0,1,.74-.48H375a.34.34,0,0,1,.33.16.37.37,0,0,1,0,.35L369.58,17l5.92,10.94a.3.3,0,0,1-.28.51h-1.8a.62.62,0,0,1-.64-.44l-4.87-9.11h-.13L363,28A.74.74,0,0,1,362.27,28.42Z" fill="#fba719"/><path d="M390.08,28.42H386a5.05,5.05,0,0,1-3.69-1.32A5,5,0,0,1,381,23.39V11.59a5,5,0,0,1,1.34-3.7A5,5,0,0,1,386,6.56h4.08a5,5,0,0,1,3.69,1.33,4.94,4.94,0,0,1,1.34,3.7v1.67a.42.42,0,0,1-.47.48h-1.53a.42.42,0,0,1-.48-.48V11.7c0-2-.95-3-2.85-3h-3.51c-1.88,0-2.82,1-2.82,3V23.29c0,2,.94,3,2.82,3h3.51c1.9,0,2.85-1,2.85-3V21.73a.42.42,0,0,1,.48-.48h1.53a.42.42,0,0,1,.47.48v1.66a5,5,0,0,1-1.34,3.71A5,5,0,0,1,390.08,28.42Z" fill="#fba719"/><path d="M413.13,28.42H402.22a.42.42,0,0,1-.48-.47V7a.42.42,0,0,1,.48-.48h1.53a.42.42,0,0,1,.47.48V25.87c0,.21.12.31.34.31h8.57q.48,0,.48.51V28A.42.42,0,0,1,413.13,28.42Z" fill="#fba719"/><path d="M430.74,6.56h1.53c.32,0,.48.15.48.44V23.39a4.6,4.6,0,0,1-5,5H424a5,5,0,0,1-3.69-1.32A5,5,0,0,1,419,23.39V7a.42.42,0,0,1,.47-.48H421a.42.42,0,0,1,.48.48V23.29c0,2,.94,3,2.82,3h3.2c1.9,0,2.85-1,2.85-3V7C430.3,6.72,430.45,6.56,430.74,6.56Z" fill="#fba719"/><path d="M439.75,23.39V22.3a.42.42,0,0,1,.48-.47h1.53a.42.42,0,0,1,.48.47v.89c0,2,1,3.06,3,3.06h3q3,0,3-3.13V22q0-2.45-4-3.19c-1.13-.21-2.26-.44-3.4-.72a6,6,0,0,1-2.89-1.58,4.31,4.31,0,0,1-1.19-3.21V11.59a5,5,0,0,1,1.35-3.68,5,5,0,0,1,3.69-1.35h3.77a5,5,0,0,1,3.67,1.35,4.91,4.91,0,0,1,1.36,3.68v.85c0,.34-.14.51-.44.51h-1.56q-.45,0-.45-.51v-.61q0-3.09-3-3.09h-2.89c-2,0-3,1.07-3,3.23v1.36c0,1.15.76,1.95,2.28,2.38.68.18,1.43.34,2.24.49a25.16,25.16,0,0,1,2.47.58,12.51,12.51,0,0,1,2.26.88,4.09,4.09,0,0,1,1.65,1.6,5.06,5.06,0,0,1,.63,2.6v1.53a4.92,4.92,0,0,1-1.36,3.69,5,5,0,0,1-3.67,1.34h-3.91a4.66,4.66,0,0,1-5-5Z" fill="#fba719"/><path d="M463.55,7V28a.41.41,0,0,1-.47.47h-1.53a.42.42,0,0,1-.48-.47V7a.42.42,0,0,1,.48-.48h1.53A.42.42,0,0,1,463.55,7Z" fill="#fba719"/><path d="M478.28,28.42h-2.42a.57.57,0,0,1-.58-.47l-6-20.88c-.07-.34.08-.51.44-.51h1.66a.53.53,0,0,1,.55.48L477,25.64h.14L482.19,7a.52.52,0,0,1,.54-.48h1.7c.34,0,.48.17.41.51l-6,20.88C478.73,28.27,478.55,28.42,478.28,28.42Z" fill="#fba719"/><path d="M499.12,28.42h-4.05a5.05,5.05,0,0,1-3.69-1.32A5,5,0,0,1,490,23.39V11.59a5,5,0,0,1,1.34-3.7,5,5,0,0,1,3.69-1.33h4.05a5,5,0,0,1,3.69,1.35,5,5,0,0,1,1.34,3.68v11.8a4.64,4.64,0,0,1-5,5Zm-3.78-2.17h3.47c1.91,0,2.86-1,2.86-3V11.7c0-2-.95-3-2.86-3h-3.47c-1.88,0-2.82,1-2.82,3V23.29C492.52,25.26,493.46,26.25,495.34,26.25Z" fill="#fba719"/><polyline points="530.5 17.86 560.5 17.86 560.5 247.86 0.5 247.86 0.5 17.86 30.5 17.86" fill="none" stroke="#fff" stroke-miterlimit="10"/><rect x="57.5" y="62.78" width="238.21" height="148.88" fill="#4545e6"/><path d="M337.24,83.94H334a4.34,4.34,0,0,1-3.21-1.14,4.4,4.4,0,0,1-1.13-3.2V70.27A4,4,0,0,1,334,65.92h3.25a4.39,4.39,0,0,1,3.23,1.14,4.31,4.31,0,0,1,1.14,3.21V79.6a4,4,0,0,1-4.37,4.34Zm-2.86-2.38h2.44a1.82,1.82,0,0,0,2.05-2.07V70.38a1.83,1.83,0,0,0-2.05-2.08h-2.44a1.81,1.81,0,0,0-2,2.08v9.11A1.8,1.8,0,0,0,334.38,81.56Z" fill="none" stroke-linecap="round" stroke-linejoin="round" stroke-width="0.78" stroke="url(#6a3d1abc-26fc-42de-8598-e8cf8fcfd938)"/><path d="M348.76,83.94H347a.42.42,0,0,1-.48-.47V66.4a.42.42,0,0,1,.48-.48h6.55a4,4,0,0,1,4.38,4.37v2.36q0,3.22-2.67,4.06v.12l3.12,6.55c.2.38.08.56-.37.56h-1.74a.83.83,0,0,1-.87-.47l-3-6.45h-2.83c-.22,0-.33.1-.33.28v6.17A.42.42,0,0,1,348.76,83.94Zm.79-9.16h3.56a1.82,1.82,0,0,0,2.07-2V70.38a1.84,1.84,0,0,0-2.07-2.08h-3.56c-.21,0-.31.1-.31.29V74.5C349.24,74.69,349.34,74.78,349.55,74.78Z" fill="none" stroke-linecap="round" stroke-linejoin="round" stroke-width="0.78" stroke="url(#6a3d1abc-26fc-42de-8598-e8cf8fcfd938)"/><path d="M369.89,83.94h-3a4.31,4.31,0,0,1-3.21-1.14,4.36,4.36,0,0,1-1.14-3.2V70.27a4,4,0,0,1,4.35-4.35h3a4,4,0,0,1,4.35,4.35v1c0,.33-.16.5-.48.5H372c-.32,0-.48-.17-.48-.5v-.9a1.81,1.81,0,0,0-2-2.08h-2.21a1.81,1.81,0,0,0-2,2.08v9.11a1.81,1.81,0,0,0,2,2.07h2.21a1.81,1.81,0,0,0,2-2.07V77c0-.19-.1-.28-.31-.28h-2.27a.42.42,0,0,1-.48-.48V74.78a.42.42,0,0,1,.48-.48h4.71a.52.52,0,0,1,.59.59V79.6a4,4,0,0,1-4.35,4.34Z" fill="none" stroke-linecap="round" stroke-linejoin="round" stroke-width="0.78" stroke="url(#6a3d1abc-26fc-42de-8598-e8cf8fcfd938)"/><path d="M380.15,83.94h-2c-.26,0-.35-.15-.28-.47l4.88-17.07a.63.63,0,0,1,.67-.48h2.81a.61.61,0,0,1,.67.48l4.88,17.07c.07.32,0,.47-.31.47h-2a.51.51,0,0,1-.35-.09.75.75,0,0,1-.16-.38l-1.06-3.65h-6.17l-1.06,3.65C380.58,83.79,380.41,83.94,380.15,83.94Zm4.6-15.33-2.47,9h5.08l-2.5-9Z" fill="none" stroke-linecap="round" stroke-linejoin="round" stroke-width="0.78" stroke="url(#6a3d1abc-26fc-42de-8598-e8cf8fcfd938)"/><path d="M397.87,83.94h-1.74a.42.42,0,0,1-.48-.47V66.4a.42.42,0,0,1,.48-.48h1.57a.64.64,0,0,1,.61.31l6.79,12.19h.11v-12a.42.42,0,0,1,.48-.48h1.73a.42.42,0,0,1,.48.48V83.47a.42.42,0,0,1-.48.47h-1.51a.83.83,0,0,1-.73-.44l-6.73-12.06h-.11v12A.41.41,0,0,1,397.87,83.94Z" fill="none" stroke-linecap="round" stroke-linejoin="round" stroke-width="0.78" stroke="url(#6a3d1abc-26fc-42de-8598-e8cf8fcfd938)"/><path d="M416,66.4V83.47a.41.41,0,0,1-.47.47h-1.77a.42.42,0,0,1-.48-.47V66.4a.42.42,0,0,1,.48-.48h1.77A.42.42,0,0,1,416,66.4Z" fill="none" stroke-linecap="round" stroke-linejoin="round" stroke-width="0.78" stroke="url(#6a3d1abc-26fc-42de-8598-e8cf8fcfd938)"/><path d="M420.57,83.47V82.15a1.67,1.67,0,0,1,.25-1l8.1-12.52v-.12h-7.43c-.33,0-.5-.16-.5-.47V66.4c0-.32.17-.48.5-.48h9.92a.42.42,0,0,1,.48.48v1.85a1.93,1.93,0,0,1-.31,1.09l-7.79,11.94v.11h7.9q.48,0,.48.45v1.57c0,.36-.16.53-.48.53H421A.41.41,0,0,1,420.57,83.47Z" fill="none" stroke-linecap="round" stroke-linejoin="round" stroke-width="0.78" stroke="url(#6a3d1abc-26fc-42de-8598-e8cf8fcfd938)"/><path d="M437.61,83.94h-2c-.26,0-.35-.15-.28-.47l4.88-17.07a.62.62,0,0,1,.67-.48h2.8a.61.61,0,0,1,.68.48l4.87,17.07c.08.32,0,.47-.31.47h-2a.54.54,0,0,1-.35-.09.87.87,0,0,1-.15-.38l-1.07-3.65h-6.16l-1.07,3.65C438,83.79,437.87,83.94,437.61,83.94Zm4.6-15.33-2.47,9h5.07l-2.49-9Z" fill="none" stroke-linecap="round" stroke-linejoin="round" stroke-width="0.78" stroke="url(#6a3d1abc-26fc-42de-8598-e8cf8fcfd938)"/><path d="M455.32,83.94h-1.74a.41.41,0,0,1-.47-.47V66.4a.42.42,0,0,1,.47-.48h1.57a.65.65,0,0,1,.62.31l6.78,12.19h.12v-12a.42.42,0,0,1,.47-.48h1.74a.42.42,0,0,1,.48.48V83.47a.42.42,0,0,1-.48.47h-1.51a.82.82,0,0,1-.73-.44l-6.73-12.06h-.11v12A.42.42,0,0,1,455.32,83.94Z" fill="none" stroke-linecap="round" stroke-linejoin="round" stroke-width="0.78" stroke="url(#6a3d1abc-26fc-42de-8598-e8cf8fcfd938)"/><path d="M470.57,83.47V66.4a.42.42,0,0,1,.48-.48h6.89a4.4,4.4,0,0,1,3.21,1.14,4.28,4.28,0,0,1,1.16,3.21V79.6a4.33,4.33,0,0,1-1.16,3.2,4.4,4.4,0,0,1-3.21,1.14h-6.89A.42.42,0,0,1,470.57,83.47Zm3-1.91h3.95a1.81,1.81,0,0,0,2-2.07V70.38a1.82,1.82,0,0,0-2-2.08H473.6c-.21,0-.31.1-.31.29V81.25A.27.27,0,0,0,473.6,81.56Z" fill="none" stroke-linecap="round" stroke-linejoin="round" stroke-width="0.78" stroke="url(#6a3d1abc-26fc-42de-8598-e8cf8fcfd938)"/><path d="M494.56,83.94h-3.25A3.95,3.95,0,0,1,487,79.6V70.27a4,4,0,0,1,4.34-4.35h3.25a4.41,4.41,0,0,1,3.23,1.14,4.31,4.31,0,0,1,1.14,3.21V79.6a4,4,0,0,1-4.37,4.34Zm-2.86-2.38h2.44a1.82,1.82,0,0,0,2.05-2.07V70.38a1.83,1.83,0,0,0-2.05-2.08H491.7a1.82,1.82,0,0,0-2,2.08v9.11A1.81,1.81,0,0,0,491.7,81.56Z" fill="none" stroke-linecap="round" stroke-linejoin="round" stroke-width="0.78" stroke="url(#6a3d1abc-26fc-42de-8598-e8cf8fcfd938)"/><path d="M329.79,113.74h-.87c-.21,0-.27-.11-.2-.34l5.58-17.35a.38.38,0,0,1,.39-.33H336a.4.4,0,0,1,.39.33L342,113.4c.06.23,0,.34-.2.34h-.89c-.19,0-.31-.11-.37-.34L339,108.92h-7.34l-1.52,4.48C330.08,113.63,330,113.74,329.79,113.74Zm5.49-16.48-3.22,10.4h6.58l-3.25-10.4Z" fill="none" stroke-linecap="round" stroke-linejoin="round" stroke-width="0.78" stroke="url(#6a3d1abc-26fc-42de-8598-e8cf8fcfd938)"/><path d="M361.65,113.74h-3a4.27,4.27,0,0,1-3.21-1.15,4.34,4.34,0,0,1-1.14-3.19v-9.34a4,4,0,0,1,4.35-4.34h3a4,4,0,0,1,4.35,4.34v1q0,.51-.48.51h-1.76q-.48,0-.48-.51v-.9a1.81,1.81,0,0,0-2-2.07h-2.21a1.81,1.81,0,0,0-2,2.07v9.11a1.81,1.81,0,0,0,2,2.08h2.21a1.81,1.81,0,0,0,2-2.08v-2.52c0-.19-.1-.28-.31-.28H360.7a.42.42,0,0,1-.48-.48v-1.43a.42.42,0,0,1,.48-.47h4.71a.52.52,0,0,1,.59.59v4.71a4,4,0,0,1-4.35,4.34Z" fill="none" stroke-linecap="round" stroke-linejoin="round" stroke-width="0.78" stroke="url(#6a3d1abc-26fc-42de-8598-e8cf8fcfd938)"/><path d="M380.38,113.74h-9a.42.42,0,0,1-.48-.48V96.19a.42.42,0,0,1,.48-.47h9c.3,0,.45.16.45.47v1.43q0,.48-.45.48H374c-.23,0-.34.09-.34.28v4.74c0,.18.11.28.34.28h5.41c.33,0,.5.16.5.47v1.43c0,.32-.17.48-.5.48H374c-.23,0-.34.09-.34.28v5c0,.21.11.31.34.31h6.39c.3,0,.45.16.45.47v1.43Q380.83,113.74,380.38,113.74Z" fill="none" stroke-linecap="round" stroke-linejoin="round" stroke-width="0.78" stroke="url(#6a3d1abc-26fc-42de-8598-e8cf8fcfd938)"/><path d="M385.17,109.37v-.73a.42.42,0,0,1,.48-.48h1.79a.42.42,0,0,1,.48.48v.5a1.89,1.89,0,0,0,2.24,2.22h1.93a2.31,2.31,0,0,0,1.74-.55,2.51,2.51,0,0,0,.53-1.78v-.64a1.7,1.7,0,0,0-.68-1.42,3.76,3.76,0,0,0-1.7-.67c-.67-.1-1.41-.25-2.21-.44a18.44,18.44,0,0,1-2.22-.64,3.42,3.42,0,0,1-1.69-1.37,4.51,4.51,0,0,1-.69-2.58v-1.18a4,4,0,0,1,4.37-4.37h3a4.4,4.4,0,0,1,3.24,1.16,4.33,4.33,0,0,1,1.16,3.21v.62a.42.42,0,0,1-.47.47h-1.8a.42.42,0,0,1-.47-.47v-.37a1.9,1.9,0,0,0-2.25-2.24h-1.76a2.3,2.3,0,0,0-1.73.55,2.69,2.69,0,0,0-.51,1.86v.87c0,.84.6,1.41,1.82,1.71.54.13,1.13.24,1.78.34a14.19,14.19,0,0,1,2,.42,7.74,7.74,0,0,1,1.79.74,3.44,3.44,0,0,1,1.32,1.4,4.86,4.86,0,0,1,.5,2.28v1.1a4,4,0,0,1-4.37,4.37h-3.14a4.4,4.4,0,0,1-3.22-1.16A4.3,4.3,0,0,1,385.17,109.37Z" fill="none" stroke-linecap="round" stroke-linejoin="round" stroke-width="0.78" stroke="url(#6a3d1abc-26fc-42de-8598-e8cf8fcfd938)"/><path d="M406.92,113.74h-1.77c-.33,0-.5-.16-.5-.48V98.38a.24.24,0,0,0-.28-.28h-3.53q-.51,0-.51-.48V96.19c0-.31.17-.47.51-.47h10.4c.33,0,.5.16.5.47v1.43c0,.32-.17.48-.5.48H407.7c-.2,0-.3.09-.3.28v14.88A.42.42,0,0,1,406.92,113.74Z" fill="none" stroke-linecap="round" stroke-linejoin="round" stroke-width="0.78" stroke="url(#6a3d1abc-26fc-42de-8598-e8cf8fcfd938)"/><path d="M416.25,113.74h-2c-.26,0-.35-.16-.28-.48l4.88-17.07a.63.63,0,0,1,.67-.47h2.81a.61.61,0,0,1,.67.47l4.88,17.07c.07.32,0,.48-.31.48h-2a.46.46,0,0,1-.35-.1.71.71,0,0,1-.16-.38L424,109.62h-6.17l-1.06,3.64Q416.64,113.74,416.25,113.74Zm3.34-19.68c-1.27,0-1.91-.71-1.91-2.15v-1.1a.25.25,0,0,1,.28-.28h.84a.25.25,0,0,1,.28.28v.56a2.33,2.33,0,0,0,.13,1,.41.41,0,0,0,.39.25.57.57,0,0,0,.44-.2,8.53,8.53,0,0,0,.56-.89,1.86,1.86,0,0,1,1.65-1.07c1.25,0,1.88.72,1.88,2.16v1.06c0,.23-.09.34-.25.34H423c-.18,0-.28-.11-.28-.34v-.53a2.62,2.62,0,0,0-.11-1,.41.41,0,0,0-.4-.23.51.51,0,0,0-.42.14,2,2,0,0,0-.28.39c-.11.17-.17.27-.19.29s-.09.18-.22.44A1.65,1.65,0,0,1,419.59,94.06Zm1.26,4.35-2.47,9h5.08l-2.5-9Z" fill="none" stroke-linecap="round" stroke-linejoin="round" stroke-width="0.78" stroke="url(#6a3d1abc-26fc-42de-8598-e8cf8fcfd938)"/><path d="M439,113.74h-3.25a4.29,4.29,0,0,1-3.21-1.15,4.34,4.34,0,0,1-1.14-3.19v-9.34a4,4,0,0,1,4.35-4.34H439a4.4,4.4,0,0,1,3.22,1.13,4.31,4.31,0,0,1,1.15,3.21v9.34a4,4,0,0,1-4.37,4.34Zm-2.86-2.38h2.44a1.83,1.83,0,0,0,2.05-2.08v-9.11a1.82,1.82,0,0,0-2.05-2.07h-2.44a1.81,1.81,0,0,0-2,2.07v9.11A1.81,1.81,0,0,0,436.18,111.36Z" fill="none" stroke-linecap="round" stroke-linejoin="round" stroke-width="0.78" stroke="url(#6a3d1abc-26fc-42de-8598-e8cf8fcfd938)"/><path d="M337.24,83.94H334a4.34,4.34,0,0,1-3.21-1.14,4.4,4.4,0,0,1-1.13-3.2V70.27A4,4,0,0,1,334,65.92h3.25a4.39,4.39,0,0,1,3.23,1.14,4.31,4.31,0,0,1,1.14,3.21V79.6a4,4,0,0,1-4.37,4.34Zm-2.86-2.38h2.44a1.82,1.82,0,0,0,2.05-2.07V70.38a1.83,1.83,0,0,0-2.05-2.08h-2.44a1.81,1.81,0,0,0-2,2.08v9.11A1.8,1.8,0,0,0,334.38,81.56Z" fill="url(#cf34f857-37fa-44a1-ba2c-0e5db21d1ba6)"/><path d="M348.76,83.94H347a.42.42,0,0,1-.48-.47V66.4a.42.42,0,0,1,.48-.48h6.55a4,4,0,0,1,4.38,4.37v2.36q0,3.22-2.67,4.06v.12l3.12,6.55c.2.38.08.56-.37.56h-1.74a.83.83,0,0,1-.87-.47l-3-6.45h-2.83c-.22,0-.33.1-.33.28v6.17A.42.42,0,0,1,348.76,83.94Zm.79-9.16h3.56a1.82,1.82,0,0,0,2.07-2V70.38a1.84,1.84,0,0,0-2.07-2.08h-3.56c-.21,0-.31.1-.31.29V74.5C349.24,74.69,349.34,74.78,349.55,74.78Z" fill="url(#cf34f857-37fa-44a1-ba2c-0e5db21d1ba6)"/><path d="M369.89,83.94h-3a4.31,4.31,0,0,1-3.21-1.14,4.36,4.36,0,0,1-1.14-3.2V70.27a4,4,0,0,1,4.35-4.35h3a4,4,0,0,1,4.35,4.35v1c0,.33-.16.5-.48.5H372c-.32,0-.48-.17-.48-.5v-.9a1.81,1.81,0,0,0-2-2.08h-2.21a1.81,1.81,0,0,0-2,2.08v9.11a1.81,1.81,0,0,0,2,2.07h2.21a1.81,1.81,0,0,0,2-2.07V77c0-.19-.1-.28-.31-.28h-2.27a.42.42,0,0,1-.48-.48V74.78a.42.42,0,0,1,.48-.48h4.71a.52.52,0,0,1,.59.59V79.6a4,4,0,0,1-4.35,4.34Z" fill="url(#cf34f857-37fa-44a1-ba2c-0e5db21d1ba6)"/><path d="M380.15,83.94h-2c-.26,0-.35-.15-.28-.47l4.88-17.07a.63.63,0,0,1,.67-.48h2.81a.61.61,0,0,1,.67.48l4.88,17.07c.07.32,0,.47-.31.47h-2a.51.51,0,0,1-.35-.09.75.75,0,0,1-.16-.38l-1.06-3.65h-6.17l-1.06,3.65C380.58,83.79,380.41,83.94,380.15,83.94Zm4.6-15.33-2.47,9h5.08l-2.5-9Z" fill="url(#cf34f857-37fa-44a1-ba2c-0e5db21d1ba6)"/><path d="M397.87,83.94h-1.74a.42.42,0,0,1-.48-.47V66.4a.42.42,0,0,1,.48-.48h1.57a.64.64,0,0,1,.61.31l6.79,12.19h.11v-12a.42.42,0,0,1,.48-.48h1.73a.42.42,0,0,1,.48.48V83.47a.42.42,0,0,1-.48.47h-1.51a.83.83,0,0,1-.73-.44l-6.73-12.06h-.11v12A.41.41,0,0,1,397.87,83.94Z" fill="url(#cf34f857-37fa-44a1-ba2c-0e5db21d1ba6)"/><path d="M416,66.4V83.47a.41.41,0,0,1-.47.47h-1.77a.42.42,0,0,1-.48-.47V66.4a.42.42,0,0,1,.48-.48h1.77A.42.42,0,0,1,416,66.4Z" fill="url(#cf34f857-37fa-44a1-ba2c-0e5db21d1ba6)"/><path d="M420.57,83.47V82.15a1.67,1.67,0,0,1,.25-1l8.1-12.52v-.12h-7.43c-.33,0-.5-.16-.5-.47V66.4c0-.32.17-.48.5-.48h9.92a.42.42,0,0,1,.48.48v1.85a1.93,1.93,0,0,1-.31,1.09l-7.79,11.94v.11h7.9q.48,0,.48.45v1.57c0,.36-.16.53-.48.53H421A.41.41,0,0,1,420.57,83.47Z" fill="url(#cf34f857-37fa-44a1-ba2c-0e5db21d1ba6)"/><path d="M437.61,83.94h-2c-.26,0-.35-.15-.28-.47l4.88-17.07a.62.62,0,0,1,.67-.48h2.8a.61.61,0,0,1,.68.48l4.87,17.07c.08.32,0,.47-.31.47h-2a.54.54,0,0,1-.35-.09.87.87,0,0,1-.15-.38l-1.07-3.65h-6.16l-1.07,3.65C438,83.79,437.87,83.94,437.61,83.94Zm4.6-15.33-2.47,9h5.07l-2.49-9Z" fill="url(#cf34f857-37fa-44a1-ba2c-0e5db21d1ba6)"/><path d="M455.32,83.94h-1.74a.41.41,0,0,1-.47-.47V66.4a.42.42,0,0,1,.47-.48h1.57a.65.65,0,0,1,.62.31l6.78,12.19h.12v-12a.42.42,0,0,1,.47-.48h1.74a.42.42,0,0,1,.48.48V83.47a.42.42,0,0,1-.48.47h-1.51a.82.82,0,0,1-.73-.44l-6.73-12.06h-.11v12A.42.42,0,0,1,455.32,83.94Z" fill="url(#cf34f857-37fa-44a1-ba2c-0e5db21d1ba6)"/><path d="M470.57,83.47V66.4a.42.42,0,0,1,.48-.48h6.89a4.4,4.4,0,0,1,3.21,1.14,4.28,4.28,0,0,1,1.16,3.21V79.6a4.33,4.33,0,0,1-1.16,3.2,4.4,4.4,0,0,1-3.21,1.14h-6.89A.42.42,0,0,1,470.57,83.47Zm3-1.91h3.95a1.81,1.81,0,0,0,2-2.07V70.38a1.82,1.82,0,0,0-2-2.08H473.6c-.21,0-.31.1-.31.29V81.25A.27.27,0,0,0,473.6,81.56Z" fill="url(#cf34f857-37fa-44a1-ba2c-0e5db21d1ba6)"/><path d="M494.56,83.94h-3.25A3.95,3.95,0,0,1,487,79.6V70.27a4,4,0,0,1,4.34-4.35h3.25a4.41,4.41,0,0,1,3.23,1.14,4.31,4.31,0,0,1,1.14,3.21V79.6a4,4,0,0,1-4.37,4.34Zm-2.86-2.38h2.44a1.82,1.82,0,0,0,2.05-2.07V70.38a1.83,1.83,0,0,0-2.05-2.08H491.7a1.82,1.82,0,0,0-2,2.08v9.11A1.81,1.81,0,0,0,491.7,81.56Z" fill="url(#cf34f857-37fa-44a1-ba2c-0e5db21d1ba6)"/><path d="M329.79,113.74h-.87c-.21,0-.27-.11-.2-.34l5.58-17.35a.38.38,0,0,1,.39-.33H336a.4.4,0,0,1,.39.33L342,113.4c.06.23,0,.34-.2.34h-.89c-.19,0-.31-.11-.37-.34L339,108.92h-7.34l-1.52,4.48C330.08,113.63,330,113.74,329.79,113.74Zm5.49-16.48-3.22,10.4h6.58l-3.25-10.4Z" fill="url(#cf34f857-37fa-44a1-ba2c-0e5db21d1ba6)"/><path d="M361.65,113.74h-3a4.27,4.27,0,0,1-3.21-1.15,4.34,4.34,0,0,1-1.14-3.19v-9.34a4,4,0,0,1,4.35-4.34h3a4,4,0,0,1,4.35,4.34v1q0,.51-.48.51h-1.76q-.48,0-.48-.51v-.9a1.81,1.81,0,0,0-2-2.07h-2.21a1.81,1.81,0,0,0-2,2.07v9.11a1.81,1.81,0,0,0,2,2.08h2.21a1.81,1.81,0,0,0,2-2.08v-2.52c0-.19-.1-.28-.31-.28H360.7a.42.42,0,0,1-.48-.48v-1.43a.42.42,0,0,1,.48-.47h4.71a.52.52,0,0,1,.59.59v4.71a4,4,0,0,1-4.35,4.34Z" fill="url(#cf34f857-37fa-44a1-ba2c-0e5db21d1ba6)"/><path d="M380.38,113.74h-9a.42.42,0,0,1-.48-.48V96.19a.42.42,0,0,1,.48-.47h9c.3,0,.45.16.45.47v1.43q0,.48-.45.48H374c-.23,0-.34.09-.34.28v4.74c0,.18.11.28.34.28h5.41c.33,0,.5.16.5.47v1.43c0,.32-.17.48-.5.48H374c-.23,0-.34.09-.34.28v5c0,.21.11.31.34.31h6.39c.3,0,.45.16.45.47v1.43Q380.83,113.74,380.38,113.74Z" fill="url(#cf34f857-37fa-44a1-ba2c-0e5db21d1ba6)"/><path d="M385.17,109.37v-.73a.42.42,0,0,1,.48-.48h1.79a.42.42,0,0,1,.48.48v.5a1.89,1.89,0,0,0,2.24,2.22h1.93a2.31,2.31,0,0,0,1.74-.55,2.51,2.51,0,0,0,.53-1.78v-.64a1.7,1.7,0,0,0-.68-1.42,3.76,3.76,0,0,0-1.7-.67c-.67-.1-1.41-.25-2.21-.44a18.44,18.44,0,0,1-2.22-.64,3.42,3.42,0,0,1-1.69-1.37,4.51,4.51,0,0,1-.69-2.58v-1.18a4,4,0,0,1,4.37-4.37h3a4.4,4.4,0,0,1,3.24,1.16,4.33,4.33,0,0,1,1.16,3.21v.62a.42.42,0,0,1-.47.47h-1.8a.42.42,0,0,1-.47-.47v-.37a1.9,1.9,0,0,0-2.25-2.24h-1.76a2.3,2.3,0,0,0-1.73.55,2.69,2.69,0,0,0-.51,1.86v.87c0,.84.6,1.41,1.82,1.71.54.13,1.13.24,1.78.34a14.19,14.19,0,0,1,2,.42,7.74,7.74,0,0,1,1.79.74,3.44,3.44,0,0,1,1.32,1.4,4.86,4.86,0,0,1,.5,2.28v1.1a4,4,0,0,1-4.37,4.37h-3.14a4.4,4.4,0,0,1-3.22-1.16A4.3,4.3,0,0,1,385.17,109.37Z" fill="url(#cf34f857-37fa-44a1-ba2c-0e5db21d1ba6)"/><path d="M406.92,113.74h-1.77c-.33,0-.5-.16-.5-.48V98.38a.24.24,0,0,0-.28-.28h-3.53q-.51,0-.51-.48V96.19c0-.31.17-.47.51-.47h10.4c.33,0,.5.16.5.47v1.43c0,.32-.17.48-.5.48H407.7c-.2,0-.3.09-.3.28v14.88A.42.42,0,0,1,406.92,113.74Z" fill="url(#cf34f857-37fa-44a1-ba2c-0e5db21d1ba6)"/><path d="M416.25,113.74h-2c-.26,0-.35-.16-.28-.48l4.88-17.07a.63.63,0,0,1,.67-.47h2.81a.61.61,0,0,1,.67.47l4.88,17.07c.07.32,0,.48-.31.48h-2a.46.46,0,0,1-.35-.1.71.71,0,0,1-.16-.38L424,109.62h-6.17l-1.06,3.64Q416.64,113.74,416.25,113.74Zm3.34-19.68c-1.27,0-1.91-.71-1.91-2.15v-1.1a.25.25,0,0,1,.28-.28h.84a.25.25,0,0,1,.28.28v.56a2.33,2.33,0,0,0,.13,1,.41.41,0,0,0,.39.25.57.57,0,0,0,.44-.2,8.53,8.53,0,0,0,.56-.89,1.86,1.86,0,0,1,1.65-1.07c1.25,0,1.88.72,1.88,2.16v1.06c0,.23-.09.34-.25.34H423c-.18,0-.28-.11-.28-.34v-.53a2.62,2.62,0,0,0-.11-1,.41.41,0,0,0-.4-.23.51.51,0,0,0-.42.14,2,2,0,0,0-.28.39c-.11.17-.17.27-.19.29s-.09.18-.22.44A1.65,1.65,0,0,1,419.59,94.06Zm1.26,4.35-2.47,9h5.08l-2.5-9Z" fill="url(#cf34f857-37fa-44a1-ba2c-0e5db21d1ba6)"/><path d="M439,113.74h-3.25a4.29,4.29,0,0,1-3.21-1.15,4.34,4.34,0,0,1-1.14-3.19v-9.34a4,4,0,0,1,4.35-4.34H439a4.4,4.4,0,0,1,3.22,1.13,4.31,4.31,0,0,1,1.15,3.21v9.34a4,4,0,0,1-4.37,4.34Zm-2.86-2.38h2.44a1.83,1.83,0,0,0,2.05-2.08v-9.11a1.82,1.82,0,0,0-2.05-2.07h-2.44a1.81,1.81,0,0,0-2,2.07v9.11A1.81,1.81,0,0,0,436.18,111.36Z" fill="url(#cf34f857-37fa-44a1-ba2c-0e5db21d1ba6)"/><path d="M176.6,102.22a35,35,0,1,0,35,35A35,35,0,0,0,176.6,102.22ZM172.21,152l-.55-29.62,16.16,14.81Z" fill="none" stroke="#fcb84d" stroke-miterlimit="10" stroke-width="2"/><path d="M336.46,138.25h-6.85c-.15,0-.22-.08-.22-.26V124.25c0-.17.07-.26.22-.26h6.85q.27,0,.27.24v.51q0,.24-.27.24h-5.74c-.15,0-.22.07-.22.2v5.11c0,.13.07.2.22.2h5.12c.17,0,.25.08.25.24v.51a.22.22,0,0,1-.25.25h-5.12c-.15,0-.22.06-.22.2v5.37c0,.13.07.2.22.2h5.74q.27,0,.27.24V138Q336.73,138.25,336.46,138.25Z" fill="#fff"/><path d="M354.84,138.25h-2.42a3.08,3.08,0,0,1-2.28-.84,3.16,3.16,0,0,1-.83-2.31v-8a3.16,3.16,0,0,1,.83-2.31,3.08,3.08,0,0,1,2.28-.84h2.42a3.08,3.08,0,0,1,2.28.84,3.12,3.12,0,0,1,.84,2.31v1c0,.17-.08.26-.24.26h-.64a.23.23,0,0,1-.25-.26v-1a2.27,2.27,0,0,0-.53-1.63,2,2,0,0,0-1.55-.57h-2.24a2.05,2.05,0,0,0-1.56.58,2.34,2.34,0,0,0-.53,1.62v7.88a2.34,2.34,0,0,0,.53,1.62,2.05,2.05,0,0,0,1.56.58h2.24a2,2,0,0,0,1.55-.57,2.27,2.27,0,0,0,.53-1.63v-2.93a.18.18,0,0,0-.2-.2h-2.55a.21.21,0,0,1-.24-.24v-.51c0-.17.08-.25.24-.25h3.46q.42,0,.42.45v3.72a3.12,3.12,0,0,1-.84,2.31A3.08,3.08,0,0,1,354.84,138.25Z" fill="#fff"/><path d="M370.35,138.25h-6.86c-.15,0-.22-.08-.22-.26V124.25c0-.17.07-.26.22-.26h6.86c.17,0,.26.08.26.24v.51c0,.16-.09.24-.26.24H364.6c-.15,0-.22.07-.22.2v5.11c0,.13.07.2.22.2h5.12c.17,0,.25.08.25.24v.51a.22.22,0,0,1-.25.25H364.6c-.15,0-.22.06-.22.2v5.37c0,.13.07.2.22.2h5.75c.17,0,.26.08.26.24V138C370.61,138.17,370.52,138.25,370.35,138.25Z" fill="#fff"/><path d="M376.58,138.25h-.64c-.15,0-.23-.08-.23-.26V124.25c0-.17.08-.26.23-.26H381a3.08,3.08,0,0,1,2.28.84,3.13,3.13,0,0,1,.85,2.31v2.11a3.23,3.23,0,0,1-.64,2,2.84,2.84,0,0,1-1.72,1v.09l2.64,5.59c.09.18,0,.26-.15.26h-.69a.39.39,0,0,1-.4-.26l-2.62-5.59h-3.5c-.15,0-.23.06-.23.2V138C376.82,138.17,376.74,138.25,376.58,138.25Zm.47-6.81h3.83a2.13,2.13,0,0,0,1.58-.56,2.22,2.22,0,0,0,.56-1.61v-2.09a2.26,2.26,0,0,0-.56-1.62,2.1,2.1,0,0,0-1.58-.58h-3.83c-.15,0-.23.07-.23.2v6.06C376.82,131.38,376.9,131.44,377.05,131.44Z" fill="#fff"/><path d="M389,138.25h-.69c-.16,0-.21-.08-.15-.26l4.41-13.74a.31.31,0,0,1,.31-.26h1.05a.32.32,0,0,1,.31.26L398.61,138c.05.18,0,.26-.15.26h-.71a.28.28,0,0,1-.29-.26l-1.2-3.55h-5.81l-1.2,3.55C389.19,138.17,389.09,138.25,389,138.25Zm4.35-13-2.55,8.23H396l-2.57-8.23Z" fill="#fff"/><path d="M403.81,138.25h-.65c-.15,0-.22-.08-.22-.26V124.25c0-.17.07-.26.22-.26h.6a.28.28,0,0,1,.27.13l6.81,11.72h.09V124.25c0-.17.08-.26.24-.26h.62c.17,0,.25.09.25.26V138c0,.18-.08.26-.25.26h-.51a.43.43,0,0,1-.35-.24l-6.79-11.63h-.09V138C404.05,138.17,404,138.25,403.81,138.25Z" fill="#fff"/><path d="M417.56,138V124.25c0-.17.08-.26.23-.26h5.48a3,3,0,0,1,2.27.84,3.16,3.16,0,0,1,.83,2.31v8a3.16,3.16,0,0,1-.83,2.31,3,3,0,0,1-2.27.84h-5.48C417.64,138.25,417.56,138.17,417.56,138Zm1.33-.73h4.26a2.07,2.07,0,0,0,1.57-.57,2.27,2.27,0,0,0,.54-1.63v-7.88a2.27,2.27,0,0,0-.54-1.63,2.07,2.07,0,0,0-1.57-.57h-4.26c-.14,0-.22.07-.22.2v11.88C418.67,137.19,418.75,137.26,418.89,137.26Z" fill="#fff"/><path d="M437.31,138.25h-2.73a3,3,0,0,1-2.27-.84,3.12,3.12,0,0,1-.83-2.31v-8a3.12,3.12,0,0,1,.83-2.31,3,3,0,0,1,2.27-.84h2.73a3.08,3.08,0,0,1,2.28.84,3.16,3.16,0,0,1,.83,2.31v8a3.16,3.16,0,0,1-.83,2.31A3.08,3.08,0,0,1,437.31,138.25Zm-2.64-1h2.53a2,2,0,0,0,1.56-.57,2.23,2.23,0,0,0,.55-1.63v-7.88a2.23,2.23,0,0,0-.55-1.63,2,2,0,0,0-1.56-.57h-2.53a2,2,0,0,0-1.55.58,2.3,2.3,0,0,0-.54,1.62v7.88a2.3,2.3,0,0,0,.54,1.62A2,2,0,0,0,434.67,137.26Z" fill="#fff"/><path d="M463.69,124h1.2c.15,0,.22.09.22.26V138c0,.18-.07.26-.22.26h-.64c-.17,0-.25-.08-.25-.26V125.7h-.08L460,134.9a.38.38,0,0,1-.34.25h-.73a.31.31,0,0,1-.31-.25l-4-9.23h-.09V138c0,.18-.07.26-.22.26h-.65c-.14,0-.22-.08-.22-.26V124.25c0-.17.08-.26.22-.26h1.2a.19.19,0,0,1,.2.13l4.17,9.74h.09l4.17-9.74A.19.19,0,0,1,463.69,124Z" fill="#fff"/><path d="M470.28,138.25h-.68c-.17,0-.22-.08-.16-.26l4.42-13.74a.3.3,0,0,1,.31-.26h1a.32.32,0,0,1,.31.26L479.94,138c0,.18,0,.26-.16.26h-.71c-.15,0-.24-.08-.29-.26l-1.2-3.55h-5.81l-1.2,3.55C470.51,138.17,470.42,138.25,470.28,138.25Zm4.35-13-2.55,8.23h5.21l-2.57-8.23Z" fill="#fff"/><path d="M485.48,124.25V138c0,.18-.08.26-.24.26h-.65c-.14,0-.22-.08-.22-.26V124.25c0-.17.08-.26.22-.26h.65C485.4,124,485.48,124.08,485.48,124.25Z" fill="#fff"/><path d="M491.05,135.1v-.8c0-.16.08-.24.25-.24h.64a.21.21,0,0,1,.24.24V135a1.94,1.94,0,0,0,2.16,2.22h2.3q2.16,0,2.16-2.25v-.93a1.77,1.77,0,0,0-.8-1.53,5.53,5.53,0,0,0-1.93-.8l-2.28-.51a4.39,4.39,0,0,1-1.94-1,2.45,2.45,0,0,1-.8-1.91v-1.22a2.92,2.92,0,0,1,3.13-3.15h2.57a3.09,3.09,0,0,1,2.29.84,3.12,3.12,0,0,1,.84,2.31v.62a.21.21,0,0,1-.24.24H499c-.17,0-.25-.08-.25-.24v-.56A1.93,1.93,0,0,0,496.6,125h-2.29c-1.42,0-2.13.76-2.13,2.27v1.11c0,1,.91,1.71,2.73,2.06q1.14.22,2.28.51a4.3,4.3,0,0,1,1.94,1,2.71,2.71,0,0,1,.8,2.05v1.08a2.92,2.92,0,0,1-3.13,3.15h-2.62a2.92,2.92,0,0,1-3.13-3.15Z" fill="#fff"/><path d="M335,161.46h-2.53a3.81,3.81,0,0,1-2.76-1,3.67,3.67,0,0,1-1-2.73v-7.16a3.67,3.67,0,0,1,1-2.73,3.81,3.81,0,0,1,2.76-.95H335a3.8,3.8,0,0,1,2.75.95,3.63,3.63,0,0,1,1,2.73v7.16a3.63,3.63,0,0,1-1,2.73A3.8,3.8,0,0,1,335,161.46ZM332.92,159h1.6a1.39,1.39,0,0,0,1-.31,1.41,1.41,0,0,0,.3-1v-6.89a1.11,1.11,0,0,0-1.33-1.33h-1.6a1.41,1.41,0,0,0-1,.3,1.49,1.49,0,0,0-.29,1v6.89a1.46,1.46,0,0,0,.29,1A1.37,1.37,0,0,0,332.92,159Z" fill="#fff"/><path d="M345.63,161.46h-1.92a.42.42,0,0,1-.47-.47V147.42a.42.42,0,0,1,.47-.48h5.51a3.72,3.72,0,0,1,2.73,1,3.65,3.65,0,0,1,1,2.72v2.17a3.63,3.63,0,0,1-1,2.72,3.72,3.72,0,0,1-2.73,1h-2.84c-.18,0-.28.08-.28.25V161A.41.41,0,0,1,345.63,161.46Zm.72-7.49h2.4a1.37,1.37,0,0,0,1-.31,1.39,1.39,0,0,0,.3-1v-1.9a1.44,1.44,0,0,0-.3-1,1.37,1.37,0,0,0-1-.3h-2.4a.22.22,0,0,0-.25.25v4A.23.23,0,0,0,346.35,154Z" fill="#fff"/><path d="M363,161.46h-2.53a3.81,3.81,0,0,1-2.76-1,3.67,3.67,0,0,1-1-2.73v-7.16a3.67,3.67,0,0,1,1-2.73,3.81,3.81,0,0,1,2.76-.95H363a3.76,3.76,0,0,1,2.75.95,3.63,3.63,0,0,1,1,2.73v7.16a3.63,3.63,0,0,1-1,2.73A3.76,3.76,0,0,1,363,161.46ZM361,159h1.6a1.39,1.39,0,0,0,1-.31,1.41,1.41,0,0,0,.31-1v-6.89a1.13,1.13,0,0,0-1.34-1.33H361a1.41,1.41,0,0,0-1,.3,1.49,1.49,0,0,0-.29,1v6.89a1.46,1.46,0,0,0,.29,1A1.37,1.37,0,0,0,361,159Z" fill="#fff"/><path d="M373.67,161.46h-1.92a.42.42,0,0,1-.47-.47V147.42a.42.42,0,0,1,.47-.48h5.38a3.79,3.79,0,0,1,2.75,1,3.67,3.67,0,0,1,1,2.74v1.76a3.28,3.28,0,0,1-2,3.38v.09l2.42,5c.14.36,0,.54-.38.54h-1.83a1.42,1.42,0,0,1-.59-.09.66.66,0,0,1-.29-.38l-2.26-4.88h-1.51c-.18,0-.27.08-.27.25V161A.42.42,0,0,1,373.67,161.46Zm.72-7.65h2.22a1.53,1.53,0,0,0,1.06-.31,1.28,1.28,0,0,0,.34-1v-1.76a1.36,1.36,0,0,0-.34-1,1.53,1.53,0,0,0-1.06-.31h-2.22c-.16,0-.24.08-.24.25v3.88A.22.22,0,0,0,374.39,153.81Z" fill="#fff"/><path d="M389.93,161.46H388c-.33,0-.5-.16-.5-.47V149.68c0-.17-.08-.25-.24-.25h-2.58a.42.42,0,0,1-.47-.48v-1.53a.42.42,0,0,1,.47-.48h8.54a.42.42,0,0,1,.47.48V149a.42.42,0,0,1-.47.48h-2.58c-.18,0-.27.08-.27.25V161A.42.42,0,0,1,389.93,161.46Z" fill="#fff"/><path d="M404.67,146.94h1.9c.33,0,.49.15.49.45v10.39a3.61,3.61,0,0,1-1,2.72,3.75,3.75,0,0,1-2.74,1h-2.48a3.81,3.81,0,0,1-2.76-1,3.63,3.63,0,0,1-1-2.73V147.42a.42.42,0,0,1,.47-.48h1.92a.42.42,0,0,1,.48.48v10.23a1.41,1.41,0,0,0,.3,1,1.37,1.37,0,0,0,1,.31h1.56a1.13,1.13,0,0,0,1.33-1.33V147.42A.42.42,0,0,1,404.67,146.94Z" fill="#fff"/><path d="M414,161.46h-1.87a.42.42,0,0,1-.48-.47V147.42a.42.42,0,0,1,.48-.48h1.69a.63.63,0,0,1,.63.32l4.56,8.56h.09v-8.4a.42.42,0,0,1,.48-.48h1.87a.42.42,0,0,1,.48.48V161a.42.42,0,0,1-.48.47h-1.65a.75.75,0,0,1-.72-.45l-4.51-8.4h-.09V161A.42.42,0,0,1,414,161.46Z" fill="#fff"/><path d="M429.69,147.42V161a.42.42,0,0,1-.48.47h-1.92a.42.42,0,0,1-.47-.47V147.42a.42.42,0,0,1,.47-.48h1.92A.42.42,0,0,1,429.69,147.42Z" fill="#fff"/><path d="M434.54,161V147.42a.42.42,0,0,1,.48-.48h5.57a3.77,3.77,0,0,1,2.75,1,3.65,3.65,0,0,1,1,2.72v7.16a3.65,3.65,0,0,1-1,2.72,3.77,3.77,0,0,1-2.75,1H435A.42.42,0,0,1,434.54,161Zm3.12-2h2.46a1.12,1.12,0,0,0,1.33-1.33v-6.89a1.44,1.44,0,0,0-.3-1,1.46,1.46,0,0,0-1-.3h-2.46a.22.22,0,0,0-.25.25v9A.22.22,0,0,0,437.66,159Z" fill="#fff"/><path d="M450.35,161.46h-2.17c-.27,0-.36-.16-.27-.47l3.57-13.57a.64.64,0,0,1,.67-.48h3a.6.6,0,0,1,.67.48L459.4,161c.09.31,0,.47-.27.47H457a.45.45,0,0,1-.34-.1.78.78,0,0,1-.13-.37l-.63-2.49h-4.41l-.63,2.49a.68.68,0,0,1-.15.37A.41.41,0,0,1,450.35,161.46Zm3.27-11.78L452,156.2h3.34l-1.63-6.52Z" fill="#fff"/><path d="M463.22,161V147.42a.42.42,0,0,1,.47-.48h5.58a3.75,3.75,0,0,1,2.74,1,3.61,3.61,0,0,1,1,2.72v7.16a3.61,3.61,0,0,1-1,2.72,3.75,3.75,0,0,1-2.74,1h-5.58A.41.41,0,0,1,463.22,161Zm3.11-2h2.46a1.39,1.39,0,0,0,1-.31,1.41,1.41,0,0,0,.31-1v-6.89a1.13,1.13,0,0,0-1.34-1.33h-2.46a.22.22,0,0,0-.25.25v9A.23.23,0,0,0,466.33,159Z" fill="#fff"/><path d="M485.37,161.46H478a.42.42,0,0,1-.47-.47V147.42a.42.42,0,0,1,.47-.48h7.39q.45,0,.45.48V149q0,.48-.45.48h-4.72c-.18,0-.27.08-.27.25v2.93c0,.17.09.25.27.25h3.86a.42.42,0,0,1,.47.47v1.54a.42.42,0,0,1-.47.47h-3.86c-.18,0-.27.09-.27.25v3.14c0,.16.09.25.27.25h4.72c.3,0,.45.16.45.47V161C485.82,161.3,485.67,161.46,485.37,161.46Z" fill="#fff"/><path d="M489.77,157.76v-.45a.42.42,0,0,1,.47-.48h1.92a.42.42,0,0,1,.47.48v.18a1.6,1.6,0,0,0,.34,1.17,1.86,1.86,0,0,0,1.25.32h1.06a1.81,1.81,0,0,0,1.23-.34,1.79,1.79,0,0,0,.35-1.27v-.27a1.14,1.14,0,0,0-.53-1,2.94,2.94,0,0,0-1.32-.42,13,13,0,0,1-1.71-.26,10.26,10.26,0,0,1-1.7-.5,2.64,2.64,0,0,1-1.32-1.19,4.39,4.39,0,0,1-.53-2.29v-.79a3.67,3.67,0,0,1,1-2.74,3.79,3.79,0,0,1,2.75-1h2.26a3.84,3.84,0,0,1,2.78,1,3.67,3.67,0,0,1,1,2.74v.42a.42.42,0,0,1-.47.48h-1.92a.42.42,0,0,1-.48-.48v-.13a1.66,1.66,0,0,0-.33-1.2,1.89,1.89,0,0,0-1.25-.31h-.88a1.68,1.68,0,0,0-1.25.35,2,2,0,0,0-.33,1.36v.43c0,.71.62,1.12,1.85,1.22a11.47,11.47,0,0,1,3.41.77,2.83,2.83,0,0,1,1.32,1.21,4.15,4.15,0,0,1,.53,2.22v.77a3.66,3.66,0,0,1-1,2.73,3.75,3.75,0,0,1-2.75,1h-2.46a3.76,3.76,0,0,1-2.76-1A3.66,3.66,0,0,1,489.77,157.76Z" fill="#fff"/><path d="M329.35,184.41v-13.5c0-.17.08-.26.22-.26H335a3,3,0,0,1,2.23.83,3.07,3.07,0,0,1,.82,2.27v7.82a3.07,3.07,0,0,1-.82,2.27,3,3,0,0,1-2.23.83h-5.39C329.43,184.67,329.35,184.58,329.35,184.41Zm1.31-.72h4.19a2,2,0,0,0,1.53-.56,2.2,2.2,0,0,0,.54-1.6v-7.74a2.2,2.2,0,0,0-.54-1.6,2,2,0,0,0-1.53-.56h-4.19c-.14,0-.22.07-.22.2v11.66C330.44,183.62,330.52,183.69,330.66,183.69Z" fill="#fff"/><path d="M350.19,184.67h-6.73c-.15,0-.22-.09-.22-.26v-13.5c0-.17.07-.26.22-.26h6.73c.18,0,.26.08.26.24v.5c0,.16-.08.24-.26.24h-5.64c-.15,0-.22.07-.22.2v5c0,.13.07.2.22.2h5a.21.21,0,0,1,.24.24v.5a.21.21,0,0,1-.24.24h-5c-.15,0-.22.06-.22.2v5.27c0,.13.07.2.22.2h5.64c.18,0,.26.08.26.24v.5C350.45,184.59,350.37,184.67,350.19,184.67Z" fill="#fff"/><path d="M367.13,184.67h-1c-.15,0-.24-.09-.29-.26l-4-13.5c-.06-.17,0-.26.2-.26h.67c.15,0,.24.09.29.26l3.64,12.41h.08l3.64-12.41c.05-.17.14-.26.29-.26h.67c.18,0,.24.09.2.26l-4.06,13.5C367.37,184.58,367.28,184.67,367.13,184.67Z" fill="#fff"/><path d="M382.63,184.67h-6.74c-.14,0-.21-.09-.21-.26v-13.5c0-.17.07-.26.21-.26h6.74c.17,0,.26.08.26.24v.5c0,.16-.09.24-.26.24H377a.18.18,0,0,0-.21.2v5a.18.18,0,0,0,.21.2h5a.21.21,0,0,1,.24.24v.5a.21.21,0,0,1-.24.24h-5c-.14,0-.21.06-.21.2v5.27a.18.18,0,0,0,.21.2h5.65c.17,0,.26.08.26.24v.5C382.89,184.59,382.8,184.67,382.63,184.67Z" fill="#fff"/><path d="M388.76,184.67h-.64c-.14,0-.21-.09-.21-.26v-13.5c0-.17.07-.26.21-.26h.59a.25.25,0,0,1,.26.13l6.7,11.51h.08V170.91c0-.17.08-.26.24-.26h.61c.16,0,.24.09.24.26v13.5c0,.17-.08.26-.24.26h-.5a.44.44,0,0,1-.35-.24L389.08,173H389v11.4C389,184.58,388.92,184.67,388.76,184.67Z" fill="#fff"/><path d="M402.27,184.41v-13.5c0-.17.07-.26.22-.26h5.38a3,3,0,0,1,2.24.83,3.11,3.11,0,0,1,.82,2.27v7.82a3.11,3.11,0,0,1-.82,2.27,3,3,0,0,1-2.24.83h-5.38C402.34,184.67,402.27,184.58,402.27,184.41Zm1.31-.72h4.19a2,2,0,0,0,1.53-.56,2.2,2.2,0,0,0,.54-1.6v-7.74a2.2,2.2,0,0,0-.54-1.6,2,2,0,0,0-1.53-.56h-4.19c-.15,0-.22.07-.22.2v11.66C403.36,183.62,403.43,183.69,403.58,183.69Z" fill="#fff"/><path d="M415.79,184.67h-.68c-.16,0-.21-.09-.15-.26l4.34-13.5a.29.29,0,0,1,.3-.26h1c.14,0,.24.09.3.26l4.34,13.5c0,.17,0,.26-.15.26h-.7c-.15,0-.24-.09-.28-.26L423,180.92h-5.71l-1.18,3.49C416,184.58,415.92,184.67,415.79,184.67Zm4.27-12.82-2.51,8.09h5.13l-2.53-8.09Z" fill="#fff"/><path d="M429.43,181.57v-.78a.21.21,0,0,1,.24-.24h.64a.21.21,0,0,1,.24.24v.72a1.9,1.9,0,0,0,2.11,2.18h2.27c1.41,0,2.11-.74,2.11-2.2v-.92a1.72,1.72,0,0,0-.78-1.5,5.18,5.18,0,0,0-1.9-.79l-2.23-.5a4.27,4.27,0,0,1-1.91-1,2.39,2.39,0,0,1-.79-1.87v-1.2a3.08,3.08,0,0,1,.83-2.27,3,3,0,0,1,2.25-.83H435a3,3,0,0,1,2.24.83,3.08,3.08,0,0,1,.83,2.27v.61a.21.21,0,0,1-.24.24h-.63a.21.21,0,0,1-.24-.24v-.55a1.9,1.9,0,0,0-2.12-2.18h-2.24c-1.4,0-2.09.74-2.09,2.23V175c0,1,.89,1.67,2.68,2,.74.15,1.48.32,2.23.5a4.18,4.18,0,0,1,1.91,1,2.62,2.62,0,0,1,.78,2v1.07a2.85,2.85,0,0,1-3.07,3.1h-2.57a3,3,0,0,1-2.25-.83A3.08,3.08,0,0,1,429.43,181.57Z" fill="#fff"/><path d="M451.93,184.67h-.63c-.15,0-.22-.09-.22-.26v-13.5c0-.17.07-.26.22-.26h5a2.87,2.87,0,0,1,3.08,3.1v2.55a3.05,3.05,0,0,1-.83,2.26,3,3,0,0,1-2.25.83h-3.92c-.15,0-.22.06-.22.18v4.84C452.17,184.58,452.09,184.67,451.93,184.67Zm.46-6.28h3.84a2,2,0,0,0,1.52-.56,2.2,2.2,0,0,0,.52-1.58v-2.46a2.23,2.23,0,0,0-.52-1.6,2,2,0,0,0-1.52-.56h-3.84c-.15,0-.22.07-.22.2v6.39C452.17,178.33,452.24,178.39,452.39,178.39Z" fill="#fff"/><path d="M463.88,184.67h-.68c-.16,0-.21-.09-.15-.26l4.34-13.5a.29.29,0,0,1,.3-.26h1c.14,0,.24.09.3.26l4.34,13.5c0,.17,0,.26-.15.26h-.7c-.15,0-.24-.09-.28-.26l-1.18-3.49h-5.71l-1.18,3.49C464.1,184.58,464,184.67,463.88,184.67Zm4.27-12.82-2.51,8.09h5.12l-2.52-8.09Z" fill="#fff"/><path d="M478.46,184.67h-.63c-.15,0-.22-.09-.22-.26v-13.5c0-.17.07-.26.22-.26h5a2.87,2.87,0,0,1,3.07,3.1v2.07a3.08,3.08,0,0,1-.62,2,2.78,2.78,0,0,1-1.69,1v.08l2.6,5.5c.08.17,0,.26-.16.26h-.67a.41.41,0,0,1-.4-.26l-2.57-5.5h-3.44c-.15,0-.22.07-.22.2v5.3C478.7,184.58,478.62,184.67,478.46,184.67Zm.46-6.69h3.77a2.09,2.09,0,0,0,1.55-.56,2.18,2.18,0,0,0,.54-1.58v-2.05a2.22,2.22,0,0,0-.54-1.59,2.05,2.05,0,0,0-1.55-.57h-3.77c-.15,0-.22.07-.22.2v5.95C478.7,177.91,478.77,178,478.92,178Z" fill="#fff"/><path d="M490.62,184.67H490c-.16,0-.21-.09-.15-.26l4.33-13.5a.31.31,0,0,1,.31-.26h1a.32.32,0,0,1,.31.26l4.34,13.5c0,.17,0,.26-.16.26h-.69c-.15,0-.24-.09-.29-.26l-1.17-3.49h-5.72l-1.17,3.49C490.85,184.58,490.75,184.67,490.62,184.67Zm4.28-12.82-2.51,8.09h5.12L495,171.85Z" fill="#fff"/><path d="M329,207.87h-.66c-.16,0-.21-.08-.16-.25l4.28-13.31a.31.31,0,0,1,.3-.26h1c.14,0,.24.09.3.26l4.27,13.31c.05.17,0,.25-.15.25h-.68c-.15,0-.24-.08-.28-.25L336,204.18H330.4l-1.16,3.44C329.18,207.79,329.09,207.87,329,207.87Zm4.22-12.64-2.48,8h5.06l-2.5-8Z" fill="#fff"/><path d="M349.88,204.82v-.77a.21.21,0,0,1,.24-.24h.62a.21.21,0,0,1,.24.24v.71a1.87,1.87,0,0,0,2.08,2.15h2.24c1.39,0,2.08-.73,2.08-2.17v-.91a1.69,1.69,0,0,0-.77-1.48,5,5,0,0,0-1.87-.77l-2.2-.5a4.14,4.14,0,0,1-1.88-1,2.32,2.32,0,0,1-.78-1.84V197.1a3,3,0,0,1,.82-2.23,3,3,0,0,1,2.21-.82h2.5a3,3,0,0,1,2.21.82,3,3,0,0,1,.82,2.23v.61a.21.21,0,0,1-.24.23h-.62a.21.21,0,0,1-.24-.23v-.54c0-1.44-.69-2.15-2.08-2.15H353c-1.37,0-2.06.73-2.06,2.19v1.08c0,1,.88,1.65,2.64,2,.73.14,1.47.3,2.21.49a4.24,4.24,0,0,1,1.88,1,2.62,2.62,0,0,1,.77,2v1a2.82,2.82,0,0,1-3,3.05h-2.54a2.82,2.82,0,0,1-3-3.05Z" fill="#fff"/><path d="M371.25,194.05h.6a.21.21,0,0,1,.24.24v10.53a3,3,0,0,1-.81,2.24,3,3,0,0,1-2.2.81h-2.41a3,3,0,0,1-2.2-.81,3,3,0,0,1-.81-2.24V194.31c0-.17.07-.26.22-.26h.62c.16,0,.24.09.24.26v10.47a2.25,2.25,0,0,0,.51,1.57,2,2,0,0,0,1.51.56H369a2,2,0,0,0,1.52-.55,2.2,2.2,0,0,0,.53-1.58V194.31C371,194.14,371.09,194.05,371.25,194.05Z" fill="#fff"/><path d="M377,207.87h-.66c-.16,0-.21-.08-.16-.25l4.28-13.31a.31.31,0,0,1,.3-.26h1c.14,0,.24.09.3.26l4.27,13.31c.05.17,0,.25-.15.25h-.68c-.15,0-.24-.08-.28-.25l-1.16-3.44h-5.64l-1.16,3.44C377.21,207.79,377.12,207.87,377,207.87Zm4.22-12.64-2.48,8h5.06l-2.5-8Z" fill="#fff"/><path d="M399,207.87h-2.07c-.25,0-.34-.15-.25-.45l3.39-12.92a.62.62,0,0,1,.65-.45h2.86a.57.57,0,0,1,.64.45l3.4,12.92c.09.3,0,.45-.26.45h-2.06a.42.42,0,0,1-.32-.09.65.65,0,0,1-.13-.36l-.61-2.36h-4.19l-.6,2.36a.72.72,0,0,1-.14.36A.46.46,0,0,1,399,207.87Zm3.12-11.22-1.55,6.22h3.18l-1.55-6.22Z" fill="#fff"/><path d="M416.94,207.87H414.6A3.62,3.62,0,0,1,412,207a3.49,3.49,0,0,1-.92-2.6v-6.82A3.51,3.51,0,0,1,412,195a3.62,3.62,0,0,1,2.63-.9h2.34a3.56,3.56,0,0,1,2.61.91,3.48,3.48,0,0,1,.94,2.59v1a.42.42,0,0,1-.48.47h-1.8c-.3,0-.45-.16-.45-.47v-.89a1.35,1.35,0,0,0-.29-1,1.34,1.34,0,0,0-1-.29H415a1.28,1.28,0,0,0-1,.29,1.35,1.35,0,0,0-.29,1v6.56a1.37,1.37,0,0,0,.29,1,1.33,1.33,0,0,0,1,.29h1.46a1.38,1.38,0,0,0,1-.29,1.37,1.37,0,0,0,.29-1v-.88c0-.32.15-.47.45-.47H420a.42.42,0,0,1,.48.47v1a3.47,3.47,0,0,1-.94,2.59A3.56,3.56,0,0,1,416.94,207.87Z" fill="#fff"/><path d="M426,207.87h-2.06c-.26,0-.35-.15-.26-.45l3.4-12.92a.61.61,0,0,1,.64-.45h2.86a.57.57,0,0,1,.64.45l3.4,12.92c.09.3,0,.45-.26.45h-2.06a.42.42,0,0,1-.32-.09.73.73,0,0,1-.13-.36l-.6-2.36H427l-.6,2.36a.64.64,0,0,1-.14.36A.44.44,0,0,1,426,207.87Zm3.12-11.22-1.55,6.22h3.18l-1.55-6.22Z" fill="#fff"/><path d="M438.25,207.42V194.5a.4.4,0,0,1,.45-.45H444a3.56,3.56,0,0,1,2.61.91,3.48,3.48,0,0,1,.93,2.59v6.82a3.46,3.46,0,0,1-.93,2.59,3.56,3.56,0,0,1-2.61.91H438.7A.4.4,0,0,1,438.25,207.42Zm3-1.91h2.35a1.35,1.35,0,0,0,1-.29,1.32,1.32,0,0,0,.29-1v-6.56a1.07,1.07,0,0,0-1.26-1.26h-2.35c-.16,0-.23.07-.23.23v8.62C441,205.43,441.05,205.51,441.21,205.51Z" fill="#fff"/><path d="M459.34,207.87h-7a.4.4,0,0,1-.46-.45V194.5a.4.4,0,0,1,.46-.45h7a.39.39,0,0,1,.43.45V196c0,.3-.15.46-.43.46h-4.5c-.17,0-.26.07-.26.23v2.8c0,.15.09.23.26.23h3.68a.4.4,0,0,1,.45.45v1.47a.4.4,0,0,1-.45.45h-3.68c-.17,0-.26.08-.26.23v3c0,.16.09.24.26.24h4.5a.39.39,0,0,1,.43.45v1.46A.39.39,0,0,1,459.34,207.87Z" fill="#fff"/><path d="M473.05,194.05h3.19a.4.4,0,0,1,.45.45v12.92a.4.4,0,0,1-.45.45h-1.77a.4.4,0,0,1-.45-.45V197.23h-.08l-2.2,7.2a.52.52,0,0,1-.54.43h-1.8a.53.53,0,0,1-.54-.43l-2.23-7.22h-.09v10.21a.54.54,0,0,1-.09.36.5.5,0,0,1-.36.09h-1.77a.4.4,0,0,1-.45-.45V194.5a.4.4,0,0,1,.45-.45h3.21a.41.41,0,0,1,.41.3l2.28,7.59h.12l2.31-7.59A.36.36,0,0,1,473.05,194.05Z" fill="#fff"/><path d="M484,194.5v12.92a.4.4,0,0,1-.45.45h-1.83a.4.4,0,0,1-.45-.45V194.5a.4.4,0,0,1,.45-.45h1.83A.4.4,0,0,1,484,194.5Z" fill="#fff"/><path d="M490.1,207.87H488c-.26,0-.35-.15-.26-.45l3.4-12.92a.61.61,0,0,1,.64-.45h2.86a.59.59,0,0,1,.65.45l3.39,12.92c.09.3,0,.45-.25.45H496.4a.44.44,0,0,1-.32-.09.73.73,0,0,1-.13-.36l-.6-2.36h-4.19l-.61,2.36a.58.58,0,0,1-.14.36A.43.43,0,0,1,490.1,207.87Zm3.12-11.22-1.55,6.22h3.18l-1.54-6.22Z" fill="#fff"/></svg>