<svg id="5af35c65-bc51-4a26-8722-698be135b53b" data-name="Layer 1" xmlns="http://www.w3.org/2000/svg" viewBox="0 0 402 279.61"><title>software-tela-retencao</title><polyline points="290.12 91.69 290.12 97.51 284.25 97.51" fill="none" stroke="#fff" stroke-miterlimit="10" stroke-width="2"/><polyline points="156.16 125.75 156.16 131.57 150.28 131.57" fill="none" stroke="#fff" stroke-miterlimit="10" stroke-width="2"/><polyline points="232.22 125.75 232.22 131.57 238.09 131.57" fill="none" stroke="#fff" stroke-miterlimit="10" stroke-width="2"/><path d="M401,237.94s-121.85-7.39-200-7.39S1,237.94,1,237.94V1H401Z" fill="#000015" stroke="#33c" stroke-miterlimit="10" stroke-width="2"/><path d="M272.3,262c0,9.09-27.49,17.61-71.3,17.61s-71.3-8.52-71.3-17.61,31.92-16.45,71.3-16.45S272.3,252.91,272.3,262Z" fill="#33c"/><ellipse cx="201" cy="260.02" rx="65.04" ry="12.49" fill="#000015"/><line x1="201" y1="246.51" x2="201" y2="230.62" fill="none" stroke="#33c" stroke-miterlimit="10" stroke-width="2"/><line x1="34.55" y1="51.53" x2="45.8" y2="51.53" fill="none" stroke="#33c" stroke-miterlimit="10" stroke-width="2"/><line x1="34.55" y1="82.21" x2="57.05" y2="82.21" fill="none" stroke="#33c" stroke-miterlimit="10" stroke-width="2"/><line x1="34.55" y1="97.55" x2="45.8" y2="97.55" fill="none" stroke="#fcb84d" stroke-miterlimit="10" stroke-width="2"/><line x1="34.55" y1="112.88" x2="47.68" y2="112.88" fill="none" stroke="#33c" stroke-miterlimit="10" stroke-width="2"/><line x1="34.55" y1="128.22" x2="45.8" y2="128.22" fill="none" stroke="#33c" stroke-miterlimit="10" stroke-width="2"/><line x1="34.55" y1="143.56" x2="40.18" y2="143.56" fill="none" stroke="#33c" stroke-miterlimit="10" stroke-width="2"/><line x1="34.55" y1="66.87" x2="57.05" y2="66.87" fill="none" stroke="#33c" stroke-miterlimit="10" stroke-width="2"/><rect x="34.55" y="191.39" width="18.17" height="18.17" transform="translate(244.11 156.84) rotate(90)" fill="#000015" stroke="#33c" stroke-linecap="round" stroke-linejoin="round" stroke-width="2"/><line x1="84.42" y1="200.48" x2="52.72" y2="200.48" fill="none" stroke="#33c" stroke-miterlimit="10" stroke-width="2"/><rect x="42.5" y="199.34" width="2.27" height="2.27" transform="translate(244.11 156.84) rotate(90)" fill="#33c"/><line x1="84.42" y1="191.39" x2="84.42" y2="209.56" fill="none" stroke="#33c" stroke-miterlimit="10" stroke-width="2"/><rect x="353.15" y="20.93" width="18.17" height="18.17" fill="#000015" stroke="#33c" stroke-linecap="round" stroke-linejoin="round" stroke-width="2"/><rect x="361.1" y="28.88" width="2.27" height="2.27" fill="#33c"/><line x1="34.55" y1="30.01" x2="352.88" y2="30.01" fill="none" stroke="#33c" stroke-miterlimit="10" stroke-width="2"/><polygon points="345.51 156.3 345.51 175.38 350.03 179.9 350.03 194.28 241.24 194.28 241.24 129.94 251.2 129.94 255.72 134.45 271.28 134.45 275.8 129.94 350.03 129.94 350.03 151.78 345.51 156.3" fill="none" stroke="#fcb84d" stroke-miterlimit="10" stroke-width="2"/><polyline points="241.24 132.96 241.24 129.94 244.41 129.94" fill="none" stroke="#fff" stroke-miterlimit="10" stroke-width="2"/><polyline points="241.24 191.14 241.24 194.28 244.41 194.28" fill="none" stroke="#fff" stroke-miterlimit="10" stroke-width="2"/><polyline points="346.87 129.94 350.03 129.94 350.03 132.96" fill="none" stroke="#fff" stroke-miterlimit="10" stroke-width="2"/><polyline points="350.03 191.14 350.03 194.28 346.87 194.28" fill="none" stroke="#fff" stroke-miterlimit="10" stroke-width="2"/><polyline points="382.78 12.39 389.61 12.39 389.61 19.22" fill="none" stroke="#fff" stroke-miterlimit="10" stroke-width="2"/><polyline points="12.39 18.97 12.39 12.14 19.22 12.14" fill="none" stroke="#fff" stroke-miterlimit="10" stroke-width="2"/><polyline points="389.61 219.72 389.61 226.55 382.78 226.55" fill="none" stroke="#fff" stroke-miterlimit="10" stroke-width="2"/><polyline points="19.22 226.82 12.39 226.82 12.39 219.99" fill="none" stroke="#fff" stroke-miterlimit="10" stroke-width="2"/><line x1="108.54" y1="124.37" x2="108.54" y2="61.53" fill="none" stroke="#33c" stroke-linecap="round" stroke-linejoin="round" stroke-width="2"/><line x1="126.94" y1="124.37" x2="126.94" y2="61.53" fill="none" stroke="#33c" stroke-linecap="round" stroke-linejoin="round" stroke-width="2"/><line x1="145.34" y1="124.37" x2="145.34" y2="61.53" fill="none" stroke="#33c" stroke-linecap="round" stroke-linejoin="round" stroke-width="2"/><line x1="163.74" y1="124.37" x2="163.74" y2="61.53" fill="none" stroke="#33c" stroke-linecap="round" stroke-linejoin="round" stroke-width="2"/><line x1="182.14" y1="124.37" x2="182.14" y2="61.53" fill="none" stroke="#33c" stroke-linecap="round" stroke-linejoin="round" stroke-width="2"/><line x1="108.54" y1="124.37" x2="108.54" y2="120.06" fill="none" stroke="#33c" stroke-linecap="round" stroke-linejoin="round" stroke-width="4"/><line x1="126.94" y1="124.37" x2="126.94" y2="115.65" fill="none" stroke="#33c" stroke-linecap="round" stroke-linejoin="round" stroke-width="4"/><line x1="145.34" y1="124.37" x2="145.34" y2="98.85" fill="none" stroke="#fcb84d" stroke-linecap="round" stroke-linejoin="round" stroke-width="4"/><line x1="163.74" y1="124.37" x2="163.74" y2="89.74" fill="none" stroke="#fcb84d" stroke-linecap="round" stroke-linejoin="round" stroke-width="4"/><line x1="182.14" y1="124.37" x2="182.14" y2="76.53" fill="none" stroke="#fff" stroke-linecap="round" stroke-linejoin="round" stroke-width="4"/><circle cx="108.52" cy="151.08" r="4.85" fill="none" stroke="#33c" stroke-linecap="round" stroke-linejoin="round" stroke-width="2"/><path d="M103.46,166.51a2.49,2.49,0,0,1-1.72-4.29,9.69,9.69,0,0,1,13.64.07l0,0a2.48,2.48,0,0,1-1.82,4.18Z" fill="none" stroke="#33c" stroke-linecap="round" stroke-linejoin="round" stroke-width="2"/><circle cx="145.32" cy="151.08" r="4.85" fill="none" stroke="#fcb84d" stroke-linecap="round" stroke-linejoin="round" stroke-width="2"/><path d="M140.26,166.51a2.49,2.49,0,0,1-1.72-4.29,9.69,9.69,0,0,1,13.64.07l0,0a2.48,2.48,0,0,1-1.82,4.18Z" fill="none" stroke="#fcb84d" stroke-linecap="round" stroke-linejoin="round" stroke-width="2"/><circle cx="182.12" cy="151.08" r="4.85" fill="none" stroke="#fff" stroke-linecap="round" stroke-linejoin="round" stroke-width="2"/><path d="M177.05,166.51a2.49,2.49,0,0,1-1.71-4.29,9.69,9.69,0,0,1,13.64.07l0,0a2.48,2.48,0,0,1-1.82,4.18Z" fill="none" stroke="#fff" stroke-linecap="round" stroke-linejoin="round" stroke-width="2"/></svg>