<svg id="6b278615-b0ae-4ae6-aae0-d2a7f7fa6681" data-name="Layer 1" xmlns="http://www.w3.org/2000/svg" viewBox="0 0 402 279.61"><title>software-tela-acesso</title><polyline points="290.12 91.69 290.12 97.51 284.25 97.51" fill="none" stroke="#fff" stroke-miterlimit="10" stroke-width="2"/><polyline points="156.16 125.75 156.16 131.57 150.28 131.57" fill="none" stroke="#fff" stroke-miterlimit="10" stroke-width="2"/><polyline points="232.22 125.75 232.22 131.57 238.09 131.57" fill="none" stroke="#fff" stroke-miterlimit="10" stroke-width="2"/><path d="M401,237.94s-121.85-7.39-200-7.39S1,237.94,1,237.94V1H401Z" fill="#000015" stroke="#33c" stroke-miterlimit="10" stroke-width="2"/><path d="M272.3,262c0,9.09-27.49,17.61-71.3,17.61s-71.3-8.52-71.3-17.61,31.92-16.45,71.3-16.45S272.3,252.91,272.3,262Z" fill="#33c"/><ellipse cx="201" cy="260.02" rx="65.04" ry="12.49" fill="#000015"/><line x1="201" y1="246.51" x2="201" y2="230.62" fill="none" stroke="#33c" stroke-miterlimit="10" stroke-width="2"/><line x1="34.55" y1="51.53" x2="45.8" y2="51.53" fill="none" stroke="#33c" stroke-miterlimit="10" stroke-width="2"/><line x1="34.55" y1="82.21" x2="57.05" y2="82.21" fill="none" stroke="#fcb84d" stroke-miterlimit="10" stroke-width="2"/><line x1="34.55" y1="97.55" x2="45.8" y2="97.55" fill="none" stroke="#33c" stroke-miterlimit="10" stroke-width="2"/><line x1="34.55" y1="112.88" x2="47.68" y2="112.88" fill="none" stroke="#33c" stroke-miterlimit="10" stroke-width="2"/><line x1="34.55" y1="128.22" x2="45.8" y2="128.22" fill="none" stroke="#33c" stroke-miterlimit="10" stroke-width="2"/><line x1="34.55" y1="143.56" x2="40.18" y2="143.56" fill="none" stroke="#33c" stroke-miterlimit="10" stroke-width="2"/><line x1="34.55" y1="66.87" x2="57.05" y2="66.87" fill="none" stroke="#33c" stroke-miterlimit="10" stroke-width="2"/><rect x="34.55" y="191.39" width="18.17" height="18.17" transform="translate(244.11 156.84) rotate(90)" fill="#000015" stroke="#33c" stroke-linecap="round" stroke-linejoin="round" stroke-width="2"/><line x1="84.42" y1="200.48" x2="52.72" y2="200.48" fill="none" stroke="#33c" stroke-miterlimit="10" stroke-width="2"/><rect x="42.5" y="199.34" width="2.27" height="2.27" transform="translate(244.11 156.84) rotate(90)" fill="#33c"/><line x1="84.42" y1="191.39" x2="84.42" y2="209.56" fill="none" stroke="#33c" stroke-miterlimit="10" stroke-width="2"/><rect x="353.15" y="20.93" width="18.17" height="18.17" fill="#000015" stroke="#33c" stroke-linecap="round" stroke-linejoin="round" stroke-width="2"/><rect x="361.1" y="28.88" width="2.27" height="2.27" fill="#33c"/><line x1="34.55" y1="30.01" x2="352.88" y2="30.01" fill="none" stroke="#33c" stroke-miterlimit="10" stroke-width="2"/><polyline points="382.78 12.39 389.61 12.39 389.61 19.22" fill="none" stroke="#fff" stroke-miterlimit="10" stroke-width="2"/><polyline points="12.39 18.97 12.39 12.14 19.22 12.14" fill="none" stroke="#fff" stroke-miterlimit="10" stroke-width="2"/><polyline points="389.61 219.72 389.61 226.55 382.78 226.55" fill="none" stroke="#fff" stroke-miterlimit="10" stroke-width="2"/><polyline points="19.22 226.82 12.39 226.82 12.39 219.99" fill="none" stroke="#fff" stroke-miterlimit="10" stroke-width="2"/><polygon points="322.81 136.08 322.81 155.16 327.33 159.68 327.33 174.06 98.54 174.06 98.54 109.72 108.5 109.72 113.01 114.23 128.58 114.23 133.09 109.72 327.33 109.72 327.33 131.56 322.81 136.08" fill="none" stroke="#fcb84d" stroke-miterlimit="10" stroke-width="2"/><polyline points="98.54 112.74 98.54 109.72 101.71 109.72" fill="none" stroke="#fff" stroke-miterlimit="10" stroke-width="2"/><polyline points="98.54 170.92 98.54 174.06 101.71 174.06" fill="none" stroke="#fff" stroke-miterlimit="10" stroke-width="2"/><polyline points="324.17 109.72 327.33 109.72 327.33 112.74" fill="none" stroke="#fff" stroke-miterlimit="10" stroke-width="2"/><polyline points="327.33 170.92 327.33 174.06 324.17 174.06" fill="none" stroke="#fff" stroke-miterlimit="10" stroke-width="2"/><polyline points="317.28 67.93 326.09 76.74 317.28 85.54" fill="none" stroke="#33c" stroke-linecap="round" stroke-linejoin="round" stroke-width="1.5"/><rect x="316.5" y="75.96" width="1.56" height="1.56" transform="translate(394.02 -240.54) rotate(90)" fill="#33c"/><path d="M288.07,71.32a.72.72,0,0,1-.25-.21A15.38,15.38,0,0,0,282,66a15.58,15.58,0,0,0-7.55-1.75.67.67,0,0,1-.69-.66.69.69,0,0,1,.66-.69,17,17,0,0,1,8.19,1.9,16.78,16.78,0,0,1,6.28,5.55.67.67,0,0,1-.16.94.69.69,0,0,1-.69,0Zm-20.38-2.54a.68.68,0,0,1-.29-.29.66.66,0,0,1,.28-.9A14,14,0,0,1,274.2,66a15.54,15.54,0,0,1,12.36,6.35,14.06,14.06,0,0,1,2.49,6.2.67.67,0,0,1-.57.76.68.68,0,0,1-.77-.57,12.66,12.66,0,0,0-2.24-5.61,14.18,14.18,0,0,0-11.27-5.78,12.59,12.59,0,0,0-5.89,1.46.68.68,0,0,1-.62,0Zm.05,18.31a.7.7,0,0,1-.33-.4,13.88,13.88,0,0,1-.78-4.4A12,12,0,0,1,268,76.44a7.64,7.64,0,0,1,13.57,7,.68.68,0,0,1-.9.3.69.69,0,0,1-.3-.91,6.29,6.29,0,0,0-11.17-5.75A10.68,10.68,0,0,0,268,82.24a12.5,12.5,0,0,0,.72,4,.66.66,0,0,1-.44.84.64.64,0,0,1-.51,0Zm9.72,2.2a7.3,7.3,0,0,1-3.16-3,7.17,7.17,0,0,1-.14-6.72.69.69,0,0,1,.91-.3.68.68,0,0,1,.29.91,5.84,5.84,0,0,0,2.72,7.88,8.55,8.55,0,0,0,1.31.53.68.68,0,1,1-.4,1.29,10.19,10.19,0,0,1-1.53-.62Zm-3.68,1.23a.56.56,0,0,1-.15-.1,10.34,10.34,0,0,1-3.15-4.81,9.88,9.88,0,0,1,.63-7.59,4.15,4.15,0,0,1,7.37,3.8,2.81,2.81,0,0,0,5,2.57A9.52,9.52,0,0,0,279,71.73a9.84,9.84,0,0,0-10.4.75,8.72,8.72,0,0,0-2.43,3,13.68,13.68,0,0,0-1.43,4.73.67.67,0,0,1-.75.59.68.68,0,0,1-.59-.75A15.21,15.21,0,0,1,265,74.86a10,10,0,0,1,2.81-3.45,11.19,11.19,0,0,1,11.83-.87c5.44,2.8,7.71,9.29,5,14.47a4.15,4.15,0,0,1-7.37-3.8,2.81,2.81,0,0,0-5-2.57,8.56,8.56,0,0,0-.54,6.56,9.16,9.16,0,0,0,2.79,4.23.67.67,0,0,1-.76,1.09Z" fill="#33c"/></svg>